<svg width="138" height="48" viewBox="0 0 138 48" fill="none" xmlns="http://www.w3.org/2000/svg">
<path d="M55.4822 7.35284C53.3106 7.44514 51.1672 7.9297 49.2033 8.80909C48.2214 9.24495 47.283 9.77566 46.4062 10.391C45.5294 11.0063 44.709 11.7011 43.968 12.4702L43.427 13.0599C43.2578 13.265 43.0835 13.4676 42.9143 13.6752C42.7553 13.888 42.5887 14.0983 42.4323 14.3136C42.281 14.5341 42.1272 14.7495 41.981 14.9725C41.3991 15.8648 40.9068 16.8159 40.512 17.803C40.1171 18.7901 39.812 19.813 39.6146 20.8591C39.4146 21.9026 39.3198 22.9666 39.3275 24.0305C39.3326 25.0945 39.4377 26.156 39.6454 27.1994C39.8531 28.2429 40.1684 29.2633 40.5735 30.2453C40.976 31.2298 41.4785 32.1733 42.0682 33.0629C42.2169 33.2834 42.3733 33.4988 42.5271 33.7167C42.6861 33.9295 42.8553 34.1372 43.0168 34.3499C43.186 34.5551 43.3629 34.7576 43.5347 34.9601L44.0808 35.5447C44.8295 36.3062 45.655 36.9933 46.537 37.6009C47.4189 38.2085 48.3624 38.7315 49.3495 39.1571C51.3211 40.0186 53.467 40.4852 55.6411 40.557C53.467 40.6493 51.2647 40.2775 49.2136 39.4904C48.1881 39.093 47.2036 38.5931 46.2729 38.0008C45.3422 37.4086 44.4756 36.7164 43.6783 35.9498L43.0963 35.3601C42.9117 35.155 42.7245 34.9499 42.5425 34.7422C42.3682 34.5269 42.1938 34.3141 42.0221 34.0936C41.8605 33.8705 41.6939 33.6475 41.5349 33.4218C40.9068 32.5091 40.3684 31.5323 39.9325 30.5145C39.0608 28.4737 38.6122 26.2534 38.5942 24.0331C38.5917 21.8128 39.0198 19.59 39.8736 17.5389C40.7299 15.493 41.9862 13.6137 43.5681 12.0677C44.3577 11.2934 45.2191 10.5935 46.1421 9.99358C47.0677 9.39365 48.0471 8.88344 49.07 8.47836C51.1134 7.67075 53.3132 7.28106 55.4873 7.35284L55.4822 7.35284Z" fill="url(#paint0_linear_110_3419)"/>
<path d="M55.4614 2.98674C52.7181 3.11493 50.0158 3.73281 47.5417 4.85064C46.3034 5.40443 45.1215 6.07358 44.0165 6.85299C43.7421 7.04784 43.4755 7.25807 43.2037 7.45549C42.9397 7.66316 42.6807 7.88108 42.4192 8.09388C42.1654 8.31694 41.9167 8.54512 41.6654 8.76817L40.9476 9.47835L40.2656 10.2244C40.0502 10.4834 39.8323 10.7398 39.6221 11.0013C39.4221 11.2705 39.2119 11.5345 39.0144 11.8063C38.8247 12.0832 38.6299 12.3575 38.4453 12.6396C37.7171 13.7676 37.0941 14.9624 36.5968 16.2084C35.5969 18.6953 35.0918 21.3745 35.1046 24.0537C35.1097 25.3946 35.2456 26.7329 35.5097 28.0456C35.7686 29.3583 36.1609 30.6453 36.6711 31.8862C37.1787 33.1271 37.8146 34.3142 38.553 35.4371C38.7401 35.7166 38.9375 35.9883 39.1272 36.2627C39.3272 36.5319 39.5375 36.7934 39.7426 37.0626C39.9579 37.3215 40.1759 37.5753 40.3938 37.8343L41.0809 38.5727C42.0218 39.5367 43.0653 40.4007 44.1754 41.1698C45.2856 41.939 46.4752 42.5979 47.7186 43.1389C50.203 44.2336 52.9104 44.8259 55.6563 44.9284C52.9104 45.054 50.1235 44.5951 47.5289 43.6055C46.2316 43.1081 44.983 42.4774 43.8037 41.7288C42.6243 40.9827 41.527 40.1084 40.5168 39.1393C38.4965 37.201 36.8736 34.8449 35.7712 32.2631C35.2174 30.9709 34.7995 29.6224 34.5124 28.2456C34.2303 26.8688 34.0842 25.4638 34.0739 24.0563C34.0739 22.6513 34.2021 21.2438 34.4739 19.8644C34.7482 18.4851 35.1533 17.1314 35.6943 15.8366C36.7737 13.2446 38.3761 10.8731 40.3784 8.91688C41.3783 7.94006 42.4679 7.05297 43.6396 6.29664C44.8113 5.54031 46.0522 4.89679 47.3469 4.38659C49.9338 3.37387 52.7155 2.88675 55.4614 2.98674Z" fill="url(#paint1_linear_110_3419)"/>
<path d="M48.9619 8.69941C47.8184 6.9355 46.7186 5.22029 45.7392 3.66405C46.0084 3.56662 46.252 3.5897 46.4417 3.79224C46.5494 3.71533 46.6442 3.64611 46.7801 3.54612C46.6493 3.45638 46.5494 3.36665 46.4289 3.31281C46.1417 3.18974 45.8212 3.26922 45.5084 3.38459C45.4392 3.2923 45.3802 3.21282 45.2854 3.08719C45.6059 2.90516 45.8956 2.73851 46.1289 2.60263C46.0827 2.45393 46.052 2.35394 46.0161 2.22831C45.7033 2.44367 45.429 2.62826 45.1803 2.79747C45.1085 2.7103 45.0444 2.63339 44.9623 2.53597C45.47 2.20267 45.952 1.87963 46.393 1.58222C46.075 1.02587 45.7751 0.495164 45.5059 0.000343974C45.3726 0.0849511 45.2367 0.16699 45.0572 0.277235C45.3033 0.682319 45.552 1.09253 45.7956 1.4848C45.4367 1.7258 45.0931 1.95398 44.7572 2.17191C44.6829 2.06166 44.5957 1.93347 44.5034 1.80015C44.6342 1.70785 44.7572 1.62068 44.8495 1.55402C44.7957 1.43609 44.747 1.33353 44.6855 1.19765C44.5547 1.30533 44.4419 1.39507 44.3137 1.49762C44.2547 1.41301 44.2163 1.35917 44.1727 1.29764C44.3342 1.18483 44.4624 1.09253 44.5547 1.02843C44.506 0.910498 44.465 0.813072 44.4291 0.723338C43.9881 1.01305 43.5574 1.29251 43.1523 1.54889C43.1984 1.64632 43.2471 1.74631 43.2984 1.84886C43.4394 1.76169 43.5625 1.68734 43.6958 1.6053C43.7368 1.67708 43.7702 1.73605 43.8061 1.79758C43.6574 1.90014 43.524 1.98731 43.4215 2.05653C43.483 2.16678 43.5343 2.26164 43.5958 2.36932C43.7291 2.28728 43.8625 2.20267 43.9881 2.12575C44.083 2.26676 44.1727 2.39752 44.2445 2.5052C43.8984 2.73082 43.5625 2.94618 43.1651 3.19744C42.9138 2.78979 42.6626 2.38214 42.4242 1.98987C42.2703 2.08986 42.137 2.17447 42.0139 2.25394C42.3498 2.73594 42.6985 3.23846 43.0702 3.7743C43.524 3.49484 44.0035 3.19231 44.4727 2.89234C44.5316 2.96926 44.5932 3.04873 44.6803 3.15898C44.388 3.33075 44.124 3.48458 43.8702 3.63072C43.9317 3.74865 43.9804 3.84095 44.0471 3.96915C44.324 3.77429 44.5752 3.59739 44.8188 3.42305C45.0213 3.65892 45.0213 3.66149 44.8162 3.92812C44.5342 4.29475 44.4803 4.6742 44.688 4.91777C44.7854 4.8588 44.8854 4.79727 44.9803 4.74086C44.9188 4.38449 44.9777 4.21527 45.1828 4.04862C46.1699 5.59205 47.2724 7.297 48.4133 9.05322C48.585 8.9199 48.7671 8.7994 48.9594 8.69941L48.9619 8.69941Z" fill="url(#paint2_linear_110_3419)"/>
<path d="M36.656 14.8288C35.251 13.9648 33.8358 13.0957 32.4077 12.2214C32.8103 11.5856 33.2256 10.9703 33.6563 10.3678C33.1692 10.1037 32.6975 9.85242 32.2231 9.60373C32.1514 9.70115 32.0898 9.78576 32.018 9.88575C32.377 10.078 32.7257 10.2678 33.0769 10.4626C32.9282 10.6728 32.7923 10.8677 32.6487 11.0805C32.2898 10.8754 31.9437 10.678 31.6027 10.4831C31.5309 10.5882 31.4694 10.678 31.4002 10.7831C31.7591 10.9908 32.1026 11.1933 32.4462 11.3933C32.3052 11.6061 32.1796 11.8009 32.0437 12.0163C31.6822 11.7958 31.3309 11.5804 30.9797 11.3651C30.913 11.4702 30.8566 11.5574 30.7925 11.6625C31.1515 11.8881 31.5001 12.106 31.8488 12.3239C31.7129 12.5444 31.5899 12.747 31.4566 12.9675C31.1104 12.7419 30.7746 12.5214 30.4413 12.3009C30.3798 12.406 30.3259 12.4957 30.2618 12.6085C30.6054 12.8393 30.9412 13.0649 31.2745 13.2854C31.1438 13.511 31.0284 13.7135 30.9079 13.934C30.5695 13.7007 30.2439 13.4725 29.9157 13.2392C29.8567 13.3495 29.8055 13.4443 29.7542 13.5418C30.2003 13.8648 30.6387 14.175 31.0874 14.493C31.4489 13.8315 31.8206 13.1956 32.2103 12.5649C33.623 13.4495 35.0331 14.3263 36.4329 15.1929C36.4612 15.139 36.4919 15.0826 36.5253 15.0288C36.5688 14.9596 36.615 14.8929 36.6611 14.8262L36.656 14.8288Z" fill="url(#paint3_linear_110_3419)"/>
<path d="M42.0324 12.4982C42.0324 12.3982 42.0324 12.2956 42.0324 12.1956C42.2606 12.17 42.4683 12.0803 42.6375 11.9444C42.7093 12.0162 42.7811 12.088 42.8554 12.1572C42.9246 12.0982 42.9887 12.0341 43.0477 11.9623C42.9759 11.8905 42.9041 11.8213 42.8298 11.7495C42.9631 11.5778 43.0503 11.3701 43.0708 11.1419C43.1708 11.1419 43.2733 11.1419 43.3733 11.1419C43.3759 11.1034 43.3784 11.065 43.3784 11.0265C43.3784 10.9932 43.3784 10.9599 43.3733 10.9265C43.2733 10.9265 43.1708 10.9265 43.0708 10.9265C43.0503 10.6984 42.9631 10.4881 42.8323 10.3189C42.9041 10.2471 42.9759 10.1753 43.0477 10.1035C42.9887 10.0292 42.9221 9.96254 42.8477 9.90357C42.7759 9.97535 42.7067 10.0471 42.6349 10.1189C42.4631 9.98305 42.2529 9.89332 42.0222 9.87024C42.0222 9.77025 42.0222 9.6677 42.0222 9.56771C41.9837 9.56514 41.9427 9.56258 41.9042 9.56258C41.8735 9.56258 41.8427 9.56258 41.8119 9.56515C41.8119 9.66514 41.8119 9.76769 41.8119 9.86768C41.5761 9.88819 41.3633 9.97536 41.1863 10.1138C41.1146 10.042 41.0428 9.97023 40.971 9.89844C40.9018 9.95485 40.8377 10.0189 40.7787 10.0907C40.8505 10.1625 40.9223 10.2343 40.9941 10.3061C40.8531 10.483 40.7607 10.7009 40.7428 10.9394C40.6428 10.9394 40.5403 10.9394 40.4403 10.9394C40.4403 10.9727 40.4377 11.006 40.4377 11.0393C40.4377 11.0778 40.4377 11.1188 40.4428 11.1573C40.5428 11.1573 40.6454 11.1573 40.7454 11.1573C40.771 11.3932 40.8659 11.6085 41.0094 11.7829C40.9377 11.8546 40.8659 11.9264 40.7966 11.9982C40.8556 12.0674 40.9223 12.129 40.9915 12.1854C41.0633 12.1136 41.1351 12.0418 41.2043 11.97C41.3786 12.1008 41.5889 12.1828 41.817 12.2008C41.817 12.3008 41.817 12.4033 41.817 12.5033C41.8478 12.5033 41.8786 12.5059 41.9093 12.5059C41.9504 12.5059 41.9914 12.5059 42.0298 12.5007L42.0324 12.4982ZM42.8503 10.9291C42.64 10.9291 42.4324 10.9291 42.2247 10.9291C42.376 10.7778 42.5272 10.624 42.6759 10.4727C42.7708 10.6035 42.8323 10.7573 42.8503 10.9265L42.8503 10.9291ZM42.476 10.2753C42.3247 10.4292 42.1734 10.5804 42.0222 10.7343C42.0222 10.5189 42.0222 10.3061 42.0196 10.0907C42.1888 10.1112 42.3478 10.1779 42.4785 10.2753L42.476 10.2753ZM41.3376 10.2702C41.4709 10.1702 41.6325 10.1061 41.8068 10.0882C41.8068 10.3061 41.8068 10.524 41.8068 10.7394C41.6478 10.583 41.4914 10.4266 41.335 10.2702L41.3376 10.2702ZM41.1453 10.4599C41.3043 10.6189 41.4632 10.7753 41.6222 10.9342C41.4017 10.9342 41.1787 10.9342 40.9556 10.9368C40.9736 10.7573 41.0402 10.5932 41.1428 10.4574L41.1453 10.4599ZM42.4785 11.7905C42.3503 11.888 42.1965 11.9546 42.0298 11.9751C42.0298 11.7623 42.0298 11.5521 42.0273 11.3444C42.1785 11.4931 42.3273 11.6418 42.4785 11.7905ZM42.2144 11.1496C42.4247 11.1496 42.6349 11.1496 42.8477 11.147C42.8272 11.3137 42.7657 11.4701 42.6682 11.5983C42.517 11.4496 42.3657 11.3009 42.2144 11.1496ZM40.9607 11.1573C41.1838 11.1573 41.4068 11.1573 41.6299 11.1547C41.4735 11.3137 41.3171 11.4701 41.1607 11.6265C41.0556 11.4931 40.9838 11.3316 40.9607 11.1573ZM41.3581 11.8136C41.5094 11.6598 41.6607 11.5085 41.8119 11.3547C41.8119 11.5624 41.8119 11.7726 41.8145 11.9828C41.6453 11.9675 41.4889 11.9059 41.3581 11.8136Z" fill="url(#paint4_linear_110_3419)"/>
<path d="M49.1033 39.2702C47.9778 41.0443 46.8933 42.7698 45.9267 44.3337C46.1959 44.4286 46.442 44.4029 46.6266 44.2004C46.7343 44.2773 46.8292 44.344 46.9676 44.4414C46.8368 44.5311 46.7394 44.6234 46.6189 44.6773C46.3343 44.8029 46.0113 44.726 45.6985 44.6132C45.6319 44.7055 45.5703 44.785 45.478 44.9131C45.7985 45.0926 46.0908 45.2567 46.3241 45.39C46.2805 45.5387 46.2497 45.6387 46.2138 45.7669C45.8985 45.5541 45.6242 45.3721 45.3729 45.2054C45.3011 45.2926 45.237 45.3695 45.1575 45.4695C45.6703 45.7977 46.1549 46.1156 46.5984 46.4104C46.2856 46.9693 45.9908 47.5052 45.7267 48C45.5908 47.918 45.4549 47.8359 45.2755 47.7257C45.5165 47.318 45.7626 46.9078 46.0036 46.5104C45.6447 46.2745 45.296 46.0489 44.9576 45.8336C44.8832 45.9438 44.7986 46.072 44.7089 46.2079C44.8422 46.3002 44.9627 46.3848 45.0576 46.4489C45.0037 46.5668 44.9576 46.6694 44.896 46.8053C44.7627 46.7001 44.6499 46.6104 44.5217 46.5078C44.4627 46.5925 44.4268 46.6463 44.3833 46.7078C44.5448 46.8181 44.6755 46.9104 44.7678 46.9745C44.7191 47.0924 44.6807 47.1924 44.6448 47.2796C44.2012 46.9924 43.7679 46.7181 43.3603 46.4668C43.4064 46.3694 43.4552 46.2694 43.5039 46.1643C43.6449 46.2489 43.7679 46.3233 43.9013 46.4053C43.9423 46.3335 43.9756 46.2745 44.0089 46.2104C43.8577 46.1105 43.7269 46.0233 43.6244 45.9541C43.6859 45.8413 43.7372 45.749 43.7961 45.6413C43.932 45.7233 44.0653 45.8054 44.191 45.8797C44.2858 45.7361 44.373 45.6054 44.4448 45.4977C44.0961 45.2746 43.7577 45.0618 43.3603 44.8157C43.1116 45.2259 42.8655 45.6336 42.6296 46.031C42.4758 45.9335 42.3399 45.8489 42.2168 45.7695C42.5501 45.2823 42.8937 44.7798 43.2577 44.2389C43.7141 44.5158 44.1961 44.8132 44.6678 45.108C44.7268 45.0311 44.7884 44.9516 44.873 44.8414C44.5807 44.6721 44.3115 44.5209 44.0602 44.3773C44.1218 44.2568 44.1679 44.1671 44.2346 44.0363C44.514 44.2286 44.7653 44.4029 45.0114 44.5747C45.2114 44.3363 45.2114 44.3337 45.0037 44.0696C44.7191 43.7056 44.6602 43.3261 44.8678 43.0826C44.9652 43.1415 45.0652 43.2005 45.1627 43.2569C45.1037 43.6133 45.1627 43.7825 45.3729 43.9466C46.3446 42.3955 47.4317 40.6777 48.5572 38.9138C48.729 39.0471 48.9135 39.1625 49.1084 39.2625L49.1033 39.2702Z" fill="url(#paint5_linear_110_3419)"/>
<path d="M36.7407 33.2579C35.3434 34.1348 33.9359 35.0167 32.5155 35.9038C32.9232 36.5345 33.3436 37.1473 33.7795 37.7446C33.2924 38.0138 32.8258 38.2677 32.354 38.5215C32.2797 38.4241 32.2181 38.3394 32.1463 38.242C32.5027 38.0446 32.8488 37.8523 33.2001 37.6549C33.0488 37.4472 32.9129 37.2524 32.7668 37.0396C32.4104 37.2498 32.0643 37.4498 31.7259 37.6472C31.6515 37.5421 31.59 37.4549 31.5182 37.3498C31.8746 37.137 32.2156 36.9345 32.5566 36.7294C32.4155 36.5191 32.2848 36.3243 32.1463 36.1115C31.7874 36.3371 31.4387 36.555 31.0875 36.773C31.0208 36.6678 30.9644 36.5807 30.8978 36.4781C31.2541 36.2499 31.6028 36.0269 31.9489 35.8064C31.8105 35.5885 31.6849 35.3859 31.5515 35.1654C31.2054 35.3962 30.8747 35.6167 30.5414 35.8397C30.4773 35.7346 30.426 35.6449 30.3593 35.5346C30.7003 35.3013 31.0336 35.0731 31.3644 34.8475C31.2311 34.6245 31.1157 34.4219 30.9901 34.2014C30.6542 34.4399 30.3312 34.6706 30.003 34.9039C29.9414 34.7937 29.8902 34.6988 29.8389 34.6014C30.2824 34.2758 30.7157 33.9604 31.1644 33.64C31.531 34.2963 31.9079 34.9296 32.3053 35.5577C33.7103 34.6604 35.1127 33.7707 36.5023 32.8913C36.5331 32.9452 36.5638 33.0016 36.5971 33.0528C36.6407 33.1221 36.6869 33.1887 36.7356 33.2528L36.7407 33.2579Z" fill="url(#paint6_linear_110_3419)"/>
<path d="M42.019 35.5319C41.9882 35.5319 41.9574 35.5319 41.9267 35.5345C41.9267 35.6345 41.9267 35.7371 41.9267 35.837C41.6985 35.855 41.4883 35.9422 41.3139 36.0729C41.2421 36.0011 41.1703 35.9293 41.0985 35.8575C41.0293 35.914 40.9627 35.978 40.9037 36.0473C40.9755 36.1191 41.0473 36.1883 41.1191 36.2601C40.9755 36.4344 40.8832 36.6523 40.8601 36.8882C40.7601 36.8882 40.6576 36.8882 40.5576 36.8882C40.555 36.9267 40.5525 36.9651 40.5525 37.0061C40.5525 37.0395 40.5524 37.0728 40.5576 37.1061C40.6576 37.1061 40.7601 37.1061 40.8601 37.1061C40.8806 37.3446 40.9755 37.5625 41.1165 37.7394C41.0447 37.8112 40.9729 37.883 40.9037 37.9548C40.9627 38.024 41.0268 38.0881 41.096 38.1445C41.1678 38.0727 41.237 38.0009 41.3088 37.9266C41.4857 38.0624 41.701 38.1496 41.9369 38.1676C41.9369 38.2675 41.9369 38.3701 41.9369 38.4701C41.9677 38.4701 41.9985 38.4727 42.0292 38.4727C42.0677 38.4727 42.1087 38.4727 42.1472 38.4675C42.1472 38.3675 42.1472 38.265 42.1472 38.165C42.3779 38.1419 42.5881 38.0496 42.7573 37.9112C42.8291 37.983 42.9009 38.0548 42.9727 38.1265C43.0445 38.065 43.1112 37.9983 43.1701 37.924L42.9548 37.7086C43.0855 37.5369 43.1701 37.3266 43.1881 37.0984C43.2881 37.0984 43.3906 37.0984 43.4906 37.0984C43.4906 37.0651 43.4932 37.0318 43.4932 36.9985C43.4932 36.96 43.4932 36.9215 43.488 36.8831C43.3881 36.8831 43.2855 36.8831 43.1855 36.8831C43.1624 36.6549 43.0727 36.4472 42.9368 36.278C43.0086 36.2062 43.0804 36.1344 43.1522 36.0627C43.0932 35.9934 43.0291 35.9293 42.9599 35.8704C42.8881 35.9422 42.8163 36.0139 42.7445 36.0857C42.5753 35.9524 42.3651 35.8627 42.1369 35.8396C42.1369 35.7396 42.1369 35.6371 42.1369 35.5371C42.0959 35.5345 42.0574 35.5319 42.0164 35.5319L42.019 35.5319ZM42.8009 37.5522C42.6497 37.4035 42.4984 37.2523 42.3446 37.101C42.5522 37.101 42.7599 37.101 42.9701 37.0984C42.9522 37.2677 42.8932 37.4215 42.7984 37.5522L42.8009 37.5522ZM42.1497 37.9445C42.1497 37.7291 42.1497 37.5138 42.1497 37.301C42.3036 37.4523 42.4548 37.6061 42.6086 37.7573C42.4779 37.8573 42.3215 37.924 42.1523 37.9471L42.1497 37.9445ZM41.9344 37.2959C41.9344 37.5112 41.9344 37.7291 41.9395 37.9471C41.7651 37.9317 41.6036 37.8676 41.4677 37.7676C41.6241 37.6112 41.778 37.4523 41.9344 37.2933L41.9344 37.2959ZM41.0806 37.1036C41.3037 37.1036 41.5241 37.1036 41.7472 37.101C41.5882 37.26 41.4318 37.4215 41.2729 37.5804C41.1678 37.4446 41.0985 37.283 41.0806 37.1036ZM42.1472 36.6857C42.1472 36.478 42.1472 36.2678 42.1446 36.055C42.3112 36.0755 42.4651 36.1396 42.5958 36.237C42.4471 36.3857 42.2984 36.537 42.1497 36.6857L42.1472 36.6857ZM42.7855 36.4267C42.883 36.5549 42.9471 36.7087 42.9676 36.878C42.7548 36.878 42.5446 36.878 42.3343 36.878C42.4856 36.7267 42.6343 36.5754 42.7855 36.4242L42.7855 36.4267ZM41.278 36.4113C41.4344 36.5677 41.5934 36.7241 41.7523 36.8805C41.5293 36.8805 41.3062 36.8805 41.0832 36.8831C41.1037 36.7062 41.1729 36.5447 41.278 36.4113ZM41.9292 36.0498C41.9292 36.2601 41.9292 36.4703 41.9292 36.678C41.7754 36.5267 41.6241 36.3754 41.4703 36.2242C41.6011 36.1293 41.7574 36.0678 41.9267 36.0498L41.9292 36.0498Z" fill="url(#paint7_linear_110_3419)"/>
<path d="M33.9434 24.0563L27.4082 30.9555L24.0752 34.4475C22.9599 35.614 21.8318 36.7754 20.7063 37.942L20.4525 38.2061L20.1833 37.9445C19.0347 36.8344 17.8861 35.7217 16.7452 34.6013L13.3148 31.2504L9.89721 27.8866L6.48219 24.5203L6.14121 24.1845L6.47707 23.846L13.243 17.0519L16.6426 13.6702L18.3425 11.9807L20.05 10.2962L20.3166 10.0321L20.573 10.2937C21.7088 11.4474 22.8497 12.5985 23.9752 13.7548L27.3389 17.216L33.9357 24.0563L33.9434 24.0563ZM33.9434 24.0563L26.9159 17.398L23.4676 14.1086C22.3215 13.0164 21.1909 11.9166 20.0577 10.8218L20.5832 10.8218L18.9168 12.5421L17.2426 14.2573L13.8917 17.6877L7.15905 24.5178L7.15905 23.8435L10.5536 27.2252L13.9481 30.6094L17.3298 34.0091C18.4604 35.1397 19.5808 36.2781 20.7037 37.4164L20.1807 37.4164C21.3037 36.314 22.4241 35.2038 23.5599 34.0988L26.9774 30.7786L33.9408 24.0537L33.9434 24.0563Z" fill="url(#paint8_linear_110_3419)"/>
<path d="M38.6172 24.0356L33.4741 29.5324L30.836 32.3218C29.954 33.2551 29.0567 34.1832 28.1619 35.1139L27.9106 35.3779L27.6389 35.1164C26.7236 34.237 25.8083 33.3576 24.9033 32.4705L22.1754 29.8144C21.2652 28.9299 20.3653 28.0351 19.4603 27.1455L16.7477 24.474L16.4067 24.1381L16.7426 23.7997L22.1189 18.4079L24.8212 15.7262L26.1724 14.3853L27.5312 13.0521L27.8004 12.788L28.0568 13.0496C28.9592 13.9725 29.8643 14.8904 30.7565 15.8159L33.4203 18.5823L38.6146 24.033L38.6172 24.0356ZM38.6172 24.0356L32.9921 18.7669L30.2463 16.1723C29.3361 15.3108 28.4388 14.4443 27.5363 13.5803L28.0619 13.5803L26.7415 14.9493L25.4135 16.3133L22.7573 19.0412L17.4169 24.4688L17.4169 23.7971L20.1115 26.484C21.0088 27.3813 21.9113 28.2736 22.8061 29.1735L25.4878 31.8757C26.3826 32.7756 27.2722 33.6807 28.1593 34.5883L27.6363 34.5883C28.5285 33.7191 29.4182 32.8423 30.3206 31.9732L33.0434 29.3529L38.6172 24.033L38.6172 24.0356Z" fill="url(#paint9_linear_110_3419)"/>
<path d="M74.1982 23.8694L70.0577 28.2407L67.9451 30.4533C67.24 31.1942 66.5221 31.9275 65.8094 32.6659L65.6479 32.8325L65.4761 32.6684C64.748 31.9634 64.0198 31.2609 63.2968 30.5507L61.1227 28.4279L58.9588 26.2973L56.795 24.1642L56.5796 23.9514L56.7924 23.7361L61.0791 19.4314L63.2327 17.288L64.3096 16.2163L65.3915 15.1498L65.5607 14.9831L65.7248 15.1498C66.4452 15.8805 67.1682 16.6112 67.881 17.3444L70.0115 19.5365L74.1906 23.8694L74.1982 23.8694ZM74.1982 23.8694L69.7449 19.6493L67.5605 17.5649C66.8349 16.8727 66.1196 16.1753 65.3992 15.4831L65.7325 15.4831L64.6762 16.5727L63.6148 17.6598L61.4919 19.8339L57.2257 24.1616L57.2257 23.7361L59.3768 25.8794L61.5278 28.0253L63.6712 30.179C64.3865 30.8943 65.0992 31.6173 65.8094 32.3377L65.4787 32.3377C66.1914 31.6378 66.9016 30.9353 67.6195 30.2354L69.7833 28.1305L74.1957 23.8694L74.1982 23.8694Z" fill="url(#paint10_linear_110_3419)"/>
<path d="M77.1617 23.8566L73.9031 27.3408L72.2315 29.1073C71.6726 29.6995 71.1034 30.2866 70.5368 30.8763L70.3778 31.043L70.2061 30.8789C69.6266 30.3225 69.0472 29.7636 68.4729 29.2021L66.7449 27.5203C66.168 26.9588 65.5989 26.3922 65.0246 25.8281L63.3068 24.136L63.0915 23.9232L63.3042 23.7079L66.7116 20.2928L68.4242 18.593L69.2805 17.7444L70.142 16.9009L70.3138 16.7342L70.4753 16.9009C71.047 17.4854 71.6213 18.0674 72.1854 18.6545L73.8724 20.4082L77.1617 23.8617L77.1617 23.8566ZM77.1617 23.8566L73.598 20.5185L71.8572 18.875C71.2803 18.3289 70.7111 17.7803 70.142 17.2316L70.4753 17.2316L69.6395 18.0982L68.7985 18.9622L67.1167 20.6902L63.7324 24.1283L63.7324 23.7027L65.4399 25.4051C66.0091 25.9743 66.5808 26.5383 67.1474 27.1101L68.8472 28.8227C69.4138 29.3919 69.9779 29.9662 70.5394 30.5405L70.2086 30.5405C70.7752 29.9892 71.3367 29.4354 71.911 28.8842L73.6365 27.2254L77.1694 23.854L77.1617 23.8566Z" fill="url(#paint11_linear_110_3419)"/>
<path d="M0.795807 24.2104C8.85905 23.9258 16.9249 23.7592 24.9881 23.6361L28.0134 23.5874L31.0387 23.5515L37.0868 23.4823L49.1829 23.3925L61.2791 23.3669L67.3271 23.3797L70.3525 23.3874L73.3778 23.4079C81.4436 23.4566 89.5094 23.5489 97.5752 23.7592C89.512 24.0437 81.4462 24.2104 73.3829 24.336L70.3576 24.3847L67.3323 24.4206L61.2842 24.4899L49.1881 24.577L37.0919 24.6001L31.0439 24.5873L28.0185 24.5796L24.9932 24.5591C16.9274 24.5078 8.86161 24.4181 0.795807 24.2078L0.795807 24.2104Z" fill="url(#paint12_linear_110_3419)"/>
<path d="M15.3454 27.3537C25.5315 27.0589 35.7176 26.8845 45.9062 26.7486L49.7263 26.6974L53.5464 26.6563L61.1867 26.5794L76.4671 26.4769L91.7475 26.4384L99.3877 26.4461L103.208 26.4512L107.028 26.4692C117.217 26.5102 127.403 26.5923 137.591 26.7922C127.405 27.0871 117.219 27.264 107.03 27.3973L103.21 27.4486L99.3903 27.4896L91.7501 27.5665L76.4696 27.6691L61.1892 27.7075L53.549 27.7024L49.7289 27.6973L45.9088 27.6793C35.7202 27.6383 25.5341 27.5562 15.3454 27.3588L15.3454 27.3537Z" fill="url(#paint13_linear_110_3419)"/>
<path d="M15.3171 20.9311C25.5057 21.1311 35.6944 21.2105 45.8805 21.2516L49.7006 21.2695L53.5207 21.2746L61.1609 21.2798L76.4413 21.2413L91.7217 21.1388L99.3619 21.0619L103.182 21.0208L107.002 20.9696C117.188 20.8362 127.377 20.6593 137.563 20.3645C127.374 20.1645 117.186 20.0825 107 20.0414L103.179 20.0235L99.3594 20.0184L91.7192 20.0107L76.4388 20.0491L61.1583 20.1517L53.5181 20.2286L49.698 20.2696L45.8779 20.3209C35.6918 20.4568 25.5032 20.6311 15.3171 20.926L15.3171 20.9311Z" fill="url(#paint14_linear_110_3419)"/>
<path d="M96.1063 9.4454C95.3423 8.6942 94.5988 7.9635 93.9117 7.29434C94.1732 7.06616 94.4552 7.02514 94.786 7.19436C94.8321 7.14308 94.8782 7.0918 94.9372 7.02514C94.8629 6.98156 94.8039 6.93541 94.7347 6.90977C94.4245 6.79696 94.1219 6.89439 93.8296 7.10719C93.7322 7.17898 93.6938 7.1559 93.645 7.05078C93.7835 6.92259 93.9296 6.78927 94.0681 6.66108C94.0065 6.59698 93.963 6.5534 93.8989 6.48674C93.7655 6.63544 93.6348 6.78414 93.5066 6.92515C93.4066 6.88669 93.4066 6.83285 93.4605 6.74312C93.5681 6.56109 93.5861 6.29189 93.4502 6.20216C93.4066 6.24574 93.3605 6.28933 93.3169 6.33035C93.381 6.48931 93.3733 6.56109 93.2835 6.69697C93.1554 6.57135 93.0272 6.44828 92.899 6.32265C93.1169 6.0996 93.3425 5.86373 93.5348 5.66119C93.3425 5.44839 93.1605 5.24584 93.0041 5.06637C92.9323 5.13047 92.8656 5.18944 92.7785 5.26635C92.922 5.4048 93.0656 5.54068 93.1989 5.66888C93.0349 5.84322 92.8759 6.00987 92.7016 6.18933C92.5657 6.04832 92.4298 5.90731 92.3016 5.77399C92.2144 5.8586 92.1375 5.93039 92.0478 6.01756C92.1939 6.14832 92.3426 6.28163 92.4836 6.40983C92.3067 6.58929 92.1401 6.75594 91.9504 6.94567C91.8068 6.80465 91.6658 6.66621 91.5325 6.53545C91.453 6.60724 91.3863 6.66877 91.3197 6.7303C91.5248 6.90465 91.7273 7.08155 91.9452 7.27384C92.0555 7.16615 92.176 7.05078 92.2913 6.93028C92.4067 6.81235 92.5195 6.68928 92.6221 6.5816C92.7657 6.71748 92.8913 6.83798 93.0195 6.96361C92.899 7.03796 92.7836 7.04053 92.6708 6.98412C92.6246 7.03283 92.5836 7.07642 92.54 7.12257C92.6682 7.24051 92.8605 7.2482 93.0707 7.1277C93.1733 7.06873 93.2195 7.08154 93.263 7.19692C93.122 7.32767 92.9733 7.46355 92.8272 7.59687C92.881 7.65328 92.922 7.69943 92.9887 7.77122C93.14 7.61226 93.281 7.46356 93.4246 7.31229L93.504 7.39946C93.1579 7.94299 93.1246 8.35577 93.4066 8.57113C93.4553 8.52242 93.504 8.4737 93.5553 8.42243C93.381 8.13015 93.4194 7.81993 93.645 7.56867C94.3347 8.23271 95.0834 8.96083 95.8474 9.70947C95.9269 9.61461 96.014 9.52488 96.1089 9.4454L96.1063 9.4454Z" fill="url(#paint15_linear_110_3419)"/>
<path d="M107.1 41.5492C104.764 41.6313 102.403 41.2236 100.209 40.3724C99.1112 39.9443 98.0549 39.4033 97.0627 38.7675C96.0679 38.1316 95.1398 37.3881 94.2886 36.5651C92.5863 34.9192 91.2223 32.9194 90.2891 30.7376C89.3584 28.5532 88.879 26.1765 88.861 23.8024C88.8559 21.4257 89.3148 19.0465 90.225 16.8544C90.6813 15.7571 91.2454 14.7085 91.9069 13.724C92.0735 13.4779 92.2504 13.2394 92.4196 12.9984C92.5991 12.7626 92.7837 12.5318 92.9683 12.2985C93.1606 12.0729 93.358 11.8524 93.5528 11.6294L94.1681 10.9884C95.0116 10.1577 95.9321 9.40651 96.9217 8.76043C97.9113 8.11434 98.9599 7.56312 100.055 7.1247C102.242 6.25044 104.6 5.82228 106.936 5.88381C104.603 5.96842 102.295 6.47862 100.178 7.41698C99.1189 7.88104 98.1062 8.45021 97.1601 9.10911C96.2141 9.77058 95.3296 10.5141 94.5271 11.3422L93.9425 11.9755C93.7579 12.196 93.5708 12.4139 93.3887 12.6369C93.217 12.8677 93.0375 13.0907 92.8657 13.3215C92.7042 13.5574 92.535 13.7907 92.376 14.0317C91.7479 14.9931 91.2146 16.0161 90.789 17.0801C90.3609 18.144 90.0327 19.2491 89.8173 20.3746C89.602 21.5001 89.4994 22.6487 89.5045 23.7947C89.5097 24.9408 89.6225 26.0868 89.8481 27.2123C90.0712 28.3378 90.4121 29.4377 90.8506 30.4966C91.2864 31.558 91.8299 32.5758 92.4683 33.5321C92.6273 33.7706 92.7991 34.0013 92.9631 34.2372C93.1349 34.4679 93.317 34.691 93.4913 34.9192C93.6759 35.1397 93.8631 35.3576 94.0502 35.5755L94.6399 36.2036C95.4475 37.0241 96.3397 37.7599 97.2935 38.4111C98.2446 39.0623 99.2625 39.6212 100.326 40.075C102.452 40.9929 104.764 41.4826 107.098 41.5441L107.1 41.5492Z" fill="url(#paint16_linear_110_3419)"/>
<path d="M96.2395 38.0909C95.4832 38.8498 94.7448 39.5857 94.0654 40.2625C94.3269 40.4881 94.6115 40.5266 94.9396 40.3548C94.9858 40.4035 95.0319 40.4548 95.0935 40.5215C95.0217 40.565 94.9602 40.6138 94.8909 40.6394C94.5807 40.7573 94.2782 40.6599 93.9833 40.4497C93.8833 40.3779 93.8449 40.4035 93.7987 40.5086C93.9397 40.6343 94.0859 40.765 94.2243 40.8932C94.1628 40.9573 94.1192 41.0035 94.0577 41.0676C93.9244 40.9188 93.791 40.7727 93.6603 40.6317C93.5603 40.6702 93.5629 40.7266 93.6167 40.8163C93.7269 40.9958 93.7475 41.2675 93.6116 41.3573C93.568 41.3137 93.5218 41.2701 93.4783 41.2291C93.5398 41.0701 93.5321 40.9958 93.4424 40.8624C93.3142 40.9881 93.1885 41.1137 93.0604 41.2393C93.2808 41.4598 93.509 41.6931 93.7013 41.8957C93.509 42.111 93.3296 42.3161 93.1757 42.4956C93.1039 42.4315 93.0347 42.3725 92.9501 42.2982C93.0937 42.1597 93.2347 42.0213 93.3655 41.8931C93.1988 41.7188 93.0398 41.5572 92.8629 41.3778C92.7296 41.5188 92.5937 41.6624 92.4655 41.7957C92.3758 41.7111 92.3015 41.6393 92.2092 41.5547C92.3553 41.4214 92.5014 41.288 92.6424 41.1573C92.4655 40.9804 92.2963 40.8137 92.104 40.6266C91.9605 40.7701 91.822 40.9086 91.6887 41.0419C91.6092 40.9701 91.5426 40.9112 91.4733 40.8496C91.6759 40.6727 91.8784 40.4933 92.0938 40.301C92.204 40.4086 92.3271 40.5215 92.445 40.642C92.563 40.7599 92.6758 40.8804 92.7783 40.9881C92.9193 40.8496 93.045 40.7291 93.1732 40.6009C93.0527 40.5266 92.9347 40.5266 92.8245 40.583C92.7783 40.5368 92.7347 40.4907 92.6937 40.4471C92.8194 40.3292 93.0142 40.3189 93.2244 40.4369C93.327 40.4933 93.3757 40.4804 93.4167 40.3676C93.2757 40.2369 93.1244 40.1036 92.9783 39.9702C93.0296 39.9138 93.0732 39.8651 93.1373 39.7959C93.2911 39.9523 93.4321 40.101 93.5782 40.2497C93.609 40.2138 93.6347 40.1882 93.6577 40.1625C93.309 39.6241 93.268 39.2088 93.55 38.9934C93.5988 39.0421 93.65 39.0908 93.6987 39.1395C93.527 39.4344 93.568 39.7446 93.7987 39.9933C94.4833 39.3216 95.2242 38.5883 95.9806 37.832C96.06 37.9269 96.1472 38.014 96.2446 38.0935L96.2395 38.0909Z" fill="url(#paint17_linear_110_3419)"/>
<path d="M82.5975 44.8159C82.336 41.3189 82.1898 37.8218 82.0873 34.3247C81.977 30.8277 81.9258 27.3306 81.9053 23.8335C81.8899 20.3365 81.9078 16.8394 81.9873 13.3398C82.0591 9.84273 82.1719 6.3431 82.4026 2.84604C82.6667 6.3431 82.8129 9.84016 82.9154 13.3372C83.0256 16.8343 83.0769 20.3314 83.0949 23.8284C83.1077 27.3255 83.0897 30.8225 83.0103 34.3222C82.9385 37.8192 82.8257 41.3189 82.5975 44.8159Z" fill="url(#paint18_linear_110_3419)"/>
<defs>
<linearGradient id="paint0_linear_110_3419" x1="38.573" y1="24.0845" x2="55.5428" y2="24.0074" gradientUnits="userSpaceOnUse">
<stop stop-color="#A4692A"/>
<stop offset="0.07" stop-color="#E1B453"/>
<stop offset="0.12" stop-color="#D4A245"/>
<stop offset="0.17" stop-color="#BB8332"/>
<stop offset="0.23" stop-color="#B17B32"/>
<stop offset="0.33" stop-color="#BE8C3C"/>
<stop offset="0.41" stop-color="#D3B15F"/>
<stop offset="0.52" stop-color="#FAF0A0"/>
<stop offset="0.59" stop-color="#FFFFC2"/>
<stop offset="0.66" stop-color="#FAF0A0"/>
<stop offset="0.73" stop-color="#D3B15F"/>
<stop offset="0.82" stop-color="#BE8C3C"/>
<stop offset="0.92" stop-color="#BE8C3C"/>
<stop offset="1" stop-color="#A2682A"/>
</linearGradient>
<linearGradient id="paint1_linear_110_3419" x1="34.0579" y1="24.105" x2="55.5426" y2="24.0075" gradientUnits="userSpaceOnUse">
<stop stop-color="#A4692A"/>
<stop offset="0.07" stop-color="#E1B453"/>
<stop offset="0.12" stop-color="#D4A245"/>
<stop offset="0.17" stop-color="#BB8332"/>
<stop offset="0.23" stop-color="#B17B32"/>
<stop offset="0.33" stop-color="#BE8C3C"/>
<stop offset="0.41" stop-color="#D3B15F"/>
<stop offset="0.52" stop-color="#FAF0A0"/>
<stop offset="0.59" stop-color="#FFFFC2"/>
<stop offset="0.66" stop-color="#FAF0A0"/>
<stop offset="0.73" stop-color="#D3B15F"/>
<stop offset="0.82" stop-color="#BE8C3C"/>
<stop offset="0.92" stop-color="#BE8C3C"/>
<stop offset="1" stop-color="#A2682A"/>
</linearGradient>
<linearGradient id="paint2_linear_110_3419" x1="42.0044" y1="4.6021" x2="48.9241" y2="4.5707" gradientUnits="userSpaceOnUse">
<stop stop-color="#A4692A"/>
<stop offset="0.07" stop-color="#E1B453"/>
<stop offset="0.12" stop-color="#D4A245"/>
<stop offset="0.17" stop-color="#BB8332"/>
<stop offset="0.23" stop-color="#B17B32"/>
<stop offset="0.33" stop-color="#BE8C3C"/>
<stop offset="0.41" stop-color="#D3B15F"/>
<stop offset="0.52" stop-color="#FAF0A0"/>
<stop offset="0.59" stop-color="#FFFFC2"/>
<stop offset="0.66" stop-color="#FAF0A0"/>
<stop offset="0.73" stop-color="#D3B15F"/>
<stop offset="0.82" stop-color="#BE8C3C"/>
<stop offset="0.92" stop-color="#BE8C3C"/>
<stop offset="1" stop-color="#A2682A"/>
</linearGradient>
<linearGradient id="paint3_linear_110_3419" x1="29.7238" y1="12.4717" x2="36.6256" y2="12.4404" gradientUnits="userSpaceOnUse">
<stop stop-color="#A4692A"/>
<stop offset="0.07" stop-color="#E1B453"/>
<stop offset="0.12" stop-color="#D4A245"/>
<stop offset="0.17" stop-color="#BB8332"/>
<stop offset="0.23" stop-color="#B17B32"/>
<stop offset="0.33" stop-color="#BE8C3C"/>
<stop offset="0.41" stop-color="#D3B15F"/>
<stop offset="0.52" stop-color="#FAF0A0"/>
<stop offset="0.59" stop-color="#FFFFC2"/>
<stop offset="0.66" stop-color="#FAF0A0"/>
<stop offset="0.73" stop-color="#D3B15F"/>
<stop offset="0.82" stop-color="#BE8C3C"/>
<stop offset="0.92" stop-color="#BE8C3C"/>
<stop offset="1" stop-color="#A2682A"/>
</linearGradient>
<linearGradient id="paint4_linear_110_3419" x1="40.4166" y1="11.0925" x2="43.3598" y2="11.0791" gradientUnits="userSpaceOnUse">
<stop stop-color="#A4692A"/>
<stop offset="0.07" stop-color="#E1B453"/>
<stop offset="0.12" stop-color="#D4A245"/>
<stop offset="0.17" stop-color="#BB8332"/>
<stop offset="0.23" stop-color="#B17B32"/>
<stop offset="0.33" stop-color="#BE8C3C"/>
<stop offset="0.41" stop-color="#D3B15F"/>
<stop offset="0.52" stop-color="#FAF0A0"/>
<stop offset="0.59" stop-color="#FFFFC2"/>
<stop offset="0.66" stop-color="#FAF0A0"/>
<stop offset="0.73" stop-color="#D3B15F"/>
<stop offset="0.82" stop-color="#BE8C3C"/>
<stop offset="0.92" stop-color="#BE8C3C"/>
<stop offset="1" stop-color="#A2682A"/>
</linearGradient>
<linearGradient id="paint5_linear_110_3419" x1="42.184" y1="43.5382" x2="49.1037" y2="43.5068" gradientUnits="userSpaceOnUse">
<stop stop-color="#A4692A"/>
<stop offset="0.07" stop-color="#E1B453"/>
<stop offset="0.12" stop-color="#D4A245"/>
<stop offset="0.17" stop-color="#BB8332"/>
<stop offset="0.23" stop-color="#B17B32"/>
<stop offset="0.33" stop-color="#BE8C3C"/>
<stop offset="0.41" stop-color="#D3B15F"/>
<stop offset="0.52" stop-color="#FAF0A0"/>
<stop offset="0.59" stop-color="#FFFFC2"/>
<stop offset="0.66" stop-color="#FAF0A0"/>
<stop offset="0.73" stop-color="#D3B15F"/>
<stop offset="0.82" stop-color="#BE8C3C"/>
<stop offset="0.92" stop-color="#BE8C3C"/>
<stop offset="1" stop-color="#A2682A"/>
</linearGradient>
<linearGradient id="paint6_linear_110_3419" x1="29.8297" y1="35.7796" x2="36.734" y2="35.7483" gradientUnits="userSpaceOnUse">
<stop stop-color="#A4692A"/>
<stop offset="0.07" stop-color="#E1B453"/>
<stop offset="0.12" stop-color="#D4A245"/>
<stop offset="0.17" stop-color="#BB8332"/>
<stop offset="0.23" stop-color="#B17B32"/>
<stop offset="0.33" stop-color="#BE8C3C"/>
<stop offset="0.41" stop-color="#D3B15F"/>
<stop offset="0.52" stop-color="#FAF0A0"/>
<stop offset="0.59" stop-color="#FFFFC2"/>
<stop offset="0.66" stop-color="#FAF0A0"/>
<stop offset="0.73" stop-color="#D3B15F"/>
<stop offset="0.82" stop-color="#BE8C3C"/>
<stop offset="0.92" stop-color="#BE8C3C"/>
<stop offset="1" stop-color="#A2682A"/>
</linearGradient>
<linearGradient id="paint7_linear_110_3419" x1="40.5364" y1="37.0641" x2="43.477" y2="37.0508" gradientUnits="userSpaceOnUse">
<stop stop-color="#A4692A"/>
<stop offset="0.07" stop-color="#E1B453"/>
<stop offset="0.12" stop-color="#D4A245"/>
<stop offset="0.17" stop-color="#BB8332"/>
<stop offset="0.23" stop-color="#B17B32"/>
<stop offset="0.33" stop-color="#BE8C3C"/>
<stop offset="0.41" stop-color="#D3B15F"/>
<stop offset="0.52" stop-color="#FAF0A0"/>
<stop offset="0.59" stop-color="#FFFFC2"/>
<stop offset="0.66" stop-color="#FAF0A0"/>
<stop offset="0.73" stop-color="#D3B15F"/>
<stop offset="0.82" stop-color="#BE8C3C"/>
<stop offset="0.92" stop-color="#BE8C3C"/>
<stop offset="1" stop-color="#A2682A"/>
</linearGradient>
<linearGradient id="paint8_linear_110_3419" x1="6.12808" y1="24.2343" x2="33.9248" y2="24.1082" gradientUnits="userSpaceOnUse">
<stop stop-color="#A4692A"/>
<stop offset="0.07" stop-color="#E1B453"/>
<stop offset="0.12" stop-color="#D4A245"/>
<stop offset="0.17" stop-color="#BB8332"/>
<stop offset="0.23" stop-color="#B17B32"/>
<stop offset="0.33" stop-color="#BE8C3C"/>
<stop offset="0.41" stop-color="#D3B15F"/>
<stop offset="0.52" stop-color="#FAF0A0"/>
<stop offset="0.59" stop-color="#FFFFC2"/>
<stop offset="0.66" stop-color="#FAF0A0"/>
<stop offset="0.73" stop-color="#D3B15F"/>
<stop offset="0.82" stop-color="#BE8C3C"/>
<stop offset="0.92" stop-color="#BE8C3C"/>
<stop offset="1" stop-color="#A2682A"/>
</linearGradient>
<linearGradient id="paint9_linear_110_3419" x1="16.3884" y1="24.1876" x2="38.6012" y2="24.0868" gradientUnits="userSpaceOnUse">
<stop stop-color="#A4692A"/>
<stop offset="0.07" stop-color="#E1B453"/>
<stop offset="0.12" stop-color="#D4A245"/>
<stop offset="0.17" stop-color="#BB8332"/>
<stop offset="0.23" stop-color="#B17B32"/>
<stop offset="0.33" stop-color="#BE8C3C"/>
<stop offset="0.41" stop-color="#D3B15F"/>
<stop offset="0.52" stop-color="#FAF0A0"/>
<stop offset="0.59" stop-color="#FFFFC2"/>
<stop offset="0.66" stop-color="#FAF0A0"/>
<stop offset="0.73" stop-color="#D3B15F"/>
<stop offset="0.82" stop-color="#BE8C3C"/>
<stop offset="0.92" stop-color="#BE8C3C"/>
<stop offset="1" stop-color="#A2682A"/>
</linearGradient>
<linearGradient id="paint10_linear_110_3419" x1="56.5685" y1="24.0031" x2="74.1793" y2="23.9232" gradientUnits="userSpaceOnUse">
<stop stop-color="#A4692A"/>
<stop offset="0.07" stop-color="#E1B453"/>
<stop offset="0.12" stop-color="#D4A245"/>
<stop offset="0.17" stop-color="#BB8332"/>
<stop offset="0.23" stop-color="#B17B32"/>
<stop offset="0.33" stop-color="#BE8C3C"/>
<stop offset="0.41" stop-color="#D3B15F"/>
<stop offset="0.52" stop-color="#FAF0A0"/>
<stop offset="0.59" stop-color="#FFFFC2"/>
<stop offset="0.66" stop-color="#FAF0A0"/>
<stop offset="0.73" stop-color="#D3B15F"/>
<stop offset="0.82" stop-color="#BE8C3C"/>
<stop offset="0.92" stop-color="#BE8C3C"/>
<stop offset="1" stop-color="#A2682A"/>
</linearGradient>
<linearGradient id="paint11_linear_110_3419" x1="63.07" y1="23.9736" x2="77.1427" y2="23.9098" gradientUnits="userSpaceOnUse">
<stop stop-color="#A4692A"/>
<stop offset="0.07" stop-color="#E1B453"/>
<stop offset="0.12" stop-color="#D4A245"/>
<stop offset="0.17" stop-color="#BB8332"/>
<stop offset="0.23" stop-color="#B17B32"/>
<stop offset="0.33" stop-color="#BE8C3C"/>
<stop offset="0.41" stop-color="#D3B15F"/>
<stop offset="0.52" stop-color="#FAF0A0"/>
<stop offset="0.59" stop-color="#FFFFC2"/>
<stop offset="0.66" stop-color="#FAF0A0"/>
<stop offset="0.73" stop-color="#D3B15F"/>
<stop offset="0.82" stop-color="#BE8C3C"/>
<stop offset="0.92" stop-color="#BE8C3C"/>
<stop offset="1" stop-color="#A2682A"/>
</linearGradient>
<linearGradient id="paint12_linear_110_3419" x1="0.780153" y1="24.2589" x2="97.556" y2="23.8197" gradientUnits="userSpaceOnUse">
<stop stop-color="#A4692A"/>
<stop offset="0.07" stop-color="#E1B453"/>
<stop offset="0.12" stop-color="#D4A245"/>
<stop offset="0.17" stop-color="#BB8332"/>
<stop offset="0.23" stop-color="#B17B32"/>
<stop offset="0.33" stop-color="#BE8C3C"/>
<stop offset="0.41" stop-color="#D3B15F"/>
<stop offset="0.52" stop-color="#FAF0A0"/>
<stop offset="0.59" stop-color="#FFFFC2"/>
<stop offset="0.66" stop-color="#FAF0A0"/>
<stop offset="0.73" stop-color="#D3B15F"/>
<stop offset="0.82" stop-color="#BE8C3C"/>
<stop offset="0.92" stop-color="#BE8C3C"/>
<stop offset="1" stop-color="#A2682A"/>
</linearGradient>
<linearGradient id="paint13_linear_110_3419" x1="15.3288" y1="27.4003" x2="137.576" y2="26.8456" gradientUnits="userSpaceOnUse">
<stop stop-color="#A4692A"/>
<stop offset="0.07" stop-color="#E1B453"/>
<stop offset="0.12" stop-color="#D4A245"/>
<stop offset="0.17" stop-color="#BB8332"/>
<stop offset="0.23" stop-color="#B17B32"/>
<stop offset="0.33" stop-color="#BE8C3C"/>
<stop offset="0.41" stop-color="#D3B15F"/>
<stop offset="0.52" stop-color="#FAF0A0"/>
<stop offset="0.59" stop-color="#FFFFC2"/>
<stop offset="0.66" stop-color="#FAF0A0"/>
<stop offset="0.73" stop-color="#D3B15F"/>
<stop offset="0.82" stop-color="#BE8C3C"/>
<stop offset="0.92" stop-color="#BE8C3C"/>
<stop offset="1" stop-color="#A2682A"/>
</linearGradient>
<linearGradient id="paint14_linear_110_3419" x1="15.2995" y1="20.9803" x2="137.544" y2="20.4256" gradientUnits="userSpaceOnUse">
<stop stop-color="#A4692A"/>
<stop offset="0.07" stop-color="#E1B453"/>
<stop offset="0.12" stop-color="#D4A245"/>
<stop offset="0.17" stop-color="#BB8332"/>
<stop offset="0.23" stop-color="#B17B32"/>
<stop offset="0.33" stop-color="#BE8C3C"/>
<stop offset="0.41" stop-color="#D3B15F"/>
<stop offset="0.52" stop-color="#FAF0A0"/>
<stop offset="0.59" stop-color="#FFFFC2"/>
<stop offset="0.66" stop-color="#FAF0A0"/>
<stop offset="0.73" stop-color="#D3B15F"/>
<stop offset="0.82" stop-color="#BE8C3C"/>
<stop offset="0.92" stop-color="#BE8C3C"/>
<stop offset="1" stop-color="#A2682A"/>
</linearGradient>
<linearGradient id="paint15_linear_110_3419" x1="91.303" y1="7.45748" x2="96.0794" y2="7.43581" gradientUnits="userSpaceOnUse">
<stop stop-color="#A4692A"/>
<stop offset="0.07" stop-color="#E1B453"/>
<stop offset="0.12" stop-color="#D4A245"/>
<stop offset="0.17" stop-color="#BB8332"/>
<stop offset="0.23" stop-color="#B17B32"/>
<stop offset="0.33" stop-color="#BE8C3C"/>
<stop offset="0.41" stop-color="#D3B15F"/>
<stop offset="0.52" stop-color="#FAF0A0"/>
<stop offset="0.59" stop-color="#FFFFC2"/>
<stop offset="0.66" stop-color="#FAF0A0"/>
<stop offset="0.73" stop-color="#D3B15F"/>
<stop offset="0.82" stop-color="#BE8C3C"/>
<stop offset="0.92" stop-color="#BE8C3C"/>
<stop offset="1" stop-color="#A2682A"/>
</linearGradient>
<linearGradient id="paint16_linear_110_3419" x1="88.8419" y1="23.8564" x2="106.999" y2="23.774" gradientUnits="userSpaceOnUse">
<stop stop-color="#A4692A"/>
<stop offset="0.07" stop-color="#E1B453"/>
<stop offset="0.12" stop-color="#D4A245"/>
<stop offset="0.17" stop-color="#BB8332"/>
<stop offset="0.23" stop-color="#B17B32"/>
<stop offset="0.33" stop-color="#BE8C3C"/>
<stop offset="0.41" stop-color="#D3B15F"/>
<stop offset="0.52" stop-color="#FAF0A0"/>
<stop offset="0.59" stop-color="#FFFFC2"/>
<stop offset="0.66" stop-color="#FAF0A0"/>
<stop offset="0.73" stop-color="#D3B15F"/>
<stop offset="0.82" stop-color="#BE8C3C"/>
<stop offset="0.92" stop-color="#BE8C3C"/>
<stop offset="1" stop-color="#A2682A"/>
</linearGradient>
<linearGradient id="paint17_linear_110_3419" x1="91.4516" y1="40.2305" x2="96.2306" y2="40.2088" gradientUnits="userSpaceOnUse">
<stop stop-color="#A4692A"/>
<stop offset="0.07" stop-color="#E1B453"/>
<stop offset="0.12" stop-color="#D4A245"/>
<stop offset="0.17" stop-color="#BB8332"/>
<stop offset="0.23" stop-color="#B17B32"/>
<stop offset="0.33" stop-color="#BE8C3C"/>
<stop offset="0.41" stop-color="#D3B15F"/>
<stop offset="0.52" stop-color="#FAF0A0"/>
<stop offset="0.59" stop-color="#FFFFC2"/>
<stop offset="0.66" stop-color="#FAF0A0"/>
<stop offset="0.73" stop-color="#D3B15F"/>
<stop offset="0.82" stop-color="#BE8C3C"/>
<stop offset="0.92" stop-color="#BE8C3C"/>
<stop offset="1" stop-color="#A2682A"/>
</linearGradient>
<linearGradient id="paint18_linear_110_3419" x1="81.8888" y1="23.8883" x2="83.0784" y2="23.8829" gradientUnits="userSpaceOnUse">
<stop stop-color="#A4692A"/>
<stop offset="0.07" stop-color="#E1B453"/>
<stop offset="0.12" stop-color="#D4A245"/>
<stop offset="0.17" stop-color="#BB8332"/>
<stop offset="0.23" stop-color="#B17B32"/>
<stop offset="0.33" stop-color="#BE8C3C"/>
<stop offset="0.41" stop-color="#D3B15F"/>
<stop offset="0.52" stop-color="#FAF0A0"/>
<stop offset="0.59" stop-color="#FFFFC2"/>
<stop offset="0.66" stop-color="#FAF0A0"/>
<stop offset="0.73" stop-color="#D3B15F"/>
<stop offset="0.82" stop-color="#BE8C3C"/>
<stop offset="0.92" stop-color="#BE8C3C"/>
<stop offset="1" stop-color="#A2682A"/>
</linearGradient>
</defs>
</svg>
