<svg width="137" height="48" viewBox="0 0 137 48" fill="none" xmlns="http://www.w3.org/2000/svg">
<path d="M82.1096 40.6467C84.2812 40.5544 86.4246 40.0698 88.3885 39.1904C89.3704 38.7546 90.3088 38.2238 91.1856 37.6085C92.0624 36.9932 92.8828 36.2984 93.6238 35.5293L94.1648 34.9396C94.334 34.7345 94.5083 34.5319 94.6775 34.3243C94.8365 34.1115 95.0031 33.9012 95.1595 33.6859C95.3108 33.4654 95.4646 33.25 95.6108 33.027C96.1927 32.1348 96.685 31.1836 97.0798 30.1965C97.4747 29.2094 97.7798 28.1865 97.9772 27.1404C98.1772 26.0969 98.272 25.033 98.2643 23.969C98.2592 22.905 98.1541 21.8436 97.9464 20.8001C97.7387 19.7566 97.4234 18.7362 97.0183 17.7542C96.6158 16.7697 96.1133 15.8262 95.5236 14.9366C95.3749 14.7161 95.2185 14.5008 95.0647 14.2828C94.9057 14.07 94.7365 13.8624 94.575 13.6496C94.4058 13.4445 94.2289 13.2419 94.0571 13.0394L93.511 12.4548C92.7623 11.6934 91.9368 11.0063 91.0548 10.3986C90.1729 9.791 89.2294 9.26798 88.2423 8.84238C86.2707 7.98094 84.1248 7.51431 81.9507 7.44253C84.1248 7.35023 86.3271 7.72199 88.3782 8.50908C89.4037 8.90647 90.3882 9.40642 91.3189 9.99866C92.2496 10.5909 93.1162 11.2831 93.9135 12.0497L94.4955 12.6394C94.6801 12.8445 94.8672 13.0496 95.0493 13.2573C95.2236 13.4727 95.398 13.6855 95.5697 13.9059C95.7313 14.129 95.8979 14.352 96.0569 14.5777C96.685 15.4904 97.2234 16.4672 97.6593 17.485C98.531 19.5259 98.9796 21.7461 98.9976 23.9664C99.0001 26.1867 98.572 28.4095 97.7182 30.4606C96.8619 32.5065 95.6056 34.3858 94.0237 35.9318C93.2341 36.7061 92.3727 37.406 91.4497 38.0059C90.5241 38.6059 89.5447 39.1161 88.5218 39.5211C86.4784 40.3288 84.2786 40.7185 82.1045 40.6467H82.1096Z" fill="url(#paint0_linear_111_3445)"/>
<path d="M82.1299 45.0133C84.8732 44.8851 87.5755 44.2672 90.0496 43.1494C91.2879 42.5956 92.4698 41.9264 93.5748 41.147C93.8492 40.9522 94.1158 40.7419 94.3876 40.5445C94.6517 40.3368 94.9106 40.1189 95.1721 39.9061C95.4259 39.6831 95.6746 39.4549 95.9259 39.2318L96.6437 38.5216L97.3257 37.7756C97.5411 37.5166 97.759 37.2602 97.9692 36.9987C98.1692 36.7295 98.3795 36.4655 98.5769 36.1937C98.7666 35.9168 98.9614 35.6425 99.146 35.3604C99.8742 34.2324 100.497 33.0376 100.995 31.7916C101.994 29.3047 102.5 26.6255 102.487 23.9463C102.482 22.6054 102.346 21.2671 102.082 19.9544C101.823 18.6417 101.43 17.3547 100.92 16.1138C100.413 14.8729 99.7767 13.6858 99.0384 12.5629C98.8512 12.2834 98.6538 12.0117 98.4641 11.7373C98.2641 11.4681 98.0539 11.2066 97.8487 10.9374C97.6334 10.6785 97.4155 10.4247 97.1975 10.1657L96.5104 9.42732C95.5695 8.46332 94.526 7.59931 93.4159 6.83016C92.3057 6.06101 91.1161 5.40211 89.8727 4.86114C87.3883 3.76639 84.6809 3.17414 81.9351 3.07159C84.6809 2.94596 87.4678 3.40488 90.0624 4.39452C91.3597 4.89191 92.6083 5.52261 93.7876 6.27125C94.967 7.01732 96.0643 7.89159 97.0745 8.86072C99.0948 10.799 100.718 13.1551 101.82 15.7369C102.374 17.0291 102.792 18.3776 103.079 19.7544C103.361 21.1312 103.507 22.5362 103.517 23.9437C103.517 25.3487 103.389 26.7562 103.117 28.1356C102.843 29.5149 102.438 30.8686 101.897 32.1634C100.818 34.7554 99.2153 37.1269 97.2129 39.0831C96.213 40.0599 95.1234 40.947 93.9517 41.7034C92.7801 42.4597 91.5392 43.1032 90.2444 43.6134C87.6575 44.6261 84.8758 45.1133 82.1299 45.0133Z" fill="url(#paint1_linear_111_3445)"/>
<path d="M88.6294 39.3006C89.7729 41.0645 90.8727 42.7797 91.8521 44.3359C91.5829 44.4334 91.3394 44.4103 91.1496 44.2078C91.042 44.2847 90.9471 44.3539 90.8112 44.4539C90.942 44.5436 91.042 44.6334 91.1625 44.6872C91.4496 44.8103 91.7701 44.7308 92.0829 44.6154C92.1521 44.7077 92.2111 44.7872 92.3059 44.9128C91.9854 45.0948 91.6957 45.2615 91.4624 45.3974C91.5086 45.5461 91.5393 45.6461 91.5752 45.7717C91.888 45.5563 92.1624 45.3717 92.411 45.2025C92.4828 45.2897 92.5469 45.3666 92.629 45.464C92.1213 45.7973 91.6393 46.1204 91.1983 46.4178C91.5163 46.9741 91.8162 47.5048 92.0854 47.9997C92.2187 47.915 92.3546 47.833 92.5341 47.7228C92.288 47.3177 92.0393 46.9075 91.7957 46.5152C92.1547 46.2742 92.4982 46.046 92.8341 45.8281C92.9084 45.9383 92.9956 46.0665 93.0879 46.1998C92.9571 46.2921 92.8341 46.3793 92.7418 46.446C92.7956 46.5639 92.8443 46.6665 92.9059 46.8024C93.0366 46.6947 93.1494 46.6049 93.2776 46.5024C93.3366 46.587 93.375 46.6408 93.4186 46.7024C93.2571 46.8152 93.1289 46.9075 93.0366 46.9716C93.0853 47.0895 93.1263 47.1869 93.1622 47.2767C93.6032 46.9869 94.0339 46.7075 94.439 46.4511C94.3929 46.3537 94.3442 46.2537 94.2929 46.1511C94.1519 46.2383 94.0288 46.3127 93.8955 46.3947C93.8545 46.3229 93.8211 46.2639 93.7852 46.2024C93.934 46.0999 94.0673 46.0127 94.1698 45.9435C94.1083 45.8332 94.057 45.7384 93.9955 45.6307C93.8622 45.7127 93.7288 45.7973 93.6032 45.8742C93.5084 45.7332 93.4186 45.6025 93.3468 45.4948C93.693 45.2692 94.0288 45.0538 94.4262 44.8026C94.6775 45.2102 94.9287 45.6179 95.1672 46.0101C95.321 45.9101 95.4543 45.8255 95.5774 45.7461C95.2415 45.2641 94.8928 44.7615 94.5211 44.2257C94.0673 44.5052 93.5878 44.8077 93.1187 45.1077C93.0597 45.0307 92.9982 44.9513 92.911 44.841C93.2033 44.6692 93.4673 44.5154 93.7212 44.3693C93.6596 44.2513 93.6109 44.159 93.5442 44.0309C93.2674 44.2257 93.0161 44.4026 92.7725 44.5769C92.57 44.3411 92.57 44.3385 92.7751 44.0719C93.0571 43.7052 93.111 43.3258 92.9033 43.0822C92.8059 43.1412 92.7059 43.2027 92.611 43.2591C92.6726 43.6155 92.6136 43.7847 92.4085 43.9514C91.4214 42.408 90.319 40.703 89.178 38.9468C89.0063 39.0801 88.8242 39.2006 88.632 39.3006H88.6294Z" fill="url(#paint2_linear_111_3445)"/>
<path d="M100.936 33.1707C102.341 34.0347 103.756 34.9039 105.184 35.7781C104.782 36.4139 104.366 37.0293 103.935 37.6318C104.423 37.8958 104.894 38.1471 105.369 38.3958C105.44 38.2984 105.502 38.2138 105.574 38.1138C105.215 37.9215 104.866 37.7318 104.515 37.5369C104.664 37.3267 104.799 37.1318 104.943 36.919C105.302 37.1241 105.648 37.3215 105.989 37.5164C106.061 37.4113 106.122 37.3215 106.192 37.2164C105.833 37.0088 105.489 36.8062 105.146 36.6062C105.287 36.3934 105.412 36.1986 105.548 35.9832C105.91 36.2037 106.261 36.4191 106.612 36.6344C106.679 36.5293 106.735 36.4421 106.799 36.337C106.44 36.1114 106.092 35.8935 105.743 35.6756C105.879 35.4551 106.002 35.2525 106.135 35.032C106.481 35.2577 106.817 35.4781 107.151 35.6986C107.212 35.5935 107.266 35.5038 107.33 35.391C106.986 35.1602 106.651 34.9346 106.317 34.7141C106.448 34.4885 106.563 34.286 106.684 34.0655C107.022 34.2988 107.348 34.527 107.676 34.7603C107.735 34.65 107.786 34.5552 107.838 34.4577C107.392 34.1347 106.953 33.8245 106.504 33.5066C106.143 34.168 105.771 34.8039 105.381 35.4346C103.969 34.55 102.559 33.6732 101.159 32.8066C101.131 32.8605 101.1 32.9169 101.067 32.9707C101.023 33.0399 100.977 33.1066 100.931 33.1733L100.936 33.1707Z" fill="url(#paint3_linear_111_3445)"/>
<path d="M95.5594 35.5013C95.5594 35.6013 95.5594 35.7039 95.5594 35.8039C95.3312 35.8295 95.1235 35.9192 94.9543 36.0551C94.8825 35.9833 94.8107 35.9116 94.7364 35.8423C94.6672 35.9013 94.6031 35.9654 94.5441 36.0372C94.6159 36.109 94.6877 36.1782 94.762 36.25C94.6287 36.4218 94.5415 36.6294 94.521 36.8576C94.421 36.8576 94.3185 36.8576 94.2185 36.8576C94.2159 36.8961 94.2134 36.9345 94.2134 36.973C94.2134 37.0063 94.2134 37.0396 94.2185 37.073C94.3185 37.073 94.421 37.073 94.521 37.073C94.5415 37.3012 94.6287 37.5114 94.7595 37.6806C94.6877 37.7524 94.6159 37.8242 94.5441 37.896C94.6031 37.9703 94.6697 38.037 94.7441 38.0959C94.8159 38.0242 94.8851 37.9524 94.9569 37.8806C95.1287 38.0165 95.3389 38.1062 95.5696 38.1293C95.5696 38.2293 95.5696 38.3318 95.5696 38.4318C95.6081 38.4344 95.6491 38.4369 95.6876 38.4369C95.7183 38.4369 95.7491 38.4369 95.7799 38.4344C95.7799 38.3344 95.7799 38.2318 95.7799 38.1318C96.0157 38.1113 96.2285 38.0242 96.4054 37.8857C96.4772 37.9575 96.549 38.0293 96.6208 38.1011C96.69 38.0447 96.7541 37.9806 96.8131 37.9088C96.7413 37.837 96.6695 37.7652 96.5977 37.6934C96.7387 37.5165 96.831 37.2986 96.849 37.0602C96.949 37.0602 97.0515 37.0602 97.1515 37.0602C97.1515 37.0268 97.1541 36.9935 97.1541 36.9602C97.1541 36.9217 97.1541 36.8807 97.149 36.8422C97.049 36.8422 96.9464 36.8422 96.8464 36.8422C96.8208 36.6064 96.7259 36.391 96.5824 36.2167C96.6541 36.1449 96.7259 36.0731 96.7951 36.0013C96.7362 35.9321 96.6695 35.8705 96.6003 35.8141C96.5285 35.8859 96.4567 35.9577 96.3875 36.0295C96.2132 35.8987 96.0029 35.8167 95.7747 35.7987C95.7747 35.6988 95.7747 35.5962 95.7747 35.4962C95.744 35.4962 95.7132 35.4937 95.6824 35.4937C95.6414 35.4937 95.6004 35.4937 95.5619 35.4988L95.5594 35.5013ZM94.7415 37.0704C94.9518 37.0704 95.1594 37.0704 95.3671 37.0704C95.2158 37.2217 95.0646 37.3755 94.9159 37.5268C94.821 37.396 94.7595 37.2422 94.7415 37.073V37.0704ZM95.1158 37.7242C95.2671 37.5704 95.4184 37.4191 95.5696 37.2653C95.5696 37.4806 95.5696 37.6934 95.5722 37.9088C95.403 37.8883 95.244 37.8216 95.1133 37.7242H95.1158ZM96.2542 37.7293C96.1209 37.8293 95.9593 37.8934 95.785 37.9113C95.785 37.6934 95.785 37.4755 95.785 37.2601C95.944 37.4165 96.1004 37.5729 96.2568 37.7293H96.2542ZM96.4465 37.5396C96.2875 37.3806 96.1286 37.2242 95.9696 37.0653C96.1901 37.0653 96.4131 37.0653 96.6362 37.0627C96.6182 37.2422 96.5516 37.4063 96.449 37.5422L96.4465 37.5396ZM95.1133 36.209C95.2415 36.1115 95.3953 36.0449 95.5619 36.0244C95.5619 36.2372 95.5619 36.4474 95.5645 36.6551C95.4132 36.5064 95.2645 36.3577 95.1133 36.209ZM95.3774 36.8499C95.1671 36.8499 94.9569 36.8499 94.7441 36.8525C94.7646 36.6858 94.8261 36.5294 94.9236 36.4012C95.0748 36.55 95.2261 36.6987 95.3774 36.8499ZM96.6311 36.8422C96.408 36.8422 96.185 36.8422 95.9619 36.8448C96.1183 36.6858 96.2747 36.5294 96.4311 36.3731C96.5362 36.5064 96.608 36.6679 96.6311 36.8422ZM96.2337 36.1859C96.0824 36.3397 95.9311 36.491 95.7799 36.6448C95.7799 36.4371 95.7799 36.2269 95.7773 36.0167C95.9465 36.0321 96.1029 36.0936 96.2337 36.1859Z" fill="url(#paint4_linear_111_3445)"/>
<path d="M88.488 8.72984C89.6136 6.95567 90.6981 5.23021 91.6646 3.66628C91.3954 3.57142 91.1493 3.59705 90.9647 3.7996C90.857 3.72268 90.7622 3.65602 90.6237 3.55859C90.7545 3.46886 90.8519 3.37657 90.9724 3.32273C91.257 3.1971 91.58 3.27401 91.8928 3.38682C91.9595 3.29452 92.021 3.21504 92.1133 3.08685C91.7928 2.90738 91.5005 2.7433 91.2672 2.60998C91.3108 2.46128 91.3416 2.36129 91.3775 2.2331C91.6928 2.4459 91.9672 2.62793 92.2184 2.79458C92.2902 2.70741 92.3543 2.63049 92.4338 2.5305C91.921 2.20234 91.4364 1.88442 90.9929 1.58958C91.3057 1.03066 91.6005 0.494819 91.8646 0C92.0005 0.0820425 92.1364 0.164087 92.3158 0.274332C92.0748 0.68198 91.8287 1.0922 91.5877 1.48959C91.9466 1.72546 92.2953 1.95108 92.6337 2.16644C92.7081 2.05619 92.7927 1.928 92.8824 1.79212C92.7491 1.69982 92.6286 1.61522 92.5338 1.55112C92.5876 1.43318 92.6337 1.33063 92.6953 1.19474C92.8286 1.29986 92.9414 1.3896 93.0696 1.49215C93.1286 1.40754 93.1645 1.3537 93.208 1.29217C93.0465 1.18193 92.9158 1.08963 92.8235 1.02553C92.8722 0.907595 92.9106 0.807613 92.9465 0.720443C93.3901 1.00759 93.8234 1.28192 94.231 1.53317C94.1849 1.6306 94.1361 1.73058 94.0874 1.8357C93.9464 1.7511 93.8234 1.67674 93.69 1.5947C93.649 1.66649 93.6157 1.72546 93.5824 1.78955C93.7336 1.88954 93.8644 1.97671 93.9669 2.04594C93.9054 2.15875 93.8541 2.25104 93.7952 2.35873C93.6593 2.27668 93.526 2.19464 93.4003 2.12029C93.3055 2.26387 93.2183 2.39462 93.1465 2.5023C93.4952 2.72535 93.8336 2.93815 94.231 3.18428C94.4797 2.77407 94.7258 2.36642 94.9617 1.96903C95.1155 2.06645 95.2514 2.15106 95.3745 2.23053C95.0412 2.71766 94.6976 3.22017 94.3336 3.76114C93.8772 3.48425 93.3952 3.18684 92.9235 2.892C92.8645 2.96891 92.803 3.04839 92.7184 3.15864C93.0106 3.32785 93.2798 3.47912 93.5311 3.62269C93.4696 3.74319 93.4234 3.83293 93.3568 3.96368C93.0773 3.7714 92.826 3.59706 92.5799 3.42528C92.3799 3.66371 92.3799 3.66628 92.5876 3.93035C92.8722 4.29442 92.9312 4.67386 92.7235 4.91743C92.6261 4.85846 92.5261 4.79949 92.4286 4.74308C92.4876 4.38671 92.4286 4.2175 92.2184 4.05342C91.2467 5.60454 90.1597 7.32229 89.0341 9.08621C88.8624 8.95289 88.6778 8.83752 88.4829 8.73753L88.488 8.72984Z" fill="url(#paint5_linear_111_3445)"/>
<path d="M100.851 14.7421C102.248 13.8652 103.656 12.9833 105.076 12.0962C104.669 11.4655 104.248 10.8527 103.812 10.2554C104.299 9.98615 104.766 9.73233 105.238 9.47852C105.312 9.57594 105.374 9.66055 105.445 9.75798C105.089 9.95539 104.743 10.1477 104.392 10.3451C104.543 10.5528 104.679 10.7476 104.825 10.9604C105.181 10.7502 105.527 10.5502 105.866 10.3528C105.94 10.4579 106.002 10.5451 106.074 10.6502C105.717 10.863 105.376 11.0655 105.035 11.2706C105.176 11.4809 105.307 11.6757 105.445 11.8885C105.804 11.6629 106.153 11.445 106.504 11.227C106.571 11.3322 106.627 11.4193 106.694 11.5219C106.338 11.7501 105.989 11.9731 105.643 12.1936C105.781 12.4115 105.907 12.6141 106.04 12.8346C106.386 12.6038 106.717 12.3833 107.05 12.1603C107.115 12.2654 107.166 12.3551 107.232 12.4654C106.891 12.6987 106.558 12.9269 106.227 13.1525C106.361 13.3755 106.476 13.5781 106.602 13.7986C106.938 13.5601 107.261 13.3294 107.589 13.0961C107.65 13.2063 107.702 13.3012 107.753 13.3986C107.309 13.7242 106.876 14.0396 106.427 14.36C106.061 13.7037 105.684 13.0704 105.287 12.4423C103.882 13.3396 102.479 14.2293 101.09 15.1087C101.059 15.0548 101.028 14.9984 100.995 14.9472C100.951 14.8779 100.905 14.8113 100.856 14.7472L100.851 14.7421Z" fill="url(#paint6_linear_111_3445)"/>
<path d="M95.5723 12.4681C95.6031 12.4681 95.6339 12.4681 95.6646 12.4655C95.6646 12.3655 95.6646 12.2629 95.6646 12.163C95.8928 12.145 96.1031 12.0578 96.2774 11.9271C96.3492 11.9989 96.421 12.0707 96.4928 12.1425C96.562 12.086 96.6286 12.022 96.6876 11.9527C96.6158 11.8809 96.544 11.8117 96.4723 11.7399C96.6158 11.5656 96.7081 11.3477 96.7312 11.1118C96.8312 11.1118 96.9337 11.1118 97.0337 11.1118C97.0363 11.0733 97.0389 11.0349 97.0389 10.9939C97.0389 10.9605 97.0389 10.9272 97.0337 10.8939C96.9337 10.8939 96.8312 10.8939 96.7312 10.8939C96.7107 10.6554 96.6158 10.4375 96.4748 10.2606C96.5466 10.1888 96.6184 10.117 96.6876 10.0452C96.6286 9.97602 96.5645 9.91192 96.4953 9.85551C96.4235 9.9273 96.3543 9.99909 96.2825 10.0734C96.1056 9.93756 95.8903 9.85039 95.6544 9.83244C95.6544 9.73245 95.6544 9.6299 95.6544 9.52991C95.6236 9.52991 95.5929 9.52734 95.5621 9.52734C95.5236 9.52734 95.4826 9.52735 95.4442 9.53248C95.4442 9.63247 95.4442 9.73502 95.4442 9.83501C95.2134 9.85808 95.0032 9.95038 94.834 10.0888C94.7622 10.017 94.6904 9.94525 94.6186 9.87346C94.5468 9.93499 94.4802 10.0017 94.4212 10.076L94.6366 10.2914C94.5058 10.4631 94.4212 10.6734 94.4032 10.9016C94.3033 10.9016 94.2007 10.9016 94.1007 10.9016C94.1007 10.9349 94.0981 10.9682 94.0981 11.0015C94.0981 11.04 94.0981 11.0785 94.1033 11.1169C94.2033 11.1169 94.3058 11.1169 94.4058 11.1169C94.4289 11.3451 94.5186 11.5528 94.6545 11.722C94.5827 11.7938 94.5109 11.8656 94.4391 11.9373C94.4981 12.0066 94.5622 12.0707 94.6314 12.1296C94.7032 12.0578 94.775 11.9861 94.8468 11.9143C95.016 12.0476 95.2262 12.1373 95.4544 12.1604C95.4544 12.2604 95.4544 12.3629 95.4544 12.4629C95.4954 12.4655 95.5339 12.4681 95.5749 12.4681H95.5723ZM94.7904 10.4478C94.9416 10.5965 95.0929 10.7477 95.2467 10.899C95.0391 10.899 94.8314 10.899 94.6212 10.9016C94.6391 10.7323 94.6981 10.5785 94.7929 10.4478H94.7904ZM95.4416 10.0555C95.4416 10.2709 95.4416 10.4862 95.4416 10.699C95.2878 10.5477 95.1365 10.3939 94.9827 10.2427C95.1134 10.1427 95.2698 10.076 95.439 10.0529L95.4416 10.0555ZM95.6569 10.7041C95.6569 10.4888 95.657 10.2709 95.6518 10.0529C95.8262 10.0683 95.9877 10.1324 96.1236 10.2324C95.9672 10.3888 95.8133 10.5477 95.6569 10.7067V10.7041ZM96.5107 10.8964C96.2877 10.8964 96.0672 10.8964 95.8441 10.899C96.0031 10.74 96.1595 10.5785 96.3184 10.4196C96.4235 10.5554 96.4928 10.717 96.5107 10.8964ZM95.4442 11.3143C95.4442 11.522 95.4442 11.7322 95.4467 11.945C95.2801 11.9245 95.1262 11.8604 94.9955 11.763C95.1442 11.6143 95.2929 11.463 95.4416 11.3143H95.4442ZM94.8058 11.5733C94.7083 11.4451 94.6442 11.2913 94.6237 11.122C94.8365 11.122 95.0468 11.122 95.257 11.122C95.1057 11.2733 94.957 11.4246 94.8058 11.5758V11.5733ZM96.3133 11.5887C96.1569 11.4323 95.9979 11.2759 95.839 11.1195C96.062 11.1195 96.2851 11.1195 96.5081 11.1169C96.4876 11.2938 96.4184 11.4553 96.3133 11.5887ZM95.6621 11.9502C95.6621 11.7399 95.6621 11.5297 95.6621 11.322C95.8159 11.4733 95.9672 11.6246 96.121 11.7758C95.9903 11.8707 95.8339 11.9322 95.6646 11.9502H95.6621Z" fill="url(#paint7_linear_111_3445)"/>
<path d="M103.648 23.9437L110.183 17.0445L113.516 13.5525C114.631 12.386 115.759 11.2246 116.885 10.058L117.139 9.79395L117.408 10.0555C118.557 11.1656 119.705 12.2783 120.846 13.3987L124.277 16.7496L127.694 20.1134L131.109 23.4797L131.45 23.8155L131.114 24.1539L124.348 30.9481L120.949 34.3298L119.249 36.0193L117.541 37.7038L117.275 37.9679L117.018 37.7063C115.883 36.5526 114.742 35.4015 113.616 34.2452L110.252 30.784L103.656 23.9437H103.648ZM103.648 23.9437L110.675 30.602L114.124 33.8914C115.27 34.9836 116.4 36.0834 117.534 37.1782H117.008L118.675 35.4579L120.349 33.7427L123.7 30.3123L130.432 23.4822V24.1565L127.038 20.7748L123.643 17.3906L120.262 13.9909C119.131 12.8603 118.011 11.7219 116.888 10.5836H117.411C116.288 11.686 115.167 12.7962 114.031 13.9012L110.614 17.2214L103.651 23.9463L103.648 23.9437Z" fill="url(#paint8_linear_111_3445)"/>
<path d="M98.9741 23.964L104.117 18.4671L106.755 15.6777C107.637 14.7444 108.535 13.8163 109.429 12.8857L109.681 12.6216L109.952 12.8831C110.868 13.7625 111.783 14.6419 112.688 15.529L115.416 18.1851C116.326 19.0696 117.226 19.9644 118.131 20.854L120.844 23.5255L121.185 23.8614L120.849 24.1998L115.472 29.5916L112.77 32.2733L111.419 33.6142L110.06 34.9474L109.791 35.2115L109.535 34.95C108.632 34.027 107.727 33.1091 106.835 32.1836L104.171 29.4172L98.9767 23.9665L98.9741 23.964ZM98.9741 23.964L104.599 29.2326L107.345 31.8272C108.255 32.6887 109.153 33.5552 110.055 34.4192H109.529L110.85 33.0502L112.178 31.6862L114.834 28.9583L120.174 23.5307V24.2024L117.48 21.5155C116.583 20.6182 115.68 19.726 114.785 18.826L112.103 16.1238C111.209 15.2239 110.319 14.3188 109.432 13.4112H109.955C109.063 14.2804 108.173 15.1572 107.271 16.0263L104.548 18.6466L98.9741 23.9665V23.964Z" fill="url(#paint9_linear_111_3445)"/>
<path d="M63.3936 24.1306L67.5341 19.7593L69.6467 17.5467C70.3518 16.8058 71.0697 16.0725 71.7824 15.3341L71.9439 15.1675L72.1157 15.3316C72.8438 16.0366 73.572 16.7391 74.295 17.4493L76.4691 19.5721L78.6329 21.7027L80.7968 23.8358L81.0122 24.0486L80.7994 24.2639L76.5127 28.5686L74.3591 30.712L73.2822 31.7837L72.2003 32.8502L72.0311 33.0169L71.867 32.8502C71.1466 32.1195 70.4236 31.3888 69.7108 30.6556L67.5803 28.4635L63.4012 24.1306H63.3936ZM63.3936 24.1306L67.8469 28.3507L70.0313 30.4351C70.7569 31.1273 71.4722 31.8247 72.1926 32.5169H71.8593L72.9156 31.4273L73.977 30.3402L76.0999 28.1661L80.3661 23.8384V24.2639L78.215 22.1206L76.064 19.9747L73.9206 17.821C73.2053 17.1057 72.4926 16.3827 71.7824 15.6623H72.1131C71.4004 16.3622 70.6902 17.0647 69.9723 17.7646L67.8085 19.8695L63.3961 24.1306H63.3936Z" fill="url(#paint10_linear_111_3445)"/>
<path d="M60.4296 24.1434L63.6882 20.6592L65.3598 18.8927C65.9187 18.3005 66.4879 17.7134 67.0545 17.1237L67.2135 16.957L67.3852 17.1211C67.9647 17.6775 68.5441 18.2364 69.1184 18.7979L70.8464 20.4797C71.4233 21.0412 71.9924 21.6078 72.5667 22.1719L74.2845 23.864L74.4999 24.0768L74.2871 24.2921L70.8797 27.7072L69.1671 29.407L68.3108 30.2556L67.4493 31.0991L67.2776 31.2658L67.116 31.0991C66.5443 30.5146 65.97 29.9326 65.406 29.3455L63.719 27.5918L60.4296 24.1383V24.1434ZM60.4296 24.1434L63.9933 27.4815L65.7341 29.125C66.311 29.6711 66.8802 30.2197 67.4493 30.7684H67.116L67.9518 29.9018L68.7928 29.0378L70.4747 27.3098L73.8589 23.8717V24.2973L72.1514 22.5949C71.5822 22.0257 71.0105 21.4617 70.4439 20.8899L68.7441 19.1773C68.1775 18.6081 67.6134 18.0338 67.0519 17.4595H67.3827C66.8161 18.0108 66.2546 18.5646 65.6803 19.1158L63.9548 20.7746L60.4219 24.146L60.4296 24.1434Z" fill="url(#paint11_linear_111_3445)"/>
<path d="M136.796 23.7901C128.732 24.0747 120.666 24.2413 112.603 24.3644L109.578 24.4131L106.553 24.449L100.505 24.5182L88.4084 24.608L76.3122 24.6336L70.2642 24.6208L67.2388 24.6131L64.2135 24.5926C56.1477 24.5439 48.0819 24.4516 40.0161 24.2413C48.0794 23.9567 56.1452 23.7901 64.2084 23.6645L67.2337 23.6158L70.259 23.5799L76.3071 23.5106L88.4032 23.4235L100.499 23.4004L106.547 23.4132L109.573 23.4209L112.598 23.4414C120.664 23.4927 128.73 23.5824 136.796 23.7927V23.7901Z" fill="url(#paint12_linear_111_3445)"/>
<path d="M122.246 20.6463C112.06 20.9411 101.874 21.1155 91.6851 21.2513L87.865 21.3026L84.0449 21.3436L76.4046 21.4206L61.1242 21.5231L45.8438 21.5616L38.2036 21.5539L34.3835 21.5488L30.5634 21.5308C20.3747 21.4898 10.1887 21.4077 0 21.2078C10.1861 20.9129 20.3722 20.736 30.5608 20.6027L34.3809 20.5514L38.201 20.5104L45.8413 20.4335L61.1217 20.3309L76.4021 20.2925L84.0423 20.2976L87.8624 20.3027L91.6825 20.3207C101.871 20.3617 112.057 20.4437 122.246 20.6412V20.6463Z" fill="url(#paint13_linear_111_3445)"/>
<path d="M122.274 27.0689C112.086 26.8689 101.897 26.7894 91.7108 26.7484L87.8907 26.7305L84.0706 26.7253L76.4304 26.7202L61.15 26.7587L45.8696 26.8612L38.2294 26.9381L34.4093 26.9792L30.5892 27.0304C20.4031 27.1638 10.2144 27.3407 0.0283203 27.6355C10.217 27.8355 20.4056 27.9175 30.5917 27.9585L34.4118 27.9765L38.2319 27.9816L45.8721 27.9893L61.1526 27.9509L76.433 27.8483L84.0732 27.7714L87.8933 27.7304L91.7134 27.6791C101.899 27.5432 112.088 27.3689 122.274 27.074V27.0689Z" fill="url(#paint14_linear_111_3445)"/>
<path d="M41.4855 38.5546C42.2495 39.3058 42.993 40.0365 43.6801 40.7057C43.4186 40.9338 43.1366 40.9749 42.8058 40.8056C42.7597 40.8569 42.7135 40.9082 42.6546 40.9749C42.7289 41.0184 42.7879 41.0646 42.8571 41.0902C43.1673 41.203 43.4699 41.1056 43.7622 40.8928C43.8596 40.821 43.898 40.8441 43.9467 40.9492C43.8083 41.0774 43.6622 41.2107 43.5237 41.3389C43.5853 41.403 43.6288 41.4466 43.6929 41.5133C43.8262 41.3646 43.957 41.2159 44.0852 41.0748C44.1852 41.1133 44.1852 41.1671 44.1313 41.2569C44.0237 41.4389 44.0057 41.7081 44.1416 41.7978C44.1852 41.7543 44.2313 41.7107 44.2749 41.6697C44.2108 41.5107 44.2185 41.4389 44.3083 41.303C44.4364 41.4287 44.5646 41.5517 44.6928 41.6774C44.4749 41.9004 44.2493 42.1363 44.057 42.3388C44.2493 42.5516 44.4313 42.7542 44.5877 42.9336C44.6595 42.8695 44.7262 42.8106 44.8133 42.7336C44.6698 42.5952 44.5262 42.4593 44.3929 42.3311C44.5569 42.1568 44.7159 41.9901 44.8902 41.8107C45.0261 41.9517 45.162 42.0927 45.2902 42.226C45.3774 42.1414 45.4543 42.0696 45.544 41.9824C45.3979 41.8517 45.2492 41.7184 45.1082 41.5902C45.2851 41.4107 45.4517 41.2441 45.6414 41.0543C45.785 41.1953 45.926 41.3338 46.0593 41.4645C46.1388 41.3928 46.2055 41.3312 46.2721 41.2697C46.067 41.0954 45.8645 40.9185 45.6466 40.7262C45.5363 40.8338 45.4158 40.9492 45.3005 41.0697C45.1851 41.1877 45.0723 41.3107 44.9697 41.4184C44.8261 41.2825 44.7005 41.162 44.5723 41.0364C44.6928 40.962 44.8082 40.9595 44.921 41.0159C44.9672 40.9672 45.0082 40.9236 45.0518 40.8774C44.9236 40.7595 44.7313 40.7518 44.521 40.8723C44.4185 40.9313 44.3723 40.9185 44.3288 40.8031C44.4698 40.6723 44.6185 40.5364 44.7646 40.4031C44.7108 40.3467 44.6697 40.3006 44.6031 40.2288C44.4518 40.3877 44.3108 40.5364 44.1672 40.6877L44.0878 40.6005C44.4339 40.057 44.4672 39.6442 44.1852 39.4289C44.1365 39.4776 44.0878 39.5263 44.0365 39.5776C44.2108 39.8699 44.1724 40.1801 43.9467 40.4313C43.2571 39.7673 42.5084 39.0392 41.7444 38.2905C41.6649 38.3854 41.5778 38.4751 41.4829 38.5546H41.4855Z" fill="url(#paint15_linear_111_3445)"/>
<path d="M30.4917 6.45028C32.8273 6.36824 35.1886 6.77588 37.3833 7.62707C38.4806 8.05523 39.5369 8.5962 40.5291 9.23203C41.5239 9.86786 42.452 10.6114 43.3031 11.4344C45.0055 13.0803 46.3695 15.0801 47.3027 17.2619C48.2334 19.4463 48.7128 21.823 48.7308 24.1971C48.7359 26.5738 48.277 28.953 47.3668 31.1451C46.9105 32.2424 46.3464 33.291 45.6849 34.2755C45.5183 34.5216 45.3414 34.7601 45.1722 35.0011C44.9927 35.2369 44.8081 35.4677 44.6235 35.701C44.4312 35.9266 44.2338 36.1471 44.039 36.3702L43.4236 37.0111C42.5801 37.8418 41.6597 38.593 40.6701 39.2391C39.6805 39.8852 38.6319 40.4364 37.5371 40.8748C35.3502 41.7491 32.9914 42.1772 30.6558 42.1157C32.9889 42.0311 35.2963 41.5209 37.414 40.5825C38.4729 40.1185 39.4856 39.5493 40.4317 38.8904C41.3777 38.2289 42.2622 37.4854 43.0647 36.6573L43.6493 36.024C43.8339 35.8035 44.021 35.5856 44.2031 35.3626C44.3748 35.1318 44.5543 34.9088 44.7261 34.678C44.8876 34.4422 45.0568 34.2088 45.2158 33.9678C45.8439 33.0064 46.3772 31.9834 46.8028 30.9195C47.2309 29.8555 47.5591 28.7505 47.7745 27.6249C47.9898 26.4994 48.0924 25.3508 48.0873 24.2048C48.0821 23.0588 47.9693 21.9127 47.7437 20.7872C47.5206 19.6617 47.1797 18.5618 46.7412 17.5029C46.3054 16.4415 45.7619 15.4237 45.1235 14.4674C44.9645 14.2289 44.7927 13.9982 44.6286 13.7623C44.4569 13.5316 44.2748 13.3085 44.1005 13.0803C43.9159 12.8599 43.7287 12.6419 43.5416 12.424L42.9519 11.7959C42.1443 10.9754 41.2521 10.2396 40.2983 9.58841C39.3472 8.9372 38.3293 8.37828 37.2653 7.92448C35.1399 7.00663 32.8273 6.51694 30.4943 6.45541L30.4917 6.45028Z" fill="url(#paint16_linear_111_3445)"/>
<path d="M41.3523 9.90906C42.1086 9.15016 42.847 8.41435 43.5264 7.73749C43.2649 7.51188 42.9803 7.47342 42.6522 7.64519C42.606 7.59648 42.5599 7.5452 42.4983 7.47855C42.5701 7.43496 42.6316 7.38625 42.7009 7.36061C43.0111 7.24268 43.3136 7.3401 43.6085 7.55033C43.7085 7.62212 43.7469 7.59648 43.7931 7.49136C43.6521 7.36573 43.5059 7.23498 43.3675 7.10679C43.429 7.04269 43.4726 6.99654 43.5341 6.93245C43.6674 7.08115 43.8008 7.22729 43.9315 7.3683C44.0315 7.32985 44.0289 7.27344 43.9751 7.18371C43.8648 7.00424 43.8443 6.73247 43.9802 6.64273C44.0238 6.68632 44.07 6.72991 44.1135 6.77093C44.052 6.92988 44.0597 7.00424 44.1494 7.13756C44.2776 7.01193 44.4033 6.8863 44.5314 6.76068C44.311 6.54019 44.0828 6.30688 43.8905 6.10434C44.0828 5.88898 44.2622 5.68386 44.4161 5.50439C44.4879 5.56849 44.5571 5.62746 44.6417 5.70181C44.4981 5.84026 44.3571 5.9787 44.2263 6.1069C44.393 6.28124 44.552 6.44276 44.7289 6.62223C44.8622 6.48122 44.9981 6.33764 45.1263 6.20432C45.216 6.28893 45.2903 6.36072 45.3826 6.44532C45.2365 6.57864 45.0904 6.71196 44.9493 6.84271C45.1263 7.01962 45.2955 7.18627 45.4877 7.37343C45.6313 7.22985 45.7698 7.09141 45.9031 6.95809C45.9826 7.02988 46.0492 7.08884 46.1185 7.15038C45.9159 7.32728 45.7134 7.50674 45.498 7.69903C45.3878 7.59135 45.2647 7.47855 45.1468 7.35805C45.0288 7.24011 44.916 7.11961 44.8135 7.01193C44.6725 7.15037 44.5468 7.27088 44.4186 7.39907C44.5391 7.47342 44.6571 7.47342 44.7673 7.41702C44.8135 7.46316 44.8571 7.50931 44.8981 7.5529C44.7724 7.67083 44.5776 7.68108 44.3674 7.56315C44.2648 7.50674 44.2161 7.51957 44.1751 7.63238C44.3161 7.76313 44.4673 7.89645 44.6135 8.02977C44.5622 8.08617 44.5186 8.13488 44.4545 8.20411C44.3007 8.04771 44.1597 7.89901 44.0135 7.75031C43.9828 7.7862 43.9571 7.81184 43.9341 7.83748C44.2828 8.37588 44.3238 8.79122 44.0417 9.00658C43.993 8.95787 43.9418 8.90917 43.8931 8.86045C44.0648 8.56561 44.0238 8.25538 43.7931 8.00669C43.1085 8.67842 42.3676 9.41167 41.6112 10.168C41.5318 10.0731 41.4446 9.98597 41.3472 9.90649L41.3523 9.90906Z" fill="url(#paint17_linear_111_3445)"/>
<path d="M54.9938 3.18408C55.2553 6.68114 55.4015 10.1782 55.504 13.6753C55.6143 17.1723 55.6655 20.6694 55.6861 24.1665C55.7014 27.6635 55.6835 31.1606 55.604 34.6602C55.5322 38.1573 55.4194 41.6569 55.1887 45.154C54.9246 41.6569 54.7785 38.1598 54.6759 34.6628C54.5657 31.1657 54.5144 27.6686 54.4964 24.1716C54.4836 20.6745 54.5016 17.1775 54.581 13.6778C54.6528 10.1808 54.7656 6.68114 54.9938 3.18408Z" fill="url(#paint18_linear_111_3445)"/>
<defs>
<linearGradient id="paint0_linear_111_3445" x1="99.0188" y1="23.9151" x2="82.0489" y2="23.9921" gradientUnits="userSpaceOnUse">
<stop stop-color="#A4692A"/>
<stop offset="0.07" stop-color="#E1B453"/>
<stop offset="0.12" stop-color="#D4A245"/>
<stop offset="0.17" stop-color="#BB8332"/>
<stop offset="0.23" stop-color="#B17B32"/>
<stop offset="0.33" stop-color="#BE8C3C"/>
<stop offset="0.41" stop-color="#D3B15F"/>
<stop offset="0.52" stop-color="#FAF0A0"/>
<stop offset="0.59" stop-color="#FFFFC2"/>
<stop offset="0.66" stop-color="#FAF0A0"/>
<stop offset="0.73" stop-color="#D3B15F"/>
<stop offset="0.82" stop-color="#BE8C3C"/>
<stop offset="0.92" stop-color="#BE8C3C"/>
<stop offset="1" stop-color="#A2682A"/>
</linearGradient>
<linearGradient id="paint1_linear_111_3445" x1="103.533" y1="23.895" x2="82.0487" y2="23.9925" gradientUnits="userSpaceOnUse">
<stop stop-color="#A4692A"/>
<stop offset="0.07" stop-color="#E1B453"/>
<stop offset="0.12" stop-color="#D4A245"/>
<stop offset="0.17" stop-color="#BB8332"/>
<stop offset="0.23" stop-color="#B17B32"/>
<stop offset="0.33" stop-color="#BE8C3C"/>
<stop offset="0.41" stop-color="#D3B15F"/>
<stop offset="0.52" stop-color="#FAF0A0"/>
<stop offset="0.59" stop-color="#FFFFC2"/>
<stop offset="0.66" stop-color="#FAF0A0"/>
<stop offset="0.73" stop-color="#D3B15F"/>
<stop offset="0.82" stop-color="#BE8C3C"/>
<stop offset="0.92" stop-color="#BE8C3C"/>
<stop offset="1" stop-color="#A2682A"/>
</linearGradient>
<linearGradient id="paint2_linear_111_3445" x1="95.5869" y1="43.3979" x2="88.6672" y2="43.4293" gradientUnits="userSpaceOnUse">
<stop stop-color="#A4692A"/>
<stop offset="0.07" stop-color="#E1B453"/>
<stop offset="0.12" stop-color="#D4A245"/>
<stop offset="0.17" stop-color="#BB8332"/>
<stop offset="0.23" stop-color="#B17B32"/>
<stop offset="0.33" stop-color="#BE8C3C"/>
<stop offset="0.41" stop-color="#D3B15F"/>
<stop offset="0.52" stop-color="#FAF0A0"/>
<stop offset="0.59" stop-color="#FFFFC2"/>
<stop offset="0.66" stop-color="#FAF0A0"/>
<stop offset="0.73" stop-color="#D3B15F"/>
<stop offset="0.82" stop-color="#BE8C3C"/>
<stop offset="0.92" stop-color="#BE8C3C"/>
<stop offset="1" stop-color="#A2682A"/>
</linearGradient>
<linearGradient id="paint3_linear_111_3445" x1="107.868" y1="35.5278" x2="100.966" y2="35.5591" gradientUnits="userSpaceOnUse">
<stop stop-color="#A4692A"/>
<stop offset="0.07" stop-color="#E1B453"/>
<stop offset="0.12" stop-color="#D4A245"/>
<stop offset="0.17" stop-color="#BB8332"/>
<stop offset="0.23" stop-color="#B17B32"/>
<stop offset="0.33" stop-color="#BE8C3C"/>
<stop offset="0.41" stop-color="#D3B15F"/>
<stop offset="0.52" stop-color="#FAF0A0"/>
<stop offset="0.59" stop-color="#FFFFC2"/>
<stop offset="0.66" stop-color="#FAF0A0"/>
<stop offset="0.73" stop-color="#D3B15F"/>
<stop offset="0.82" stop-color="#BE8C3C"/>
<stop offset="0.92" stop-color="#BE8C3C"/>
<stop offset="1" stop-color="#A2682A"/>
</linearGradient>
<linearGradient id="paint4_linear_111_3445" x1="97.1752" y1="36.9071" x2="94.232" y2="36.9204" gradientUnits="userSpaceOnUse">
<stop stop-color="#A4692A"/>
<stop offset="0.07" stop-color="#E1B453"/>
<stop offset="0.12" stop-color="#D4A245"/>
<stop offset="0.17" stop-color="#BB8332"/>
<stop offset="0.23" stop-color="#B17B32"/>
<stop offset="0.33" stop-color="#BE8C3C"/>
<stop offset="0.41" stop-color="#D3B15F"/>
<stop offset="0.52" stop-color="#FAF0A0"/>
<stop offset="0.59" stop-color="#FFFFC2"/>
<stop offset="0.66" stop-color="#FAF0A0"/>
<stop offset="0.73" stop-color="#D3B15F"/>
<stop offset="0.82" stop-color="#BE8C3C"/>
<stop offset="0.92" stop-color="#BE8C3C"/>
<stop offset="1" stop-color="#A2682A"/>
</linearGradient>
<linearGradient id="paint5_linear_111_3445" x1="95.4073" y1="4.46179" x2="88.4876" y2="4.4932" gradientUnits="userSpaceOnUse">
<stop stop-color="#A4692A"/>
<stop offset="0.07" stop-color="#E1B453"/>
<stop offset="0.12" stop-color="#D4A245"/>
<stop offset="0.17" stop-color="#BB8332"/>
<stop offset="0.23" stop-color="#B17B32"/>
<stop offset="0.33" stop-color="#BE8C3C"/>
<stop offset="0.41" stop-color="#D3B15F"/>
<stop offset="0.52" stop-color="#FAF0A0"/>
<stop offset="0.59" stop-color="#FFFFC2"/>
<stop offset="0.66" stop-color="#FAF0A0"/>
<stop offset="0.73" stop-color="#D3B15F"/>
<stop offset="0.82" stop-color="#BE8C3C"/>
<stop offset="0.92" stop-color="#BE8C3C"/>
<stop offset="1" stop-color="#A2682A"/>
</linearGradient>
<linearGradient id="paint6_linear_111_3445" x1="107.762" y1="12.2204" x2="100.858" y2="12.2517" gradientUnits="userSpaceOnUse">
<stop stop-color="#A4692A"/>
<stop offset="0.07" stop-color="#E1B453"/>
<stop offset="0.12" stop-color="#D4A245"/>
<stop offset="0.17" stop-color="#BB8332"/>
<stop offset="0.23" stop-color="#B17B32"/>
<stop offset="0.33" stop-color="#BE8C3C"/>
<stop offset="0.41" stop-color="#D3B15F"/>
<stop offset="0.52" stop-color="#FAF0A0"/>
<stop offset="0.59" stop-color="#FFFFC2"/>
<stop offset="0.66" stop-color="#FAF0A0"/>
<stop offset="0.73" stop-color="#D3B15F"/>
<stop offset="0.82" stop-color="#BE8C3C"/>
<stop offset="0.92" stop-color="#BE8C3C"/>
<stop offset="1" stop-color="#A2682A"/>
</linearGradient>
<linearGradient id="paint7_linear_111_3445" x1="97.055" y1="10.9359" x2="94.1143" y2="10.9492" gradientUnits="userSpaceOnUse">
<stop stop-color="#A4692A"/>
<stop offset="0.07" stop-color="#E1B453"/>
<stop offset="0.12" stop-color="#D4A245"/>
<stop offset="0.17" stop-color="#BB8332"/>
<stop offset="0.23" stop-color="#B17B32"/>
<stop offset="0.33" stop-color="#BE8C3C"/>
<stop offset="0.41" stop-color="#D3B15F"/>
<stop offset="0.52" stop-color="#FAF0A0"/>
<stop offset="0.59" stop-color="#FFFFC2"/>
<stop offset="0.66" stop-color="#FAF0A0"/>
<stop offset="0.73" stop-color="#D3B15F"/>
<stop offset="0.82" stop-color="#BE8C3C"/>
<stop offset="0.92" stop-color="#BE8C3C"/>
<stop offset="1" stop-color="#A2682A"/>
</linearGradient>
<linearGradient id="paint8_linear_111_3445" x1="131.463" y1="23.7656" x2="103.667" y2="23.8918" gradientUnits="userSpaceOnUse">
<stop stop-color="#A4692A"/>
<stop offset="0.07" stop-color="#E1B453"/>
<stop offset="0.12" stop-color="#D4A245"/>
<stop offset="0.17" stop-color="#BB8332"/>
<stop offset="0.23" stop-color="#B17B32"/>
<stop offset="0.33" stop-color="#BE8C3C"/>
<stop offset="0.41" stop-color="#D3B15F"/>
<stop offset="0.52" stop-color="#FAF0A0"/>
<stop offset="0.59" stop-color="#FFFFC2"/>
<stop offset="0.66" stop-color="#FAF0A0"/>
<stop offset="0.73" stop-color="#D3B15F"/>
<stop offset="0.82" stop-color="#BE8C3C"/>
<stop offset="0.92" stop-color="#BE8C3C"/>
<stop offset="1" stop-color="#A2682A"/>
</linearGradient>
<linearGradient id="paint9_linear_111_3445" x1="121.203" y1="23.8119" x2="98.9902" y2="23.9127" gradientUnits="userSpaceOnUse">
<stop stop-color="#A4692A"/>
<stop offset="0.07" stop-color="#E1B453"/>
<stop offset="0.12" stop-color="#D4A245"/>
<stop offset="0.17" stop-color="#BB8332"/>
<stop offset="0.23" stop-color="#B17B32"/>
<stop offset="0.33" stop-color="#BE8C3C"/>
<stop offset="0.41" stop-color="#D3B15F"/>
<stop offset="0.52" stop-color="#FAF0A0"/>
<stop offset="0.59" stop-color="#FFFFC2"/>
<stop offset="0.66" stop-color="#FAF0A0"/>
<stop offset="0.73" stop-color="#D3B15F"/>
<stop offset="0.82" stop-color="#BE8C3C"/>
<stop offset="0.92" stop-color="#BE8C3C"/>
<stop offset="1" stop-color="#A2682A"/>
</linearGradient>
<linearGradient id="paint10_linear_111_3445" x1="81.0233" y1="23.9969" x2="63.4125" y2="24.0768" gradientUnits="userSpaceOnUse">
<stop stop-color="#A4692A"/>
<stop offset="0.07" stop-color="#E1B453"/>
<stop offset="0.12" stop-color="#D4A245"/>
<stop offset="0.17" stop-color="#BB8332"/>
<stop offset="0.23" stop-color="#B17B32"/>
<stop offset="0.33" stop-color="#BE8C3C"/>
<stop offset="0.41" stop-color="#D3B15F"/>
<stop offset="0.52" stop-color="#FAF0A0"/>
<stop offset="0.59" stop-color="#FFFFC2"/>
<stop offset="0.66" stop-color="#FAF0A0"/>
<stop offset="0.73" stop-color="#D3B15F"/>
<stop offset="0.82" stop-color="#BE8C3C"/>
<stop offset="0.92" stop-color="#BE8C3C"/>
<stop offset="1" stop-color="#A2682A"/>
</linearGradient>
<linearGradient id="paint11_linear_111_3445" x1="74.5213" y1="24.0264" x2="60.4486" y2="24.0902" gradientUnits="userSpaceOnUse">
<stop stop-color="#A4692A"/>
<stop offset="0.07" stop-color="#E1B453"/>
<stop offset="0.12" stop-color="#D4A245"/>
<stop offset="0.17" stop-color="#BB8332"/>
<stop offset="0.23" stop-color="#B17B32"/>
<stop offset="0.33" stop-color="#BE8C3C"/>
<stop offset="0.41" stop-color="#D3B15F"/>
<stop offset="0.52" stop-color="#FAF0A0"/>
<stop offset="0.59" stop-color="#FFFFC2"/>
<stop offset="0.66" stop-color="#FAF0A0"/>
<stop offset="0.73" stop-color="#D3B15F"/>
<stop offset="0.82" stop-color="#BE8C3C"/>
<stop offset="0.92" stop-color="#BE8C3C"/>
<stop offset="1" stop-color="#A2682A"/>
</linearGradient>
<linearGradient id="paint12_linear_111_3445" x1="136.811" y1="23.7416" x2="40.0353" y2="24.1807" gradientUnits="userSpaceOnUse">
<stop stop-color="#A4692A"/>
<stop offset="0.07" stop-color="#E1B453"/>
<stop offset="0.12" stop-color="#D4A245"/>
<stop offset="0.17" stop-color="#BB8332"/>
<stop offset="0.23" stop-color="#B17B32"/>
<stop offset="0.33" stop-color="#BE8C3C"/>
<stop offset="0.41" stop-color="#D3B15F"/>
<stop offset="0.52" stop-color="#FAF0A0"/>
<stop offset="0.59" stop-color="#FFFFC2"/>
<stop offset="0.66" stop-color="#FAF0A0"/>
<stop offset="0.73" stop-color="#D3B15F"/>
<stop offset="0.82" stop-color="#BE8C3C"/>
<stop offset="0.92" stop-color="#BE8C3C"/>
<stop offset="1" stop-color="#A2682A"/>
</linearGradient>
<linearGradient id="paint13_linear_111_3445" x1="122.263" y1="20.5997" x2="0.0153223" y2="21.1544" gradientUnits="userSpaceOnUse">
<stop stop-color="#A4692A"/>
<stop offset="0.07" stop-color="#E1B453"/>
<stop offset="0.12" stop-color="#D4A245"/>
<stop offset="0.17" stop-color="#BB8332"/>
<stop offset="0.23" stop-color="#B17B32"/>
<stop offset="0.33" stop-color="#BE8C3C"/>
<stop offset="0.41" stop-color="#D3B15F"/>
<stop offset="0.52" stop-color="#FAF0A0"/>
<stop offset="0.59" stop-color="#FFFFC2"/>
<stop offset="0.66" stop-color="#FAF0A0"/>
<stop offset="0.73" stop-color="#D3B15F"/>
<stop offset="0.82" stop-color="#BE8C3C"/>
<stop offset="0.92" stop-color="#BE8C3C"/>
<stop offset="1" stop-color="#A2682A"/>
</linearGradient>
<linearGradient id="paint14_linear_111_3445" x1="122.292" y1="27.0197" x2="0.0471337" y2="27.5744" gradientUnits="userSpaceOnUse">
<stop stop-color="#A4692A"/>
<stop offset="0.07" stop-color="#E1B453"/>
<stop offset="0.12" stop-color="#D4A245"/>
<stop offset="0.17" stop-color="#BB8332"/>
<stop offset="0.23" stop-color="#B17B32"/>
<stop offset="0.33" stop-color="#BE8C3C"/>
<stop offset="0.41" stop-color="#D3B15F"/>
<stop offset="0.52" stop-color="#FAF0A0"/>
<stop offset="0.59" stop-color="#FFFFC2"/>
<stop offset="0.66" stop-color="#FAF0A0"/>
<stop offset="0.73" stop-color="#D3B15F"/>
<stop offset="0.82" stop-color="#BE8C3C"/>
<stop offset="0.92" stop-color="#BE8C3C"/>
<stop offset="1" stop-color="#A2682A"/>
</linearGradient>
<linearGradient id="paint15_linear_111_3445" x1="46.2888" y1="40.5425" x2="41.5124" y2="40.5642" gradientUnits="userSpaceOnUse">
<stop stop-color="#A4692A"/>
<stop offset="0.07" stop-color="#E1B453"/>
<stop offset="0.12" stop-color="#D4A245"/>
<stop offset="0.17" stop-color="#BB8332"/>
<stop offset="0.23" stop-color="#B17B32"/>
<stop offset="0.33" stop-color="#BE8C3C"/>
<stop offset="0.41" stop-color="#D3B15F"/>
<stop offset="0.52" stop-color="#FAF0A0"/>
<stop offset="0.59" stop-color="#FFFFC2"/>
<stop offset="0.66" stop-color="#FAF0A0"/>
<stop offset="0.73" stop-color="#D3B15F"/>
<stop offset="0.82" stop-color="#BE8C3C"/>
<stop offset="0.92" stop-color="#BE8C3C"/>
<stop offset="1" stop-color="#A2682A"/>
</linearGradient>
<linearGradient id="paint16_linear_111_3445" x1="48.7499" y1="24.1431" x2="30.5931" y2="24.2255" gradientUnits="userSpaceOnUse">
<stop stop-color="#A4692A"/>
<stop offset="0.07" stop-color="#E1B453"/>
<stop offset="0.12" stop-color="#D4A245"/>
<stop offset="0.17" stop-color="#BB8332"/>
<stop offset="0.23" stop-color="#B17B32"/>
<stop offset="0.33" stop-color="#BE8C3C"/>
<stop offset="0.41" stop-color="#D3B15F"/>
<stop offset="0.52" stop-color="#FAF0A0"/>
<stop offset="0.59" stop-color="#FFFFC2"/>
<stop offset="0.66" stop-color="#FAF0A0"/>
<stop offset="0.73" stop-color="#D3B15F"/>
<stop offset="0.82" stop-color="#BE8C3C"/>
<stop offset="0.92" stop-color="#BE8C3C"/>
<stop offset="1" stop-color="#A2682A"/>
</linearGradient>
<linearGradient id="paint17_linear_111_3445" x1="46.1402" y1="7.76954" x2="41.3612" y2="7.79122" gradientUnits="userSpaceOnUse">
<stop stop-color="#A4692A"/>
<stop offset="0.07" stop-color="#E1B453"/>
<stop offset="0.12" stop-color="#D4A245"/>
<stop offset="0.17" stop-color="#BB8332"/>
<stop offset="0.23" stop-color="#B17B32"/>
<stop offset="0.33" stop-color="#BE8C3C"/>
<stop offset="0.41" stop-color="#D3B15F"/>
<stop offset="0.52" stop-color="#FAF0A0"/>
<stop offset="0.59" stop-color="#FFFFC2"/>
<stop offset="0.66" stop-color="#FAF0A0"/>
<stop offset="0.73" stop-color="#D3B15F"/>
<stop offset="0.82" stop-color="#BE8C3C"/>
<stop offset="0.92" stop-color="#BE8C3C"/>
<stop offset="1" stop-color="#A2682A"/>
</linearGradient>
<linearGradient id="paint18_linear_111_3445" x1="55.7025" y1="24.1117" x2="54.5129" y2="24.1171" gradientUnits="userSpaceOnUse">
<stop stop-color="#A4692A"/>
<stop offset="0.07" stop-color="#E1B453"/>
<stop offset="0.12" stop-color="#D4A245"/>
<stop offset="0.17" stop-color="#BB8332"/>
<stop offset="0.23" stop-color="#B17B32"/>
<stop offset="0.33" stop-color="#BE8C3C"/>
<stop offset="0.41" stop-color="#D3B15F"/>
<stop offset="0.52" stop-color="#FAF0A0"/>
<stop offset="0.59" stop-color="#FFFFC2"/>
<stop offset="0.66" stop-color="#FAF0A0"/>
<stop offset="0.73" stop-color="#D3B15F"/>
<stop offset="0.82" stop-color="#BE8C3C"/>
<stop offset="0.92" stop-color="#BE8C3C"/>
<stop offset="1" stop-color="#A2682A"/>
</linearGradient>
</defs>
</svg>
