<svg width="456" height="456" viewBox="0 0 456 456" fill="none" xmlns="http://www.w3.org/2000/svg">
<g filter="url(#filter0_b_143_298)">
<rect x="4" y="4.00049" width="448" height="449" rx="16" fill="white" fill-opacity="0.04"/>
<rect x="4.5" y="4.50049" width="447" height="448" rx="15.5" stroke="url(#paint0_linear_143_298)"/>
<rect x="4.5" y="4.50049" width="447" height="448" rx="15.5" stroke="url(#paint1_linear_143_298)"/>
</g>
<path fill-rule="evenodd" clip-rule="evenodd" d="M6.34211 44.5439C5.58216 43.3639 5.09409 42.0555 5.01622 40.476C4.84704 37.0406 5.82317 33.5148 8.55015 31.2439C10.0378 30.0051 12.0156 29.2334 13.9591 29.3585C14.3888 28.0367 14.7486 26.6915 15.0353 25.3362C11.7867 24.8697 8.43334 25.98 5.9044 28.0862C2.1704 31.1957 0.66123 35.9369 0.894186 40.6781C1.0345 43.5359 2.08783 45.9534 3.88232 48.1573C4.07835 48.3976 4.28043 48.6332 4.48787 48.8634C4.99876 47.3783 5.63654 45.946 6.34211 44.5439ZM61.3034 15.5499C55.7669 17.7411 50.421 19.1667 44.5441 16.9915C45.4752 15.8277 46.4386 14.6885 47.4496 13.5923C50.2981 14.3131 53.105 14.0614 56.0582 13.1291C55.4755 11.2799 54.4282 9.47885 53.1567 8.0158C51.6878 6.32519 49.8154 5.02544 47.5423 4.44049C43.7767 3.47137 40.3361 4.79253 37.5044 7.05471C36.3974 6.1746 35.2796 5.30587 34.1202 4.49537C35.4884 3.29535 36.9989 2.26532 38.6551 1.49029C41.7721 0.0299195 45.2221 -0.406453 48.5735 0.455583C52.0201 1.34305 54.8069 3.39507 56.884 6.06149C59.1101 8.91933 60.3213 12.2229 61.3034 15.5499ZM68.3599 1.17038C63.5 1.00049 59.5472 0.389993 55.3097 2.11005C54.9062 2.27402 54.5081 2.45071 54.1147 2.63744C55.2922 3.53495 56.3415 4.59242 57.2579 5.76768C60.5831 4.50943 63.5 5.00049 67.4435 5.18205C71.3871 5.95658 161.592 5.07913 161.541 3.92263C161.5 3.00049 72.119 1.92928 68.3599 1.17038ZM49.3247 5.60437C44.5226 9.28208 40.5905 14.4349 37.1721 19.1078C34.2108 23.1556 31.316 27.417 27.9747 31.1596C26.8341 32.4372 25.5633 33.7363 24.1689 34.8788C24.4112 36.5734 24.3938 38.2741 24.1259 39.9727C26.7428 38.3537 29.0328 36.1638 31.0575 33.8956C34.4954 30.0446 37.4601 25.6969 40.506 21.5333C43.7996 17.031 47.841 11.658 52.7103 8.22997C51.7543 7.15175 50.6257 6.24488 49.3247 5.60437ZM19.2339 37.8096C18.9929 37.8966 18.7498 37.9769 18.5041 38.0492C16.19 38.7272 13.9249 38.689 11.7464 37.6135C9.82369 36.6638 8.34204 35.1686 7.24574 33.3876C6.31727 34.7556 5.78893 36.3552 5.58014 38.0124C6.78788 39.3429 8.22791 40.468 9.91566 41.3005C12.8367 42.7422 15.0977 42.943 18.202 42.35C18.7894 40.8756 19.1587 39.3576 19.2339 37.8096ZM20.4228 0.568692C17.7918 0.555306 15.3381 1.17238 13.1146 2.25729C14.4002 3.0524 15.5818 4.04628 16.6217 5.26839C21.1284 3.8214 26.438 5.02277 30.2902 7.46096C33.6831 9.60869 36.5873 12.4277 39.9501 14.623C40.8007 13.5367 41.6754 12.4638 42.5831 11.4211C40.3395 10.0143 38.2697 8.24067 36.2 6.63172C35.0037 5.70142 33.7845 4.79856 32.5022 3.98739C28.7461 1.60943 24.9074 0.350506 20.4228 0.568692ZM8.36822 5.56422C3.67286 9.96475 0.772002 16.6214 0.582684 22.8243C0.488025 25.9198 0.963334 29.1912 2.08917 32.1735C2.86256 30.6262 3.89709 29.2454 5.17868 28.0862C4.80407 26.3595 4.65772 24.5979 4.70807 22.9495C4.87188 17.5825 7.6237 11.4278 12.0452 7.80765C10.973 6.79101 9.72164 6.06618 8.36822 5.56422ZM30.6406 8.25674C30.26 8.75602 29.8954 9.26602 29.5477 9.78337C27.4645 12.8821 24.522 15.3404 20.9532 16.5378C17.9543 17.5444 14.6392 17.5885 11.6907 16.3805C10.1996 15.7694 8.89656 14.8773 7.81235 13.7509C7.10543 15.0386 6.52875 16.3979 6.09707 17.7733C7.2934 18.7665 8.6428 19.5803 10.1218 20.186C13.9907 21.7716 18.3282 21.7602 22.2703 20.4377C26.7052 18.9499 30.3855 15.9287 32.9769 12.0737C33.285 11.6152 33.6126 11.1601 33.9584 10.7123C32.8775 9.86168 31.7852 9.02173 30.6406 8.25674ZM4.92021 8.81358C4.43685 7.32443 4.18577 5.75831 4.10789 4.18817C7.88351 4.50006 11.4698 5.79512 13.751 9.06925C15.2871 11.2739 15.996 14.0092 16.1974 16.8128C17.5783 16.8369 18.964 16.6388 20.2906 16.2486C19.7971 10.3395 17.4065 5.39355 12.7004 2.56315C8.80123 0.217319 4.4637 -0.0122454 0.0536673 0.000471012C-0.129609 4.62789 0.0456111 9.08598 2.37516 13.2663C3.07738 11.7042 3.93133 10.205 4.92021 8.81224V8.81358ZM16.0759 21.876C15.9792 22.7594 15.8496 23.6208 15.6979 24.444C15.1461 27.4303 14.2277 30.42 13.0052 33.2016C12.4688 34.423 11.8585 35.6116 11.2181 36.7829C11.4571 36.9281 11.7034 37.064 11.9579 37.1898C13.03 37.7192 14.125 37.9809 15.236 38.0211C15.7885 36.983 16.3122 35.9302 16.7855 34.8533C18.1349 31.782 19.1473 28.4878 19.7568 25.1903C19.9891 23.9347 20.1583 22.6938 20.263 21.4771C18.8861 21.7669 17.4797 21.9041 16.0752 21.8773L16.0759 21.876ZM8.70859 41.1874C7.03158 44.1202 5.43513 47.1059 4.51674 50.3646C3.27677 54.7672 3.57015 57.9095 5.37941 61.9077C7.89492 60.7265 9.61154 59.6235 11.7216 57.785C11.4638 56.3815 10.497 55.2297 9.51353 54.2478C8.96034 54.7384 8.40649 55.2129 7.858 55.6694C7.8768 54.2726 8.09364 52.8852 8.4904 51.477C9.33629 48.4746 10.9207 45.5866 12.5292 42.7997C11.6182 42.5695 10.6944 42.2168 9.70419 41.7282C9.36382 41.5602 9.03218 41.3795 8.70859 41.1874ZM18.4276 31.9955C20.0784 34.6198 19.9656 38.3564 19.1305 41.1439C18.0946 44.6021 15.8167 47.8434 13.1522 50.714C14.1357 51.7039 15.0279 52.7714 15.6979 54.0075C19.5595 49.9631 22.7631 45.2493 23.6311 40.0497C24.3877 35.5193 23.5298 30.414 19.783 27.3815C19.4151 28.9402 18.9613 30.4836 18.4276 31.9955ZM8.65287 66.5385C8.4038 66.8337 8.07417 67.1308 7.80765 67.4233C7.22963 68.0571 6.71404 68.7318 6.26827 69.4646C4.86181 71.7743 3.28647 74.3932 3.27438 77.0777C3.267 78.8433 3.39493 151.11 4.48787 151C5.45192 150.904 7.39507 78.6398 7.40179 77.0951C7.41051 75.1294 8.79989 73.1872 9.85457 71.5053C10.1721 70.9986 10.5373 70.5388 10.9442 70.1011C11.2731 69.7477 11.6632 69.397 11.9498 69.0135C14.9702 64.9757 17.9268 59.7078 15.4992 54.6634C14.2988 52.1677 12.1297 50.3579 10.0654 48.5275C9.46653 49.8988 8.96437 51.321 8.65891 52.7874C8.87642 52.9849 9.09327 53.1837 9.30675 53.3851C10.2359 54.2605 11.2194 55.2832 11.778 56.4431C12.3473 57.6257 12.3855 58.815 12.0895 60.0813C11.5625 62.3381 10.0237 64.7033 8.65287 66.5385Z" fill="url(#paint2_linear_143_298)"/>
<path fill-rule="evenodd" clip-rule="evenodd" d="M449.199 411.457C449.959 412.637 450.447 413.945 450.525 415.525C450.694 418.96 449.718 422.486 446.991 424.757C445.503 425.996 443.525 426.768 441.582 426.642C441.152 427.964 440.792 429.31 440.506 430.665C443.754 431.131 447.108 430.021 449.637 427.915C453.371 424.805 454.88 420.064 454.647 415.323C454.507 412.465 453.453 410.048 451.659 407.844C451.463 407.603 451.261 407.368 451.053 407.138C450.542 408.623 449.904 410.055 449.199 411.457ZM394.238 440.451C399.774 438.26 405.12 436.834 410.997 439.009C410.066 440.173 409.102 441.312 408.091 442.409C405.243 441.688 402.436 441.94 399.483 442.872C400.066 444.721 401.113 446.522 402.384 447.985C403.853 449.676 405.726 450.976 407.999 451.56C411.764 452.53 415.205 451.208 418.037 448.946C419.144 449.826 420.261 450.695 421.421 451.506C420.053 452.706 418.542 453.736 416.886 454.511C413.769 455.971 410.319 456.407 406.968 455.545C403.521 454.658 400.734 452.606 398.657 449.939C396.431 447.082 395.22 443.778 394.238 440.451ZM387.181 454.831C392.041 455 395.994 455.611 400.231 453.891C400.635 453.727 401.033 453.55 401.426 453.364C400.249 452.466 399.199 451.409 398.283 450.233C394.958 451.492 392.041 451 388.098 450.819C384.154 450.044 293.949 450.922 294 452.078C294.041 453 383.422 454.072 387.181 454.831ZM406.216 450.397C411.018 446.719 414.95 441.566 418.369 436.893C421.33 432.845 424.225 428.584 427.566 424.841C428.707 423.564 429.978 422.265 431.372 421.122C431.13 419.428 431.147 417.727 431.415 416.028C428.798 417.647 426.508 419.837 424.484 422.105C421.046 425.956 418.081 430.304 415.035 434.468C411.741 438.97 407.7 444.343 402.831 447.771C403.787 448.849 404.915 449.756 406.216 450.397ZM436.307 418.191C436.548 418.104 436.791 418.024 437.037 417.952C439.351 417.274 441.616 417.312 443.795 418.388C445.717 419.337 447.199 420.832 448.295 422.613C449.224 421.245 449.752 419.646 449.961 417.989C448.753 416.658 447.313 415.533 445.625 414.7C442.704 413.259 440.443 413.058 437.339 413.651C436.752 415.125 436.382 416.643 436.307 418.191ZM435.118 455.432C437.749 455.446 440.203 454.829 442.426 453.744C441.141 452.949 439.959 451.955 438.919 450.733C434.413 452.18 429.103 450.978 425.251 448.54C421.858 446.392 418.954 443.573 415.591 441.378C414.74 442.464 413.866 443.537 412.958 444.58C415.202 445.987 417.271 447.76 419.341 449.369C420.537 450.3 421.757 451.202 423.039 452.014C426.795 454.392 430.634 455.65 435.118 455.432ZM447.173 450.437C451.868 446.036 454.769 439.38 454.958 433.177C455.053 430.081 454.578 426.81 453.452 423.827C452.678 425.375 451.644 426.756 450.362 427.915C450.737 429.641 450.883 431.403 450.833 433.051C450.669 438.418 447.917 444.573 443.496 448.193C444.568 449.21 445.819 449.935 447.173 450.437ZM424.9 447.744C425.281 447.245 425.646 446.735 425.993 446.218C428.077 443.119 431.019 440.661 434.588 439.463C437.587 438.457 440.902 438.412 443.85 439.62C445.341 440.232 446.644 441.124 447.729 442.25C448.436 440.962 449.012 439.603 449.444 438.228C448.248 437.234 446.898 436.421 445.419 435.815C441.55 434.229 437.213 434.241 433.271 435.563C428.836 437.051 425.156 440.072 422.564 443.927C422.256 444.386 421.928 444.841 421.583 445.289C422.663 446.139 423.756 446.979 424.9 447.744ZM450.621 447.187C451.104 448.677 451.355 450.243 451.433 451.813C447.658 451.501 444.071 450.206 441.79 446.932C440.254 444.727 439.545 441.992 439.344 439.188C437.963 439.164 436.577 439.362 435.25 439.752C435.744 445.661 438.135 450.607 442.841 453.438C446.74 455.784 451.077 456.013 455.487 456.001C455.671 451.373 455.495 446.915 453.166 442.735C452.464 444.297 451.61 445.796 450.621 447.189L450.621 447.187ZM439.465 434.125C439.562 433.242 439.691 432.38 439.843 431.557C440.395 428.571 441.313 425.581 442.536 422.799C443.072 421.578 443.682 420.389 444.323 419.218C444.084 419.073 443.838 418.937 443.583 418.811C442.511 418.282 441.416 418.02 440.305 417.98C439.752 419.018 439.229 420.071 438.756 421.148C437.406 424.219 436.394 427.513 435.784 430.811C435.552 432.066 435.383 433.307 435.278 434.524C436.655 434.234 438.061 434.097 439.466 434.124L439.465 434.125ZM446.832 414.814C448.509 411.881 450.106 408.895 451.024 405.636C452.264 401.234 451.971 398.092 450.162 394.093C447.646 395.275 445.929 396.377 443.819 398.216C444.077 399.619 445.044 400.771 446.027 401.753C446.581 401.263 447.135 400.788 447.683 400.332C447.664 401.728 447.447 403.116 447.051 404.524C446.205 407.526 444.62 410.414 443.012 413.201C443.923 413.431 444.847 413.784 445.837 414.273C446.177 414.441 446.509 414.621 446.832 414.814ZM437.113 424.005C435.463 421.381 435.575 417.645 436.411 414.857C437.446 411.399 439.724 408.158 442.389 405.287C441.405 404.297 440.513 403.23 439.843 401.993C435.982 406.038 432.778 410.752 431.91 415.951C431.153 420.482 432.011 425.587 435.758 428.619C436.126 427.061 436.58 425.517 437.113 424.005ZM446.888 389.462C447.137 389.167 447.467 388.87 447.733 388.578C448.311 387.944 448.827 387.269 449.273 386.536C450.679 384.227 452.255 381.608 452.267 378.923C452.274 377.158 452.146 304.891 451.053 305C450.089 305.097 448.146 377.361 448.139 378.906C448.131 380.872 446.741 382.814 445.686 384.496C445.369 385.002 445.004 385.462 444.597 385.9C444.268 386.253 443.878 386.604 443.591 386.987C440.571 391.025 437.614 396.293 440.042 401.338C441.242 403.833 443.411 405.643 445.476 407.474C446.074 406.102 446.577 404.68 446.882 403.214C446.665 403.016 446.448 402.817 446.234 402.616C445.305 401.74 444.322 400.718 443.763 399.558C443.194 398.375 443.155 397.186 443.452 395.92C443.979 393.663 445.517 391.298 446.888 389.462Z" fill="url(#paint3_linear_143_298)"/>
<defs>
<filter id="filter0_b_143_298" x="-36" y="-35.9995" width="528" height="529" filterUnits="userSpaceOnUse" color-interpolation-filters="sRGB">
<feFlood flood-opacity="0" result="BackgroundImageFix"/>
<feGaussianBlur in="BackgroundImage" stdDeviation="20"/>
<feComposite in2="SourceAlpha" operator="in" result="effect1_backgroundBlur_143_298"/>
<feBlend mode="normal" in="SourceGraphic" in2="effect1_backgroundBlur_143_298" result="shape"/>
</filter>
<linearGradient id="paint0_linear_143_298" x1="4" y1="4.00049" x2="112.382" y2="170.918" gradientUnits="userSpaceOnUse">
<stop stop-color="#D39E5E"/>
<stop offset="1" stop-color="#D29C5E" stop-opacity="0"/>
</linearGradient>
<linearGradient id="paint1_linear_143_298" x1="295" y1="306.783" x2="440.406" y2="468.381" gradientUnits="userSpaceOnUse">
<stop stop-color="#E0B263" stop-opacity="0"/>
<stop offset="1" stop-color="#E0B263"/>
</linearGradient>
<linearGradient id="paint2_linear_143_298" x1="25.0388" y1="10.6959" x2="-2.10613" y2="101.85" gradientUnits="userSpaceOnUse">
<stop stop-color="#FFEDCE"/>
<stop offset="0.41" stop-color="#F0C868"/>
<stop offset="0.75" stop-color="#D09A5D"/>
<stop offset="0.96" stop-color="#E5B864"/>
</linearGradient>
<linearGradient id="paint3_linear_143_298" x1="430.502" y1="445.305" x2="457.647" y2="354.151" gradientUnits="userSpaceOnUse">
<stop stop-color="#FFEDCE"/>
<stop offset="0.41" stop-color="#F0C868"/>
<stop offset="0.75" stop-color="#D09A5D"/>
<stop offset="0.96" stop-color="#E5B864"/>
</linearGradient>
</defs>
</svg>
