<svg width="565" height="565" viewBox="0 0 565 565" fill="none" xmlns="http://www.w3.org/2000/svg">
<path d="M484.977 282.499C484.977 314.452 477.414 345.951 462.908 374.422C448.402 402.892 427.363 427.525 401.513 446.306C375.662 465.088 345.734 477.484 314.174 482.483C282.615 487.481 250.32 484.94 219.931 475.066L252.467 374.931C267.054 379.671 282.555 380.891 297.704 378.491C312.852 376.092 327.218 370.142 339.626 361.126C352.034 352.111 362.133 340.288 369.096 326.622C376.059 312.956 379.689 297.836 379.689 282.499H484.977Z" fill="#402C07"/>
<path d="M220.027 475.097C189.633 465.238 162.004 448.326 139.399 425.743C116.793 403.16 99.8536 375.548 89.9644 345.164L190.083 312.578C194.83 327.162 202.961 340.416 213.811 351.256C224.662 362.096 237.924 370.214 252.513 374.946L220.027 475.097Z" fill="#6A4E0F"/>
<path d="M90.12 345.64C80.1557 315.28 77.5181 282.993 82.4228 251.419C87.3275 219.845 99.6353 189.88 118.34 163.974L203.703 225.607C194.725 238.042 188.817 252.425 186.463 267.581C184.109 282.736 185.375 298.234 190.158 312.807L90.12 345.64Z" fill="#967319"/>
<path d="M117.866 164.633C136.466 138.652 160.952 117.442 189.32 102.737C217.688 88.0327 249.134 80.2506 281.086 80.0274L281.821 185.313C266.484 185.42 251.39 189.155 237.774 196.213C224.157 203.272 212.404 213.453 203.476 225.923L117.866 164.633Z" fill="#B69121"/>
<path d="M281.022 80.0277C323.779 79.7154 365.538 92.9473 400.314 117.827L339.051 203.456C322.359 191.514 302.314 185.163 281.791 185.313L281.022 80.0277Z" fill="#E8BA2A"/>
<path d="M399.659 117.361C434.533 142.103 460.679 177.249 474.349 217.764L374.588 251.426C368.026 231.979 355.476 215.109 338.736 203.233L399.659 117.361Z" fill="#FFD332"/>
<path d="M474.075 216.955C481.644 239.078 485.323 262.345 484.951 285.723L379.677 284.047C379.855 272.825 378.089 261.657 374.456 251.038L474.075 216.955Z" fill="#FFE789"/>
<line x1="251.952" y1="376.304" x2="219.952" y2="476.304" stroke="#E5B964" stroke-width="2"/>
<line x1="190.305" y1="313.951" x2="90.3048" y2="345.951" stroke="#E5B964" stroke-width="2"/>
<line x1="201.411" y1="225.807" x2="116.411" y2="163.807" stroke="#E5B964" stroke-width="2"/>
<line x1="281" y1="184.99" x2="282.01" y2="78.9896" stroke="#E5B964" stroke-width="2"/>
<line x1="338.192" y1="202.41" x2="400.192" y2="117.41" stroke="#E5B964" stroke-width="2"/>
<line x1="376.667" y1="250.056" x2="475.667" y2="215.056" stroke="#E5B964" stroke-width="2"/>
<line x1="382.009" y1="284.999" x2="488.009" y2="285.999" stroke="#E5B964" stroke-width="2"/>
<path fill-rule="evenodd" clip-rule="evenodd" d="M283.026 383.086C338.24 383.086 382.999 338.138 382.999 282.691C382.999 227.245 338.24 182.297 283.026 182.297C227.813 182.297 183.053 227.245 183.053 282.691C183.053 338.138 227.813 383.086 283.026 383.086ZM283.026 377.268C335.04 377.268 377.206 334.925 377.206 282.691C377.206 230.458 335.04 188.114 283.026 188.114C231.012 188.114 188.847 230.458 188.847 282.691C188.847 334.925 231.012 377.268 283.026 377.268Z" fill="url(#paint0_linear_159_2702)"/>
<path d="M274.408 276.565L280.088 260.218L256.606 281.797H337.442L268.997 335.599L251.682 348.496L267.535 301.45L260.177 296.801L284.093 297.128L277.654 313.657L305.681 291.642H227.767L309.631 216.043L301.948 239.438L291.073 272.352L299.08 276.82L274.408 276.565Z" fill="url(#paint1_linear_159_2702)"/>
<path fill-rule="evenodd" clip-rule="evenodd" d="M283 491.999C398.98 491.999 493 397.979 493 281.999C493 166.019 398.98 71.999 283 71.999C167.02 71.999 73 166.019 73 281.999C73 397.979 167.02 491.999 283 491.999ZM283 483.804C394.454 483.804 484.805 393.453 484.805 281.999C484.805 170.545 394.454 80.1941 283 80.1941C171.546 80.1941 81.1951 170.545 81.1951 281.999C81.1951 393.453 171.546 483.804 283 483.804Z" fill="url(#paint2_linear_159_2702)"/>
<defs>
<linearGradient id="paint0_linear_159_2702" x1="214.045" y1="196.519" x2="175.748" y2="316.226" gradientUnits="userSpaceOnUse">
<stop stop-color="#FFEDCE"/>
<stop offset="0.41" stop-color="#F0C868"/>
<stop offset="0.75" stop-color="#D09A5D"/>
<stop offset="0.96" stop-color="#E5B864"/>
</linearGradient>
<linearGradient id="paint1_linear_159_2702" x1="244.767" y1="225.425" x2="215.594" y2="301.249" gradientUnits="userSpaceOnUse">
<stop stop-color="#FFEDCE"/>
<stop offset="0.41" stop-color="#F0C868"/>
<stop offset="0.75" stop-color="#D09A5D"/>
<stop offset="0.96" stop-color="#E5B864"/>
</linearGradient>
<linearGradient id="paint2_linear_159_2702" x1="138.1" y1="101.749" x2="58.2672" y2="352.341" gradientUnits="userSpaceOnUse">
<stop stop-color="#FFEDCE"/>
<stop offset="0.41" stop-color="#F0C868"/>
<stop offset="0.75" stop-color="#D09A5D"/>
<stop offset="0.96" stop-color="#E5B864"/>
</linearGradient>
</defs>
</svg>
