<svg width="9" height="25" viewBox="0 0 9 25" fill="none" xmlns="http://www.w3.org/2000/svg">
<path opacity="0.3" d="M8.35633 4.08685C8.35633 6.3968 6.4006 8.17369 4.08928 8.17369C1.77795 8.17369 0 6.21911 0 4.08685C0 1.77689 1.95574 0 4.08928 0C6.4006 0 8.35633 1.77689 8.35633 4.08685Z" fill="#EEC468"/>
<path opacity="0.3" d="M6.75668 4.08672C6.75668 5.50823 5.51212 6.75205 4.08977 6.75205C2.66741 6.75205 1.42285 5.50823 1.42285 4.08672C1.42285 2.66521 2.66741 1.42139 4.08977 1.42139C5.51212 1.42139 6.75668 2.66521 6.75668 4.08672Z" fill="#EEC468"/>
<path d="M5.86643 4.08695C5.86643 5.15308 4.97746 5.86383 4.08849 5.86383C3.02172 5.86383 2.31055 5.15308 2.31055 4.08695C2.31055 3.02081 3.19952 2.31006 4.08849 2.31006C5.15526 2.31006 5.86643 3.1985 5.86643 4.08695Z" fill="#EEC468"/>
<path opacity="0.3" d="M8.35633 20.2607C8.35633 22.5706 6.4006 24.3475 4.08928 24.3475C1.77795 24.3475 0 22.3929 0 20.2607C0 17.9507 1.95574 16.1738 4.08928 16.1738C6.4006 16.1738 8.35633 17.9507 8.35633 20.2607Z" fill="#EEC468"/>
<path opacity="0.3" d="M6.75668 20.2605C6.75668 21.6821 5.51212 22.9259 4.08977 22.9259C2.66741 22.9259 1.42285 21.6821 1.42285 20.2605C1.42285 18.839 2.66741 17.5952 4.08977 17.5952C5.51212 17.5952 6.75668 18.839 6.75668 20.2605Z" fill="#EEC468"/>
<path d="M5.86643 20.2608C5.86643 21.3269 4.97746 22.0377 4.08849 22.0377C3.02172 22.0377 2.31055 21.3269 2.31055 20.2608C2.31055 19.1946 3.19952 18.4839 4.08849 18.4839C5.15526 18.4839 5.86643 19.3723 5.86643 20.2608Z" fill="#EEC468"/>
</svg>
