<svg width="69" height="64" viewBox="0 0 69 64" fill="none" xmlns="http://www.w3.org/2000/svg">
<path fill-rule="evenodd" clip-rule="evenodd" d="M2.67581 18.8795C2.35518 18.3793 2.14926 17.8248 2.1164 17.1553C2.04502 15.6992 2.45686 14.2049 3.60741 13.2424C4.23508 12.7173 5.06952 12.3903 5.88952 12.4433C6.0708 11.8831 6.22262 11.3129 6.34356 10.7385C4.97294 10.5407 3.55812 11.0113 2.49113 11.9041C0.915718 13.222 0.278981 15.2315 0.377267 17.241C0.436466 18.4522 0.880879 19.4769 1.638 20.411C1.7207 20.5128 1.80596 20.6127 1.89348 20.7102C2.10903 20.0808 2.37812 19.4737 2.67581 18.8795ZM25.8646 6.59066C23.5287 7.51939 21.2732 8.12361 18.7937 7.20168C19.1865 6.70839 19.593 6.22558 20.0195 5.76093C21.2214 6.06644 22.4056 5.95978 23.6516 5.56464C23.4057 4.78086 22.9639 4.01751 22.4274 3.39741C21.8077 2.68086 21.0177 2.12998 20.0586 1.88205C18.4699 1.4713 17.0183 2.03126 15.8235 2.99006C15.3565 2.61704 14.8849 2.24884 14.3957 1.90532C14.9729 1.3967 15.6102 0.960133 16.309 0.631645C17.6241 0.0126811 19.0797 -0.172271 20.4937 0.193094C21.9479 0.569238 23.1236 1.43896 24 2.5691C24.9392 3.78036 25.4502 5.18055 25.8646 6.59066ZM28.8418 0.496052C26.7914 0.424046 25.1236 0.165295 23.3358 0.894322C23.1656 0.963821 22.9976 1.03871 22.8316 1.11785C23.3284 1.49825 23.7711 1.94645 24.1578 2.44457C25.5607 1.91127 26.7914 2.1194 28.4552 2.19636C30.119 2.52464 68.1774 2.15274 68.1558 1.66257C68.1387 1.27173 30.4278 0.817707 28.8418 0.496052ZM20.8106 2.37535C18.7846 3.93411 17.1256 6.11807 15.6833 8.09864C14.4339 9.81427 13.2126 11.6204 11.8029 13.2067C11.3216 13.7482 10.7854 14.2988 10.1971 14.783C10.2994 15.5012 10.292 16.222 10.179 16.942C11.2831 16.2558 12.2492 15.3276 13.1035 14.3663C14.554 12.7341 15.8048 10.8914 17.0899 9.12666C18.4795 7.21842 20.1847 4.94113 22.2391 3.48818C21.8357 3.03119 21.3596 2.64682 20.8106 2.37535ZM8.11499 16.0252C8.0133 16.0621 7.91077 16.0961 7.8071 16.1267C6.83075 16.4141 5.87508 16.3979 4.95594 15.9421C4.14472 15.5395 3.5196 14.9058 3.05706 14.151C2.66533 14.7308 2.44241 15.4088 2.35433 16.1111C2.86389 16.6751 3.47145 17.1519 4.18353 17.5048C5.41593 18.1158 6.36991 18.2009 7.67964 17.9496C7.92748 17.3247 8.08326 16.6813 8.11499 16.0252ZM8.61661 0.241034C7.50657 0.235361 6.47131 0.496903 5.5332 0.956729C6.07561 1.29373 6.57413 1.71497 7.01288 2.23295C8.91431 1.61966 11.1545 2.12885 12.7798 3.16225C14.2113 4.07254 15.4366 5.26735 16.8554 6.19778C17.2143 5.73739 17.5833 5.28267 17.9663 4.84071C17.0197 4.24444 16.1464 3.49272 15.2732 2.81078C14.7684 2.41649 14.2541 2.03382 13.7131 1.69001C12.1283 0.682138 10.5087 0.148558 8.61661 0.241034ZM3.53065 2.35833C1.54962 4.22345 0.325716 7.04482 0.245841 9.67385C0.205903 10.9858 0.406441 12.3724 0.881445 13.6364C1.20774 12.9806 1.64423 12.3954 2.18494 11.9041C2.02689 11.1722 1.96515 10.4256 1.98639 9.7269C2.0555 7.45216 3.21653 4.84355 5.08199 3.30919C4.62964 2.8783 4.10167 2.57108 3.53065 2.35833ZM12.9276 3.49953C12.767 3.71115 12.6132 3.9273 12.4665 4.14658C11.5876 5.45996 10.3461 6.50188 8.84038 7.00936C7.57512 7.43599 6.17645 7.45472 4.93243 6.9427C4.30334 6.68371 3.75356 6.30558 3.29612 5.82816C2.99786 6.37394 2.75455 6.95007 2.57242 7.53301C3.07717 7.95397 3.64649 8.29891 4.27049 8.55563C5.90283 9.22764 7.73289 9.22282 9.39611 8.66229C11.2672 8.0317 12.82 6.75122 13.9133 5.11729C14.0433 4.92298 14.1816 4.73008 14.3274 4.54031C13.8714 4.17977 13.4106 3.82376 12.9276 3.49953ZM2.07589 3.73554C1.87196 3.10438 1.76602 2.4406 1.73317 1.77511C3.32614 1.9073 4.83924 2.4562 5.80171 3.8439C6.44978 4.77831 6.74889 5.93766 6.83386 7.12594C7.4165 7.13616 8.00112 7.05219 8.56081 6.88681C8.35263 4.38231 7.34399 2.286 5.35843 1.08637C3.71334 0.0921081 1.88329 -0.00519006 0.0226428 0.000199633C-0.0546834 1.96148 0.0192439 3.851 1.00211 5.62279C1.29838 4.96071 1.65867 4.32529 2.07589 3.73498V3.73554ZM6.7826 9.2719C6.74181 9.64634 6.68714 10.0114 6.62313 10.3603C6.3903 11.6261 6.00282 12.8932 5.48703 14.0721C5.26072 14.5898 5.00324 15.0936 4.73303 15.59C4.83386 15.6516 4.93781 15.7092 5.04516 15.7625C5.49751 15.9869 5.95948 16.0978 6.42826 16.1148C6.66137 15.6749 6.8823 15.2286 7.08199 14.7722C7.65131 13.4705 8.07845 12.0743 8.33564 10.6766C8.43364 10.1445 8.50502 9.61854 8.5492 9.10283C7.96826 9.22566 7.37486 9.28381 6.78231 9.27246L6.7826 9.2719ZM3.67425 17.4569C2.9667 18.6999 2.29314 19.9653 1.90566 21.3465C1.38251 23.2125 1.50629 24.5443 2.26963 26.2389C3.33096 25.7383 4.05522 25.2708 4.94546 24.4915C4.8367 23.8967 4.42882 23.4085 4.01386 22.9924C3.78047 23.2003 3.54679 23.4014 3.31538 23.5949C3.32331 23.0029 3.4148 22.4148 3.5822 21.818C3.93909 20.5454 4.60755 19.3214 5.28621 18.1402C4.90184 18.0426 4.51209 17.8931 4.09431 17.6861C3.9507 17.6149 3.81078 17.5383 3.67425 17.4569ZM7.77481 13.561C8.47131 14.6732 8.42372 16.2569 8.07137 17.4384C7.63432 18.9041 6.67326 20.2779 5.54906 21.4946C5.96402 21.9141 6.34045 22.3666 6.62313 22.8905C8.25236 21.1763 9.60401 19.1784 9.97025 16.9746C10.2895 15.0545 9.92748 12.8907 8.34668 11.6054C8.19146 12.266 7.99999 12.9202 7.77481 13.561ZM3.65074 28.2016C3.54566 28.3267 3.40659 28.4527 3.29414 28.5767C3.05026 28.8453 2.83273 29.1312 2.64465 29.4418C2.05125 30.4208 1.3866 31.5308 1.3815 32.6686C1.37838 33.4169 1.43236 64.0462 1.89348 64C2.30023 63.9591 3.12007 33.3307 3.1229 32.6759C3.12658 31.8428 3.71277 31.0196 4.15775 30.3067C4.29173 30.092 4.44582 29.8971 4.61746 29.7116C4.75625 29.5618 4.92082 29.4132 5.04177 29.2506C6.31609 27.5393 7.56351 25.3065 6.53929 23.1685C6.03284 22.1107 5.11767 21.3437 4.24669 20.5678C3.99404 21.1491 3.78217 21.7519 3.65329 22.3734C3.74506 22.4571 3.83655 22.5413 3.92663 22.6267C4.31864 22.9977 4.73359 23.4312 4.96925 23.9228C5.20945 24.424 5.22559 24.9281 5.10068 25.4648C4.87833 26.4213 4.22913 27.4238 3.65074 28.2016Z" fill="url(#paint0_linear_546_4368)"/>
<defs>
<linearGradient id="paint0_linear_546_4368" x1="10.5642" y1="4.53333" x2="-0.984893" y2="43.1394" gradientUnits="userSpaceOnUse">
<stop stop-color="#FFEDCE"/>
<stop offset="0.41" stop-color="#F0C868"/>
<stop offset="0.75" stop-color="#D09A5D"/>
<stop offset="0.96" stop-color="#E5B864"/>
</linearGradient>
</defs>
</svg>
