<svg width="69" height="64" viewBox="0 0 69 64" fill="none" xmlns="http://www.w3.org/2000/svg">
<path fill-rule="evenodd" clip-rule="evenodd" d="M65.4804 45.1205C65.8011 45.6207 66.007 46.1752 66.0399 46.8447C66.1112 48.3008 65.6994 49.7951 64.5488 50.7576C63.9212 51.2827 63.0867 51.6097 62.2667 51.5567C62.0855 52.1169 61.9336 52.6871 61.8127 53.2615C63.1833 53.4593 64.5981 52.9887 65.6651 52.0959C67.2405 50.778 67.8773 48.7685 67.779 46.759C67.7198 45.5478 67.2754 44.5231 66.5183 43.589C66.4355 43.4872 66.3503 43.3873 66.2628 43.2898C66.0472 43.9192 65.7781 44.5263 65.4804 45.1205ZM42.2916 57.4093C44.6276 56.4806 46.8831 55.8764 49.3626 56.7983C48.9697 57.2916 48.5633 57.7744 48.1367 58.2391C46.9349 57.9336 45.7506 58.0402 44.5046 58.4354C44.7505 59.2191 45.1924 59.9825 45.7288 60.6026C46.3486 61.3191 47.1386 61.87 48.0976 62.1179C49.6863 62.5287 51.138 61.9687 52.3327 61.0099C52.7998 61.383 53.2714 61.7512 53.7606 62.0947C53.1833 62.6033 52.546 63.0399 51.8472 63.3684C50.5321 63.9873 49.0765 64.1723 47.6626 63.8069C46.2084 63.4308 45.0326 62.561 44.1563 61.4309C43.217 60.2196 42.706 58.8194 42.2916 57.4093ZM39.3144 63.5039C41.3649 63.576 43.0326 63.8347 44.8205 63.1057C44.9907 63.0362 45.1587 62.9613 45.3246 62.8821C44.8278 62.5017 44.3851 62.0536 43.9985 61.5554C42.5956 62.0887 41.3649 61.8806 39.7011 61.8036C38.0372 61.4754 -0.0211103 61.8473 0.000412133 62.3374C0.0175706 62.7283 37.7284 63.1823 39.3144 63.5039ZM47.3456 61.6246C49.3717 60.0659 51.0306 57.8819 52.4729 55.9014C53.7223 54.1857 54.9437 52.3796 56.3534 50.7933C56.8346 50.2518 57.3708 49.7012 57.9591 49.217C57.8569 48.4987 57.8642 47.7779 57.9773 47.058C56.8732 47.7442 55.907 48.6724 55.0527 49.6337C53.6022 51.2659 52.3514 53.1086 51.0663 54.8733C49.6767 56.7816 47.9716 59.0589 45.9172 60.5118C46.3205 60.9688 46.7967 61.3532 47.3456 61.6246ZM60.0413 47.9748C60.143 47.9379 60.2455 47.9039 60.3492 47.8733C61.3255 47.5859 62.2812 47.6021 63.2003 48.0579C64.0115 48.4605 64.6367 49.0942 65.0992 49.849C65.4909 49.2692 65.7138 48.5912 65.8019 47.8889C65.2924 47.3249 64.6848 46.8481 63.9727 46.4952C62.7403 45.8842 61.7863 45.7991 60.4766 46.0504C60.2288 46.6753 60.073 47.3187 60.0413 47.9748ZM59.5396 63.759C60.6497 63.7646 61.6849 63.5031 62.6231 63.0433C62.0806 62.7063 61.5821 62.285 61.1434 61.767C59.2419 62.3803 57.0017 61.8712 55.3765 60.8377C53.945 59.9275 52.7196 58.7326 51.3009 57.8022C50.942 58.2626 50.5729 58.7173 50.19 59.1593C51.1366 59.7556 52.0098 60.5073 52.8831 61.1892C53.3878 61.5835 53.9022 61.9662 54.4432 62.31C56.0279 63.3179 57.6476 63.8514 59.5396 63.759ZM64.6256 61.6417C66.6066 59.7765 67.8305 56.9552 67.9104 54.3261C67.9503 53.0142 67.7498 51.6276 67.2748 50.3636C66.9485 51.0194 66.512 51.6046 65.9713 52.0959C66.1294 52.8278 66.1911 53.5744 66.1699 54.2731C66.1008 56.5478 64.9397 59.1564 63.0743 60.6908C63.5266 61.1217 64.0546 61.4289 64.6256 61.6417ZM55.2286 60.5005C55.3892 60.2889 55.543 60.0727 55.6898 59.8534C56.5687 58.54 57.8101 57.4981 59.3159 56.9906C60.5811 56.564 61.9798 56.5453 63.2238 57.0573C63.8529 57.3163 64.4027 57.6944 64.8601 58.1718C65.1584 57.6261 65.4017 57.0499 65.5838 56.467C65.0791 56.046 64.5098 55.7011 63.8858 55.4444C62.2534 54.7724 60.4234 54.7772 58.7601 55.3377C56.889 55.9683 55.3363 57.2488 54.2429 58.8827C54.1129 59.077 53.9747 59.2699 53.8288 59.4597C54.2849 59.8202 54.7457 60.1762 55.2286 60.5005ZM66.0804 60.2645C66.2843 60.8956 66.3902 61.5594 66.4231 62.2249C64.8301 62.0927 63.317 61.5438 62.3545 60.1561C61.7065 59.2217 61.4074 58.0623 61.3224 56.8741C60.7397 56.8638 60.1551 56.9478 59.5954 57.1132C59.8036 59.6177 60.8123 61.714 62.7978 62.9136C64.4429 63.9079 66.273 64.0052 68.1336 63.9998C68.2109 62.0385 68.137 60.149 67.1541 58.3772C66.8579 59.0393 66.4976 59.6747 66.0804 60.265L66.0804 60.2645ZM61.3737 54.7281C61.4144 54.3537 61.4691 53.9886 61.5331 53.6397C61.766 52.3739 62.1534 51.1068 62.6692 49.9279C62.8955 49.4102 63.153 48.9064 63.4232 48.41C63.3224 48.3484 63.2184 48.2908 63.1111 48.2375C62.6587 48.0131 62.1968 47.9022 61.728 47.8852C61.4949 48.3251 61.274 48.7714 61.0743 49.2278C60.5049 50.5295 60.0778 51.9257 59.8206 53.3234C59.7226 53.8555 59.6512 54.3815 59.607 54.8972C60.188 54.7743 60.7814 54.7162 61.3739 54.7275L61.3737 54.7281ZM64.482 46.5431C65.1895 45.3001 65.8631 44.0347 66.2506 42.6535C66.7737 40.7875 66.65 39.4557 65.8866 37.7611C64.8253 38.2617 64.101 38.7292 63.2108 39.5085C63.3196 40.1033 63.7274 40.5915 64.1424 41.0076C64.3758 40.7997 64.6095 40.5986 64.8409 40.4051C64.8329 40.9971 64.7415 41.5852 64.5741 42.182C64.2172 43.4546 63.5487 44.6786 62.87 45.8598C63.2544 45.9574 63.6442 46.1069 64.0619 46.3139C64.2056 46.3851 64.3455 46.4617 64.482 46.5431ZM60.3814 50.439C59.6849 49.3268 59.7325 47.7431 60.0849 46.5616C60.5219 45.0959 61.483 43.7221 62.6072 42.5054C62.1922 42.0859 61.8158 41.6334 61.5331 41.1095C59.9039 42.8237 58.5522 44.8216 58.186 47.0254C57.8668 48.9455 58.2288 51.1093 59.8096 52.3946C59.9648 51.734 60.1563 51.0798 60.3814 50.439ZM64.5055 35.7984C64.6106 35.6733 64.7497 35.5473 64.8621 35.4233C65.106 35.1547 65.3235 34.8688 65.5116 34.5582C66.105 33.5792 66.7697 32.4692 66.7748 31.3314C66.7779 30.5831 66.7239 -0.0461885 66.2628 4.94255e-05C65.856 0.0408972 65.0362 30.6693 65.0334 31.3241C65.0297 32.1572 64.4435 32.9804 63.9985 33.6933C63.8645 33.908 63.7104 34.1029 63.5388 34.2884C63.4 34.4382 63.2354 34.5868 63.1145 34.7494C61.8402 36.4607 60.5927 38.6935 61.617 40.8315C62.1234 41.8893 63.0386 42.6563 63.9096 43.4322C64.1622 42.8509 64.3741 42.2481 64.503 41.6266C64.4112 41.5429 64.3197 41.4587 64.2296 41.3733C63.8376 41.0023 63.4227 40.5688 63.187 40.0772C62.9468 39.576 62.9307 39.0719 63.0556 38.5352C63.2779 37.5787 63.9271 36.5762 64.5055 35.7984Z" fill="url(#paint0_linear_546_4369)"/>
<defs>
<linearGradient id="paint0_linear_546_4369" x1="57.5921" y1="59.4667" x2="69.1411" y2="20.8606" gradientUnits="userSpaceOnUse">
<stop stop-color="#FFEDCE"/>
<stop offset="0.41" stop-color="#F0C868"/>
<stop offset="0.75" stop-color="#D09A5D"/>
<stop offset="0.96" stop-color="#E5B864"/>
</linearGradient>
</defs>
</svg>
