<svg width="696" height="152" viewBox="0 0 696 152" fill="none" xmlns="http://www.w3.org/2000/svg">
<path fill-rule="evenodd" clip-rule="evenodd" d="M0 122.039L29.1871 138.907V29.2266H58.3742V151.548H87.5614V29.2266H116.748V138.907L145.935 122.039V0H0V122.039ZM156.58 24.6209H172.99V16.4104H197.601V21.1461L156.58 44.8347V68.5127L185.29 85.0927L214 68.5127V0H156.569V24.6103L156.58 24.6209ZM197.601 59.0521L185.29 66.1608L172.98 59.0521V54.3165L197.59 40.1096V59.0521H197.601ZM282.015 0.0106045H282.025L282.015 0V0.0106045ZM282.015 0.0106045H224.594V68.5233L253.305 85.1032L265.615 77.9945V83.6624L253.305 90.7711V109.714L282.015 93.1337V0.0106045ZM253.305 66.1608L265.615 59.0521H265.604V16.421H240.994V59.0521L253.305 66.1608ZM292.62 68.5233L309.03 77.9945V16.4104H333.64V77.9945L350.051 68.5233V0H292.62V68.5233ZM360.645 84.9231L377.055 94.3943V0H360.645V8.1999L374.862 16.3998H360.645V84.9231ZM387.65 30.6279L428.671 54.3059V59.0415L416.36 66.1502L404.06 59.0415V47.3773H387.65V68.5234L416.36 85.1032L445.081 68.5234V44.8347L404.06 21.1567V16.4105H445.081V0H387.65V30.6279ZM508.996 85.1032L496.696 77.9946L484.385 85.1032L455.675 68.5234V0H472.075V59.0415L484.385 66.1502L488.485 63.7877V0H504.896V63.7877L508.996 66.1502L521.306 59.0415V0H537.716V68.5234L508.996 85.1032ZM548.321 24.6209H564.732V16.4104H589.342V21.1461L548.321 44.8347V68.5127L577.032 85.0927L605.742 68.5127V0H548.311V24.6103L548.321 24.6209ZM589.342 59.0521L577.032 66.1608L564.721 59.0521V54.3165L589.332 40.1096V59.0521H589.342ZM639.201 8.06406L653.191 0H653.206H696V94.6464L656.242 117.551L639.201 107.73V151.548L616.484 138.464V0H639.201V8.06406ZM656.227 91.3827L673.268 81.5624L673.254 81.5479V22.6554H659.263L639.186 34.232V81.5624L656.227 91.3827Z" fill="url(#paint0_linear_301_29)"/>
<defs>
<linearGradient id="paint0_linear_301_29" x1="107.88" y1="10.7347" x2="101.004" y2="109.856" gradientUnits="userSpaceOnUse">
<stop stop-color="#FFEDCE"/>
<stop offset="0.41" stop-color="#F0C868"/>
<stop offset="0.75" stop-color="#D09A5D"/>
<stop offset="0.96" stop-color="#E5B864"/>
</linearGradient>
</defs>
</svg>
