<svg width="165" height="165" viewBox="0 0 165 165" fill="none" xmlns="http://www.w3.org/2000/svg">
<path d="M141.954 18.3853L90.4237 56.6574L99.9529 34.0773L141.954 18.3853Z" fill="#E2761B" stroke="#E2761B" stroke-linecap="round" stroke-linejoin="round"/>
<path d="M22.9944 18.3853L74.1102 57.0199L65.0471 34.0773L22.9944 18.3853Z" fill="#E4761B" stroke="#E4761B" stroke-linecap="round" stroke-linejoin="round"/>
<path d="M123.413 107.1L109.689 128.126L139.054 136.206L147.495 107.566L123.413 107.1Z" fill="#E4761B" stroke="#E4761B" stroke-linecap="round" stroke-linejoin="round"/>
<path d="M17.5565 107.566L25.9463 136.206L55.3108 128.126L41.5867 107.1L17.5565 107.566Z" fill="#E4761B" stroke="#E4761B" stroke-linecap="round" stroke-linejoin="round"/>
<path d="M53.6535 71.5727L45.4708 83.9503L74.6281 85.245L73.5923 53.9126L53.6535 71.5727Z" fill="#E4761B" stroke="#E4761B" stroke-linecap="round" stroke-linejoin="round"/>
<path d="M111.295 71.5724L91.097 53.5498L90.4238 85.2447L119.529 83.95L111.295 71.5724Z" fill="#E4761B" stroke="#E4761B" stroke-linecap="round" stroke-linejoin="round"/>
<path d="M55.3107 128.127L72.8154 119.581L57.693 107.773L55.3107 128.127Z" fill="#E4761B" stroke="#E4761B" stroke-linecap="round" stroke-linejoin="round"/>
<path d="M92.1328 119.581L109.689 128.127L107.255 107.773L92.1328 119.581Z" fill="#E4761B" stroke="#E4761B" stroke-linecap="round" stroke-linejoin="round"/>
<path d="M109.689 128.126L92.1328 119.581L93.5311 131.026L93.3757 135.843L109.689 128.126Z" fill="#D7C1B3" stroke="#D7C1B3" stroke-linecap="round" stroke-linejoin="round"/>
<path d="M55.3107 128.126L71.6243 135.843L71.5207 131.026L72.8154 119.581L55.3107 128.126Z" fill="#D7C1B3" stroke="#D7C1B3" stroke-linecap="round" stroke-linejoin="round"/>
<path d="M71.8832 100.212L57.2787 95.9135L67.5847 91.2007L71.8832 100.212Z" fill="#233447" stroke="#233447" stroke-linecap="round" stroke-linejoin="round"/>
<path d="M93.0649 100.212L97.3634 91.2007L107.721 95.9135L93.0649 100.212Z" fill="#233447" stroke="#233447" stroke-linecap="round" stroke-linejoin="round"/>
<path d="M55.3107 128.126L57.7966 107.1L41.5866 107.566L55.3107 128.126Z" fill="#CD6116" stroke="#CD6116" stroke-linecap="round" stroke-linejoin="round"/>
<path d="M107.203 107.1L109.689 128.126L123.413 107.566L107.203 107.1Z" fill="#CD6116" stroke="#CD6116" stroke-linecap="round" stroke-linejoin="round"/>
<path d="M119.529 83.9502L90.4237 85.2449L93.1167 100.212L97.4152 91.2007L107.773 95.9135L119.529 83.9502Z" fill="#CD6116" stroke="#CD6116" stroke-linecap="round" stroke-linejoin="round"/>
<path d="M57.2787 95.9135L67.6365 91.2007L71.8832 100.212L74.628 85.2449L45.4708 83.9502L57.2787 95.9135Z" fill="#CD6116" stroke="#CD6116" stroke-linecap="round" stroke-linejoin="round"/>
<path d="M45.4708 83.9502L57.693 107.773L57.2787 95.9135L45.4708 83.9502Z" fill="#E4751F" stroke="#E4751F" stroke-linecap="round" stroke-linejoin="round"/>
<path d="M107.773 95.9135L107.255 107.773L119.529 83.9502L107.773 95.9135Z" fill="#E4751F" stroke="#E4751F" stroke-linecap="round" stroke-linejoin="round"/>
<path d="M74.6281 85.2451L71.8832 100.212L75.3013 117.872L76.0782 94.6189L74.6281 85.2451Z" fill="#E4751F" stroke="#E4751F" stroke-linecap="round" stroke-linejoin="round"/>
<path d="M90.4238 85.2451L89.0255 94.5672L89.6469 117.872L93.1168 100.212L90.4238 85.2451Z" fill="#E4751F" stroke="#E4751F" stroke-linecap="round" stroke-linejoin="round"/>
<path d="M93.1168 100.212L89.6469 117.872L92.1328 119.581L107.255 107.773L107.773 95.9136L93.1168 100.212Z" fill="#F6851B" stroke="#F6851B" stroke-linecap="round" stroke-linejoin="round"/>
<path d="M57.2787 95.9136L57.693 107.773L72.8154 119.581L75.3013 117.872L71.8832 100.212L57.2787 95.9136Z" fill="#F6851B" stroke="#F6851B" stroke-linecap="round" stroke-linejoin="round"/>
<path d="M93.3757 135.843L93.5311 131.026L92.2363 129.887H72.7119L71.5207 131.026L71.6243 135.843L55.3107 128.126L61.0075 132.787L72.5565 140.814H92.3917L103.992 132.787L109.689 128.126L93.3757 135.843Z" fill="#C0AD9E" stroke="#C0AD9E" stroke-linecap="round" stroke-linejoin="round"/>
<path d="M92.1327 119.581L89.6469 117.872H75.3013L72.8154 119.581L71.5207 131.026L72.7118 129.887H92.2363L93.531 131.026L92.1327 119.581Z" fill="#161616" stroke="#161616" stroke-linecap="round" stroke-linejoin="round"/>
<path d="M144.129 59.1433L148.531 38.0133L141.954 18.3853L92.1328 55.3627L111.295 71.5726L138.38 79.4964L144.388 72.5048L141.798 70.6404L145.942 66.8598L142.731 64.374L146.874 61.2148L144.129 59.1433Z" fill="#763D16" stroke="#763D16" stroke-linecap="round" stroke-linejoin="round"/>
<path d="M16.4689 38.0133L20.871 59.1433L18.0744 61.2148L22.2175 64.374L19.0584 66.8598L23.2015 70.6404L20.6121 72.5048L26.5678 79.4964L53.6535 71.5726L72.8154 55.3627L22.9944 18.3853L16.4689 38.0133Z" fill="#763D16" stroke="#763D16" stroke-linecap="round" stroke-linejoin="round"/>
<path d="M138.38 79.496L111.295 71.5723L119.529 83.9499L107.255 107.773L123.413 107.566H147.495L138.38 79.496Z" fill="#F6851B" stroke="#F6851B" stroke-linecap="round" stroke-linejoin="round"/>
<path d="M53.6535 71.5723L26.5678 79.496L17.5565 107.566H41.5867L57.6931 107.773L45.4708 83.9499L53.6535 71.5723Z" fill="#F6851B" stroke="#F6851B" stroke-linecap="round" stroke-linejoin="round"/>
<path d="M90.4237 85.2448L92.1327 55.3625L100.005 34.0771H65.0471L72.8154 55.3625L74.628 85.2448L75.2495 94.6704L75.3013 117.872H89.6469L89.7505 94.6704L90.4237 85.2448Z" fill="#F6851B" stroke="#F6851B" stroke-linecap="round" stroke-linejoin="round"/>
</svg>
