<svg width="1408" height="1195" viewBox="0 0 1408 1195" fill="none" xmlns="http://www.w3.org/2000/svg">
<path fill-rule="evenodd" clip-rule="evenodd" d="M17.0788 997.62L17.5722 997.527C17.6845 997.68 17.7304 997.852 17.7764 998.024C60.7488 989.661 102.941 984.758 144.5 982.147C193.426 979.207 241.484 979.372 288.896 980.815C359.952 995.892 422.023 1017.53 472.854 1039.54C653.749 1117.87 823.664 1165.15 992.001 1184.48C1090.53 1195.91 1190.56 1197.48 1287.86 1188.85C1394.42 1179.51 1501.97 1158.38 1607.79 1125.3C1651.82 1111.78 1695.22 1095.91 1739.37 1079.78L1743.29 1078.35L1743.34 1077.45L1736.98 1079.77C1693.45 1095.66 1651.07 1111.12 1607.84 1124.4C1241.39 1238.25 870.689 1210.48 473.534 1038.76C418.75 1015 362.671 996.368 305.845 983.129C363.42 995.965 421.131 1014.14 478.85 1037.64C543.636 1064.32 610.791 1087.71 678.014 1106.94C828.89 1150.45 971.924 1172.42 1115.52 1174.44C1195.6 1175.45 1276.95 1170.2 1357.16 1158.46C1442.55 1146.22 1529.13 1126.27 1615.04 1099.41L1615.13 1099.38C1620.54 1097.64 1625.95 1095.9 1631.64 1094.08C1672.49 1081.06 1713.17 1066.32 1751.65 1052.17L1751.42 1051.34L1746.1 1053.26C1709.39 1066.51 1670.58 1080.5 1631.69 1093.18C1628.01 1094.55 1624.27 1095.69 1620.68 1096.78C1618.76 1097.36 1616.89 1097.93 1615.09 1098.51C1305.36 1195.69 999.229 1198.21 678.694 1106.16C611.471 1086.93 544.592 1063.47 479.529 1036.86C439.499 1020.61 399.29 1006.78 359.032 995.515C400.73 1006.5 442.64 1020.12 484.713 1036.36C549.682 1061.52 617.294 1083.3 685.803 1100.71C836.452 1138.97 979.352 1157.13 1122.41 1156.04C1202.12 1155.67 1283.31 1148.69 1363.57 1136.06C1448.87 1122.36 1536.05 1101.37 1622.71 1074.01C1625.97 1072.94 1629.73 1071.73 1633.48 1070.53C1634.43 1070.22 1635.39 1069.92 1636.34 1069.61C1637.25 1069.32 1638.15 1069.03 1639.04 1068.75C1680.64 1055.23 1721.67 1040.69 1760.15 1026.54L1759.93 1025.71C1721.38 1039.59 1680.07 1054.2 1639.02 1067.57C1633.3 1069.4 1627.58 1071.22 1622.42 1072.9C1305.81 1173.11 1008.44 1181.85 686.334 1099.39C617.826 1081.98 550.213 1060.19 485.319 1035.31C439.886 1017.78 394.439 1003.24 349.292 991.748C395.671 1002.97 442.796 1017.29 490.78 1034.74C555.029 1058.31 623.302 1078.15 693.647 1093.58C844.566 1127.33 986.708 1141.56 1129.51 1137.29C1293.97 1132.24 1457.62 1103.17 1629.69 1048.2C1633.22 1047.25 1636.68 1046.08 1640.29 1044.86C1642.32 1044.17 1644.4 1043.47 1646.57 1042.79C1684.6 1030.16 1723.78 1016.23 1758.72 1003.81L1758.72 1003.81L1758.73 1003.81L1758.75 1003.8L1763.85 1001.99L1768.23 1000.43L1768.28 999.533C1765.22 1000.62 1762.12 1001.72 1758.99 1002.83C1724 1015.27 1684.71 1029.24 1646.34 1041.96C1643.49 1042.87 1640.76 1043.75 1638.04 1044.63C1635.32 1045.5 1632.6 1046.38 1629.74 1047.29C1310.12 1149.49 1013.05 1163.77 693.977 1092.61C623.834 1076.82 555.285 1057.06 491.11 1033.76C445.271 1017.08 400.217 1003.25 355.85 992.255C408.171 1004.58 455.326 1019.23 496.297 1033.26C560.452 1055.38 629.183 1073.61 701.438 1087.36C851.579 1115.99 993.588 1126.42 1136.13 1118.96C1299.08 1110.48 1462.68 1079.05 1637.09 1022.86C1642.81 1021.03 1648.53 1019.21 1653.62 1017.25C1696.52 1003.09 1739.49 988.035 1777.01 974.73L1776.51 973.977C1739.54 987.134 1696.58 1002.19 1653.67 1016.35C1648.25 1018.1 1642.55 1019.92 1636.85 1021.74L1636.84 1021.74L1636.79 1021.76C1313.88 1126.02 1016.91 1146.18 701.97 1086.03C630.266 1072.14 560.984 1054.05 497.178 1032.13C455.347 1017.81 415.001 1005.77 375.748 995.866C421.052 1006.71 463.505 1019.23 502.711 1031.83C566.497 1052.58 636.163 1068.79 709.63 1080.43C859.416 1104.44 1001.22 1110.78 1143.57 1100.42C1304.46 1088.64 1468.3 1054.79 1644.76 997.455C1646.67 996.847 1648.54 996.247 1650.41 995.648C1654.16 994.445 1657.92 993.242 1661.92 991.973C1700.69 978.924 1739.38 965.599 1785.3 949.452L1784.73 948.423C1738.81 964.57 1700.39 977.821 1661.34 990.944C1657.3 992.028 1653.56 993.291 1649.83 994.554L1649.82 994.556C1647.96 995.187 1646.1 995.818 1644.19 996.426C1312.2 1104.3 1024.04 1129.79 709.684 1079.53C636.419 1067.54 567.029 1051.25 502.967 1030.58C477.11 1022.34 452.155 1014.87 427.914 1008.17C455.14 1015.28 481.648 1022.85 507.401 1030.58C571.369 1049.79 641.768 1064.33 716.521 1074.15C865.252 1093.12 1006.64 1095.73 1149.29 1082.04C1308.04 1066.7 1472.11 1030.42 1650.64 971.941C1656.63 970.039 1662.62 968.138 1667.99 966.108C1710.9 951.951 1753.38 937.316 1792.83 923.494L1792.89 922.593C1753.44 936.415 1710.95 951.05 1668.05 965.207C1665.33 966.233 1662.44 967.156 1659.51 968.09L1659.51 968.091L1659.51 968.091L1659.51 968.092L1659.51 968.092L1659.5 968.093L1659.5 968.093C1656.64 969.005 1653.75 969.927 1650.97 970.965C1314.03 1081.35 1026.25 1112.64 717.328 1072.75C642.576 1062.93 572.452 1048.32 508.484 1029.11C473.943 1018.66 438.059 1008.53 400.91 999.428C439.249 1008.24 476.923 1018.14 513.946 1028.53C578.171 1046.49 649.028 1059.43 724.918 1066.88C872.541 1081.71 1013.73 1080.23 1156.58 1062.94C1312.92 1044.11 1477.66 1005.88 1658.99 945.76C1664.99 943.858 1670.43 942.105 1676.35 939.928C1719.02 925.709 1762.06 910.87 1795.86 899.216L1802.02 897.092L1801.79 896.265C1787.79 900.97 1772 906.347 1755.17 912.08L1755.03 912.126L1754.94 912.156L1754.93 912.161C1730.1 920.619 1703 929.845 1676.05 938.824C1670.13 941.002 1664.42 942.829 1658.7 944.657C1310.9 1059.72 1031.79 1095.79 725.449 1065.55C649.835 1058.03 578.776 1045.44 514.828 1027.41C480.375 1017.73 443.263 1007.77 404.077 998.631C443 1007.21 481.296 1016.76 519.038 1026.57C583.169 1043.08 655.036 1054.27 732.137 1059.62C1030 1080.31 1309.36 1038.56 1665.07 919.894L1666.59 919.409L1668.15 918.911C1669.9 918.354 1671.66 917.792 1673.43 917.23L1673.58 917.182L1673.7 917.143L1673.79 917.112C1676.72 916.181 1679.64 915.25 1682.5 914.338C1720.44 901.511 1762.17 887.373 1809.27 871.207L1809.4 870.581C1779.67 880.583 1752.41 889.81 1726.79 898.479L1726.77 898.484C1711.5 903.651 1696.82 908.62 1682.55 913.437C1677.98 915.192 1672.24 917.023 1666.98 918.701C1666.38 918.893 1665.78 919.082 1665.2 919.269C1309.77 1037.86 1030.68 1079.53 732.816 1058.85C655.789 1053.77 584.474 1042.44 520.269 1025.65C498.444 1020 476.433 1014.43 454.22 1009.07C478.518 1014.65 502.141 1020.33 525.049 1025.85C589.786 1041.31 662.11 1050.9 739.999 1053.68C886.085 1059.46 1022.72 1050.93 1169.54 1026.37C1319.95 1000.84 1484.4 958.255 1672.61 895.114C1678.88 893.139 1684.32 891.385 1690.52 889.134L1732.8 874.849C1761.24 865.16 1789.68 855.471 1818.19 846.057L1817.9 844.954C1789.66 854.294 1761.22 863.983 1732.78 873.672L1690.5 887.957L1689.72 888.207L1689.72 888.208L1689.71 888.21L1689.7 888.214L1689.69 888.216L1689.69 888.217C1684.22 889.966 1678.51 891.789 1672.87 893.863C1308.09 1016.14 1029.37 1063.63 740.806 1052.28C663.119 1049.15 590.795 1039.56 526.059 1024.1C484.727 1014.15 441.022 1003.65 395.178 994.217C435.509 1002.13 474.762 1010.83 512.959 1019.33L530.895 1023.4C596.936 1038.21 667.768 1045.54 747.493 1046.35C1028.71 1049.03 1298.43 997.741 1679.79 868.953C1682.65 867.901 1685.53 866.913 1688.38 865.936L1688.38 865.934C1691.43 864.89 1694.43 863.857 1697.35 862.771C1708.72 858.943 1720.15 855.099 1731.58 851.255L1731.91 851.143C1754.99 843.385 1778.06 835.626 1800.64 827.999L1826.12 819.398L1826.18 818.497L1800.97 827.024C1767.09 838.467 1732.39 850.132 1697.68 861.796C1694.86 862.847 1691.88 863.866 1688.91 864.884L1688.91 864.885L1688.9 864.887C1685.92 865.907 1682.94 866.927 1680.12 867.978C1299.03 996.692 1029.32 1047.98 748.449 1045.5C668.447 1044.77 597.615 1037.44 531.85 1022.55L514.264 1018.69L510.922 1017.95C464.749 1007.69 415.532 996.765 364.062 987.369C410.262 995.408 455.063 1004.69 498.463 1013.76L498.479 1013.76L498.487 1013.77L498.498 1013.77C511.621 1016.45 524.743 1019.14 537.516 1021.62C604.163 1035.39 675.728 1041.04 756.316 1039.55C897.683 1036.55 1033.5 1020.55 1183.31 988.389C1326.15 957.799 1486.47 911.888 1687.67 843.196C1693.94 841.221 1699.66 839.393 1705.58 837.216C1744.55 823.817 1784.42 810.473 1823.54 797.626L1834.91 793.695L1834.68 792.868L1823.32 796.799C1808.55 801.779 1793.44 806.805 1778.22 811.866L1778.12 811.902L1778.08 811.914L1778.07 811.915L1778.05 811.922L1778.04 811.927L1778.03 811.928L1778.03 811.93L1778.03 811.931C1753.66 820.035 1729.03 828.228 1705.08 836.462C1702.22 837.515 1699.34 838.502 1696.49 839.48C1693.45 840.525 1690.44 841.557 1687.52 842.644C1287.65 978.462 1026.58 1033.34 756.37 1038.65C675.507 1040.22 603.941 1034.56 537.644 1021C524.785 1018.23 511.927 1015.47 498.517 1012.86C470.437 1007.03 441.154 1000.96 410.909 995.141C435.764 999.677 460.19 1004.39 484.185 1009.02C493.088 1010.66 501.777 1012.37 510.357 1014.06L510.367 1014.06C521.267 1016.2 531.991 1018.31 542.755 1020.22C609.658 1032.74 681.755 1037.06 763.406 1032.92C902.01 1026.23 1037.14 1006.57 1189.37 970.212C1326.37 937.643 1482.23 890.56 1694.52 818.011C1697.27 817.13 1700.08 816.168 1702.91 815.195L1702.91 815.194L1702.92 815.193L1702.92 815.192L1702.93 815.19L1702.93 815.189L1702.93 815.188L1702.94 815.187L1702.94 815.185L1702.94 815.184C1705.98 814.142 1709.05 813.086 1712.15 812.105C1753.25 797.84 1795.33 783.904 1836.11 770.614L1835.89 769.787C1823.85 773.805 1811.65 777.839 1799.38 781.899L1799.38 781.899L1799.38 781.9L1799.37 781.9L1799.37 781.902L1799.36 781.903L1799.36 781.905L1799.36 781.906C1770.43 791.474 1741.06 801.19 1712.2 811.204C1709.21 812.152 1706.24 813.17 1703.27 814.187L1703.27 814.189L1703.26 814.191L1703.26 814.192L1703.25 814.194L1703.24 814.195L1703.24 814.197C1700.26 815.216 1697.29 816.234 1694.3 817.184C1328.05 942.809 1058.8 1017.91 763.81 1032.22C682.361 1036.01 610.135 1032.31 543.508 1019.72C534.45 1017.93 525.329 1016.15 516.07 1014.35L516.034 1014.35L516.031 1014.35L516.028 1014.34L516.026 1014.34L515.966 1014.33C505.798 1012.35 495.464 1010.34 484.864 1008.24C450.758 1001.63 415.79 994.873 379.961 988.689C411.495 993.907 442.341 999.53 472.484 1005.06C484.459 1007.16 496.07 1009.23 507.474 1011.27L507.509 1011.28L507.521 1011.28C521.503 1013.78 535.174 1016.23 548.823 1018.59C616.533 1029.71 689.364 1032.36 771.6 1026C906.89 1015.76 1041.54 992.09 1195.84 951.335C1356.37 909.506 1534.12 850.351 1702.05 792.053L1720.23 785.999C1755.69 773.837 1792.05 761.729 1828.21 749.97C1827.86 749.769 1827.51 749.567 1827.72 749.217C1791.56 760.975 1755.47 773.009 1720.01 785.171L1701.83 791.225C1291.03 932.628 1047.07 1003.91 771.655 1025.09C689.418 1031.46 616.937 1029.01 549.502 1017.82C533.149 1015.24 516.818 1012.28 500.012 1009.22L500.011 1009.22L500.007 1009.22L500.006 1009.22L499.993 1009.22L499.973 1009.22L499.944 1009.21C491.082 1007.6 482.088 1005.97 472.888 1004.36C452.854 1000.72 432.524 997.037 411.898 993.454C428.344 996.187 444.596 998.969 460.653 1001.72C492.88 1007.28 523.783 1012.3 554.06 1017.19C622.1 1027.33 695.591 1028.04 778.689 1019.37C912.043 1005.21 1042.7 978.774 1201.63 933.232C1345.47 892.029 1502.47 838.14 1708.47 766.39L1726.65 760.336C1757.5 749.706 1788.42 739.351 1819.14 729.346L1818.84 728.243C1808.63 731.671 1798.4 735.067 1788.18 738.464L1788.15 738.471C1767.72 745.261 1747.28 752.05 1726.91 759.085L1708.52 765.488C1299.75 907.827 1055 989.371 779.295 1018.32C696.473 1026.91 623.056 1026.49 555.217 1015.99C530.356 1012.41 505.106 1008.13 478.775 1003.66L478.771 1003.66C473.192 1002.71 467.566 1001.76 461.884 1000.8C444.825 997.891 427.546 994.948 410.047 992.065C424.137 994.284 438.082 996.53 451.878 998.754L455.704 999.378C491.996 1005.3 526.347 1010.91 560.68 1015.41C629.326 1024.51 703.55 1023.54 787.234 1012.64C903.667 997.109 1022.83 970.796 1161.54 929.196C1288.9 891.272 1426.97 842.692 1586.55 786.546L1592.43 784.477C1621.62 774.061 1651.44 763.634 1682.16 752.895C1693.46 748.947 1704.87 744.956 1716.42 740.908C1719.38 739.819 1722.5 738.763 1725.61 737.706C1728.73 736.649 1731.85 735.593 1734.8 734.504C1759.93 725.701 1786.24 716.879 1811.24 708.702C1811.24 708.702 1810.82 708.224 1811.02 707.875C1785.47 716.199 1759.71 724.874 1734.31 733.75C1731.26 734.871 1728.05 735.957 1724.81 737.054L1724.8 737.056C1721.74 738.091 1718.65 739.136 1715.65 740.228C1672.89 754.937 1631.86 769.478 1592.21 783.65C1258.92 901.033 1038.74 978.354 787.012 1011.81C703.678 1022.91 629.729 1023.81 561.084 1014.71C530.301 1010.58 499.292 1005.6 466.64 1000.36C461.89 999.594 457.105 998.826 452.282 998.054L452.274 998.053L452.266 998.052L452.163 998.035L451.81 997.979C447.022 997.211 442.217 996.441 437.394 995.67L440.698 996.177L442.699 996.484C485.54 1003.04 526.154 1009 565.847 1013.73C635.172 1022.06 710.131 1019.41 794.602 1005.94C1015.3 970.839 1211.01 899.994 1480.97 802.27L1487.77 799.811C1562.11 772.798 1638.65 745.194 1723.2 715.446C1726.2 714.357 1729.21 713.332 1732.2 712.317C1735.38 711.236 1738.53 710.166 1741.58 709.043C1761.82 701.846 1782.96 694.703 1803.35 688.058C1803.12 687.924 1803.13 687.723 1803.14 687.523C1803.14 687.473 1803.15 687.423 1803.14 687.373L1803.14 687.344C1803.14 687.33 1803.14 687.317 1803.14 687.304L1803.14 687.281L1803.13 687.26L1803.13 687.243L1803.13 687.231C1783.02 693.802 1762.15 700.871 1741.56 707.866C1737.43 709.572 1733.35 710.993 1729.23 712.43C1727.25 713.12 1725.26 713.814 1723.25 714.545C1638.71 744.292 1561.88 771.971 1487.82 798.91L1481.36 801.248L1481.36 801.249C1211.5 898.961 1015.72 969.85 794.932 1004.96C710.736 1018.36 636.054 1020.93 566.802 1012.89C537.009 1009.33 506.697 1005.09 475.314 1000.42C508.273 1005.06 540.283 1009.28 571.711 1012.46C641.917 1019.66 717.333 1015.41 802.317 999.438C1001.83 961.939 1182.83 893.933 1412.06 807.387C1417.36 805.384 1422.7 803.366 1428.08 801.334C1518.24 767.266 1618.89 729.234 1730.25 689.911C1736.51 687.936 1742.99 685.611 1748.9 683.434L1748.91 683.43C1764.61 678.043 1780.31 672.655 1796.08 667.543C1795.65 667.065 1795.58 666.789 1795.51 666.514C1780.28 671.479 1764.31 676.942 1749.16 682.183C1742.97 684.434 1736.77 686.685 1730.23 688.734C1612.3 730.678 1505.97 770.695 1412.31 806.136L1409.94 807.03L1409.94 807.03C1182.03 892.806 1001.12 960.891 802.849 998.113C718.141 1014.01 642.799 1018.53 572.868 1011.26C558.128 1009.77 543.26 1008.05 528.214 1006.16C545.131 1008.09 561.86 1009.81 578.479 1011.24C649.291 1017.39 725.091 1011.26 810.937 992.991C991.4 954.644 1151.94 891.151 1354.65 810.975L1357.18 809.973C1467.81 766.144 1593.43 716.522 1738.27 664.707C1741.28 663.76 1744.19 662.702 1747.16 661.624L1747.16 661.622C1750.38 660.453 1753.66 659.26 1757.21 658.156L1757.22 658.152L1757.22 658.15C1767.75 654.443 1778.28 650.736 1789.43 647.156C1789.01 646.679 1788.94 646.403 1788.86 646.127C1778.25 649.56 1767.72 653.27 1757.19 656.979C1750.81 658.965 1745.22 660.998 1739.45 663.095L1738.25 663.53C1592.79 715.217 1467.44 764.765 1356.82 808.594C1152.9 889.244 991.708 952.83 810.843 991.539C725.273 1009.74 649.198 1015.93 578.661 1009.71C571.966 1009.12 565.245 1008.48 558.496 1007.79C567.033 1008.53 575.529 1009.19 583.993 1009.76C655.687 1014.79 732.57 1007.19 818.927 986.416C985.453 946.228 1138.57 882.455 1315.6 808.725L1315.75 808.662L1321.78 806.143C1443.14 755.516 1580.84 698.072 1745.32 639.172C1748.54 638.016 1751.62 636.896 1754.7 635.777L1754.74 635.762C1757.84 634.635 1760.94 633.508 1764.18 632.345L1765.45 631.879C1770.91 629.868 1776.19 627.923 1782.01 626.089L1781.79 625.261C1775.52 627.237 1769.53 629.138 1763.89 631.242C1760.65 632.404 1757.53 633.461 1754.42 634.517C1751.3 635.574 1748.19 636.631 1744.95 637.793C1578.09 697.874 1438.2 756.046 1315.38 807.283L1313.2 808.189C1136.49 881.709 984.175 945.076 818.558 985.037C732.127 1005.54 655.869 1013.26 584.175 1008.23C544.139 1005.48 503.035 1000.72 460.406 995.297C504.919 1000.62 547.809 1005.26 589.912 1007.58C662.211 1011.56 739.478 1002.09 826.421 979.087C981.131 937.633 1121.78 875.708 1284.37 804.065C1287.02 802.902 1289.69 801.736 1292.36 800.567L1300.07 797.195C1428.74 740.886 1574.06 677.294 1752.22 613.085C1758.69 610.76 1765.16 608.435 1771.36 606.184C1771.88 606.044 1772.38 605.843 1772.92 605.631C1773.51 605.394 1774.14 605.143 1774.87 604.948L1774.65 604.12L1774.65 604.121L1774.65 604.121C1773.82 604.343 1772.44 604.712 1771.14 605.357C1767.92 606.512 1764.84 607.631 1761.76 608.75L1761.74 608.759L1761.71 608.77L1761.68 608.781L1761.65 608.79C1758.57 609.909 1755.49 611.028 1752.28 612.184C1566.83 679.018 1416.62 744.982 1284.14 803.237L1279.54 805.255C1118.56 875.844 979.107 936.993 826.401 977.91C739.458 1000.91 662.191 1010.38 590.168 1006.33C583.915 1005.99 577.644 1005.59 571.354 1005.15C579.427 1005.64 587.473 1006.06 595.5 1006.38C668.681 1009.24 746.406 998.164 833.787 972.385C979.337 929.838 1109.97 869.121 1261.08 798.779C1400.64 733.894 1558.9 660.454 1759.55 587.477C1760.48 587.125 1761.45 586.797 1762.45 586.462C1764.32 585.832 1766.27 585.176 1768.15 584.285C1768.25 584.111 1768.21 583.973 1768.18 583.835C1768.14 583.697 1768.1 583.559 1768.2 583.384L1768.19 583.388C1765.24 584.475 1762.28 585.563 1759.6 586.576C1561.13 658.459 1404.26 731.336 1265.58 795.758L1260.85 797.951L1255.86 800.266L1255.86 800.266C1106.52 869.426 977.442 929.206 833.841 971.484C746.662 996.913 668.937 1007.99 596.032 1005.06C582.464 1004.51 568.845 1003.72 555.138 1002.72C570.65 1003.71 586.026 1004.44 601.293 1004.83C675.356 1006.56 753.814 993.813 841.781 965.809C978.924 921.672 1101.74 861.571 1243.86 791.865C1387.75 721.09 1551.02 640.986 1762.06 563.749C1761.85 563.51 1761.79 563.303 1761.75 563.131C1761.73 563.079 1761.72 563.029 1761.7 562.984C1761.69 562.962 1761.69 562.941 1761.68 562.921L1761.67 562.901C1761.66 562.891 1761.66 562.882 1761.65 562.873C1761.61 562.815 1761.56 562.764 1761.49 562.72C1550.8 640.158 1387.81 720.188 1243.63 791.037L1241.51 792.08C1100.57 861.272 978.367 921.264 841.761 964.632C754.07 992.562 675.611 1005.31 601.825 1003.5C576.241 1002.86 550.351 1001.25 524.027 999.046C552.196 1001.2 579.895 1002.64 607.286 1002.93C682.028 1003.88 761.22 989.463 849.699 958.957C980.386 913.89 1096.97 853.686 1231.12 784.044L1232.87 783.135C1377.78 708.06 1541.07 623.462 1755.49 543.636L1755.19 542.533C1540.19 622.607 1375.89 707.714 1230.9 783.217C1227.9 784.765 1224.9 786.308 1221.92 787.847C1090.95 855.41 977.253 914.06 849.404 957.854C761.201 988.286 682.284 1002.63 607.616 1001.95C588.046 1001.74 568.319 1000.95 548.378 999.739C570.082 1000.92 591.531 1001.57 612.802 1001.45C688.425 1001.29 768.553 984.84 857.342 952.182C981.252 906.415 1096.28 843.671 1217.25 777.689L1221.42 775.414L1228.2 771.715L1228.2 771.715L1228.2 771.713C1372.47 693.024 1534.89 604.436 1749.32 522.827C1749.28 522.689 1749.18 522.57 1749.07 522.45C1748.97 522.331 1748.86 522.212 1748.82 522.074C1531.38 605.167 1366.81 694.78 1220.92 774.661C1098.5 841.75 982.729 904.988 857.12 951.355C768.607 983.939 688.681 1000.03 613.407 1000.4C565.005 1000.68 515.715 997.094 464.564 992.176C517.5 997.017 568.711 1000.37 619.073 999.473C696.681 997.89 774.858 980.785 865.188 945.054C986.548 897.165 1097.46 833.455 1215.23 765.544C1360.64 681.655 1524.02 587.628 1743.15 502.014C1742.97 502.063 1742.97 501.802 1742.96 501.54C1742.96 501.463 1742.96 501.385 1742.95 501.316C1742.95 501.268 1742.94 501.224 1742.93 501.187C1523.52 586.875 1360.21 681.177 1215.08 764.992C1097.59 832.83 986.198 896.964 865.04 944.502C774.986 980.159 696.808 997.265 619.476 998.773C572.272 999.613 524.322 996.721 474.905 992.369C477.345 992.558 479.782 992.744 482.215 992.926C531.017 996.897 578.474 999.282 625.138 997.849C703.426 995.493 782.263 976.437 873.455 938.406C988.577 890.137 1093.88 826.526 1205.13 759.325L1211.11 755.711C1355.21 668.035 1517.69 569.523 1737.21 482.032L1736.99 481.205C1517.67 568.918 1354.99 667.438 1210.6 754.873L1210.6 754.874L1210.34 755.032C1097.23 823.765 990.141 888.519 872.957 937.653C782.317 975.536 703.406 994.316 625.193 996.947C624.123 996.98 623.054 997.011 621.984 997.04C624.809 996.947 627.631 996.841 630.45 996.72C709.82 992.892 789.539 972.714 881.169 931.905C994.727 881.378 1098.81 815.359 1208.1 745.582C1351.51 654.246 1512.68 551.947 1731.26 462.048C1731.19 461.772 1731.04 461.221 1731.31 461.147C1512.97 550.566 1352.55 652.616 1209.29 743.753L1207.6 744.828C1098.59 814.531 994.781 880.477 880.597 930.876C793.726 969.659 717.758 989.924 642.228 994.732C720.642 989.348 799.043 967.071 888.535 925.201C999.984 873.212 1100.35 806.232 1206.69 735.266L1206.69 735.266L1207.3 734.86C1348.92 640.161 1507.95 534.297 1725.39 442.339C1725.04 442.137 1724.96 441.862 1724.89 441.586C1507.45 533.543 1348.42 639.408 1206.52 734.18L1204.36 735.622C1098.6 806.203 998.946 872.711 888.313 924.374C796.925 967.187 716.822 989.241 636.846 994.119C632.07 994.38 627.288 994.599 622.499 994.779C629.025 994.469 635.536 994.083 642.035 993.616C723.242 987.817 804.354 964.015 896.18 918.424C1002.62 866.341 1097.7 799.984 1198.31 729.759L1198.69 729.499C1201.44 727.574 1204.21 725.646 1206.97 723.715L1207.18 723.57L1207.18 723.569L1207.19 723.567C1347.32 625.745 1503.88 516.452 1719.24 422.705L1719.02 421.878C1503.48 515.396 1346.94 625.028 1206.83 723.164C1103.26 795.545 1005.17 864.095 896.308 917.798C804.334 962.838 723.572 986.842 642.64 992.567C622.659 993.936 602.577 994.545 582.347 994.571C604.307 994.41 626.094 993.555 647.751 991.789C729.839 984.868 811.409 959.464 903.822 911.647C1011.07 856.31 1106.71 786.346 1208.03 712.202C1346.42 610.978 1500.42 498.481 1712.82 403.145C1713.09 402.902 1713.07 402.641 1713.05 402.449C1713.04 402.306 1713.03 402.202 1713.15 402.17C1502.16 496.775 1349.11 608.353 1211.63 708.585L1207.8 711.375L1206.56 712.283C1105.43 786.164 1010.13 855.781 903.876 910.746C811.463 958.563 730.169 983.893 648.356 990.74C612.923 993.629 577.188 994.068 540.907 993.022C541.262 993.03 541.617 993.037 541.972 993.044L542.551 993.056C580.112 993.91 617.148 993.125 653.945 989.538C736.916 981.494 819.145 954.14 911.867 904.171C1014.98 848.859 1106.39 779.243 1203.11 705.583C1205.53 703.739 1207.96 701.892 1210.38 700.043L1213.91 697.361C1349.28 594.439 1499.85 479.953 1707.57 383.565C1707.29 383.639 1707.15 383.088 1707.35 382.738C1497.28 480.112 1345.62 595.825 1209.68 699.639C1110.61 775.546 1016.87 847.071 911.794 903.896C864.848 929.157 820.839 948.51 778.057 962.527C804.8 953.615 831.96 942.576 859.934 929.294C884.481 918.255 909.091 905.308 933.796 890.156C1031.84 833.033 1120.02 762.991 1213.24 688.637L1214.92 687.298C1347.95 581.241 1495.59 463.535 1701.17 365.182C1701.15 365.099 1701.14 364.983 1701.14 364.857C1701.13 364.566 1701.12 364.22 1700.87 364.079C1625.99 400.104 1553.06 441.222 1481.62 487.855C1384.32 551.261 1301.42 617.129 1221.12 680.94L1220.64 681.322L1220.2 681.671C1217.53 683.793 1214.86 685.914 1212.19 688.031C1129.21 754.307 1049.53 817.531 963.214 871.086C972.354 864.836 981.51 858.27 990.682 851.373C1068.42 799.213 1140.69 739.247 1216.27 676.541L1216.27 676.54L1216.27 676.538L1216.7 676.182C1347.77 567.464 1493.39 446.866 1696.07 346.154C1695.79 346.228 1695.09 345.824 1695.57 345.401C1623.87 381.165 1554.25 421.396 1485.99 467.767C1384.57 536.027 1298.71 607.21 1216.28 675.705L1212.46 678.863C1140.99 738.057 1072.64 794.658 999.694 844.493C1008.15 837.944 1016.61 831.11 1025.09 823.981C1091.52 775.343 1154.34 720.996 1219.59 664.564L1219.59 664.563L1219.59 664.562L1220.24 664.002L1224.18 660.617C1352.16 550.672 1493.61 429.164 1690.29 327.897C1689.67 327.769 1689.32 327.567 1689.52 327.217C1620.93 362.445 1554.97 401.99 1490.01 447.475C1388.28 517.887 1302.34 592.05 1219.81 663.524L1219.36 663.911L1219.36 663.914C1156.69 718.017 1096.44 770.023 1033.25 817.037C1040.38 810.892 1047.52 804.537 1054.67 797.963C1112.15 752.562 1167.32 703.028 1224.47 651.721L1225.08 651.178C1350.81 537.978 1490.19 412.845 1683.96 309.79C1684.06 309.615 1684.01 309.408 1683.96 309.236C1683.92 309.098 1683.89 308.982 1683.95 308.922L1684.02 308.889C1683.99 308.896 1683.97 308.907 1683.95 308.922C1619.32 343.382 1556.21 382.454 1494.79 426.688C1395.96 497.171 1313.04 571.398 1232.68 643.339L1232.68 643.343C1229.91 645.823 1227.14 648.3 1224.38 650.774L1220.29 654.436L1220.29 654.438C1166.86 702.306 1115.26 748.54 1061.89 791.247C1067.6 785.889 1073.31 780.391 1079.03 774.75C1129.74 732.168 1178.89 686.394 1229.51 639.055L1230.96 637.699C1353.79 523.17 1489.15 396.951 1677.78 292.236L1677.56 291.409C1616 325.34 1556.74 363.388 1498.73 406.124C1397.45 480.913 1312.84 559.621 1231.1 635.646L1231.1 635.647L1228.39 638.173C1181.5 682.208 1135.69 725.016 1088.67 765.117C1094.29 759.431 1099.91 753.606 1105.54 747.638C1147.49 710.133 1188.62 670.491 1230.83 629.81L1234.63 626.156C1354.76 509.727 1487.45 381.659 1672.57 275.01C1671.94 274.882 1671.87 274.606 1671.8 274.33C1614.46 307.429 1558.15 344.388 1503.65 385.888C1401.29 463.859 1316.04 546.114 1233.93 625.753L1233.63 626.036L1233.63 626.042L1233.61 626.054C1192.4 665.861 1152.15 704.733 1111.17 741.622C1116.6 735.783 1122.04 729.811 1127.48 723.702C1164.39 688.881 1200.73 652.435 1237.94 615.123L1240.22 612.835L1243.77 609.282C1360.31 492.731 1488.51 364.521 1666.81 257.931C1666.64 257.83 1666.6 257.692 1666.56 257.554C1666.53 257.417 1666.49 257.279 1666.32 257.178C1612.56 289.316 1560.04 324.965 1508.98 364.953C1406.86 444.928 1321.52 530.162 1239.24 612.505L1238.64 613.114C1203.21 648.725 1168.54 683.569 1133.43 716.976C1137.68 712.122 1141.95 707.184 1146.22 702.161C1147.84 700.254 1149.46 698.341 1151.07 696.424C1178.78 668.86 1206.33 640.415 1234.4 611.439L1234.71 611.115L1235.62 610.176C1237.18 608.562 1238.75 606.946 1240.31 605.329C1242.08 603.509 1243.84 601.686 1245.61 599.862C1360.03 480.828 1485.88 350.451 1660.65 241.552C1660.3 241.35 1660.23 241.074 1660.15 240.798C1610.26 271.902 1561.53 306.241 1514.11 344.367C1413.87 424.268 1330.72 510.272 1250.46 593.301L1250.43 593.33L1247.81 596.038L1244.36 599.606L1242.38 601.66C1213.66 631.509 1185.43 660.836 1157.03 689.268C1161.05 684.391 1165.03 679.48 1168.97 674.535C1196.4 646.116 1223.69 616.844 1251.46 587.061L1251.46 587.059L1251.46 587.058L1251.83 586.667C1368.63 461.083 1488.42 332.332 1655.31 224.95C1655.1 224.826 1655.12 224.75 1655.15 224.645C1655.17 224.58 1655.2 224.504 1655.17 224.399C1608.51 254.34 1563.56 287.369 1519.43 323.431C1416.76 407.986 1332.55 498.534 1251.13 586.264C1224.97 614.383 1199.22 642.053 1173.36 668.985C1177.2 664.102 1181 659.187 1184.76 654.241C1208.92 628.191 1233.01 601.475 1257.49 574.326L1257.52 574.294L1257.55 574.253L1257.57 574.232L1257.58 574.221L1257.59 574.217L1258.32 573.399C1371.64 446.973 1487.83 318.006 1649.65 209.324C1649.65 209.324 1649.3 209.122 1649.5 208.773C1606.63 237.403 1565.53 268.221 1525.38 302.623C1422.68 389.257 1338.38 482.783 1257.07 573.143C1255.37 575.026 1253.67 576.907 1251.97 578.785C1231.78 601.091 1211.87 623.103 1191.96 644.687C1195.82 639.508 1199.64 634.295 1203.42 629.05C1222.08 608.103 1240.75 586.78 1259.65 565.2L1264.19 560.005C1374.46 433.215 1487.32 303.957 1643.86 194.325L1643.71 193.774C1605.11 220.671 1567.71 249.902 1530.99 281.615C1430.14 368.362 1347.82 462.66 1268.08 553.993L1263.42 559.325L1259.7 563.595L1259.69 563.606L1259.68 563.623L1259.64 563.664L1259.63 563.676L1259.62 563.694L1259.58 563.729L1259.52 563.802C1242.26 583.607 1225.18 603.213 1208.1 622.52C1211.67 617.501 1215.22 612.454 1218.73 607.378C1235.64 587.601 1252.57 567.508 1269.7 547.184L1270.54 546.186C1377.75 419.031 1487.28 289.484 1637.79 179.399C1638.15 179.082 1638.04 178.889 1637.93 178.696C1637.9 178.631 1637.86 178.567 1637.84 178.498C1603.3 204.011 1569.2 231.178 1536.31 260.68C1434.34 351.279 1351.37 449.385 1270.89 544.543L1269.84 545.782C1254.19 564.356 1238.69 582.733 1223.22 600.847C1225.84 597.007 1228.45 593.151 1231.04 589.279C1246.4 570.701 1261.78 551.866 1277.31 532.845C1381.27 405.676 1487.47 275.838 1632.49 165.154C1632.22 165.227 1632.42 164.878 1632.42 164.878C1601.72 188.179 1571.73 213.061 1542.47 239.524C1440.19 332.258 1357.41 433.245 1277.32 530.943L1276.26 532.239C1263.28 548.125 1250.4 563.888 1237.54 579.486C1240.53 574.938 1243.51 570.369 1246.46 565.78C1258.21 551.116 1269.99 536.3 1281.86 521.362L1281.94 521.27L1281.94 521.264L1284.34 518.251L1285.31 517.029L1285.31 517.027L1285.31 517.025C1385.5 390.582 1487.96 261.281 1627.13 150.63L1626.78 150.428C1599.91 171.517 1573.97 193.838 1548.2 217.888C1447.31 311.893 1365.65 414.513 1286.93 513.443L1283.36 517.921L1280.36 521.711L1280.33 521.739C1270.53 534.106 1260.78 546.394 1251.06 558.585C1253.96 554.025 1256.84 549.447 1259.71 544.849C1269.82 531.801 1279.96 518.635 1290.18 505.371L1290.96 504.358C1388 377.86 1487.44 249.243 1621.3 137.708C1621.27 137.603 1621.21 137.548 1621.16 137.502C1621.08 137.427 1621.03 137.372 1621.15 137.156C1598.13 156.035 1575.96 175.868 1553.88 197.154C1451.35 294.381 1369.35 400.889 1290.06 504.304L1286.6 508.793L1286.59 508.807L1286.53 508.876L1286.22 509.281L1286.21 509.296L1286.16 509.368L1285.75 509.889C1278.32 519.527 1270.93 529.117 1263.55 538.65C1265.88 534.884 1268.19 531.106 1270.5 527.316C1279.35 515.527 1288.22 503.652 1297.15 491.705L1297.22 491.61L1297.93 490.667L1300.84 486.779C1393.92 362.334 1488.89 235.351 1616.17 125.189L1615.95 124.362C1596.84 141.305 1578.36 158.375 1560.03 175.997C1457.75 275.228 1375.93 384.642 1297.23 490.263L1292.92 496.004L1292.76 496.227C1286.79 504.182 1280.85 512.105 1274.92 519.992C1277.05 516.456 1279.17 512.909 1281.28 509.352C1289.24 498.419 1297.22 487.418 1305.25 476.359L1305.31 476.278C1395.93 351.203 1488.4 224.159 1611.04 112.673C1611.04 112.673 1611.25 112.324 1611.17 112.048C1596.02 125.319 1581.86 139.165 1567.28 153.417L1567.28 153.419L1567.28 153.421L1567.28 153.422L1566.11 154.566C1465.19 254.492 1384.93 364.984 1307.55 471.524L1307.54 471.525L1304.33 475.948L1302.31 478.725L1302.13 478.974C1296.98 486.048 1291.85 493.099 1286.73 500.124C1288.41 497.249 1290.09 494.368 1291.77 491.48C1298.28 482.29 1304.8 473.053 1311.35 463.774L1311.63 463.374L1312 462.849L1312.06 462.77L1312.68 461.887C1400.08 337.975 1489.23 211.817 1606.41 100.908C1606.41 100.908 1606.06 100.706 1605.99 100.431C1597.11 108.714 1587.84 117.667 1578.85 126.361L1578.75 126.453C1576.52 128.609 1574.3 130.748 1572.12 132.858C1472 234.537 1392.41 346.948 1315.49 455.588L1315.49 455.589L1311.16 461.705C1307.03 467.577 1302.92 473.432 1298.81 479.269C1300.18 476.881 1301.55 474.49 1302.91 472.094C1308 464.706 1313.1 457.289 1318.22 449.846L1318.3 449.728L1319.78 447.57C1403.46 325.244 1489.18 200.598 1601.03 89.6409L1600.81 88.8136C1596.96 92.6527 1593.32 96.4363 1589.68 100.22C1586.04 104.004 1582.4 107.787 1578.55 111.626C1478.55 215.05 1399.11 330.349 1322.73 441.226L1318.53 447.314L1316.97 449.587C1314.43 453.303 1311.88 457.012 1309.34 460.714C1309.92 459.682 1310.5 458.648 1311.08 457.614C1316.28 449.844 1321.5 442.042 1326.73 434.21L1326.92 433.919L1327.23 433.455L1328.38 431.74C1409 310.984 1490.74 188.566 1596.77 79.2547L1596.55 78.4274C1594.26 80.6411 1592.13 82.8114 1590.07 84.9181L1590.07 84.9206C1588.32 86.7033 1586.62 88.4405 1584.9 90.1196C1483.69 197.393 1404.16 316.485 1326.96 432.075L1326.26 433.125L1323.92 436.626C1321.64 440.042 1319.36 443.452 1317.08 446.857C1318.99 443.419 1320.89 439.974 1322.79 436.521C1326.6 430.651 1330.43 424.765 1334.26 418.864C1411.34 299.488 1490.61 178.344 1591.68 69.0915C1591.53 68.54 1591.53 68.5398 1591.18 68.3379C1591.18 68.3379 1591.26 68.6138 1590.98 68.6877C1491.68 175.714 1413.79 294.433 1338.73 409.806L1339.87 408.015L1341.99 404.674L1344.54 400.634L1344.54 400.633C1418.25 284.134 1492.9 166.151 1587.72 59.8079C1587.69 59.7244 1587.68 59.5836 1587.67 59.4299V59.4288C1587.65 59.075 1587.61 58.6532 1587.42 58.7047C1490.91 167.327 1414.4 287.731 1340.94 404.068L1338.81 407.431L1337.46 409.559C1338.58 407.471 1339.71 405.38 1340.83 403.287C1343.63 398.744 1346.44 394.19 1349.25 389.628L1349.62 389.032C1420.47 273.986 1492.81 156.768 1583.33 50.0475C1583.3 49.9556 1583.25 49.8719 1583.19 49.7881C1583.08 49.6207 1582.97 49.4533 1583.11 49.2202C1497.16 150.286 1427.99 260.423 1361.29 368.27C1427.85 257.342 1495.69 144.946 1579.66 41.8687C1579.31 41.6669 1579.23 41.3911 1579.16 41.1153C1494.78 144.537 1426.13 257.935 1360.14 367.845L1361.69 365.199L1363.64 361.892L1364.64 360.178C1429.27 249.461 1494.97 137.271 1575.71 33.7626C1575.87 33.7211 1575.71 33.5756 1575.54 33.4071C1575.4 33.2756 1575.25 33.1301 1575.21 33.0092C1495.73 134.357 1431.48 244.056 1368 352.445L1366.9 354.336L1369 350.669L1372.15 345.162L1374.38 341.251L1374.38 341.25C1435.21 234.698 1496.71 126.959 1571.79 26.8335L1571.49 25.7305C1500.54 120.148 1441.81 221.213 1384.38 321.702C1441.6 219.444 1499.61 116.148 1568.69 19.6835C1568.62 19.4077 1568.47 18.8563 1568.67 18.5066C1504.61 107.463 1450.31 202.055 1397.64 296.253C1449.7 200.494 1502.85 104.214 1565.54 13.435L1565.17 12.0561C1507.22 96.3051 1456.87 185.639 1408.36 274.456C1456.4 184.251 1505.31 93.4597 1562.38 7.18555C1562.31 6.90977 1561.88 6.43223 1561.54 6.23035C1519.09 70.8948 1480.91 138.026 1444.3 205.684C1480.77 136.698 1518.38 67.9895 1560.08 1.89157L1559.71 0.512695C1503.17 89.4873 1455.06 182.249 1407.31 274.337L1407.31 274.341L1407.19 274.568L1407 274.935L1406.43 276.04L1406.1 276.676L1405.35 278.113C1404.24 280.258 1403.13 282.403 1402.01 284.547L1401.93 284.704C1397.97 292.341 1394.01 299.958 1390.07 307.552C1386.17 314.894 1382.28 322.215 1378.4 329.513C1367.43 349.681 1356.51 369.683 1345.58 389.483C1334.54 408.675 1323.53 427.696 1312.46 446.509C1308.98 452.324 1305.5 458.12 1302.01 463.894C1301.29 465.056 1300.58 466.217 1299.87 467.377C1299.38 468.166 1298.89 468.955 1298.41 469.744C1284.14 492.462 1269.84 514.862 1255.34 536.873L1254.75 537.748C1242.44 555.893 1230.03 573.786 1217.43 591.385C1201.14 613.514 1184.63 635.196 1167.69 656.338C1162.5 662.737 1157.28 669.087 1152.02 675.386C1136.47 693.824 1120.59 711.824 1104.25 729.316C1083.27 751.557 1061.57 772.982 1038.82 793.441C1032.75 798.855 1026.61 804.2 1020.39 809.474C934.445 882.969 853.808 930.522 769.026 957.325C761.061 959.82 753.058 962.133 745.011 964.269C649.742 989.311 554.926 990.442 456.669 986.397C436.547 985.432 416.279 984.236 395.836 982.97C389.709 982.534 383.563 982.092 377.399 981.649L377.328 981.644L375.129 981.486L372.189 981.285H372.188L372.107 981.279L372.061 981.276L372.008 981.272L371.955 981.269L365.941 980.857L362.199 980.601L359.622 980.424C351.39 979.731 343.143 979.047 334.878 978.382C327.971 977.771 321.044 977.173 314.094 976.594C312.875 976.473 311.655 976.353 310.435 976.234C295.69 974.703 280.835 973.286 265.86 972.038C265.409 971.992 264.959 971.945 264.508 971.899C257.748 971.113 250.963 970.372 244.154 969.68C240.436 969.282 236.71 968.898 232.976 968.531C227.95 967.887 222.936 967.28 217.932 966.709C212.177 965.978 206.424 965.302 200.674 964.683C185.169 962.957 169.665 961.643 154.17 960.726C102.805 957.426 51.4162 958.586 0.0996094 964.039C0.186185 964.362 0.367376 964.66 0.517474 964.907C0.623599 965.081 0.71418 965.23 0.744786 965.344C16.4515 963.7 31.9629 962.488 47.2668 961.674C34.317 962.497 21.4024 963.603 8.53011 964.995C6.1669 965.237 3.80507 965.489 1.44458 965.749C1.44828 965.763 1.45211 965.776 1.45607 965.79L1.1688 965.823C1.20575 965.961 1.31165 966.081 1.41754 966.2C1.52342 966.32 1.62929 966.439 1.66623 966.577L1.89729 966.552C1.95174 966.628 1.99491 966.7 2.01588 966.778C4.91404 966.459 7.81416 966.154 10.7164 965.863C7.72137 966.178 4.72957 966.507 1.74113 966.851C1.77808 966.989 1.90243 967.177 2.02678 967.365C2.15113 967.554 2.27549 967.742 2.31243 967.88L2.63112 967.845C2.69262 967.969 2.76349 968.076 2.83438 968.183L2.83479 968.184L2.83704 968.187C2.50281 968.226 2.16852 968.266 1.83417 968.305C1.92074 968.628 2.07658 968.831 2.20568 969L2.20577 969L2.20585 969L2.20594 969C2.2971 969.119 2.37489 969.22 2.40547 969.334L2.79511 969.29C2.81537 969.314 2.83614 969.337 2.85692 969.36C2.96283 969.48 3.06875 969.599 3.10569 969.737C7.40968 969.234 11.7053 968.763 15.9925 968.323C11.6885 968.767 7.39234 969.239 3.10346 969.738C3.14041 969.876 3.26478 970.064 3.38914 970.253L3.40179 970.272L3.2515 970.29C3.33807 970.613 3.49391 970.816 3.62301 970.985L3.6231 970.985L3.62318 970.985L3.62326 970.985C3.71443 971.104 3.79222 971.205 3.8228 971.319L4.40531 971.25C4.45456 971.356 4.53948 971.451 4.62444 971.547L4.62473 971.548C4.73061 971.667 4.8365 971.786 4.87345 971.924L5.25963 971.877C5.28041 971.901 5.30178 971.925 5.32315 971.95C4.98905 971.99 4.65489 972.031 4.32068 972.072C4.40725 972.395 4.56309 972.598 4.69218 972.766C4.78346 972.885 4.86137 972.987 4.89198 973.101C5.1962 973.063 5.50038 973.025 5.80452 972.987C5.8737 973.109 5.94968 973.208 6.01815 973.297L6.03177 973.315C6.06398 973.357 6.09426 973.397 6.12104 973.436L5.59383 973.504C5.63078 973.641 5.73667 973.761 5.84256 973.88C5.94844 974 6.05431 974.119 6.09125 974.257C9.76189 973.789 13.4261 973.344 17.0843 972.922C13.3344 973.368 9.5776 973.837 5.814 974.331C6.16367 974.533 6.23749 974.809 6.31138 975.085L6.61871 975.045C6.78399 975.235 6.89301 975.393 6.96918 975.531L6.73554 975.563C7.15911 976.041 7.23291 976.316 7.3068 976.592L7.58485 976.556C7.61292 976.634 7.63431 976.714 7.65569 976.794C9.19191 976.589 10.727 976.389 12.261 976.192C10.6316 976.414 9.00443 976.639 7.37937 976.869L7.52713 977.42L7.81429 977.382L8.02613 978.173L8.31142 978.134L8.3756 978.373C10.5621 978.076 12.7465 977.787 14.9289 977.505C12.6496 977.813 10.3733 978.128 8.09959 978.449L8.24738 979.001L8.53511 978.961L8.59937 979.201L9.16734 979.12L9.29754 979.606C36.8312 975.732 63.993 973.143 90.8319 971.578C62.8551 973.383 35.6702 976.308 8.89111 980.306C9.24078 980.508 9.3146 980.783 9.38849 981.059L9.67266 981.018L9.6809 981.049L9.11537 981.132C9.46504 981.334 9.53886 981.61 9.61275 981.885L9.84258 981.852C9.9505 982.048 9.99284 982.206 10.0351 982.364L10.3125 982.323C10.342 982.407 10.3632 982.486 10.3844 982.566C16.1678 981.713 21.9348 980.918 27.686 980.177C21.7523 980.963 15.8018 981.807 9.83401 982.713C10.1837 982.915 10.3316 983.467 10.4055 983.743L10.4072 983.742C10.7554 983.944 10.8291 984.219 10.9028 984.495C11.1744 984.453 11.4459 984.412 11.7174 984.371C11.8033 984.541 11.8414 984.683 11.8794 984.825C45.4153 979.658 78.4492 976.456 111.055 974.699C94.5829 975.644 77.9945 976.961 61.277 978.72C44.6678 980.393 27.9288 982.482 11.0485 985.048C11.1494 985.106 11.2335 985.194 11.3038 985.295L11.1221 985.324C11.4718 985.526 11.5456 985.802 11.6195 986.078L11.8307 986.045C11.9503 986.202 11.9976 986.378 12.0449 986.555C16.3722 985.871 20.6904 985.219 25 984.599C20.5988 985.242 16.1885 985.918 11.7689 986.628C12.1186 986.83 12.2665 987.382 12.3404 987.657L12.5687 987.621C12.6218 987.717 12.6591 987.804 12.6883 987.886L12.4136 987.932C12.5395 988.004 12.6297 988.087 12.6969 988.175L12.4894 988.209C12.6688 988.411 12.7855 988.577 12.866 988.723L12.6357 988.76C13.0593 989.238 13.1331 989.514 13.207 989.79L13.2062 989.79C13.5559 989.992 13.6297 990.268 13.7036 990.544L13.9142 990.509C14.0344 990.666 14.0818 990.843 14.1292 991.02C17.7066 990.416 21.278 989.834 24.8439 989.275C21.0942 989.881 17.3378 990.512 13.5745 991.168C13.9242 991.369 13.9982 991.645 14.0721 991.921L14.3808 991.868C14.5452 991.976 14.6626 992.163 14.7478 992.356L14.4994 992.4C14.849 992.602 14.9229 992.878 14.9968 993.153L15.203 993.117C15.2671 993.2 15.3106 993.289 15.3445 993.38L15.0704 993.43C15.4201 993.631 15.4941 993.907 15.568 994.183L15.5686 994.183C15.9914 994.66 16.0652 994.936 16.1391 995.211L16.137 995.212C16.2597 995.283 16.3484 995.363 16.4151 995.449L16.2114 995.487C16.5611 995.689 16.635 995.965 16.7089 996.241L16.9829 996.19L16.9893 996.208L16.4348 996.315C16.5574 996.385 16.6461 996.465 16.7128 996.551L16.5058 996.591C16.6284 996.662 16.7172 996.742 16.7839 996.827L16.5813 996.867C16.9309 997.069 17.0049 997.344 17.0788 997.62ZM74.2575 972.181C57.1501 973.433 39.9047 975.127 22.507 977.332C39.4272 975.252 56.6728 973.518 74.2575 972.181ZM616.273 991.053C630.9 990.309 645.452 989.193 659.94 987.636C715.265 981.559 769.761 967.139 827.01 942.997C822.504 944.724 818 946.391 813.497 948C763.314 968.209 714.872 980.845 665.601 986.71C649.22 988.706 632.784 990.12 616.273 991.053ZM936.686 887.104C934.404 888.443 932.117 889.776 929.825 891.101C941.371 884.046 952.829 876.576 964.206 868.685C966.533 867.204 968.854 865.716 971.17 864.22C959.652 872.347 948.158 879.965 936.686 887.104ZM666.005 986.011C646.776 988.353 627.484 989.891 608.09 990.789C629.302 989.731 650.39 987.92 671.394 985.157C711.241 979.943 750.526 970.273 790.531 955.716C792.973 954.947 795.416 954.161 797.86 953.36C753.249 970.022 709.867 980.685 666.005 986.011ZM976.122 860.245C978.318 858.811 980.508 857.371 982.694 855.925C991.952 849.128 1001.23 841.998 1010.52 834.518C1008.23 836.152 1005.93 837.779 1003.63 839.398C994.514 846.629 985.344 853.577 976.122 860.245ZM600.477 990.406C624.386 989.453 648.139 987.57 671.798 984.458C706.397 979.845 740.725 971.878 775.535 960.238C772.622 961.078 769.709 961.896 766.796 962.692C736.996 972.179 707.373 978.974 677.389 983.256C669.121 984.445 660.842 985.482 652.549 986.38C635.26 988.296 617.909 989.599 600.477 990.406ZM946.548 877.344C935.798 884.521 924.994 891.321 914.129 897.748C926.352 890.583 938.494 882.945 950.563 874.827C949.227 875.669 947.888 876.508 946.548 877.344ZM965.675 864.385C964.195 865.355 962.712 866.322 961.226 867.286C969.491 861.476 977.726 855.44 985.934 849.175C987.647 847.98 989.358 846.78 991.066 845.577C982.634 852.089 974.172 858.358 965.675 864.385ZM1004.09 838.202L1003.54 838.592C1010.79 832.809 1018 826.845 1025.19 820.699C1025.71 820.313 1026.22 819.927 1026.73 819.54C1019.22 825.958 1011.67 832.178 1004.09 838.202ZM1019.81 826.924C1017.57 828.553 1015.33 830.175 1013.08 831.791C1020.4 825.815 1027.68 819.655 1034.93 813.311C1037.33 811.474 1039.73 809.629 1042.12 807.777C1034.67 814.39 1027.24 820.77 1019.81 826.924ZM1033.74 813.298L1034.63 812.614L1035.12 812.246L1035.5 811.952C1041.3 806.861 1047.09 801.651 1052.86 796.322C1052.1 796.929 1051.35 797.535 1050.6 798.141C1044.99 803.306 1039.38 808.358 1033.74 813.298ZM1043.08 806.096C1045.42 804.27 1047.77 802.436 1050.11 800.595C1055.93 795.299 1061.77 789.858 1067.61 784.27C1065.11 786.331 1062.61 788.385 1060.11 790.43C1054.45 795.767 1048.77 800.989 1043.08 806.096ZM997.718 840.009C999.376 838.821 1001.03 837.629 1002.68 836.434C1008.64 831.655 1014.59 826.753 1020.52 821.728C1018.76 823.074 1016.99 824.416 1015.22 825.754C1009.4 830.623 1003.57 835.375 997.718 840.009ZM977.72 851.669C977.314 851.953 976.908 852.237 976.502 852.52C981.061 849.081 985.614 845.57 990.163 841.985C990.934 841.422 991.704 840.858 992.473 840.293C987.563 844.168 982.646 847.96 977.72 851.669ZM1033.17 810.566C1032.39 811.169 1031.62 811.771 1030.85 812.373C1036.27 807.627 1041.68 802.777 1047.08 797.823C1048.75 796.451 1050.42 795.075 1052.09 793.695C1046.62 798.78 1041.13 803.757 1035.64 808.627C1034.82 809.274 1033.99 809.92 1033.17 810.566ZM1064.41 785.465C1064.05 785.761 1063.69 786.057 1063.33 786.352L1062.62 786.935L1062.09 787.372C1067.56 782.17 1073.01 776.859 1078.45 771.439C1078.99 770.97 1079.53 770.5 1080.08 770.031C1080.41 769.743 1080.74 769.456 1081.07 769.168C1075.53 774.714 1069.98 780.146 1064.41 785.465ZM1078.16 774.023C1075.75 776.047 1073.34 778.064 1070.92 780.073C1076.44 774.711 1081.94 769.238 1087.42 763.653C1090.01 761.389 1092.6 759.115 1095.19 756.833C1089.5 762.706 1083.83 768.435 1078.16 774.023ZM1058.79 787.18C1059.23 786.812 1059.67 786.445 1060.11 786.077L1060.91 785.403C1066.09 780.473 1071.26 775.446 1076.42 770.32C1075.54 771.095 1074.65 771.869 1073.77 772.642C1073.07 773.254 1072.37 773.866 1071.67 774.478C1066.54 779.512 1061.4 784.45 1056.26 789.292C1057.1 788.589 1057.94 787.885 1058.79 787.18ZM1085.31 764.536C1086.16 763.79 1087.02 763.044 1087.88 762.296C1093.15 756.921 1098.41 751.442 1103.65 745.858L1102.91 746.539L1102.47 746.943C1101.94 747.422 1101.42 747.902 1100.9 748.381C1095.71 753.866 1090.51 759.251 1085.31 764.536ZM1093.8 757.102C1096.32 754.879 1098.84 752.647 1101.36 750.408C1106.78 744.711 1112.21 738.883 1117.65 732.92C1114.93 735.461 1112.2 737.992 1109.47 740.515C1104.26 746.147 1099.03 751.676 1093.8 757.102ZM1004.79 830.199C1005.72 829.494 1006.66 828.787 1007.59 828.079C1012.28 824.201 1016.96 820.247 1021.63 816.216C1021.31 816.476 1020.98 816.735 1020.65 816.995L1020.03 817.487L1019.69 817.759C1019.16 818.173 1018.64 818.587 1018.11 819.001C1013.67 822.806 1009.23 826.539 1004.79 830.199ZM980.96 847.106C976.569 850.486 972.174 853.799 967.774 857.047C967.408 857.301 967.042 857.556 966.676 857.809L966.408 857.995C970.554 854.935 974.697 851.817 978.838 848.639C979.19 848.385 979.542 848.13 979.895 847.876L980.42 847.496L980.96 847.106ZM997.356 834.16C996.487 834.816 995.617 835.471 994.745 836.124C998.717 832.923 1002.69 829.665 1006.66 826.348C1007.82 825.442 1008.98 824.534 1010.13 823.624C1005.88 827.199 1001.62 830.711 997.356 834.16ZM1033.98 805.382C1032.76 806.372 1031.55 807.359 1030.34 808.344C1035.4 803.854 1040.46 799.267 1045.53 794.582C1046.95 793.374 1048.36 792.164 1049.78 790.95C1044.52 795.861 1039.25 800.671 1033.98 805.382ZM1057.94 786.316C1053.55 790.502 1049.15 794.619 1044.74 798.666C1049.3 794.493 1053.86 790.246 1058.4 785.924L1057.94 786.316ZM1067.87 776.812L1067.18 777.412C1072.79 771.935 1078.39 766.343 1083.98 760.637C1084.35 760.301 1084.72 759.965 1085.08 759.628C1079.35 765.477 1073.62 771.205 1067.87 776.812ZM1082.14 764.264C1081.58 764.76 1081.02 765.256 1080.46 765.751C1086.47 759.724 1092.46 753.566 1098.45 747.274C1099.89 745.93 1101.33 744.582 1102.76 743.232C1096.81 749.56 1090.85 755.755 1084.88 761.818C1083.97 762.635 1083.05 763.45 1082.14 764.264ZM1110.53 738.477C1109.64 739.3 1108.75 740.123 1107.86 740.944C1113.71 734.643 1119.55 728.212 1125.38 721.652C1125.89 721.155 1126.4 720.658 1126.92 720.161L1128.08 719.036C1122.24 725.648 1116.39 732.128 1110.53 738.477ZM1124.03 725.867C1121.35 728.388 1118.67 730.9 1115.99 733.403C1121.76 727.059 1127.52 720.588 1133.26 713.989C1136.12 711.192 1138.98 708.385 1141.84 705.569C1135.89 712.499 1129.96 719.263 1124.03 725.867ZM1060.76 780.216C1062.02 779.117 1063.27 778.017 1064.52 776.914C1067.65 773.868 1070.79 770.786 1073.92 767.668C1072.62 768.852 1071.32 770.033 1070.02 771.211C1066.93 774.25 1063.85 777.251 1060.76 780.216ZM1094.57 749.691C1094.95 749.333 1095.34 748.976 1095.72 748.619C1099.4 744.759 1103.07 740.849 1106.75 736.888L1106.3 737.318C1106.01 737.594 1105.73 737.87 1105.44 738.146C1101.82 742.043 1098.19 745.891 1094.57 749.691ZM1108.17 736.939C1109.44 735.734 1110.71 734.527 1111.98 733.318C1115.34 729.666 1118.69 725.972 1122.04 722.236C1122.62 721.588 1123.2 720.94 1123.78 720.291C1122.48 721.571 1121.18 722.849 1119.88 724.124C1118.29 725.893 1116.7 727.657 1115.1 729.416C1112.79 731.944 1110.48 734.451 1108.17 736.939ZM1095.23 752.392C1100.84 746.538 1106.43 740.566 1112.02 734.476L1112.23 734.275C1106.57 740.434 1100.91 746.473 1095.23 752.392ZM1120.34 725.315L1120.61 725.054C1123.52 721.821 1126.43 718.555 1129.33 715.257C1130.39 714.056 1131.45 712.852 1132.5 711.646L1132.2 711.938C1129.08 715.525 1125.92 719.093 1122.74 722.639C1121.94 723.534 1121.14 724.425 1120.34 725.315ZM1132.75 713.289C1133.57 712.483 1134.4 711.676 1135.22 710.868C1135.83 710.165 1136.44 709.461 1137.05 708.756C1140.48 704.8 1143.87 700.82 1147.24 696.817C1146.85 697.209 1146.47 697.601 1146.08 697.993C1145.58 698.496 1145.09 698.998 1144.59 699.5C1140.68 704.128 1136.74 708.724 1132.75 713.289ZM1140.14 706.043C1142.87 703.352 1145.6 700.651 1148.33 697.942C1152.38 693.137 1156.39 688.296 1160.36 683.422C1157.7 686.151 1155.04 688.872 1152.39 691.584C1148.35 696.438 1144.26 701.258 1140.14 706.043ZM1027.05 808.829C1028.3 807.801 1029.56 806.771 1030.81 805.738C1032.93 803.846 1035.06 801.939 1037.18 800.015C1035.69 801.282 1034.19 802.545 1032.69 803.805C1030.81 805.493 1028.93 807.168 1027.05 808.829ZM993.266 835.496L992.74 835.918L992.26 836.282L992.659 835.961L993.266 835.496ZM1050.96 787.311C1049.44 788.638 1047.91 789.962 1046.39 791.282C1047.44 790.304 1048.49 789.321 1049.54 788.334C1051.36 786.73 1053.18 785.12 1054.99 783.506C1054.3 784.162 1053.6 784.817 1052.91 785.471C1052.26 786.086 1051.61 786.699 1050.96 787.311ZM1083.88 757.626C1082.8 758.634 1081.71 759.64 1080.62 760.645C1083.32 757.926 1086.01 755.178 1088.71 752.401C1089.77 751.395 1090.83 750.387 1091.88 749.377C1089.22 752.153 1086.55 754.903 1083.88 757.626ZM1114.28 728.687C1113.78 729.17 1113.29 729.652 1112.79 730.134C1115.99 726.606 1119.17 723.057 1122.32 719.489C1122.98 718.83 1123.64 718.17 1124.29 717.509C1120.98 721.258 1117.64 724.984 1114.28 728.687ZM1130.23 712.969C1128.99 714.209 1127.74 715.447 1126.49 716.683C1129.99 712.714 1133.45 708.72 1136.88 704.702C1138.21 703.341 1139.54 701.978 1140.86 700.612C1137.35 704.757 1133.81 708.877 1130.23 712.969ZM1138.5 704.696L1138.22 704.98C1141.9 700.686 1145.55 696.364 1149.16 692.015L1149.44 691.725C1145.83 696.076 1142.18 700.4 1138.5 704.696ZM1152.1 690.92L1151.55 691.479C1151.01 692.032 1150.46 692.584 1149.92 693.137C1153.64 688.663 1157.32 684.161 1160.97 679.632C1161.91 678.638 1162.85 677.643 1163.79 676.648C1160.08 681.285 1156.33 685.893 1152.54 690.471L1152.1 690.92ZM1165.08 677.575C1162.56 680.18 1160.04 682.777 1157.52 685.367C1161.38 680.655 1165.21 675.91 1168.99 671.135C1171.48 668.489 1173.97 665.835 1176.45 663.174C1172.7 668.006 1168.91 672.806 1165.08 677.575ZM1106.09 734C1107.19 732.92 1108.29 731.839 1109.38 730.756C1112.65 727.197 1115.89 723.617 1119.1 720.016C1117.78 721.368 1116.45 722.718 1115.13 724.065C1112.14 727.394 1109.13 730.706 1106.09 734ZM1134.69 705.255C1135.13 704.804 1135.57 704.352 1136.01 703.9L1136.78 703.11C1140.3 698.973 1143.79 694.81 1147.26 690.621C1146.47 691.457 1145.69 692.292 1144.9 693.126C1141.52 697.192 1138.12 701.236 1134.69 705.255ZM1149.87 689.539C1150.46 688.93 1151.04 688.321 1151.62 687.711C1155.3 683.234 1158.94 678.729 1162.55 674.195C1161.27 675.578 1160 676.96 1158.72 678.339C1155.16 682.769 1151.57 687.171 1147.95 691.546C1148.59 690.877 1149.23 690.208 1149.87 689.539ZM1159.23 679.719L1159.45 679.488C1163.2 674.832 1166.92 670.145 1170.61 665.43L1170.45 665.597C1166.75 670.334 1163 675.042 1159.23 679.719ZM1169.89 668.411C1170.79 667.453 1171.69 666.493 1172.59 665.533C1176.42 660.63 1180.22 655.695 1183.97 650.731C1183.02 651.78 1182.08 652.827 1181.13 653.874C1177.42 658.749 1173.67 663.595 1169.89 668.411ZM1177.46 660.316C1179.72 657.895 1181.98 655.468 1184.23 653.036C1188.08 647.971 1191.89 642.872 1195.66 637.743C1194.87 638.616 1194.09 639.489 1193.31 640.361C1191.88 641.956 1190.45 643.548 1189.02 645.138C1185.2 650.23 1181.35 655.289 1177.46 660.316ZM1073.13 765.547C1074.97 763.837 1076.81 762.122 1078.64 760.402C1079.19 759.85 1079.74 759.297 1080.29 758.743C1081.17 757.854 1082.05 756.961 1082.93 756.066C1083.85 755.123 1084.78 754.179 1085.7 753.232C1083.59 755.263 1081.48 757.286 1079.37 759.302C1078.13 760.553 1076.88 761.801 1075.64 763.046C1074.8 763.883 1073.96 764.716 1073.13 765.547ZM1065.44 771.425L1064.83 771.991C1065.08 771.751 1065.34 771.511 1065.6 771.271L1065.44 771.425ZM1099.29 738.985C1097.74 740.52 1096.19 742.052 1094.63 743.579C1096.47 741.64 1098.31 739.694 1100.14 737.741C1101.79 736.077 1103.45 734.408 1105.1 732.735C1103.17 734.826 1101.23 736.909 1099.29 738.985ZM1128.56 709.279C1127.26 710.628 1125.96 711.974 1124.66 713.318C1127.34 710.253 1130.01 707.173 1132.66 704.079C1133.52 703.167 1134.38 702.254 1135.23 701.34C1135.83 700.703 1136.43 700.064 1137.02 699.426C1134.22 702.727 1131.4 706.011 1128.56 709.279ZM1153.49 682.909C1152.96 683.475 1152.44 684.041 1151.91 684.606C1155.01 680.799 1158.09 676.972 1161.15 673.126C1161.96 672.232 1162.77 671.336 1163.58 670.44C1160.47 674.362 1157.35 678.264 1154.2 682.144L1153.49 682.909ZM1168.71 666.402C1167.48 667.741 1166.26 669.078 1165.03 670.413C1168.31 666.263 1171.56 662.09 1174.79 657.894C1175.37 657.236 1175.96 656.577 1176.54 655.917C1177.23 655.146 1177.91 654.375 1178.59 653.602C1175.32 657.892 1172.03 662.159 1168.71 666.402ZM1176.43 657.914L1176.33 658.022C1179.43 654.001 1182.5 649.96 1185.56 645.898C1182.54 649.923 1179.5 653.929 1176.43 657.914ZM1189.29 643.653C1188.36 644.688 1187.43 645.721 1186.5 646.754C1189.97 642.133 1193.4 637.486 1196.81 632.815C1197.4 632.135 1197.99 631.455 1198.58 630.775L1199.7 629.478C1196.26 634.229 1192.79 638.954 1189.29 643.653ZM1200.56 631.028C1198.44 633.407 1196.33 635.782 1194.21 638.151C1197.78 633.319 1201.31 628.458 1204.82 623.57C1206.9 621.154 1208.99 618.732 1211.07 616.305C1207.6 621.24 1204.09 626.148 1200.56 631.028ZM1223.41 598.481C1220.94 602.119 1218.44 605.743 1215.94 609.353C1215.45 609.915 1214.97 610.476 1214.49 611.037C1213.69 611.967 1212.89 612.895 1212.1 613.823C1211.43 614.592 1210.77 615.36 1210.11 616.128C1212.57 612.654 1215.01 609.166 1217.43 605.665C1219.43 603.275 1221.42 600.88 1223.41 598.481ZM1212.23 611.887C1209.92 615.188 1207.6 618.477 1205.26 621.754C1204.8 622.285 1204.34 622.815 1203.88 623.345C1203.43 623.867 1202.98 624.389 1202.53 624.911C1204.81 621.738 1207.07 618.553 1209.33 615.358C1210.3 614.202 1211.26 613.045 1212.23 611.887ZM1191.18 636.808C1189.34 639.303 1187.49 641.792 1185.64 644.272C1184.48 645.591 1183.32 646.909 1182.16 648.224C1183.91 645.899 1185.66 643.567 1187.4 641.228C1188.09 640.424 1188.77 639.62 1189.46 638.815C1189.81 638.409 1190.16 638.004 1190.5 637.599L1191.18 636.808ZM1176.11 654.321C1174.73 656.127 1173.34 657.929 1171.95 659.727L1171.39 660.359L1170.98 660.811C1170.59 661.252 1170.2 661.694 1169.8 662.135C1171.12 660.441 1172.43 658.744 1173.74 657.044C1174.53 656.137 1175.32 655.23 1176.11 654.321ZM1149.77 684.151C1149.5 684.489 1149.22 684.826 1148.94 685.163C1147.66 686.555 1146.38 687.946 1145.1 689.333L1145.16 689.257C1145.51 688.877 1145.85 688.498 1146.2 688.118C1146.53 687.749 1146.86 687.381 1147.19 687.012C1148.05 686.06 1148.91 685.106 1149.77 684.151ZM1139.55 693.561C1138.92 694.244 1138.3 694.926 1137.68 695.607C1139 694.056 1140.31 692.501 1141.62 690.943C1142.23 690.27 1142.83 689.595 1143.43 688.92C1143.11 689.306 1142.79 689.691 1142.47 690.076C1141.5 691.239 1140.52 692.401 1139.55 693.561ZM1163.96 666.32C1163.29 667.078 1162.62 667.835 1161.95 668.592C1164.11 665.877 1166.26 663.153 1168.4 660.42C1169.67 658.949 1170.93 657.475 1172.2 655.999C1170.01 658.829 1167.81 661.648 1165.6 664.458C1165.05 665.079 1164.5 665.699 1163.96 666.32ZM1187.53 639.157C1187.18 639.566 1186.83 639.975 1186.48 640.383L1185.63 641.372C1188.23 637.896 1190.82 634.406 1193.39 630.902L1193.97 630.212L1194.44 629.641L1195.19 628.739C1192.65 632.225 1190.1 635.698 1187.53 639.157ZM1199.87 624.654L1199.28 625.357C1198.72 626.018 1198.16 626.68 1197.6 627.34C1200.34 623.568 1203.05 619.779 1205.76 615.975L1206.59 614.968C1206.97 614.51 1207.34 614.051 1207.72 613.592L1208.5 612.645L1209.12 611.886C1206.41 615.743 1203.68 619.584 1200.93 623.409C1200.58 623.824 1200.23 624.239 1199.87 624.654ZM1220.09 600.554C1219.2 601.623 1218.31 602.691 1217.42 603.759C1220.33 599.554 1223.21 595.331 1226.08 591.09C1226.98 589.981 1227.87 588.871 1228.77 587.76C1225.9 592.044 1223.01 596.308 1220.09 600.554ZM1228.96 589.87L1228.26 590.717C1227.73 591.357 1227.2 591.996 1226.67 592.635C1226.1 593.32 1225.53 594.005 1224.97 594.689C1227.94 590.311 1230.9 585.913 1233.83 581.496C1235.61 579.292 1237.39 577.083 1239.16 574.872C1236.26 579.317 1233.33 583.743 1230.39 588.149L1228.96 589.87ZM1252.46 554.196C1249.65 558.63 1246.83 563.045 1243.99 567.442C1242.31 569.54 1240.64 571.634 1238.96 573.726C1241.83 569.35 1244.68 564.956 1247.52 560.544C1249.16 558.431 1250.81 556.315 1252.46 554.196ZM1242.41 567.098C1239.64 571.364 1236.85 575.613 1234.05 579.844C1233.2 580.901 1232.35 581.958 1231.5 583.014C1234.31 578.805 1237.1 574.579 1239.88 570.336C1240.72 569.258 1241.56 568.178 1242.41 567.098ZM1223.24 591.484C1220.62 595.329 1217.99 599.16 1215.35 602.975C1214.82 603.619 1214.3 604.262 1213.77 604.905C1213.27 605.527 1212.76 606.149 1212.25 606.771C1214.91 602.978 1217.55 599.17 1220.17 595.348C1220.83 594.513 1221.5 593.677 1222.16 592.841L1223.24 591.484ZM1209.6 608.601C1207.16 612.076 1204.7 615.539 1202.23 618.988C1201.74 619.582 1201.25 620.176 1200.76 620.769C1203.31 617.244 1205.84 613.706 1208.35 610.155C1208.77 609.637 1209.18 609.119 1209.6 608.601ZM1187.66 635.643C1185.55 638.467 1183.44 641.281 1181.32 644.086C1180.27 645.323 1179.23 646.56 1178.18 647.794C1180.31 645.016 1182.43 642.229 1184.53 639.433C1184.93 638.958 1185.32 638.483 1185.71 638.008L1186.69 636.822C1187.01 636.429 1187.33 636.036 1187.66 635.643ZM1159.52 669.209C1158.37 670.647 1157.22 672.083 1156.06 673.517L1155.67 673.963C1156.95 672.394 1158.22 670.821 1159.49 669.245L1159.52 669.209ZM1216.09 599.3L1215.23 600.38C1216.57 598.461 1217.91 596.539 1219.24 594.614L1219.97 593.676C1218.68 595.554 1217.39 597.429 1216.09 599.3ZM1226.76 585.829L1226.09 586.683C1227.73 584.256 1229.37 581.823 1231.01 579.384C1231.96 578.15 1232.91 576.915 1233.85 575.678C1232.19 578.187 1230.52 580.69 1228.84 583.187C1228.41 583.733 1227.98 584.279 1227.55 584.825L1226.76 585.829ZM1246.98 560.017L1246.04 561.215L1244.62 563.045C1246.66 559.883 1248.7 556.712 1250.73 553.533C1251.53 552.477 1252.33 551.42 1253.13 550.362C1251.09 553.59 1249.04 556.808 1246.98 560.017ZM1253.81 551.226C1253.18 552.04 1252.55 552.854 1251.91 553.667C1254.09 550.244 1256.26 546.809 1258.42 543.364C1259.98 541.289 1261.55 539.21 1263.12 537.129C1260.94 540.661 1258.75 544.183 1256.55 547.693C1255.64 548.872 1254.72 550.049 1253.81 551.226ZM1196.29 623.942C1195.91 624.413 1195.52 624.885 1195.14 625.356C1194.75 625.838 1194.36 626.319 1193.96 626.801C1194.34 626.298 1194.71 625.794 1195.08 625.29C1195.6 624.634 1196.13 623.978 1196.65 623.322C1197.01 622.874 1197.36 622.426 1197.72 621.978C1197.24 622.633 1196.77 623.288 1196.29 623.942ZM1273.76 519.66C1271.82 522.887 1269.87 526.105 1267.91 529.315C1266.48 531.214 1265.05 533.11 1263.62 535.004C1265.54 531.91 1267.45 528.807 1269.35 525.697C1270.82 523.687 1272.29 521.675 1273.76 519.66ZM1263.88 533.165C1262.13 535.999 1260.37 538.826 1258.61 541.647C1257.9 542.59 1257.19 543.532 1256.47 544.473C1258.22 541.704 1259.96 538.928 1261.69 536.145C1262.42 535.152 1263.15 534.159 1263.88 533.165ZM1244.64 559.228C1244.18 559.942 1243.71 560.655 1243.25 561.368C1242.47 562.566 1241.69 563.763 1240.91 564.959C1240.12 565.991 1239.34 567.022 1238.55 568.052C1239.75 566.228 1240.95 564.4 1242.15 562.57C1242.98 561.457 1243.81 560.343 1244.64 559.228ZM1230.34 578.386C1229.91 579.036 1229.47 579.685 1229.03 580.334C1228.83 580.636 1228.63 580.938 1228.42 581.24L1228.29 581.412C1228.98 580.404 1229.66 579.395 1230.34 578.386ZM1253.47 545.48C1252.86 546.295 1252.26 547.111 1251.66 547.926C1252.23 547.039 1252.8 546.151 1253.37 545.262C1254.02 544.353 1254.68 543.443 1255.34 542.533C1254.72 543.516 1254.09 544.498 1253.47 545.48ZM1270.65 522.13C1270.04 522.959 1269.43 523.789 1268.82 524.618C1270.06 522.609 1271.29 520.598 1272.52 518.583C1273.15 517.703 1273.77 516.823 1274.4 515.943C1273.15 518.008 1271.9 520.071 1270.65 522.13ZM1279.67 509.801C1278.37 511.58 1277.07 513.357 1275.77 515.133C1277.2 512.759 1278.63 510.382 1280.05 507.999L1280.73 507.042L1281.84 505.491C1282.6 504.419 1283.36 503.346 1284.12 502.272C1282.64 504.786 1281.16 507.296 1279.67 509.801ZM1295.17 483.321C1293.95 485.434 1292.73 487.544 1291.51 489.651C1290.33 491.324 1289.15 492.997 1287.97 494.667C1289.17 492.623 1290.37 490.577 1291.57 488.527C1292.77 486.793 1293.97 485.058 1295.17 483.321ZM1285.76 496.927C1284.7 498.721 1283.64 500.513 1282.57 502.303C1282.09 502.984 1281.61 503.665 1281.13 504.345C1282.21 502.551 1283.28 500.755 1284.35 498.957L1285.12 497.849L1285.76 496.927ZM1267.3 523.434C1266.7 524.406 1266.1 525.378 1265.49 526.349L1265.21 526.752L1264.36 527.934C1264.97 526.969 1265.57 526.003 1266.18 525.036C1266.55 524.502 1266.93 523.968 1267.3 523.434ZM1302.43 470.647L1302.87 469.875C1302.18 470.896 1301.5 471.916 1300.81 472.936L1299.46 474.946L1298.9 475.925L1300.43 473.696L1301.96 471.466L1302.43 470.647ZM1314.29 449.576C1312.64 452.538 1310.99 455.494 1309.33 458.444L1307.99 460.44L1306.52 462.639C1308.19 459.708 1309.86 456.772 1311.52 453.829L1312.77 451.911L1314.29 449.576ZM1304.87 464.021C1303.44 466.512 1302.02 468.998 1300.59 471.479L1300.07 472.261C1301.59 469.643 1303.11 467.02 1304.62 464.393L1304.87 464.021ZM1331.09 419.064C1330.39 420.351 1329.69 421.637 1328.99 422.922L1327.39 425.44C1328.07 424.211 1328.75 422.982 1329.43 421.751L1331.09 419.064Z" fill="url(#paint0_linear_177_1844)"/>
<defs>
<linearGradient id="paint0_linear_177_1844" x1="28.5" y1="974.456" x2="1565.63" y2="661.737" gradientUnits="userSpaceOnUse">
<stop stop-color="#DEAD62"/>
<stop offset="1" stop-color="#DEAD62" stop-opacity="0"/>
</linearGradient>
</defs>
</svg>
