<svg width="1184" height="500" viewBox="0 0 1184 500" fill="none" xmlns="http://www.w3.org/2000/svg">
<g filter="url(#filter0_b_556_31)">
<rect y="-0.000854492" width="1180" height="497" rx="16" fill="white" fill-opacity="0.04"/>
<rect x="0.5" y="0.499146" width="1179" height="496" rx="15.5" stroke="url(#paint0_linear_556_31)"/>
<rect x="0.5" y="0.499146" width="1179" height="496" rx="15.5" stroke="url(#paint1_linear_556_31)"/>
</g>
<path fill-rule="evenodd" clip-rule="evenodd" d="M1177.2 455.455C1177.96 456.635 1178.45 457.943 1178.52 459.523C1178.69 462.958 1177.72 466.484 1174.99 468.755C1173.5 469.994 1171.53 470.766 1169.58 470.64C1169.15 471.962 1168.79 473.307 1168.51 474.663C1171.75 475.129 1175.11 474.019 1177.64 471.913C1181.37 468.803 1182.88 464.062 1182.65 459.321C1182.51 456.463 1181.45 454.046 1179.66 451.842C1179.46 451.601 1179.26 451.366 1179.05 451.135C1178.54 452.621 1177.9 454.053 1177.2 455.455ZM1122.24 484.449C1127.77 482.258 1133.12 480.832 1139 483.007C1138.07 484.171 1137.1 485.31 1136.09 486.407C1133.24 485.686 1130.44 485.937 1127.48 486.87C1128.07 488.719 1129.11 490.52 1130.38 491.983C1131.85 493.674 1133.73 494.973 1136 495.558C1139.76 496.528 1143.2 495.206 1146.04 492.944C1147.14 493.824 1148.26 494.693 1149.42 495.504C1148.05 496.704 1146.54 497.734 1144.89 498.509C1141.77 499.969 1138.32 500.405 1134.97 499.543C1131.52 498.656 1128.73 496.604 1126.66 493.937C1124.43 491.08 1123.22 487.776 1122.24 484.449ZM1115.18 498.829C1120.04 498.998 1123.99 499.609 1128.23 497.889C1128.63 497.725 1129.03 497.548 1129.43 497.361C1128.25 496.464 1127.2 495.406 1126.28 494.231C1122.96 495.489 1120.04 494.998 1116.1 494.817C1112.15 494.042 1021.95 494.92 1022 496.076C1022.04 496.998 1111.42 498.07 1115.18 498.829ZM1134.22 494.395C1139.02 490.717 1142.95 485.564 1146.37 480.891C1149.33 476.843 1152.23 472.582 1155.57 468.839C1156.71 467.562 1157.98 466.263 1159.37 465.12C1159.13 463.425 1159.15 461.725 1159.42 460.026C1156.8 461.645 1154.51 463.835 1152.48 466.103C1149.05 469.954 1146.08 474.302 1143.04 478.466C1139.74 482.968 1135.7 488.341 1130.83 491.769C1131.79 492.847 1132.92 493.754 1134.22 494.395ZM1164.31 462.189C1164.55 462.102 1164.79 462.022 1165.04 461.95C1167.35 461.272 1169.62 461.31 1171.79 462.385C1173.72 463.335 1175.2 464.83 1176.3 466.611C1177.22 465.243 1177.75 463.644 1177.96 461.987C1176.75 460.656 1175.31 459.531 1173.63 458.698C1170.7 457.257 1168.44 457.056 1165.34 457.649C1164.75 459.123 1164.38 460.641 1164.31 462.189ZM1163.12 499.43C1165.75 499.444 1168.2 498.827 1170.43 497.742C1169.14 496.947 1167.96 495.953 1166.92 494.731C1162.41 496.177 1157.1 494.976 1153.25 492.538C1149.86 490.39 1146.95 487.571 1143.59 485.376C1142.74 486.462 1141.87 487.535 1140.96 488.578C1143.2 489.985 1145.27 491.758 1147.34 493.367C1148.54 494.297 1149.76 495.2 1151.04 496.012C1154.79 498.389 1158.63 499.648 1163.12 499.43ZM1175.17 494.435C1179.87 490.034 1182.77 483.377 1182.96 477.175C1183.05 474.079 1182.58 470.808 1181.45 467.825C1180.68 469.373 1179.64 470.753 1178.36 471.913C1178.74 473.639 1178.88 475.401 1178.83 477.049C1178.67 482.416 1175.92 488.571 1171.5 492.191C1172.57 493.208 1173.82 493.933 1175.17 494.435ZM1152.9 491.742C1153.28 491.243 1153.65 490.733 1153.99 490.216C1156.08 487.117 1159.02 484.658 1162.59 483.461C1165.59 482.455 1168.9 482.41 1171.85 483.618C1173.34 484.229 1174.64 485.122 1175.73 486.248C1176.44 484.96 1177.01 483.601 1177.44 482.226C1176.25 481.232 1174.9 480.419 1173.42 479.813C1169.55 478.227 1165.21 478.239 1161.27 479.561C1156.84 481.049 1153.16 484.07 1150.56 487.925C1150.26 488.384 1149.93 488.839 1149.58 489.287C1150.66 490.137 1151.76 490.977 1152.9 491.742ZM1178.62 491.185C1179.1 492.674 1179.36 494.241 1179.43 495.811C1175.66 495.499 1172.07 494.204 1169.79 490.93C1168.25 488.725 1167.55 485.99 1167.34 483.186C1165.96 483.162 1164.58 483.36 1163.25 483.75C1163.74 489.659 1166.13 494.605 1170.84 497.436C1174.74 499.782 1179.08 500.011 1183.49 499.998C1183.67 495.371 1183.5 490.913 1181.17 486.733C1180.46 488.295 1179.61 489.794 1178.62 491.187L1178.62 491.185ZM1167.47 478.123C1167.56 477.239 1167.69 476.378 1167.84 475.555C1168.39 472.569 1169.31 469.579 1170.54 466.797C1171.07 465.576 1171.68 464.387 1172.32 463.216C1172.08 463.071 1171.84 462.935 1171.58 462.809C1170.51 462.28 1169.42 462.018 1168.3 461.978C1167.75 463.016 1167.23 464.069 1166.76 465.146C1165.41 468.217 1164.39 471.511 1163.78 474.809C1163.55 476.064 1163.38 477.305 1163.28 478.522C1164.65 478.232 1166.06 478.095 1167.47 478.122L1167.47 478.123ZM1174.83 458.811C1176.51 455.879 1178.11 452.893 1179.02 449.634C1180.26 445.232 1179.97 442.089 1178.16 438.091C1175.65 439.272 1173.93 440.375 1171.82 442.214C1172.08 443.617 1173.04 444.769 1174.03 445.751C1174.58 445.26 1175.13 444.786 1175.68 444.33C1175.66 445.726 1175.45 447.114 1175.05 448.522C1174.2 451.524 1172.62 454.412 1171.01 457.199C1171.92 457.429 1172.85 457.782 1173.84 458.271C1174.18 458.439 1174.51 458.619 1174.83 458.811ZM1165.11 468.003C1163.46 465.379 1163.58 461.643 1164.41 458.855C1165.45 455.397 1167.72 452.155 1170.39 449.285C1169.41 448.295 1168.51 447.228 1167.84 445.991C1163.98 450.036 1160.78 454.75 1159.91 459.949C1159.15 464.48 1160.01 469.585 1163.76 472.617C1164.13 471.059 1164.58 469.515 1165.11 468.003ZM1174.89 433.46C1175.14 433.165 1175.47 432.868 1175.73 432.576C1176.31 431.942 1176.83 431.267 1177.27 430.534C1178.68 428.225 1180.25 425.606 1180.27 422.921C1180.27 421.156 1180.15 348.889 1179.05 348.998C1178.09 349.095 1176.15 421.359 1176.14 422.904C1176.13 424.869 1174.74 426.812 1173.69 428.494C1173.37 429 1173 429.46 1172.6 429.898C1172.27 430.251 1171.88 430.602 1171.59 430.985C1168.57 435.023 1165.61 440.291 1168.04 445.335C1169.24 447.831 1171.41 449.641 1173.48 451.471C1174.07 450.1 1174.58 448.678 1174.88 447.211C1174.66 447.014 1174.45 446.815 1174.23 446.614C1173.31 445.738 1172.32 444.716 1171.76 443.556C1171.19 442.373 1171.16 441.184 1171.45 439.918C1171.98 437.661 1173.52 435.296 1174.89 433.46Z" fill="url(#paint2_linear_556_31)"/>
<defs>
<filter id="filter0_b_556_31" x="-40" y="-40.0009" width="1260" height="577" filterUnits="userSpaceOnUse" color-interpolation-filters="sRGB">
<feFlood flood-opacity="0" result="BackgroundImageFix"/>
<feGaussianBlur in="BackgroundImage" stdDeviation="20"/>
<feComposite in2="SourceAlpha" operator="in" result="effect1_backgroundBlur_556_31"/>
<feBlend mode="normal" in="SourceGraphic" in2="effect1_backgroundBlur_556_31" result="shape"/>
</filter>
<linearGradient id="paint0_linear_556_31" x1="0" y1="-0.000854492" x2="66.7053" y2="244.456" gradientUnits="userSpaceOnUse">
<stop stop-color="#D39E5E"/>
<stop offset="1" stop-color="#D29C5E" stop-opacity="0"/>
</linearGradient>
<linearGradient id="paint1_linear_556_31" x1="766.473" y1="335.15" x2="873.563" y2="618.353" gradientUnits="userSpaceOnUse">
<stop stop-color="#E0B263" stop-opacity="0"/>
<stop offset="1" stop-color="#E0B263"/>
</linearGradient>
<linearGradient id="paint2_linear_556_31" x1="1158.5" y1="489.303" x2="1185.65" y2="398.149" gradientUnits="userSpaceOnUse">
<stop stop-color="#FFEDCE"/>
<stop offset="0.41" stop-color="#F0C868"/>
<stop offset="0.75" stop-color="#D09A5D"/>
<stop offset="0.96" stop-color="#E5B864"/>
</linearGradient>
</defs>
</svg>
