<svg width="6" height="745" viewBox="0 0 6 745" fill="none" xmlns="http://www.w3.org/2000/svg">
<path d="M3 0C2.58779 62.1067 2.37403 124.178 2.22136 186.25L2.16028 209.531L2.12212 232.812L2.05339 279.375L2 372.5L2.05339 465.625L2.12212 512.188L2.16028 535.469L2.22136 558.75C2.3664 620.857 2.58779 682.928 3 745C3.41221 682.893 3.63356 620.822 3.7786 558.75L3.83968 535.469L3.87784 512.188L3.94656 465.625L4 372.5L3.94656 279.375L3.87784 232.812L3.83968 209.531L3.7786 186.25C3.63356 124.178 3.41221 62.0717 3 0Z" fill="url(#paint0_linear_180_5926)"/>
<path d="M5.5 74C5.29389 123.746 5.18701 173.515 5.11068 223.261L5.08014 241.916L5.06106 260.571L5.0267 297.881L5 372.5L5.0267 447.119L5.06106 484.429L5.08014 503.084L5.11068 521.739C5.1832 571.485 5.29389 621.254 5.5 671C5.70611 621.254 5.81678 571.485 5.8893 521.739L5.91984 503.084L5.93892 484.429L5.97328 447.119L6 372.5L5.97328 297.881L5.93892 260.571L5.91984 241.916L5.8893 223.261C5.81678 173.515 5.70611 123.746 5.5 74Z" fill="url(#paint1_linear_180_5926)"/>
<path d="M0.500012 74C0.706114 123.746 0.812966 173.515 0.8893 223.261L0.919841 241.916L0.93892 260.571L0.97328 297.881L1 372.5L0.97328 447.119L0.93892 484.429L0.919841 503.084L0.8893 521.739C0.816783 571.485 0.706114 621.254 0.500012 671C0.293909 621.254 0.183217 571.485 0.1107 521.739L0.0801593 503.084L0.0610804 484.429L0.0267198 447.119L0 372.5L0.0267198 297.881L0.0610804 260.571L0.0801593 241.916L0.1107 223.261C0.183217 173.515 0.293909 123.746 0.500012 74Z" fill="url(#paint2_linear_180_5926)"/>
<defs>
<linearGradient id="paint0_linear_180_5926" x1="3" y1="-0.0350094" x2="3" y2="745.035" gradientUnits="userSpaceOnUse">
<stop stop-color="#A4692A"/>
<stop offset="0.07" stop-color="#E1B453"/>
<stop offset="0.12" stop-color="#D4A245"/>
<stop offset="0.17" stop-color="#BB8332"/>
<stop offset="0.23" stop-color="#B17B32"/>
<stop offset="0.33" stop-color="#BE8C3C"/>
<stop offset="0.41" stop-color="#D3B15F"/>
<stop offset="0.52" stop-color="#FAF0A0"/>
<stop offset="0.59" stop-color="#FFFFC2"/>
<stop offset="0.66" stop-color="#FAF0A0"/>
<stop offset="0.73" stop-color="#D3B15F"/>
<stop offset="0.82" stop-color="#BE8C3C"/>
<stop offset="0.92" stop-color="#BE8C3C"/>
<stop offset="1" stop-color="#A2682A"/>
</linearGradient>
<linearGradient id="paint1_linear_180_5926" x1="5.5" y1="74" x2="5.5" y2="671.022" gradientUnits="userSpaceOnUse">
<stop stop-color="#A4692A"/>
<stop offset="0.07" stop-color="#E1B453"/>
<stop offset="0.12" stop-color="#D4A245"/>
<stop offset="0.17" stop-color="#BB8332"/>
<stop offset="0.23" stop-color="#B17B32"/>
<stop offset="0.33" stop-color="#BE8C3C"/>
<stop offset="0.41" stop-color="#D3B15F"/>
<stop offset="0.52" stop-color="#FAF0A0"/>
<stop offset="0.59" stop-color="#FFFFC2"/>
<stop offset="0.66" stop-color="#FAF0A0"/>
<stop offset="0.73" stop-color="#D3B15F"/>
<stop offset="0.82" stop-color="#BE8C3C"/>
<stop offset="0.92" stop-color="#BE8C3C"/>
<stop offset="1" stop-color="#A2682A"/>
</linearGradient>
<linearGradient id="paint2_linear_180_5926" x1="0.500001" y1="74" x2="0.500001" y2="671.022" gradientUnits="userSpaceOnUse">
<stop stop-color="#A4692A"/>
<stop offset="0.07" stop-color="#E1B453"/>
<stop offset="0.12" stop-color="#D4A245"/>
<stop offset="0.17" stop-color="#BB8332"/>
<stop offset="0.23" stop-color="#B17B32"/>
<stop offset="0.33" stop-color="#BE8C3C"/>
<stop offset="0.41" stop-color="#D3B15F"/>
<stop offset="0.52" stop-color="#FAF0A0"/>
<stop offset="0.59" stop-color="#FFFFC2"/>
<stop offset="0.66" stop-color="#FAF0A0"/>
<stop offset="0.73" stop-color="#D3B15F"/>
<stop offset="0.82" stop-color="#BE8C3C"/>
<stop offset="0.92" stop-color="#BE8C3C"/>
<stop offset="1" stop-color="#A2682A"/>
</linearGradient>
</defs>
</svg>
