<svg width="20" height="1165" viewBox="0 0 20 1165" fill="none" xmlns="http://www.w3.org/2000/svg">
<path d="M10 0C9.17557 97.1198 8.74806 194.185 8.44272 291.25L8.32055 327.656L8.24423 364.062L8.10679 436.875L8 582.5L8.10679 728.125L8.24423 800.938L8.32055 837.344L8.44272 873.75C8.73279 970.87 9.17557 1067.93 10 1165C10.8244 1067.88 11.2671 970.815 11.5572 873.75L11.6794 837.344L11.7557 800.938L11.8931 728.125L12 582.5L11.8931 436.875L11.7557 364.062L11.6794 327.656L11.5572 291.25C11.2671 194.185 10.8244 97.0651 10 0Z" fill="url(#paint0_linear_159_2823)"/>
<path d="M18 116C17.1756 193.828 16.7481 271.69 16.4427 349.517L16.3206 378.703L16.2442 407.888L16.1068 466.259L16 583L16.1068 699.741L16.2442 758.112L16.3206 787.297L16.4427 816.483C16.7328 894.31 17.1756 972.172 18 1050C18.8244 972.172 19.2671 894.31 19.5572 816.483L19.6794 787.297L19.7557 758.112L19.8931 699.741L20 583L19.8931 466.259L19.7557 407.888L19.6794 378.703L19.5572 349.517C19.2671 271.69 18.8244 193.828 18 116Z" fill="url(#paint1_linear_159_2823)"/>
<path d="M2.00005 116C2.82446 193.828 3.25186 271.69 3.5572 349.517L3.67936 378.703L3.75568 407.888L3.89312 466.259L4 583L3.89312 699.741L3.75568 758.112L3.67936 787.297L3.5572 816.483C3.26713 894.31 2.82446 972.172 2.00005 1050C1.17564 972.172 0.732868 894.31 0.442798 816.483L0.320637 787.297L0.244322 758.112L0.106879 699.741L0 583L0.106879 466.259L0.244322 407.888L0.320637 378.703L0.442798 349.517C0.732868 271.69 1.17564 193.828 2.00005 116Z" fill="url(#paint2_linear_159_2823)"/>
<defs>
<linearGradient id="paint0_linear_159_2823" x1="10" y1="-0.0547462" x2="10" y2="1165.05" gradientUnits="userSpaceOnUse">
<stop stop-color="#A4692A"/>
<stop offset="0.07" stop-color="#E1B453"/>
<stop offset="0.12" stop-color="#D4A245"/>
<stop offset="0.17" stop-color="#BB8332"/>
<stop offset="0.23" stop-color="#B17B32"/>
<stop offset="0.33" stop-color="#BE8C3C"/>
<stop offset="0.41" stop-color="#D3B15F"/>
<stop offset="0.52" stop-color="#FAF0A0"/>
<stop offset="0.59" stop-color="#FFFFC2"/>
<stop offset="0.66" stop-color="#FAF0A0"/>
<stop offset="0.73" stop-color="#D3B15F"/>
<stop offset="0.82" stop-color="#BE8C3C"/>
<stop offset="0.92" stop-color="#BE8C3C"/>
<stop offset="1" stop-color="#A2682A"/>
</linearGradient>
<linearGradient id="paint1_linear_159_2823" x1="18" y1="116" x2="18" y2="1050.03" gradientUnits="userSpaceOnUse">
<stop stop-color="#A4692A"/>
<stop offset="0.07" stop-color="#E1B453"/>
<stop offset="0.12" stop-color="#D4A245"/>
<stop offset="0.17" stop-color="#BB8332"/>
<stop offset="0.23" stop-color="#B17B32"/>
<stop offset="0.33" stop-color="#BE8C3C"/>
<stop offset="0.41" stop-color="#D3B15F"/>
<stop offset="0.52" stop-color="#FAF0A0"/>
<stop offset="0.59" stop-color="#FFFFC2"/>
<stop offset="0.66" stop-color="#FAF0A0"/>
<stop offset="0.73" stop-color="#D3B15F"/>
<stop offset="0.82" stop-color="#BE8C3C"/>
<stop offset="0.92" stop-color="#BE8C3C"/>
<stop offset="1" stop-color="#A2682A"/>
</linearGradient>
<linearGradient id="paint2_linear_159_2823" x1="2" y1="116" x2="2" y2="1050.03" gradientUnits="userSpaceOnUse">
<stop stop-color="#A4692A"/>
<stop offset="0.07" stop-color="#E1B453"/>
<stop offset="0.12" stop-color="#D4A245"/>
<stop offset="0.17" stop-color="#BB8332"/>
<stop offset="0.23" stop-color="#B17B32"/>
<stop offset="0.33" stop-color="#BE8C3C"/>
<stop offset="0.41" stop-color="#D3B15F"/>
<stop offset="0.52" stop-color="#FAF0A0"/>
<stop offset="0.59" stop-color="#FFFFC2"/>
<stop offset="0.66" stop-color="#FAF0A0"/>
<stop offset="0.73" stop-color="#D3B15F"/>
<stop offset="0.82" stop-color="#BE8C3C"/>
<stop offset="0.92" stop-color="#BE8C3C"/>
<stop offset="1" stop-color="#A2682A"/>
</linearGradient>
</defs>
</svg>
