<svg width="533" height="224" viewBox="0 0 533 224" fill="none" xmlns="http://www.w3.org/2000/svg">
<g filter="url(#filter0_b_159_2943)">
<path d="M0 34C0 25.1634 7.16344 18 16 18H448V208C448 216.837 440.837 224 432 224H16C7.16344 224 0 216.837 0 208V34Z" fill="white" fill-opacity="0.04"/>
<path d="M0.5 34C0.5 25.4396 7.43959 18.5 16 18.5H447.5V208C447.5 216.56 440.56 223.5 432 223.5H16C7.43958 223.5 0.5 216.56 0.5 208V34Z" stroke="#E0B263"/>
</g>
<path d="M490.383 18.8851L498.73 10.0731L502.987 5.6131C504.412 4.12314 505.853 2.63974 507.29 1.14979L507.614 0.8125L507.958 1.14651C509.425 2.56442 510.892 3.98561 512.349 5.41662L516.731 9.69655L521.096 13.9928L525.458 18.2924L525.893 18.7214L525.464 19.1537L516.823 27.8314L512.48 32.1506L510.309 34.3086L508.128 36.46L507.788 36.7973L507.46 36.4633C506.01 34.9897 504.553 33.5194 503.115 32.0426L498.819 27.6218L490.393 18.8851H490.383ZM490.383 18.8851L499.359 27.3893L503.763 31.5907C505.227 32.9856 506.671 34.3905 508.119 35.7887H507.447L509.576 33.5915L511.714 31.4007L515.994 27.0193L524.593 18.2957V19.1569L520.258 14.8377L515.922 10.5152L511.603 6.17305C510.159 4.72894 508.728 3.27501 507.293 1.82108H507.961C506.527 3.22917 505.096 4.64708 503.646 6.05844L499.28 10.2991L490.387 18.8884L490.383 18.8851Z" fill="url(#paint0_linear_159_2943)"/>
<path d="M484.414 18.9114L490.982 11.8906L494.352 8.32779C495.479 7.13583 496.625 5.95041 497.767 4.76172L498.088 4.42444L498.436 4.75845C499.605 5.88164 500.774 7.00484 501.93 8.13786L505.414 11.5304C506.576 12.6601 507.726 13.803 508.882 14.9393L512.346 18.3514L512.782 18.7804L512.353 19.2126L505.486 26.0992L502.034 29.5244L500.309 31.237L498.573 32.9398L498.229 33.2771L497.902 32.9431C496.749 31.7642 495.593 30.5919 494.454 29.4098L491.051 25.8765L484.417 18.9146L484.414 18.9114ZM484.414 18.9114L491.598 25.6407L495.105 28.9546C496.268 30.0549 497.414 31.1617 498.566 32.2653H497.895L499.582 30.5166L501.278 28.7745L504.67 25.2903L511.491 18.3579V19.2159L508.05 15.7841C506.904 14.638 505.751 13.4984 504.608 12.349L501.183 8.89757C500.04 7.74818 498.904 6.59224 497.771 5.43303H498.439C497.299 6.54312 496.163 7.66304 495.01 8.77313L491.533 12.1198L484.414 18.9146V18.9114Z" fill="url(#paint1_linear_159_2943)"/>
<path d="M533 18.632C521.003 19.0936 509.001 19.3638 497.004 19.5634L492.502 19.6424L488.001 19.7006L479.002 19.8129L461.004 19.9584L443.006 20L434.007 19.9792L429.505 19.9667L425.004 19.9335C413.003 19.8545 401.001 19.7048 389 19.3638C400.997 18.9023 412.999 18.632 424.996 18.4283L429.498 18.3493L433.999 18.2911L442.998 18.1788L460.996 18.0374L478.994 18L487.993 18.0208L492.495 18.0333L496.996 18.0665C508.997 18.1497 520.999 18.2952 533 18.6362V18.632Z" fill="url(#paint2_linear_159_2943)"/>
<defs>
<filter id="filter0_b_159_2943" x="-40" y="-22" width="528" height="286" filterUnits="userSpaceOnUse" color-interpolation-filters="sRGB">
<feFlood flood-opacity="0" result="BackgroundImageFix"/>
<feGaussianBlur in="BackgroundImage" stdDeviation="20"/>
<feComposite in2="SourceAlpha" operator="in" result="effect1_backgroundBlur_159_2943"/>
<feBlend mode="normal" in="SourceGraphic" in2="effect1_backgroundBlur_159_2943" result="shape"/>
</filter>
<linearGradient id="paint0_linear_159_2943" x1="525.91" y1="18.6577" x2="490.407" y2="18.8188" gradientUnits="userSpaceOnUse">
<stop stop-color="#A4692A"/>
<stop offset="0.07" stop-color="#E1B453"/>
<stop offset="0.12" stop-color="#D4A245"/>
<stop offset="0.17" stop-color="#BB8332"/>
<stop offset="0.23" stop-color="#B17B32"/>
<stop offset="0.33" stop-color="#BE8C3C"/>
<stop offset="0.41" stop-color="#D3B15F"/>
<stop offset="0.52" stop-color="#FAF0A0"/>
<stop offset="0.59" stop-color="#FFFFC2"/>
<stop offset="0.66" stop-color="#FAF0A0"/>
<stop offset="0.73" stop-color="#D3B15F"/>
<stop offset="0.82" stop-color="#BE8C3C"/>
<stop offset="0.92" stop-color="#BE8C3C"/>
<stop offset="1" stop-color="#A2682A"/>
</linearGradient>
<linearGradient id="paint1_linear_159_2943" x1="512.805" y1="18.7172" x2="484.434" y2="18.8459" gradientUnits="userSpaceOnUse">
<stop stop-color="#A4692A"/>
<stop offset="0.07" stop-color="#E1B453"/>
<stop offset="0.12" stop-color="#D4A245"/>
<stop offset="0.17" stop-color="#BB8332"/>
<stop offset="0.23" stop-color="#B17B32"/>
<stop offset="0.33" stop-color="#BE8C3C"/>
<stop offset="0.41" stop-color="#D3B15F"/>
<stop offset="0.52" stop-color="#FAF0A0"/>
<stop offset="0.59" stop-color="#FFFFC2"/>
<stop offset="0.66" stop-color="#FAF0A0"/>
<stop offset="0.73" stop-color="#D3B15F"/>
<stop offset="0.82" stop-color="#BE8C3C"/>
<stop offset="0.92" stop-color="#BE8C3C"/>
<stop offset="1" stop-color="#A2682A"/>
</linearGradient>
<linearGradient id="paint2_linear_159_2943" x1="533.023" y1="18.5533" x2="389.028" y2="19.1528" gradientUnits="userSpaceOnUse">
<stop stop-color="#A4692A"/>
<stop offset="0.07" stop-color="#E1B453"/>
<stop offset="0.12" stop-color="#D4A245"/>
<stop offset="0.17" stop-color="#BB8332"/>
<stop offset="0.23" stop-color="#B17B32"/>
<stop offset="0.33" stop-color="#BE8C3C"/>
<stop offset="0.41" stop-color="#D3B15F"/>
<stop offset="0.52" stop-color="#FAF0A0"/>
<stop offset="0.59" stop-color="#FFFFC2"/>
<stop offset="0.66" stop-color="#FAF0A0"/>
<stop offset="0.73" stop-color="#D3B15F"/>
<stop offset="0.82" stop-color="#BE8C3C"/>
<stop offset="0.92" stop-color="#BE8C3C"/>
<stop offset="1" stop-color="#A2682A"/>
</linearGradient>
</defs>
</svg>
