<svg width="534" height="223" viewBox="0 0 534 223" fill="none" xmlns="http://www.w3.org/2000/svg">
<g filter="url(#filter0_b_159_2942)">
<path d="M86 17H518C526.837 17 534 24.1634 534 33V207C534 215.837 526.837 223 518 223H102C93.1634 223 86 215.837 86 207V17Z" fill="white" fill-opacity="0.04"/>
<path d="M86.5 17.5H518C526.56 17.5 533.5 24.4396 533.5 33V207C533.5 215.56 526.56 222.5 518 222.5H102C93.4396 222.5 86.5 215.56 86.5 207V17.5Z" stroke="#E0B263"/>
</g>
<path d="M42.6167 17.9122L34.2697 26.7242L30.0127 31.1842C28.5882 32.6742 27.1474 34.1576 25.7098 35.6475L25.3856 35.9848L25.0418 35.6508C23.5748 34.2329 22.1078 32.8117 20.6505 31.3807L16.2691 27.1008L11.904 22.8045L7.54223 18.5049L7.10672 18.0759L7.53568 17.6437L16.1774 8.96593L20.5196 4.64671L22.6906 2.48873L24.8715 0.337306L25.2121 1.77073e-05L25.5396 0.334036C26.9902 1.80762 28.4474 3.27792 29.885 4.75478L34.1813 9.17551L42.6069 17.9122L42.6167 17.9122ZM42.6167 17.9122L33.641 9.40801L29.2366 5.20667C27.7728 3.81169 26.3287 2.40687 24.8814 1.00861L25.5526 1.00861L23.4241 3.20587L21.2858 5.3966L17.0059 9.77804L8.40673 18.5016L8.40673 17.6404L12.7423 21.9596L17.0779 26.2821L21.3972 30.6243C22.8413 32.0684 24.2723 33.5223 25.7066 34.9763L25.0385 34.9763C26.4728 33.5682 27.9038 32.1503 29.3545 30.7389L33.7196 26.4983L42.6134 17.9089L42.6167 17.9122Z" fill="url(#paint0_linear_159_2942)"/>
<path d="M48.5864 17.8859L42.0175 24.9067L38.6479 28.4695C37.5215 29.6615 36.3754 30.8469 35.2325 32.0356L34.9116 32.3729L34.5645 32.0389C33.3955 30.9157 32.2264 29.7925 31.0705 28.6594L27.5863 25.2669C26.4238 24.1372 25.2744 22.9943 24.1185 21.858L20.6539 18.4459L20.2184 18.0169L20.6474 17.5847L27.5142 10.6981L30.9657 7.27289L32.6914 5.56026L34.427 3.85746L34.7708 3.52017L35.0983 3.85419C36.2509 5.03305 37.4069 6.20537 38.5464 7.38751L41.9488 10.9208L48.5831 17.8827L48.5864 17.8859ZM48.5864 17.8859L41.4019 11.1566L37.8948 7.84268C36.7323 6.7424 35.5862 5.63558 34.4335 4.53204L35.1048 4.53204L33.4184 6.28068L31.7221 8.02277L28.3296 11.507L21.5086 18.4394L21.5086 17.5814L24.9502 21.0132C26.0963 22.1593 27.249 23.2989 28.3918 24.4483L31.8171 27.8997C32.9599 29.0491 34.0962 30.2051 35.2292 31.3643L34.5612 31.3643C35.7008 30.2542 36.8371 29.1343 37.9897 28.0242L41.4674 24.6775L48.5864 17.8827L48.5864 17.8859Z" fill="url(#paint1_linear_159_2942)"/>
<path d="M6.1535e-08 18.1653C11.9975 17.7038 23.9987 17.4335 35.9962 17.2339L40.4976 17.1549L44.9991 17.0967L53.9981 16.9844L71.9962 16.8389L89.9943 16.7973L98.9933 16.8181L103.495 16.8306L107.996 16.8639C119.997 16.9429 131.999 17.0925 144 17.4335C132.003 17.895 120.001 18.1653 108.004 18.3691L103.502 18.4481L99.001 18.5063L90.0019 18.6185L72.0038 18.7599L54.0057 18.7973L45.0067 18.7765L40.5052 18.7641L36.0038 18.7308C24.0025 18.6476 12.0013 18.5021 6.19402e-08 18.1611L6.1535e-08 18.1653Z" fill="url(#paint2_linear_159_2942)"/>
<defs>
<filter id="filter0_b_159_2942" x="46" y="-23" width="528" height="286" filterUnits="userSpaceOnUse" color-interpolation-filters="sRGB">
<feFlood flood-opacity="0" result="BackgroundImageFix"/>
<feGaussianBlur in="BackgroundImage" stdDeviation="20"/>
<feComposite in2="SourceAlpha" operator="in" result="effect1_backgroundBlur_159_2942"/>
<feBlend mode="normal" in="SourceGraphic" in2="effect1_backgroundBlur_159_2942" result="shape"/>
</filter>
<linearGradient id="paint0_linear_159_2942" x1="7.08994" y1="18.1396" x2="42.593" y2="17.9785" gradientUnits="userSpaceOnUse">
<stop stop-color="#A4692A"/>
<stop offset="0.07" stop-color="#E1B453"/>
<stop offset="0.12" stop-color="#D4A245"/>
<stop offset="0.17" stop-color="#BB8332"/>
<stop offset="0.23" stop-color="#B17B32"/>
<stop offset="0.33" stop-color="#BE8C3C"/>
<stop offset="0.41" stop-color="#D3B15F"/>
<stop offset="0.52" stop-color="#FAF0A0"/>
<stop offset="0.59" stop-color="#FFFFC2"/>
<stop offset="0.66" stop-color="#FAF0A0"/>
<stop offset="0.73" stop-color="#D3B15F"/>
<stop offset="0.82" stop-color="#BE8C3C"/>
<stop offset="0.92" stop-color="#BE8C3C"/>
<stop offset="1" stop-color="#A2682A"/>
</linearGradient>
<linearGradient id="paint1_linear_159_2942" x1="20.1949" y1="18.0801" x2="48.5659" y2="17.9514" gradientUnits="userSpaceOnUse">
<stop stop-color="#A4692A"/>
<stop offset="0.07" stop-color="#E1B453"/>
<stop offset="0.12" stop-color="#D4A245"/>
<stop offset="0.17" stop-color="#BB8332"/>
<stop offset="0.23" stop-color="#B17B32"/>
<stop offset="0.33" stop-color="#BE8C3C"/>
<stop offset="0.41" stop-color="#D3B15F"/>
<stop offset="0.52" stop-color="#FAF0A0"/>
<stop offset="0.59" stop-color="#FFFFC2"/>
<stop offset="0.66" stop-color="#FAF0A0"/>
<stop offset="0.73" stop-color="#D3B15F"/>
<stop offset="0.82" stop-color="#BE8C3C"/>
<stop offset="0.92" stop-color="#BE8C3C"/>
<stop offset="1" stop-color="#A2682A"/>
</linearGradient>
<linearGradient id="paint2_linear_159_2942" x1="-0.0232804" y1="18.244" x2="143.972" y2="17.6445" gradientUnits="userSpaceOnUse">
<stop stop-color="#A4692A"/>
<stop offset="0.07" stop-color="#E1B453"/>
<stop offset="0.12" stop-color="#D4A245"/>
<stop offset="0.17" stop-color="#BB8332"/>
<stop offset="0.23" stop-color="#B17B32"/>
<stop offset="0.33" stop-color="#BE8C3C"/>
<stop offset="0.41" stop-color="#D3B15F"/>
<stop offset="0.52" stop-color="#FAF0A0"/>
<stop offset="0.59" stop-color="#FFFFC2"/>
<stop offset="0.66" stop-color="#FAF0A0"/>
<stop offset="0.73" stop-color="#D3B15F"/>
<stop offset="0.82" stop-color="#BE8C3C"/>
<stop offset="0.92" stop-color="#BE8C3C"/>
<stop offset="1" stop-color="#A2682A"/>
</linearGradient>
</defs>
</svg>
