<svg width="375" height="1951" viewBox="0 0 375 1951" fill="none" xmlns="http://www.w3.org/2000/svg">
<path d="M375 19.3017C375 19.3017 373.942 20.1285 371.296 20.8429C368.65 21.5573 363.576 20.3666 356.082 17.7671C348.588 15.1609 346.378 14.9294 340.65 13.9768C334.915 13.0309 331.833 16.1068 325.218 19.897C316.725 24.7588 302.331 30.0439 295.452 31.7307C292.283 32.5046 288.493 34.0392 284.901 35.7259C278.961 30.7451 274.192 26.7895 272.743 25.8701C268.332 23.0588 265.911 24.3685 262.821 24.3685C259.732 24.3685 254.666 29.991 251.133 31.4925C247.608 32.9941 246.503 32.24 243.857 34.489C241.211 36.738 216.737 47.983 212.986 50.0467C209.236 52.1105 207.476 52.1105 204.169 53.6054C203.627 53.8502 202.734 54.2405 201.636 54.7167C197.263 54.1545 190.047 53.0432 187.824 52.4876C185.152 51.8195 181.732 52.1899 179.086 50.7677C176.44 49.3456 167.729 50.2981 165.579 49.9409C163.429 49.5837 159.156 48.3402 155.439 49.0876C153.355 49.511 144.901 46.7857 143.426 47.6125C138.518 47.4472 132.697 45.648 128.98 45.099C125.011 44.5036 116.081 40.8391 113.766 39.8932C111.451 38.9473 107.595 37.287 104.393 36.738C101.198 36.189 92.3741 32.5509 90.3897 31.4859C88.4053 30.421 85.5412 27.8148 84.549 27.9338C83.5568 28.0529 82.677 27.9338 81.0233 27.5766C79.3697 27.2195 79.7004 26.2736 78.8206 26.7498C77.9409 27.2261 77.6102 27.8148 75.5133 27.107C73.4164 26.3992 66.3652 20.36 64.8173 19.8904C63.2761 19.4141 59.3073 21.0744 57.5412 22.2849C55.7751 23.4954 46.0052 29.2369 46.0052 29.2369C44.7219 28.5027 43.657 27.9537 42.9889 27.6957C39.8998 26.5117 36.3742 21.7756 31.5256 18.9379C26.677 16.1002 25.1292 17.992 22.9265 15.7033C20.7238 13.4146 15.6504 8.28159 11.4633 7.6995C7.27616 7.11741 0 0 0 0V1950.5H375V19.3017Z" fill="#292D39"/>
</svg>
