<svg width="1920" height="1319" viewBox="0 0 1920 1319" fill="none" xmlns="http://www.w3.org/2000/svg">
<path d="M115.728 1025.84C291.825 1003.78 455.892 931.94 614.612 862.103C702.828 823.342 794.719 783.244 884.939 753.171C1043.33 700.709 1172.31 678.99 1292.27 684.002C1418.24 689.014 1537.87 725.102 1657.49 794.605C1732.01 837.71 1805.19 881.484 1876.02 923.921C1931.16 956.667 1985.96 989.414 2040.76 1021.49C2040.76 1021.49 2040.76 1021.49 2040.76 1021.83C2040.76 1022.16 2040.76 1022.16 2040.76 1022.83C1985.63 990.751 1930.49 958.004 1874.69 924.589C1804.18 882.152 1731 838.713 1656.49 795.608C1425.26 661.614 1202.05 649.919 885.607 754.507C794.719 784.581 703.496 824.679 614.946 863.44C456.226 932.943 291.824 1005.12 115.394 1027.17C73.9594 1032.52 33.5275 1033.86 -6.23626 1032.85C-6.23626 1032.52 -6.23626 1032.18 -6.23626 1031.85C34.1958 1032.18 74.6278 1030.85 115.728 1025.84Z" fill="#DEAD62" fill-opacity="0.1"/>
<path d="M99.0191 1022.16C266.762 1001.11 419.802 940.963 574.513 875.804L593.894 867.45C684.114 829.691 777.341 790.262 870.569 760.857C996.209 721.093 1106.14 699.374 1207.06 694.027C1364.78 685.673 1504.45 719.088 1647.13 797.279C1739.02 848.07 1827.57 898.861 1911.11 946.31C1954.88 971.037 1998.32 995.429 2041.76 1019.49C2041.43 1019.82 2041.43 1020.16 2041.43 1020.82C1997.99 996.432 1954.55 972.039 1910.44 946.644C1827.24 898.86 1738.69 848.404 1646.13 797.947C1504.45 719.088 1364.78 686.676 1207.39 694.361C1106.81 699.708 997.211 721.093 871.906 761.191C778.678 790.262 685.451 829.357 595.23 867.785L575.515 875.804C420.47 940.963 267.43 1001.11 99.3532 1022.16C63.9334 1026.51 28.8476 1028.18 -5.5697 1028.18C-5.5697 1027.84 -5.5697 1027.51 -5.5697 1027.17C28.5135 1028.51 63.2651 1026.51 99.0191 1022.16Z" fill="#DEAD62" fill-opacity="0.1"/>
<path d="M82.3141 1018.49C256.406 996.432 413.456 937.288 558.81 878.812L567.498 875.47C661.394 837.711 758.631 798.616 856.203 769.211C982.511 731.452 1093.11 710.401 1194.03 704.72C1352.75 696.366 1493.09 727.442 1635.77 801.957C1719.98 846.065 1806.86 892.178 1900.42 943.302C1946.53 968.364 1993.31 993.425 2040.76 1018.82C2040.76 1019.15 2040.76 1019.49 2041.43 1020.16C1992.98 994.427 1946.2 969.366 1899.75 944.305C1805.85 892.846 1718.98 847.068 1635.1 802.626C1492.09 728.445 1352.08 697.703 1194.36 705.723C1093.45 711.069 982.511 732.454 856.537 770.213C759.3 799.953 662.062 838.714 568.501 876.473L559.813 879.814C414.124 938.624 257.074 997.769 82.3141 1019.82C52.2407 1023.5 22.8355 1025.5 -6.23541 1026.17C-6.23541 1025.84 -6.23553 1025.5 -6.56968 1025.17C22.8354 1024.17 52.2407 1022.16 82.3141 1018.49Z" fill="#DEAD62" fill-opacity="0.1"/>
<path d="M65.6066 1014.81C238.362 993.09 397.417 937.956 543.44 881.819C640.343 844.728 739.919 806.635 841.166 777.23C967.809 741.142 1079.41 720.425 1181.33 714.745C1341.05 706.057 1482.06 734.793 1624.75 805.299C1723.32 854.085 1810.53 898.192 1890.39 939.627C1941.52 966.359 1991.98 991.754 2041.43 1016.48C2041.43 1016.48 2041.43 1017.15 2041.1 1017.48C1991.31 992.756 1941.18 967.027 1889.39 940.629C1809.53 899.195 1721.98 855.087 1623.74 806.301C1481.06 736.13 1341.05 707.393 1181.33 716.081C1079.41 721.762 968.477 742.145 842.169 778.567C740.921 807.638 640.677 846.065 544.108 883.155C397.75 939.627 238.696 994.427 65.6066 1016.15C40.8796 1019.15 16.8207 1021.16 -7.23802 1022.16C-7.23802 1021.83 -7.23794 1021.49 -7.57209 1021.16C16.8208 1019.82 40.8796 1017.82 65.6066 1014.81Z" fill="#DEAD62" fill-opacity="0.1"/>
<path d="M48.897 1010.8C229.337 988.078 392.402 934.28 527.732 884.492C613.943 853.082 721.204 813.987 826.461 784.916C953.104 750.498 1065.04 730.784 1168.3 724.769C1330.02 715.413 1471.7 742.145 1613.38 808.64C1698.92 848.738 1790.15 891.843 1880.37 935.951C1934.5 962.683 1988.3 988.747 2041.76 1013.14C2041.76 1013.14 2041.76 1014.14 2041.43 1014.48C1988.3 989.415 1934.5 963.351 1879.36 936.619C1789.48 892.177 1697.92 849.072 1612.71 809.309C1470.7 743.147 1329.36 716.415 1168.3 725.437C1065.38 731.786 953.438 751.501 826.461 785.918C721.539 814.655 614.277 853.75 528.066 884.826C392.736 934.614 230.006 988.746 48.5628 1011.47C29.5163 1013.81 10.4698 1015.48 -8.24256 1016.48C-8.24256 1016.15 -8.24248 1015.81 -8.57663 1015.48C10.804 1014.81 29.8505 1013.47 48.897 1010.8Z" fill="#DEAD62" fill-opacity="0.1"/>
<path d="M32.1891 1007.46C222.988 983.401 389.394 930.939 512.695 887.834C612.606 853.083 710.846 819.668 812.093 793.604C939.069 760.857 1051.34 741.811 1155.6 735.128C1319 725.772 1461.01 750.165 1602.69 812.651C1690.9 851.412 1782.46 891.51 1870.68 932.61C1925.81 958.005 1982.62 984.069 2042.09 1010.13C2042.43 1010.47 2042.09 1010.8 2042.09 1011.47C1982.62 985.071 1925.14 959.342 1870.34 933.613C1782.13 892.512 1690.9 852.414 1602.02 813.319C1460.34 751.167 1318.66 726.44 1155.93 736.13C1051.68 742.479 939.404 761.526 812.427 794.606C711.514 820.67 613.274 854.085 513.029 888.502C389.394 931.608 222.988 984.403 32.1891 1008.46C18.489 1010.13 4.78874 1011.13 -8.91137 1012.14C-8.91137 1011.8 -8.91137 1011.47 -8.91137 1011.13C4.78874 1010.13 18.1549 1009.13 32.1891 1007.46Z" fill="#DEAD62" fill-opacity="0.1"/>
<path d="M15.4822 1003.78C168.522 984.736 321.563 948.648 496.991 890.84C591.889 859.43 693.804 827.018 797.057 801.957C924.367 770.547 1037.31 752.503 1142.9 745.82C1307.64 735.461 1449.98 758.183 1591.33 816.325L1620.07 828.02C1703.27 862.438 1782.13 894.516 1860.65 929.267C1923.14 956.333 1983.62 982.063 2042.43 1006.12C2042.43 1006.12 2042.1 1006.79 2042.43 1007.46C1982.95 983.4 1922.47 957.67 1859.98 929.936C1781.79 895.518 1702.93 863.106 1619.73 828.689L1590.99 816.993C1449.32 758.851 1307.64 736.464 1143.23 746.488C1037.98 752.837 925.036 771.215 798.059 802.625C694.807 827.686 592.557 860.098 497.993 891.508C322.565 949.316 169.191 985.404 16.1503 1004.78C7.79662 1005.79 -0.557107 1006.46 -8.91083 1007.12C-8.91083 1006.79 -8.91075 1006.46 -9.2449 1006.12C-1.55947 1005.12 6.79433 1004.78 15.4822 1003.78Z" fill="#DEAD62" fill-opacity="0.1"/>
<path d="M-1.55897 1000.11C160.169 979.724 313.878 945.975 481.286 893.848C569.167 866.113 673.756 835.038 782.354 809.976C909.665 780.571 1023.28 762.861 1129.87 756.178C1296.28 745.486 1439.63 766.203 1580.3 820.335C1596.68 826.35 1612.38 832.364 1627.75 838.379C1704.94 868.118 1777.78 895.853 1850.29 925.926C1915.79 953.326 1979.94 978.722 2042.76 1002.11C2042.76 1002.78 2042.76 1003.11 2042.43 1003.45C1979.28 980.058 1915.45 954.329 1849.29 926.929C1776.78 896.855 1703.94 869.121 1626.41 839.716C1610.71 833.033 1595.34 827.352 1579.3 821.337C1438.96 767.205 1295.61 747.156 1129.54 757.515C1022.94 764.532 909.665 782.242 782.354 811.313C674.09 836.374 569.502 867.784 481.621 895.184C313.878 947.646 160.503 981.395 -1.55897 1001.78C-4.90046 1002.11 -7.90756 1002.45 -10.9149 1002.78C-10.9149 1002.45 -10.9148 1002.11 -11.249 1001.78C-7.57333 1000.44 -4.56631 1000.44 -1.55897 1000.11Z" fill="#DEAD62" fill-opacity="0.1"/>
<path d="M466.25 896.856C585.875 861.436 678.769 837.377 767.987 817.996C894.963 790.596 1009.24 773.555 1117.17 766.203C1285.58 755.51 1429.27 773.889 1569.61 824.011C1589.66 831.028 1609.37 838.045 1629.42 845.063C1702.6 871.126 1771.77 895.519 1840.27 922.251C1908.77 949.317 1975.94 973.71 2043.1 997.1C2042.76 997.435 2043.1 997.769 2043.43 998.103C1975.6 975.046 1908.44 950.319 1839.6 923.253C1770.77 896.187 1701.93 871.794 1628.42 846.065C1608.71 838.714 1589.32 832.031 1568.61 824.679C1428.93 774.557 1285.25 756.513 1116.84 767.206C1008.91 774.557 894.963 791.264 767.987 818.999C678.769 838.379 585.541 862.772 466.25 897.524C311.873 942.968 155.492 975.38 -11.9169 996.432C-11.9169 996.098 -11.917 995.764 -12.2512 995.429C155.492 974.378 311.873 941.966 466.25 896.856Z" fill="#DEAD62" fill-opacity="0.1"/>
<path d="M450.545 899.529C564.824 868.119 660.725 844.728 752.95 826.016C879.927 800.287 994.874 783.913 1104.14 776.228C1274.89 764.867 1418.91 781.24 1558.58 827.019C1581.31 834.704 1604.7 842.724 1627.08 849.741C1697.59 872.797 1764.08 894.517 1830.25 918.575C1901.42 944.305 1972.26 968.698 2043.77 991.42C2043.77 991.42 2043.77 991.754 2043.77 992.088C1972.26 969.366 1901.09 945.307 1829.58 919.244C1763.75 895.185 1696.92 873.799 1626.75 850.409C1604.36 843.058 1581.31 835.372 1557.91 828.021C1418.91 781.908 1275.22 766.203 1104.47 777.23C995.542 784.916 880.929 800.955 753.953 827.018C661.728 845.731 565.827 869.121 451.548 900.531C310.871 939.292 162.843 967.695 -11.9164 990.751C-11.9164 990.417 -11.9168 990.083 -12.2509 989.749C161.841 967.027 309.869 938.29 450.545 899.529Z" fill="#DEAD62" fill-opacity="0.1"/>
<path d="M434.838 902.537C543.77 874.468 642.678 852.08 738.245 834.036C866.224 809.644 981.839 794.273 1091.11 786.587C1263.53 774.558 1408.21 788.258 1547.22 831.029C1572.61 838.715 1598.01 846.066 1623.07 853.417C1691.57 874.135 1756.06 893.181 1820.22 914.901C1894.73 940.63 1968.25 963.018 2044.43 985.072C2044.43 985.406 2044.43 985.74 2044.1 986.074C1967.91 964.355 1894.4 940.964 1819.88 915.903C1755.39 894.518 1690.9 874.803 1622.74 854.754C1597.68 847.068 1572.28 839.717 1547.22 831.698C1408.55 789.929 1263.86 775.895 1091.77 787.59C982.174 795.275 866.892 810.646 738.913 835.039C643.681 853.083 544.773 875.471 435.84 903.54C308.864 935.952 172.531 961.013 -13.5902 985.072C-13.5902 984.738 -13.9243 984.403 -13.9243 984.069C171.528 960.011 308.195 935.284 434.838 902.537Z" fill="#DEAD62" fill-opacity="0.1"/>
<path d="M419.467 905.543C522.719 881.151 624.635 859.765 723.543 842.389C851.522 819.667 967.471 805.299 1078.74 796.945C1255.84 783.913 1396.85 795.608 1536.19 834.704C1563.59 842.055 1590.99 849.741 1617.73 856.758C1684.22 875.136 1747.71 891.843 1810.19 911.558C1889.72 936.619 1967.24 958.673 2045.1 978.388C2045.1 978.722 2045.1 979.056 2045.1 979.056C1967.58 959.341 1890.06 937.622 1809.86 912.561C1747.71 892.846 1683.89 875.47 1617.06 857.426C1590.99 850.409 1563.26 843.058 1536.19 835.372C1396.85 796.611 1255.84 785.25 1079.08 797.947C968.14 805.967 852.19 820.67 724.545 843.058C625.971 860.433 523.722 881.819 420.47 906.546C283.468 939.292 141.121 959.676 -14.9265 979.724C-14.9265 979.39 -15.2605 979.056 -15.2605 978.722C140.119 958.673 282.466 938.29 419.467 905.543Z" fill="#DEAD62" fill-opacity="0.1"/>
<path d="M-16.2601 973.042C138.785 953.995 272.779 937.622 404.099 908.551C502.005 886.832 604.923 867.117 708.843 850.075C836.154 829.358 953.106 815.324 1065.38 807.304C1245.15 793.938 1386.83 803.629 1525.17 838.38C1553.91 845.397 1582.98 852.414 1610.71 859.431C1676.54 875.471 1738.36 890.507 1799.51 908.217C1882.37 931.942 1963.57 952.659 2045.1 970.703C2045.1 971.037 2045.1 971.705 2045.44 972.04C1963.57 953.661 1882.04 933.278 1799.51 909.554C1738.02 891.844 1676.2 876.807 1610.38 860.434C1582.31 853.751 1553.91 846.734 1524.83 839.382C1386.5 804.965 1245.15 795.275 1066.05 808.307C953.44 816.66 836.488 831.029 709.511 851.412C605.591 868.453 503.007 888.168 404.768 909.554C273.447 938.625 139.453 954.998 -15.926 974.044C-16.2602 974.044 -16.5941 974.044 -16.9282 974.044C-16.9282 973.71 -17.2627 973.376 -17.2627 973.042C-17.2627 973.042 -16.5942 973.042 -16.2601 973.042Z" fill="#DEAD62" fill-opacity="0.1"/>
<path d="M40.8774 961.013C162.842 946.978 278.457 933.613 388.392 911.559C482.288 892.512 582.199 875.137 694.139 858.429C820.781 839.383 938.067 826.351 1052.68 817.329C1235.46 803.629 1377.47 810.98 1514.14 841.722C1544.21 848.405 1574.29 855.088 1603.69 861.437C1668.52 875.137 1729.33 888.503 1789.81 904.542C1876.02 927.264 1960.56 945.976 2045.77 962.684C2045.77 963.018 2045.77 963.352 2045.44 963.686C1960.23 947.313 1875.69 928.266 1788.81 905.544C1728.66 889.505 1667.51 876.473 1603.36 862.439C1573.95 856.09 1543.88 849.407 1513.47 842.724C1377.81 811.983 1235.46 804.631 1053.01 817.997C938.401 827.019 821.449 840.051 694.807 859.097C583.201 876.139 483.291 893.181 389.395 912.227C279.126 934.615 163.844 947.981 41.5458 962.015C21.831 964.02 1.78199 966.359 -18.2669 968.698C-18.2669 968.364 -18.601 968.03 -18.601 967.696C1.11377 965.691 21.1627 963.352 40.8774 961.013Z" fill="#DEAD62" fill-opacity="0.1"/>
<path d="M72.2883 952.992C177.879 942.3 277.122 931.941 373.022 914.231C461.572 897.858 559.143 882.487 679.437 866.114C804.408 849.072 922.363 836.709 1039.98 827.018C1226.44 812.984 1368.45 817.996 1503.11 845.063C1534.52 851.077 1565.93 857.092 1596.34 862.772C1660.16 875.136 1720.64 886.163 1779.79 900.531C1870.01 921.917 1957.22 938.958 2046.77 953.661C2046.77 953.995 2046.77 954.329 2046.77 954.663C1957.22 939.961 1870.01 922.919 1779.46 901.534C1720.31 887.499 1659.83 876.138 1596.01 863.775C1565.6 858.094 1534.19 852.08 1502.78 845.731C1369.12 818.999 1226.44 813.652 1040.32 828.021C923.031 837.043 804.743 850.075 680.105 866.782C559.477 883.155 462.24 898.526 373.69 914.899C277.79 932.609 178.213 942.968 72.9564 953.661C42.5488 956.668 11.473 960.01 -19.937 963.351C-19.937 963.017 -20.271 962.683 -20.271 962.349C10.8048 959.341 41.8807 956.334 72.2883 952.992Z" fill="#DEAD62" fill-opacity="0.1"/>
<path d="M89.6651 947.647C183.561 939.293 271.777 931.608 357.319 917.574C461.239 900.198 570.84 886.164 664.736 874.803C786.7 859.766 905.323 848.071 1026.95 838.046C1219.42 822.676 1358.43 826.017 1491.75 849.408C1524.5 855.088 1556.58 860.1 1587.99 865.447C1651.48 875.471 1710.96 885.162 1769.77 897.859C1862.66 917.908 1954.22 932.611 2046.78 945.308C2047.11 945.643 2046.78 945.977 2047.11 946.311C1954.22 934.281 1862.66 919.245 1769.43 899.196C1710.62 886.498 1651.14 877.142 1588.32 866.783C1556.58 861.771 1524.5 856.425 1492.09 850.744C1358.43 827.688 1220.09 824.012 1027.29 839.717C905.657 849.073 787.368 861.103 665.07 876.139C571.842 887.5 462.241 901.535 358.321 918.91C272.779 933.279 184.23 940.964 90.3337 949.318C53.9114 952.659 16.4867 956.001 -21.2722 959.677C-21.2722 959.342 -21.6062 959.008 -21.6062 958.674C15.8184 954.33 53.2429 950.989 89.6651 947.647Z" fill="#DEAD62" fill-opacity="0.1"/>
<path d="M98.6837 943.971C183.557 937.623 264.087 931.942 341.944 920.247C437.177 906.213 537.755 894.852 650.029 882.822C765.645 870.125 884.602 858.429 1014.25 848.071C1160.61 836.041 1317.99 828.69 1480.72 853.083C1514.14 857.761 1547.55 862.439 1579.97 866.783C1642.45 874.803 1701.6 883.157 1759.4 893.849C1856.98 912.228 1951.21 924.925 2047.77 934.95C2047.44 935.284 2047.77 935.618 2047.77 935.952C1950.87 925.928 1856.31 913.564 1758.74 895.186C1700.93 884.159 1641.78 876.474 1579.3 868.12C1546.89 863.776 1514.14 858.764 1480.39 854.085C1317.32 829.693 1159.94 837.712 1014.25 849.407C884.936 860.1 765.645 871.127 650.029 883.825C538.09 896.188 437.177 907.549 342.278 921.583C264.088 933.279 183.557 938.959 98.6837 945.308C59.2541 947.981 18.4879 951.323 -23.2807 954.998C-23.2807 954.664 -23.6147 954.33 -23.6147 953.996C17.8197 949.986 58.92 946.979 98.6837 943.971Z" fill="#DEAD62" fill-opacity="0.1"/>
<path d="M101.693 941.298C179.884 936.954 254.065 932.61 326.242 923.253C412.786 912.227 502.672 903.539 597.905 894.182C610.602 892.846 622.966 891.843 634.995 890.507C764.311 877.809 891.622 867.451 1001.22 858.094C1174.31 843.726 1320.67 838.046 1469.03 856.09C1503.45 860.434 1538.2 864.109 1570.95 867.785C1633.1 874.802 1691.91 880.817 1749.05 890.507C1850.29 907.214 1947.87 917.239 2048.11 924.256C2048.11 924.59 2047.78 924.924 2048.11 924.924C1947.87 918.241 1849.96 907.883 1748.38 891.175C1690.91 881.819 1632.76 875.47 1570.61 868.453C1537.53 865.112 1502.78 861.102 1468.7 857.092C1320.33 838.714 1174.65 844.394 1000.55 858.763C891.287 867.785 763.642 878.812 634.661 891.175C621.963 892.512 609.6 893.514 597.57 894.851C502.338 904.207 412.452 912.561 326.242 923.922C253.731 933.278 179.884 937.288 101.359 941.966C60.2589 944.305 18.1561 946.978 -24.9491 949.985C-24.9491 949.651 -25.2831 949.317 -25.2831 948.983C18.1562 946.31 60.5931 943.637 101.693 941.298Z" fill="#DEAD62" fill-opacity="0.1"/>
<path d="M101.024 939.294C174.536 936.287 243.371 933.948 310.869 926.262C386.053 917.909 463.575 911.56 545.776 904.877C570.169 902.872 595.23 900.867 620.625 898.862C678.767 893.85 736.575 889.506 793.046 884.828C860.21 879.481 924.366 874.135 988.523 868.789C1139.89 855.757 1300.95 844.73 1459 860.101C1494.09 863.777 1529.51 866.45 1562.93 869.457C1624.41 874.135 1682.88 879.147 1739.36 887.167C1844.95 901.87 1945.53 909.221 2049.45 913.565C2049.45 913.899 2049.45 914.567 2049.11 914.901C1945.19 910.223 1844.61 903.206 1739.02 888.169C1682.22 880.484 1624.41 875.472 1562.93 870.46C1529.18 867.786 1494.42 865.113 1458.67 861.772C1300.62 846.067 1140.23 857.428 988.857 870.125C924.367 875.472 860.878 880.818 793.046 886.499C737.243 890.842 679.435 895.521 620.959 900.199C595.898 902.538 570.503 904.543 546.444 906.547C464.243 913.23 387.055 919.579 311.538 927.933C244.039 935.618 174.87 938.292 101.692 940.965C60.2574 942.635 17.8205 944.641 -25.6188 946.98C-25.6188 946.645 -25.9529 946.311 -25.9529 945.977C16.8182 942.97 59.5892 940.965 101.024 939.294Z" fill="#DEAD62" fill-opacity="0.1"/>
<path d="M97.6827 937.956C166.852 936.62 232.011 935.283 295.499 929.268C361.995 922.919 430.495 918.576 503.005 913.897C536.42 911.558 570.837 909.554 605.923 906.88L628.979 904.875C748.939 896.522 862.215 888.502 975.492 878.812C1151.92 863.107 1298.61 852.414 1447.64 863.775C1483.73 866.448 1519.49 868.119 1554.57 870.124C1615.39 873.466 1672.53 876.807 1729 883.49C1838.6 896.188 1942.18 900.532 2049.78 901.868C2050.11 902.537 2050.11 902.537 2050.11 902.871C1941.85 901.868 1838.26 897.524 1728.66 884.493C1672.19 877.81 1615.39 874.802 1553.9 871.461C1519.15 869.456 1483.73 867.117 1447.64 864.444C1298.61 853.751 1151.92 864.444 975.826 879.48C862.215 889.171 748.939 897.524 628.645 905.878L605.589 907.549C570.838 909.888 536.42 912.227 503.34 914.566C430.495 919.244 361.995 923.922 295.499 930.271C231.676 936.286 166.517 937.622 97.6827 938.959C56.9166 939.961 14.8139 941.298 -27.9572 942.968C-27.9572 942.634 -28.2915 942.3 -28.2915 941.966C14.8137 940.295 56.9166 938.959 97.6827 937.956Z" fill="#DEAD62" fill-opacity="0.1"/>
<path d="M92.6708 937.289C157.83 936.954 219.313 936.954 279.794 932.276C340.275 927.598 401.759 924.925 467.252 921.584C507.35 919.913 548.784 917.574 590.887 915.235C730.561 907.215 847.179 899.53 962.461 889.505L979.502 887.835C1138.89 873.8 1289.26 860.1 1436.28 867.786C1473.37 869.791 1510.13 870.459 1545.22 871.461C1606.37 873.132 1663.17 874.803 1718.64 879.815C1831.25 890.174 1939.85 891.176 2050.78 889.506C2050.78 889.84 2050.45 890.508 2050.78 890.842C1939.85 892.513 1831.25 891.51 1718.64 881.152C1663.17 875.805 1606.03 874.135 1545.22 872.464C1510.46 871.127 1473.37 870.459 1436.62 868.454C1289.59 861.103 1138.89 874.803 979.836 888.837L963.129 890.174C847.513 900.532 730.895 908.218 591.555 916.237C549.118 918.576 507.684 920.581 467.586 922.586C402.093 925.927 340.275 928.935 280.463 933.279C219.982 937.623 158.164 937.957 93.0049 938.291C53.2412 938.291 12.8093 938.959 -28.6252 939.962C-28.6252 939.628 -28.9595 939.293 -28.9595 938.959C12.1408 937.957 52.9071 937.289 92.6708 937.289Z" fill="#DEAD62" fill-opacity="0.1"/>
<path d="M85.6533 936.621C147.805 937.623 206.615 938.626 264.423 935.284C319.223 932.277 375.36 930.272 434.839 928.601C480.617 927.265 528.066 925.594 576.518 923.255C687.455 918.243 818.108 911.56 949.762 899.53C970.814 897.525 991.865 895.855 1012.58 893.516C1156.27 880.484 1291.93 867.786 1425.59 871.128C1463.35 872.13 1500.77 872.464 1536.86 872.464C1597.01 872.464 1653.48 872.798 1708.61 876.474C1825.23 884.828 1937.17 882.489 2051.12 876.808C2051.79 877.142 2051.12 877.477 2051.45 877.811C1936.84 883.157 1825.23 885.162 1708.61 877.476C1653.48 873.801 1597.01 873.467 1536.86 873.132C1500.44 873.132 1463.02 872.798 1425.26 872.13C1291.93 868.789 1156.6 881.152 1012.58 894.852C992.199 896.857 971.148 898.194 949.762 900.199C818.442 911.894 687.455 918.911 576.518 923.923C528.066 925.928 480.951 927.599 434.839 929.269C375.36 931.274 319.557 932.945 264.757 936.287C206.949 939.628 148.139 938.626 85.9874 937.957C48.2285 937.289 9.46721 936.955 -29.9624 937.289C-29.9624 936.955 -30.2964 936.621 -30.2964 936.287C8.799 935.952 47.8945 935.952 85.6533 936.621Z" fill="#DEAD62" fill-opacity="0.1"/>
<path d="M77.6365 936.62C137.115 938.625 193.586 940.63 248.721 938.625C298.843 936.62 350.636 935.617 405.103 934.949C455.559 933.947 507.686 933.278 561.15 931.608C713.856 926.595 829.472 919.912 936.4 909.888C972.488 906.547 1007.57 903.205 1041.99 899.529C1170.97 886.832 1293.6 874.802 1413.56 874.802C1452.33 874.802 1490.08 873.8 1527.17 873.132C1586.99 871.461 1643.46 870.459 1697.93 872.798C1818.55 878.478 1933.5 872.129 2051.79 863.442C2051.79 863.776 2051.45 864.11 2052.12 864.444C1933.83 873.466 1818.89 879.815 1697.93 874.134C1643.46 871.461 1587.32 873.132 1527.51 874.134C1490.75 875.137 1452.66 875.805 1413.9 875.805C1293.94 875.805 1171.64 887.834 1042.66 900.532C1008.24 903.873 972.488 907.549 937.068 910.556C829.806 920.581 714.19 927.264 561.484 931.942C508.02 933.947 455.559 934.615 405.437 935.617C350.636 936.62 299.178 937.288 248.721 939.293C193.252 941.632 136.781 939.627 77.3024 937.622C41.5485 936.286 5.46049 935.618 -31.6301 935.283C-31.6301 934.949 -31.9644 934.615 -32.2986 934.281C5.46024 934.281 41.8826 935.283 77.6365 936.62Z" fill="#DEAD62" fill-opacity="0.1"/>
<path d="M68.6099 936.619C126.084 939.627 180.216 942.3 233.345 941.297C279.792 940.629 327.575 940.295 378.032 940.629C432.832 940.629 488.969 940.629 547.111 939.292C696.142 936.285 815.767 930.27 924.365 919.912C973.82 915.234 1022.94 910.222 1070.05 905.209C1185.67 892.846 1295.27 881.151 1403.53 878.812C1442.96 877.809 1481.39 875.804 1519.15 874.133C1578.63 871.126 1634.77 868.453 1688.9 869.79C1813.2 872.129 1931.49 862.438 2053.45 849.407C2053.12 850.075 2053.12 850.409 2053.12 850.409C1931.16 863.107 1812.87 873.465 1688.56 870.792C1634.1 869.79 1577.96 872.129 1519.15 875.136C1481.73 876.807 1442.63 878.812 1403.2 879.48C1295.27 881.819 1185.67 893.514 1070.39 905.878C1022.94 910.89 974.154 916.236 924.7 920.914C816.435 930.939 696.142 937.288 547.445 940.295C489.303 941.632 432.832 941.632 378.7 941.297C328.244 941.297 280.795 941.297 234.014 941.966C180.55 942.968 126.418 940.295 69.2783 937.288C36.1975 935.617 2.78272 933.946 -31.3005 932.944C-31.6346 932.609 -31.6347 932.275 -31.6347 931.941C1.78015 933.278 35.5292 934.614 68.6099 936.619Z" fill="#DEAD62" fill-opacity="0.1"/>
<path d="M58.923 936.619C114.392 940.629 166.519 944.304 217.644 944.304C261.083 943.97 305.191 944.973 351.971 945.975C410.113 946.978 469.926 947.98 532.078 947.646C680.106 946.309 800.399 941.297 911.003 930.27C973.489 923.921 1034.64 917.239 1094.12 910.221C1197.37 898.192 1294.94 886.831 1391.84 882.153C1431.94 880.148 1471.04 877.141 1509.13 874.467C1568.27 870.124 1624.08 866.448 1677.87 866.114C1806.52 865.445 1927.15 851.077 2053.12 834.704C2053.12 835.038 2053.12 835.372 2053.12 835.706C1927.82 852.414 1806.86 866.782 1677.87 867.116C1624.08 867.116 1568.27 871.46 1509.13 875.47C1471.37 878.143 1431.94 881.15 1391.51 883.155C1295.27 887.833 1197.37 898.86 1093.78 911.224C1034.97 917.907 973.154 925.592 910.669 931.273C800.399 941.631 679.772 947.312 531.744 948.314C469.592 948.648 409.445 947.646 351.303 946.643C304.522 945.641 260.749 944.973 217.309 944.973C165.851 944.973 113.723 941.297 58.2547 937.621C28.1813 935.616 -2.22626 933.612 -32.968 931.941C-32.968 931.607 -33.3022 931.273 -33.3022 930.938C-1.89223 932.609 28.8496 934.614 58.923 936.619Z" fill="#DEAD62" fill-opacity="0.1"/>
<path d="M48.5644 936.954C102.028 941.632 152.819 946.31 202.273 946.978C242.705 947.981 283.471 948.983 327.245 950.654C388.394 952.993 451.882 954.998 517.375 955.332C665.069 955.666 786.031 950.988 898.305 940.296C973.154 932.61 1045.66 923.588 1116.17 914.566C1208.06 902.537 1294.94 891.51 1380.82 885.495C1421.92 882.822 1461.68 878.812 1500.44 874.802C1558.58 868.788 1614.39 863.775 1667.52 862.439C1800.51 858.763 1924.14 840.051 2054.13 819.668C2053.46 819.668 2053.79 820.336 2054.13 820.67C1924.48 841.722 1800.51 859.766 1667.52 863.441C1614.72 864.778 1558.92 870.458 1500.11 876.139C1461.35 879.815 1421.58 883.49 1380.48 886.832C1294.27 892.846 1207.39 903.873 1115.5 915.903C1045.33 924.925 972.486 933.947 897.971 940.964C785.697 951.991 664.401 957.003 516.707 956.335C450.88 956 387.392 953.661 326.242 951.656C282.803 949.986 241.702 948.649 201.605 947.647C151.816 946.978 101.36 942.634 47.562 937.622C21.4984 935.283 -5.90175 932.944 -33.6361 930.939C-33.6361 930.605 -33.9704 930.271 -33.9704 929.937C-5.23358 932.276 22.5008 934.615 48.5644 936.954Z" fill="#DEAD62" fill-opacity="0.1"/>
<path d="M37.8717 937.623C89.6648 942.969 138.785 948.316 186.902 950.321C224.327 951.657 262.754 953.662 303.186 956.001C367.343 959.343 433.504 962.684 502.673 964.021C650.367 966.36 771.997 962.35 885.608 950.989C971.15 942.969 1055.02 931.274 1135.55 919.579C1216.75 908.218 1293.6 897.525 1370.12 889.84C1411.89 886.164 1452.32 881.152 1491.42 875.805C1549.9 868.788 1604.7 862.105 1657.83 859.432C1794.16 852.081 1921.14 828.691 2054.79 804.298C2054.79 804.632 2054.79 805.3 2054.46 805.634C1920.8 830.361 1794.49 853.752 1657.49 860.435C1604.7 863.108 1549.56 869.791 1491.09 877.476C1452.32 881.82 1411.22 887.501 1369.46 891.176C1293.27 898.528 1216.42 909.22 1135.22 920.581C1054.69 931.942 971.15 943.638 884.939 952.326C771.663 963.687 650.033 967.696 502.339 965.357C432.836 964.355 366.674 960.679 302.852 957.338C262.42 954.999 224.327 952.994 186.568 951.991C138.116 950.321 88.9967 944.974 37.2036 939.294C14.4814 936.62 -9.24325 934.281 -33.302 931.942C-33.302 931.608 -33.636 931.274 -33.636 930.94C-8.90902 932.611 14.8154 934.95 37.8717 937.623Z" fill="#DEAD62" fill-opacity="0.1"/>
<path d="M26.5095 937.955C76.966 944.304 124.749 950.319 171.53 952.992C206.616 954.663 242.37 957.336 280.128 960.009C346.958 964.687 415.793 969.699 488.303 971.704C635.663 976.048 757.962 972.373 872.575 960.677C969.144 951.321 1062.04 936.619 1152.59 922.584C1224.43 911.557 1291.93 900.865 1359.1 893.179C1401.2 888.167 1442.63 882.152 1482.4 876.138C1540.87 867.45 1595.34 859.43 1648.13 855.421C1787.47 845.062 1915.45 817.662 2051.12 788.591C2052.79 788.257 2054.13 787.923 2055.8 787.588C2055.46 787.923 2055.8 788.257 2055.13 788.925C2054.13 789.259 2052.79 789.259 2051.45 789.593C1915.45 818.664 1786.81 846.398 1648.13 856.423C1595.67 860.767 1540.54 868.452 1482.73 877.14C1442.97 883.155 1401.53 889.169 1359.43 894.182C1292.27 901.867 1224.43 912.226 1152.93 923.921C1062.71 937.955 969.144 952.324 872.909 962.348C757.961 973.709 635.663 977.051 487.969 973.041C415.459 971.036 346.624 966.024 279.794 961.68C242.035 958.672 206.282 956.333 171.196 954.328C124.415 951.655 76.6317 945.641 26.1752 939.292C7.12872 936.953 -12.586 934.614 -32.6349 932.275C-32.6349 931.941 -32.969 931.606 -32.969 931.272C-12.5859 933.277 7.12884 935.616 26.5095 937.955Z" fill="#DEAD62" fill-opacity="0.1"/>
<path d="M14.8138 938.625C63.9336 945.976 110.38 952.659 155.825 956C188.905 958.339 221.986 961.347 257.406 964.354C326.24 970.369 398.083 976.718 473.266 979.725C620.96 985.74 743.593 983.066 859.876 971.037C966.136 960.01 1068.39 942.635 1167.63 925.593C1229.45 915.234 1289.26 904.876 1347.4 896.522C1390.5 890.507 1432.61 883.156 1473.04 876.473C1530.85 866.449 1585.31 857.092 1638.11 852.08C1775.44 838.714 1901.42 808.641 2035.08 775.894C2042.1 773.889 2048.78 772.553 2056.46 770.882C2056.13 771.216 2056.13 771.55 2056.13 772.219C2049.11 773.889 2042.1 775.56 2035.08 777.231C1901.42 809.643 1775.44 840.051 1638.11 853.417C1585.65 858.429 1531.18 867.785 1473.37 877.81C1432.94 885.161 1391.17 892.178 1347.73 898.193C1289.26 906.546 1229.78 916.571 1167.63 927.264C1069.05 944.305 966.804 961.681 860.211 972.708C743.927 984.403 621.294 987.411 473.6 981.396C397.748 978.388 326.24 972.04 257.406 966.025C221.986 963.017 188.905 960.01 156.159 957.671C110.38 954.33 63.9336 947.647 14.8138 940.296C-0.222949 937.956 -15.928 935.952 -31.633 933.613C-31.9672 933.278 -31.9671 932.944 -31.9671 932.61C-16.5962 934.281 -0.557097 936.62 14.8138 938.625Z" fill="#DEAD62" fill-opacity="0.1"/>
<path d="M3.11883 939.627C51.2363 947.647 96.3464 954.998 140.788 959.008C171.53 962.015 202.271 965.023 235.018 968.698C306.526 976.05 380.373 984.069 458.898 988.079C604.587 995.764 731.563 993.76 847.179 981.396C962.794 969.701 1073.4 948.65 1180.33 928.601C1234.46 918.576 1285.58 908.886 1336.71 900.198C1380.81 893.181 1422.58 884.827 1464.35 876.473C1521.49 865.112 1575.62 854.754 1627.75 848.071C1763.42 832.031 1887.38 798.617 2019.04 763.531C2031.4 760.19 2044.1 756.848 2056.46 753.507C2056.46 753.507 2056.46 753.841 2056.13 754.843C2044.1 757.851 2032.07 761.192 2019.37 764.533C1887.72 799.619 1763.08 833.368 1627.42 849.407C1575.96 855.756 1521.16 866.449 1464.02 878.144C1422.92 886.164 1380.81 894.517 1336.71 901.534C1285.58 909.554 1234.79 919.244 1180.66 929.603C1073.4 949.652 962.46 970.369 846.845 982.398C731.229 994.428 603.919 996.433 458.23 988.747C379.705 984.738 305.858 976.718 234.35 969.367C201.603 966.025 170.527 962.684 140.12 960.01C95.3439 956.001 50.2339 948.315 2.11643 940.63C-8.91049 938.959 -20.2717 936.954 -31.6327 935.283C-31.6327 934.949 -31.9669 934.281 -32.3011 933.947C-19.9376 935.618 -8.24223 937.622 3.11883 939.627Z" fill="#DEAD62" fill-opacity="0.1"/>
<path d="M-9.57893 940.629C37.5361 949.317 81.3094 957.337 124.749 962.015C153.151 965.022 182.223 968.698 212.63 972.374C286.143 981.396 362.329 990.752 443.527 996.098C589.216 1005.45 716.861 1004.12 833.813 991.754C957.782 978.722 1076.74 954.329 1191.35 930.939C1237.46 921.917 1281.24 912.561 1325.01 904.207C1369.45 895.853 1412.56 886.497 1453.99 877.475C1511.47 864.778 1565.6 852.748 1617.06 845.397C1751.39 826.016 1873.68 789.928 2003.67 751.501C2021.04 746.489 2038.42 741.143 2056.13 736.13C2056.13 736.464 2056.13 736.799 2056.46 737.467C2038.75 742.145 2021.38 747.491 2004.34 752.504C1874.35 790.931 1752.05 827.353 1617.39 846.734C1565.93 854.085 1511.8 866.114 1454.66 878.812C1412.89 887.834 1370.12 897.19 1325.68 905.878C1281.91 914.232 1238.13 922.92 1192.02 932.276C1077.07 956.334 958.451 980.393 834.147 993.425C717.195 1005.79 589.55 1007.12 443.527 997.769C361.995 992.757 285.809 983.066 212.63 974.378C181.888 970.703 153.151 967.027 124.749 963.686C81.3094 959.008 36.8678 950.988 -9.57893 941.966C-16.2619 940.629 -23.2792 939.627 -29.9621 938.29C-29.9621 937.956 -30.2962 937.622 -30.2962 937.288C-23.6132 937.956 -16.2619 939.293 -9.57893 940.629Z" fill="#DEAD62" fill-opacity="0.1"/>
<path d="M-21.9412 941.298C23.8372 950.654 66.9423 959.342 109.379 965.022C135.777 968.364 162.509 972.373 190.912 976.049C266.763 986.742 344.954 997.769 429.16 1004.12C575.183 1015.48 703.496 1014.48 821.116 1001.78C954.108 987.41 1079.41 959.676 1201.38 932.276C1240.47 923.588 1277.56 915.568 1314.65 907.883C1359.76 898.192 1403.2 887.5 1444.97 877.141C1502.45 863.441 1556.24 850.075 1607.37 841.387C1740.69 819.333 1861.66 780.238 1989.97 738.803C2012.36 731.786 2034.75 724.435 2056.8 717.418C2057.13 717.752 2056.8 717.752 2056.8 718.754C2034.75 725.437 2012.36 732.789 1990.3 739.806C1861.99 780.906 1740.69 820.336 1607.37 842.389C1556.58 850.743 1502.78 864.109 1445.64 878.478C1403.54 888.836 1359.76 899.529 1314.65 908.885C1277.56 916.571 1240.47 924.924 1201.38 933.612C1079.75 960.678 953.773 989.081 821.45 1003.12C703.496 1015.81 575.183 1016.48 429.16 1005.45C344.954 999.105 266.763 988.078 191.246 977.72C162.843 973.71 136.111 970.034 109.379 966.359C66.9423 961.012 23.8372 951.99 -21.9412 942.968C-23.9461 942.634 -25.951 942.3 -27.9559 941.632C-28.29 941.297 -28.2901 940.629 -28.6242 940.295C-26.6193 940.629 -24.2803 940.963 -21.9412 941.298Z" fill="#DEAD62" fill-opacity="0.1"/>
<path d="M94.0076 968.03C118.4 971.705 143.462 975.715 170.194 979.725C247.716 992.088 327.912 1004.79 414.791 1012.14C561.148 1025.17 689.795 1025.17 808.752 1012.14C949.095 996.767 1081.42 965.022 1210.07 933.612C1242.14 925.927 1273.22 918.576 1303.96 911.224C1349.74 900.532 1393.51 888.836 1436.28 877.141C1493.42 861.436 1546.89 847.402 1597.68 837.712C1729.33 812.651 1849.96 770.882 1976.27 726.774C2003.33 717.084 2029.73 707.728 2057.47 698.372C2057.47 698.706 2057.13 699.04 2057.13 699.708C2030.07 708.73 2003 718.086 1976.94 727.108C1849.96 771.55 1730.33 813.653 1598.01 838.714C1547.22 848.404 1493.42 862.773 1436.28 877.81C1393.85 889.505 1349.74 901.2 1303.96 911.893C1272.89 918.91 1242.48 926.595 1209.73 934.615C1081.42 965.691 948.426 997.769 808.418 1012.81C689.795 1025.5 560.814 1025.5 414.122 1012.81C327.578 1005.12 247.048 992.422 169.525 980.059C143.127 976.049 118.4 972.039 93.6734 968.364C54.9121 962.683 15.1483 953.995 -26.6203 944.639C-26.6203 944.305 -26.9545 943.637 -27.2886 943.302C14.8142 953.327 54.9122 962.015 94.0076 968.03Z" fill="#DEAD62" fill-opacity="0.1"/>
<path d="M78.6377 971.037C101.36 974.713 124.082 979.057 148.475 983.067C228.002 997.101 310.537 1011.47 399.755 1020.49C546.446 1034.86 675.762 1035.53 795.387 1022.5C943.081 1006.12 1082.09 970.035 1216.41 934.949C1242.48 927.932 1267.21 921.917 1292.27 915.234C1339.05 903.539 1383.49 890.173 1426.59 877.475C1483.4 861.102 1536.86 845.397 1587.65 834.704C1718.64 806.636 1837.26 762.194 1962.24 715.079C1993.98 703.05 2025.39 691.355 2057.13 679.66C2057.13 679.994 2057.13 680.328 2057.13 680.662C2025.72 692.357 1993.98 704.052 1963.24 716.082C1837.93 763.197 1718.97 807.639 1587.65 836.041C1537.2 846.734 1483.73 862.439 1427.26 878.812C1384.49 891.51 1339.72 904.542 1292.93 916.571C1267.87 922.586 1243.15 929.269 1217.08 936.286C1082.42 971.371 943.415 1007.79 796.055 1023.83C676.096 1036.86 546.446 1036.2 399.755 1021.49C310.203 1012.47 228.002 998.437 148.14 984.069C124.082 979.725 101.026 976.049 78.3036 972.04C44.8887 966.359 10.4712 958.339 -24.6144 949.986C-24.9486 949.652 -24.9485 949.317 -24.9485 948.983C10.4713 957.337 44.8886 965.357 78.6377 971.037Z" fill="#DEAD62" fill-opacity="0.1"/>
<path d="M62.9312 974.044C83.6485 978.053 104.7 982.063 127.088 986.073C208.62 1001.78 293.16 1018.15 384.717 1028.51C531.742 1044.88 661.726 1046.55 782.354 1032.85C936.731 1015.81 1081.42 975.046 1221.76 935.617C1240.81 930.27 1261.19 924.59 1280.9 918.909C1328.02 905.877 1373.13 891.843 1416.9 877.809C1473.04 859.765 1526.17 843.057 1576.63 831.028C1707.28 800.286 1824.23 753.171 1949.2 703.049C1984.62 688.681 2020.04 673.978 2056.46 660.278C2056.13 660.278 2056.13 660.612 2056.13 660.946C2020.04 675.315 1984.62 689.349 1949.2 703.717C1824.9 753.84 1707.28 801.623 1576.63 832.365C1527.17 844.06 1473.37 860.767 1417.24 878.477C1373.46 892.512 1328.69 906.88 1281.57 919.578C1261.52 925.258 1241.81 930.939 1222.09 936.285C1081.75 975.38 936.731 1016.48 782.354 1033.52C661.726 1046.89 531.408 1045.55 384.383 1029.51C292.157 1019.15 207.952 1002.78 126.085 987.076C104.032 982.732 82.9802 978.722 61.9288 975.046C33.8603 969.7 5.45773 962.683 -23.6132 955.331C-23.6132 954.997 -23.9475 954.329 -23.9475 953.995C5.79176 961.346 34.8627 968.697 62.9312 974.044Z" fill="#DEAD62" fill-opacity="0.1"/>
<path d="M47.5622 977.052C66.6087 980.728 85.6551 985.072 106.038 989.081C185.566 1005.79 275.786 1024.84 370.35 1036.53C517.71 1054.57 648.362 1056.58 769.992 1042.88C931.052 1024.84 1081.08 979.391 1226.77 935.283C1241.48 930.94 1256.18 926.596 1270.88 922.252C1318 907.883 1364.11 892.512 1408.55 877.476C1464.35 858.429 1517.48 840.385 1567.27 827.353C1696.92 793.604 1813.54 743.482 1936.84 690.352C1976.27 673.645 2016.03 656.603 2056.8 639.562C2057.13 639.896 2057.13 639.896 2056.8 640.898C2016.7 657.606 1976.94 674.313 1937.51 691.689C1814.21 744.484 1697.59 794.941 1567.94 828.356C1518.15 841.388 1465.36 859.432 1409.22 878.144C1365.11 893.181 1319.33 908.886 1271.55 923.254C1256.85 927.932 1242.48 931.942 1228.11 936.286C1082.42 980.394 931.72 1025.84 770.661 1044.22C649.03 1057.92 518.044 1055.58 370.684 1037.87C276.12 1026.17 185.9 1007.13 106.038 990.418C85.9893 986.408 66.6086 982.064 47.8962 978.054C25.5083 973.376 2.78625 967.696 -20.27 961.681C-20.27 961.347 -20.6043 961.013 -20.6043 960.345C1.78368 966.359 24.84 972.374 47.5622 977.052Z" fill="#DEAD62" fill-opacity="0.1"/>
<path d="M31.8581 980.058C49.2338 983.734 66.2755 987.744 84.9878 991.754C166.186 1010.47 258.411 1031.52 355.648 1044.55C503.342 1064.26 634.329 1067.27 756.961 1053.24C924.036 1034.19 1086.77 981.395 1230.45 935.283C1240.14 932.275 1249.83 929.268 1258.85 926.261C1307.64 910.556 1354.09 893.848 1398.53 877.475C1454.33 857.426 1507.46 838.379 1556.91 824.345C1685.9 787.923 1801.18 735.127 1924.14 679.324C1967.25 659.276 2011.02 639.227 2055.8 619.512C2056.13 620.18 2055.8 620.514 2055.8 620.848C2011.02 640.229 1967.58 659.944 1924.48 679.659C1801.84 735.796 1686.56 788.925 1557.25 825.014C1507.46 838.714 1454.33 857.76 1398.86 878.143C1354.09 894.516 1308.64 911.224 1259.52 926.929C1249.83 929.936 1239.81 932.943 1230.45 935.951C1087.1 982.397 924.036 1034.86 756.627 1053.91C634.329 1067.94 502.674 1065.27 354.98 1045.22C257.743 1032.19 165.184 1011.13 83.9854 992.422C65.6073 988.412 48.2313 984.402 31.1898 980.393C14.4823 976.717 -2.55912 972.039 -19.6007 967.361C-19.6007 967.027 -19.935 966.358 -19.935 966.024C-2.2251 971.37 14.8165 976.049 31.8581 980.058Z" fill="#DEAD62" fill-opacity="0.1"/>
<path d="M16.1497 983.067C31.8547 986.742 47.2254 990.418 63.5987 994.762C146.802 1015.14 240.698 1038.54 340.608 1052.9C488.636 1074.62 620.625 1077.96 743.926 1063.6C917.015 1043.55 1084.76 986.074 1233.12 934.949L1248.16 929.937C1296.94 913.23 1343.72 895.185 1388.83 877.476C1444.3 856.09 1497.1 835.707 1546.55 821.005C1675.2 781.575 1789.48 726.106 1911.11 666.962C1957.89 644.574 2005.34 621.518 2054.46 599.13C2054.46 599.464 2054.46 599.798 2054.46 600.466C2005.34 622.52 1958.56 645.242 1911.78 668.299C1789.81 727.109 1675.2 782.912 1546.55 822.007C1497.1 837.044 1444.97 857.093 1389.17 878.478C1344.06 896.522 1297.28 914.232 1247.82 931.274L1233.12 936.62C1085.09 987.745 917.015 1045.22 743.592 1065.27C620.291 1079.64 487.968 1076.29 339.94 1054.57C239.695 1040.21 145.465 1016.82 62.2624 996.098C45.8891 992.089 30.8521 988.413 15.1471 984.737C4.12016 982.064 -6.90643 978.723 -17.9333 975.715C-17.9333 975.381 -18.2678 975.047 -18.2678 974.379C-6.23846 977.052 5.12277 980.393 16.1497 983.067Z" fill="#DEAD62" fill-opacity="0.1"/>
<path d="M0.781045 985.739C14.4812 989.415 28.1813 992.756 42.5497 996.766C127.423 1019.15 223.324 1044.88 325.908 1060.59C474.27 1083.64 606.927 1087.99 730.896 1073.29C909.666 1052.57 1082.42 989.415 1234.79 933.946L1236.8 932.944C1286.59 914.9 1334.04 895.519 1379.81 876.807C1434.95 854.085 1487.41 832.699 1536.53 816.994C1664.84 775.225 1778.45 716.415 1899.08 655.266C1949.87 629.536 2000.33 603.139 2054.13 578.078C2053.79 578.412 2054.13 578.746 2054.13 579.08C2001.33 604.475 1950.21 630.539 1900.08 656.268C1779.12 718.086 1665.18 776.228 1536.86 817.996C1488.41 834.036 1436.28 855.087 1380.15 878.143C1335.04 896.856 1287.25 916.236 1237.47 934.28L1235.46 935.283C1083.09 991.086 910.334 1053.91 730.896 1074.96C606.593 1089.66 474.27 1085.32 325.574 1062.26C222.99 1045.89 126.755 1020.49 42.2156 998.103C27.8472 994.427 14.1471 990.751 0.446978 987.076C-4.56526 985.739 -9.57761 984.068 -14.924 982.732C-14.924 982.398 -15.2581 981.729 -15.2581 981.395C-9.91168 982.732 -4.23119 984.402 0.781045 985.739Z" fill="#DEAD62" fill-opacity="0.1"/>
<path d="M21.4952 999.106C108.04 1023.83 205.946 1051.23 311.203 1068.94C460.233 1094 592.89 1099.02 717.862 1083.98C902.312 1061.93 1081.42 992.757 1225.43 937.289C1276.22 917.574 1324.01 896.857 1369.79 877.142C1424.92 853.083 1477.72 830.361 1526.17 813.654C1653.81 768.878 1766.42 708.063 1886.71 643.238C1940.85 614.167 1995.31 584.762 2052.45 556.359C2052.45 557.027 2052.45 557.362 2052.79 557.696C1996.32 585.764 1941.85 615.169 1888.05 643.906C1768.09 708.731 1654.82 769.546 1527.17 814.322C1478.38 831.029 1426.26 853.751 1370.79 877.476C1324.68 897.525 1276.89 918.242 1226.77 937.623C1082.42 993.426 903.314 1062.59 718.53 1084.65C593.558 1099.35 459.899 1094.67 311.203 1069.61C205.946 1051.9 107.706 1024.17 21.1611 999.775C9.80006 996.433 -1.56092 993.426 -12.5878 990.418C-12.5878 990.084 -12.5878 989.416 -12.9219 989.082C-1.56084 992.423 9.79998 995.765 21.4952 999.106Z" fill="#DEAD62" fill-opacity="0.1"/>
<path d="M0.444976 1001.11C88.9944 1027.51 188.571 1057.58 296.501 1076.96C445.531 1103.69 579.191 1109.37 705.165 1094C879.591 1072.95 1045.66 1009.46 1214.07 940.629C1265.53 919.912 1313.98 897.858 1360.43 876.807C1415.23 851.745 1467.69 827.687 1515.81 809.977C1642.79 762.528 1755.73 699.039 1875.02 631.541C1932.49 599.129 1990.64 566.382 2050.78 534.972C2051.12 535.306 2051.12 535.975 2051.12 536.309C1990.97 567.719 1932.83 600.466 1875.69 632.21C1756.4 699.708 1643.79 763.864 1516.81 810.979C1468.03 828.689 1416.23 852.748 1361.43 877.475C1314.32 898.526 1266.2 920.58 1215.41 941.631C1046.33 1010.47 880.259 1074.29 705.499 1095.01C579.525 1110.04 445.531 1104.7 296.167 1077.96C188.237 1058.58 88.3258 1028.51 0.110501 1001.78C-3.89929 1000.78 -7.5746 999.439 -11.2502 998.437C-11.2502 998.102 -11.2506 997.768 -11.5847 997.1C-7.57492 998.437 -3.56481 999.773 0.444976 1001.11Z" fill="#DEAD62" fill-opacity="0.1"/>
<path d="M281.799 1085.32C431.164 1113.72 565.492 1120.07 692.468 1104.7C870.236 1082.98 1042.32 1013.81 1203.05 944.305C1255.18 922.585 1303.63 898.86 1350.41 876.472C1405.54 850.075 1457 825.348 1505.79 806.635C1632.1 756.847 1744.37 690.352 1862.99 619.846C1923.47 583.758 1984.96 547.67 2049.11 512.918C2049.45 513.587 2049.11 514.255 2049.11 514.589C1984.96 548.672 1923.81 585.095 1863.33 620.849C1745.04 691.02 1632.76 757.515 1506.12 807.304C1458 826.684 1405.88 851.077 1351.08 877.141C1303.96 899.529 1255.18 922.919 1203.38 945.307C1042.32 1014.14 870.236 1083.64 691.8 1105.36C564.824 1120.74 430.162 1114.39 280.797 1085.65C174.538 1065.6 76.6319 1035.19 -10.5809 1007.12C-10.5809 1006.79 -10.5809 1006.46 -10.915 1006.12C77.6345 1034.19 175.874 1064.93 281.799 1085.32Z" fill="#DEAD62" fill-opacity="0.1"/>
<path d="M267.097 1093.34C417.13 1123.41 551.792 1130.43 679.437 1114.72C860.879 1092.33 1032.63 1020.16 1192.69 947.982C1244.82 924.592 1293.94 900.199 1341.72 875.806C1396.19 848.74 1447.98 823.01 1495.76 802.961C1621.74 750.5 1733.01 681.665 1851.3 608.487C1914.79 569.057 1979.61 528.625 2048.11 491.2C2047.78 491.535 2048.11 491.869 2048.11 492.203C1980.28 529.962 1915.79 569.725 1852.3 609.155C1734.34 682.334 1622.41 751.502 1496.43 803.964C1448.65 824.013 1396.85 849.742 1342.05 876.808C1294.27 900.867 1244.82 925.594 1193.02 948.65C1032.97 1021.16 861.214 1093.34 679.437 1115.39C551.792 1131.1 416.796 1124.08 266.429 1094.01C166.852 1073.96 74.9612 1044.55 -8.2419 1016.48C-8.2419 1016.15 -8.24182 1015.81 -8.57597 1015.48C75.2954 1043.55 167.186 1072.95 267.097 1093.34Z" fill="#DEAD62" fill-opacity="0.1"/>
<path d="M252.396 1101.36C402.763 1133.43 538.428 1141.12 667.075 1125.08C851.525 1102.36 1029.29 1023.5 1181.66 951.658C1234.46 926.93 1283.91 900.867 1332.37 875.806C1386.83 847.403 1438.29 820.671 1485.74 799.954C1611.38 744.819 1722.65 672.977 1839.94 597.126C1906.77 554.02 1974.6 510.247 2046.44 468.812C2046.44 469.481 2046.44 469.815 2046.44 470.149C1975.27 511.249 1907.44 555.357 1840.94 597.794C1723.32 673.646 1612.38 745.488 1486.41 800.622C1438.29 821.674 1386.83 848.406 1332.37 876.808C1284.58 901.869 1234.46 927.933 1181.66 952.994C1029.29 1024.84 851.191 1103.36 666.407 1126.08C537.759 1142.12 402.095 1134.44 251.394 1102.36C158.5 1082.64 72.2899 1054.24 -6.56921 1026.84C-6.56921 1026.51 -6.90328 1025.84 -6.90328 1025.5C72.6242 1053.24 158.835 1081.31 252.396 1101.36Z" fill="#DEAD62" fill-opacity="0.1"/>
<path d="M238.027 1109.38C388.729 1143.12 524.727 1151.48 654.043 1135.44C841.5 1111.71 1018.93 1030.18 1170.64 955.667C1224.44 929.269 1274.22 901.869 1323.01 875.137C1377.48 846.066 1428.6 817.663 1476.05 796.278C1601.69 738.47 1711.62 664.289 1829.24 585.764C1898.75 538.649 1969.59 490.866 2044.77 446.09C2045.1 446.424 2045.1 447.092 2045.44 447.426C1970.26 491.868 1899.42 539.651 1829.91 586.098C1713.29 664.957 1602.69 739.472 1477.05 796.946C1429.6 819 1378.14 846.734 1323.68 876.139C1275.23 902.871 1224.44 930.271 1171.64 956.335C1019.94 1031.18 842.169 1112.72 654.377 1136.44C525.061 1152.48 388.729 1144.46 237.693 1110.38C150.481 1091 69.6166 1063.93 -4.89864 1037.2C-4.89864 1036.86 -4.89864 1036.53 -4.89864 1036.2C69.2824 1062.93 150.48 1089.99 238.027 1109.38Z" fill="#DEAD62" fill-opacity="0.1"/>
<path d="M222.99 1117.39C374.693 1152.81 511.36 1161.84 641.01 1145.46C821.45 1122.74 996.879 1042.21 1159.28 959.007C1213.41 931.273 1264.2 902.536 1313.32 874.802C1367.45 844.394 1418.91 815.324 1465.69 792.601C1591.33 732.455 1701.26 655.266 1817.88 573.734C1890.06 523.277 1964.24 471.15 2042.76 423.033C2043.43 423.701 2043.43 424.035 2043.43 424.369C1964.57 472.153 1891.06 524.28 1818.89 574.068C1702.27 655.6 1592 732.789 1466.69 793.27C1419.24 816.326 1368.12 845.063 1314.65 875.47C1265.53 903.539 1214.74 931.941 1160.95 960.01C1088.44 996.766 1002.22 1039.54 911.671 1074.96C814.433 1112.38 726.218 1135.77 642.013 1146.47C512.363 1163.51 375.361 1154.15 223.324 1118.73C141.791 1099.68 66.2737 1073.95 -3.89758 1047.89C-3.89758 1047.56 -3.89758 1047.22 -3.89758 1046.55C65.6054 1072.95 141.457 1098.35 222.99 1117.39Z" fill="#DEAD62" fill-opacity="0.1"/>
<path d="M208.288 1125.75C360.66 1162.84 497.661 1172.86 628.313 1155.82C811.093 1132.43 986.187 1049.23 1148.58 962.684C1202.72 933.947 1254.17 903.874 1303.63 874.469C1357.76 842.725 1408.55 812.986 1455.67 789.261C1580.97 726.441 1690.24 646.914 1806.52 562.374C1881.71 507.239 1958.56 451.771 2041.1 399.978C2041.43 400.312 2041.43 400.312 2041.43 400.98C1958.89 452.773 1882.37 508.242 1807.19 563.042C1690.57 647.582 1580.64 727.109 1456 790.263C1409.22 813.988 1358.09 844.061 1304.3 875.471C1254.51 904.542 1203.38 934.616 1148.92 963.687C986.521 1050.57 811.093 1133.77 628.313 1156.82C497.327 1173.53 359.657 1163.84 207.62 1126.75C132.436 1108.37 60.9282 1083.65 -4.23088 1058.92C-4.23088 1058.59 -4.23088 1058.25 -4.23088 1057.58C60.9282 1082.31 132.77 1107.04 208.288 1125.75Z" fill="#DEAD62" fill-opacity="0.1"/>
<path d="M-3.56574 1068.94C56.9152 1092.67 123.411 1115.72 193.248 1133.77C345.954 1172.86 483.958 1183.22 615.278 1166.18C800.397 1142.12 975.491 1056.25 1136.88 966.36C1192.35 935.952 1244.15 904.542 1293.93 873.8C1347.73 841.388 1398.19 810.312 1444.64 785.585C1569.61 720.092 1678.87 637.891 1794.82 550.678C1873.35 491.534 1952.88 431.721 2039.09 375.918C2039.09 376.587 2039.42 377.255 2039.42 377.255C1953.21 432.39 1873.35 492.536 1795.83 551.347C1679.88 638.559 1570.61 720.76 1445.97 786.588C1398.86 810.98 1347.73 842.056 1294.27 874.803C1244.15 905.21 1192.69 936.955 1137.55 967.028C975.825 1056.91 800.397 1143.12 614.944 1167.18C483.289 1184.22 345.286 1173.87 192.58 1134.77C122.743 1117.06 56.247 1093.67 -3.89981 1070.28C-3.89981 1069.95 -3.89981 1069.95 -3.89981 1069.61C-3.23151 1069.28 -3.56574 1068.94 -3.56574 1068.94Z" fill="#DEAD62" fill-opacity="0.1"/>
<path d="M178.881 1141.79C331.587 1182.55 470.259 1193.58 602.582 1176.2C790.374 1151.81 972.819 1058.25 1126.19 970.035C1182 937.956 1234.12 904.876 1284.58 873.132C1338.38 839.048 1388.5 807.304 1435.62 781.909C1559.92 713.743 1668.85 628.869 1784.13 538.649C1865.33 475.494 1948.2 411.004 2038.09 351.859C2038.09 352.528 2038.09 352.862 2038.42 353.53C1949.2 412.34 1866.67 476.831 1785.47 539.651C1669.85 629.871 1560.92 714.745 1435.95 783.58C1389.5 808.975 1339.05 840.719 1285.58 874.468C1234.79 906.547 1182.66 939.293 1126.86 971.037C1060.03 1009.46 970.814 1059.25 875.582 1099.35C777.676 1140.78 688.458 1166.51 602.916 1177.54C470.259 1195.25 331.587 1183.56 178.547 1143.12C114.725 1126.08 54.2435 1104.7 -3.89838 1081.31C-3.89838 1080.97 -3.89838 1080.64 -3.89838 1080.3C54.2435 1103.36 115.059 1124.75 178.881 1141.79Z" fill="#DEAD62" fill-opacity="0.1"/>
<path d="M164.18 1149.81C317.221 1192.24 456.561 1204.27 589.886 1186.56C779.683 1161.84 961.794 1065.27 1114.83 973.71C1171.31 940.296 1224.1 906.212 1275.23 872.797C1328.69 838.046 1378.81 805.299 1425.59 778.901C1549.23 708.062 1658.49 620.181 1773.44 527.956C1857.65 460.123 1943.19 390.955 2036.42 328.135C2036.08 328.469 2036.08 328.803 2036.08 329.137C1943.19 391.957 1857.98 460.792 1774.11 528.624C1659.16 621.517 1550.56 709.064 1426.26 779.904C1379.48 805.968 1329.02 838.714 1275.89 873.8C1225.1 906.881 1172.31 941.298 1116.5 974.713C962.796 1066.27 780.017 1162.84 589.886 1187.9C456.561 1205.61 317.221 1193.91 163.512 1151.14C104.368 1134.77 48.5648 1114.72 -4.899 1093C-4.899 1092.67 -4.899 1092.33 -4.899 1092C48.899 1113.05 104.702 1133.43 164.18 1149.81Z" fill="#DEAD62" fill-opacity="0.1"/>
<path d="M149.476 1157.83C303.185 1201.93 443.193 1214.63 576.853 1196.59C768.654 1171.19 951.1 1071.62 1104.14 977.385C1160.95 942.3 1214.07 906.546 1265.87 871.794C1319 836.04 1369.45 802.625 1415.57 774.891C1539.54 701.378 1648.13 611.492 1762.08 515.926C1849.29 443.415 1937.51 369.903 2034.41 303.073C2034.41 303.407 2034.74 304.075 2034.74 304.409C1938.18 371.239 1849.63 444.752 1763.42 516.594C1648.47 612.16 1540.54 702.381 1415.9 775.893C1369.79 802.959 1319.67 836.709 1266.54 872.797C1215.08 906.88 1161.95 942.634 1105.14 977.719C951.434 1072.28 768.989 1171.86 576.853 1197.59C442.859 1215.63 302.517 1202.94 148.808 1158.83C94.676 1143.46 43.5512 1124.41 -5.56871 1104.7C-5.56871 1104.36 -5.56871 1103.69 -5.56871 1103.36C43.5512 1123.41 95.3443 1142.45 149.476 1157.83Z" fill="#DEAD62" fill-opacity="0.1"/>
<path d="M134.773 1166.18C289.15 1211.96 429.493 1225.32 564.155 1207.28C757.627 1181.22 940.407 1078.3 1093.11 981.062C1150.25 944.64 1204.38 907.549 1255.84 871.461C1309.31 834.371 1358.76 799.953 1405.21 771.885C1529.51 695.699 1637.44 602.805 1751.39 504.232C1841.27 427.043 1932.5 348.518 2033.07 278.013C2033.07 278.013 2033.07 278.681 2033.41 279.015C1933.16 349.521 1841.61 428.046 1752.72 504.566C1638.44 603.14 1530.18 696.033 1405.88 772.219C1360.1 800.621 1309.98 835.039 1257.18 871.795C1205.05 907.549 1150.92 945.308 1094.12 981.396C940.741 1078.63 758.295 1181.55 564.155 1207.61C493.315 1217.31 418.8 1217.97 343.282 1209.95C276.119 1202.94 205.947 1188.23 134.105 1167.18C85.6537 1152.48 38.5386 1135.1 -6.57155 1116.39C-6.57155 1116.06 -6.57143 1115.72 -6.23728 1115.39C38.8728 1134.1 85.6535 1151.48 134.773 1166.18Z" fill="#DEAD62" fill-opacity="0.1"/>
<path d="M120.07 1174.2C274.447 1221.65 415.457 1236.02 551.122 1217.31C746.265 1190.91 929.044 1084.65 1081.42 985.072C1139.56 946.98 1194.36 908.218 1246.49 870.459C1298.95 832.366 1349.07 797.281 1394.51 768.544C1518.82 690.019 1626.41 594.118 1740.69 492.871C1832.92 411.005 1927.15 327.467 2031.74 252.952C2031.4 253.286 2031.74 253.621 2031.74 253.955C1927.48 328.804 1833.59 412.007 1741.69 493.54C1627.08 595.121 1519.15 690.687 1395.18 769.212C1349.4 797.949 1299.95 834.037 1247.15 871.128C1194.69 908.887 1139.89 947.982 1082.08 985.741C984.513 1049.56 903.649 1096.01 827.463 1131.76C728.555 1178.21 638.001 1206.61 550.788 1218.64C479.28 1228.33 404.43 1229 328.245 1220.31C261.081 1212.96 190.241 1197.59 118.399 1175.54C73.9572 1161.84 31.5202 1145.8 -9.91427 1128.76C-9.91427 1128.42 -9.91415 1128.09 -9.58 1127.42C32.5228 1144.46 75.2938 1160.5 120.07 1174.2Z" fill="#DEAD62" fill-opacity="0.1"/>
<path d="M105.035 1182.55C259.746 1231.67 401.425 1246.38 538.092 1227.66C736.242 1200.6 926.707 1085.65 1070.39 988.413C1129.2 948.983 1183.67 908.551 1236.8 869.79C1289.26 831.363 1339.05 794.606 1384.16 764.867C1507.46 683.669 1615.39 585.429 1729.33 481.843C1824.23 394.964 1921.47 306.08 2029.73 227.221C2030.07 227.89 2030.07 227.89 2030.07 228.892C1921.8 307.751 1825.23 395.967 1730.34 482.511C1616.72 586.766 1508.79 684.671 1385.16 765.869C1339.72 795.609 1290.26 832.031 1237.8 870.458C1184.67 909.554 1130.2 949.651 1071.39 989.415C974.156 1055.24 892.958 1103.03 816.104 1140.12C716.862 1187.9 625.973 1216.97 538.092 1228.67C466.584 1238.69 391.4 1239.02 314.88 1230C247.382 1221.98 176.209 1206.28 104.367 1183.22C64.6028 1170.52 25.8415 1155.82 -11.5832 1140.12C-11.5832 1139.78 -11.2489 1139.45 -11.2489 1138.78C26.5099 1154.82 65.2711 1169.52 105.035 1182.55Z" fill="#DEAD62" fill-opacity="0.1"/>
<path d="M90.3322 1190.24C243.707 1240.7 390.064 1256.74 525.06 1237.69C724.881 1209.95 915.68 1091.67 1059.7 991.755C1118.84 950.989 1174.31 909.22 1227.44 868.788C1279.57 829.025 1328.69 791.934 1374.47 761.527C1498.1 677.655 1605.03 577.076 1718.97 470.149C1816.88 377.924 1917.12 284.028 2029.73 200.491C2029.73 200.825 2029.73 201.159 2030.07 201.827C1917.79 284.696 1817.88 378.592 1719.98 470.483C1606.7 577.076 1499.1 677.989 1375.47 761.861C1330.36 792.602 1280.57 830.027 1228.44 869.122C1174.65 909.554 1119.85 951.323 1060.37 992.423C916.348 1092.33 725.549 1210.96 525.394 1238.69C453.552 1248.38 377.7 1249.05 300.512 1239.69C232.68 1231.01 161.506 1214.97 89.3298 1191.24C53.91 1179.55 19.1584 1166.51 -13.9223 1152.15C-13.9223 1151.81 -13.588 1151.48 -13.588 1151.14C20.161 1165.18 54.9124 1178.54 90.3322 1190.24Z" fill="#DEAD62" fill-opacity="0.1"/>
<path d="M75.6294 1198.59C229.004 1250.72 376.029 1267.43 512.362 1248.05C713.52 1220.31 904.653 1098.68 1048.34 995.764C1108.15 953.327 1163.62 909.888 1217.75 867.785C1269.88 827.353 1319.33 789.26 1364.11 757.85C1487.41 671.639 1595 568.053 1707.95 458.452C1808.86 360.881 1911.78 261.305 2029.06 174.092C2029.06 174.426 2029.06 174.76 2029.4 175.428C1912.78 262.641 1809.86 362.218 1708.95 459.455C1595.67 568.722 1488.75 672.642 1365.11 758.518C1320.33 790.262 1270.88 828.021 1219.09 868.453C1164.95 910.556 1109.15 953.995 1049.34 996.432C905.321 1099.35 714.522 1220.98 512.362 1249.05C439.852 1259.41 364 1259.41 287.145 1249.72C218.645 1241.03 147.471 1223.99 74.9609 1199.59C43.2167 1188.9 12.4751 1176.87 -17.2642 1164.17C-17.2641 1163.84 -16.9301 1163.51 -16.9301 1163.17C13.1433 1175.54 43.8853 1187.57 75.6294 1198.59Z" fill="#DEAD62" fill-opacity="0.1"/>
<path d="M60.9289 1206.61C214.972 1260.41 362.331 1277.45 499.666 1258.07C702.495 1229.67 893.628 1105.03 1037.31 999.44C1097.79 954.998 1153.93 910.222 1208.73 866.783C1260.19 825.349 1309.64 786.587 1354.09 754.175C1478.05 665.625 1584.65 559.366 1697.59 447.092C1801.84 343.84 1908.1 238.249 2029.07 146.358C2029.07 146.692 2029.4 147.026 2029.07 148.029C1908.1 239.585 1802.51 344.508 1698.93 447.426C1585.65 559.7 1479.06 665.96 1355.42 754.509C1310.65 786.587 1261.19 826.017 1209.4 867.117C1154.93 910.557 1098.8 955.333 1038.31 999.774C894.296 1105.37 702.829 1230 499.666 1258.74C426.488 1269.1 349.968 1269.1 272.779 1258.74C204.279 1249.72 132.771 1232.01 60.2606 1206.95C32.5262 1197.26 5.4602 1186.56 -20.9376 1175.2C-20.9376 1174.87 -20.6035 1174.53 -20.6035 1174.2C5.79427 1186.23 33.1946 1196.92 60.9289 1206.61Z" fill="#DEAD62" fill-opacity="0.1"/>
<path d="M46.2241 1214.63C200.601 1269.77 348.629 1288.14 486.633 1268.43C691.132 1239.36 882.599 1111.38 1026.28 1003.12C1087.1 957.337 1143.9 910.556 1199.04 865.78C1250.5 823.677 1299.28 783.579 1344.06 750.833C1467.36 659.276 1573.62 551.012 1686.23 435.731C1793.49 326.464 1902.42 214.524 2029.06 118.289C2029.06 118.623 2029.06 119.291 2029.06 119.626C1903.42 215.86 1794.49 327.466 1687.56 436.065C1574.29 551.346 1467.69 660.278 1344.73 751.167C1300.29 784.248 1251.17 824.011 1199.37 866.448C1144.57 911.558 1087.77 958.005 1026.95 1003.45C929.38 1076.96 847.179 1130.43 768.32 1172.19C667.741 1224.99 575.85 1256.73 486.298 1269.43C412.786 1279.79 336.265 1279.79 258.075 1269.1C189.24 1259.41 117.398 1241.36 44.5534 1215.3C20.8288 1206.61 -2.56149 1197.59 -25.2836 1187.57C-25.2836 1187.23 -24.9496 1186.9 -24.9495 1186.56C-1.22498 1196.59 22.1654 1205.94 46.2241 1214.63Z" fill="#DEAD62" fill-opacity="0.1"/>
<path d="M31.5219 1222.99C186.233 1279.79 335.263 1298.84 473.935 1278.79C679.771 1249.38 871.572 1118.06 1015.26 1006.79C1076.74 959.342 1133.88 911.559 1189.68 864.778C1240.81 821.672 1289.59 780.906 1334.03 747.157C1457 653.596 1563.26 542.324 1675.87 424.369C1785.8 309.422 1898.75 191.134 2029.73 89.8864C2029.4 90.2205 2029.73 90.8887 2029.73 91.2229C1899.41 192.136 1787.14 309.756 1676.87 424.703C1564.6 542.658 1458 654.264 1335.04 747.826C1290.93 781.909 1242.14 822.007 1191.02 865.446C1135.22 912.227 1077.74 960.01 1016.59 1007.46C919.356 1082.64 836.821 1137.78 756.959 1180.55C656.38 1234.35 563.821 1267.09 474.269 1279.79C400.422 1290.48 323.234 1290.15 245.043 1279.12C175.874 1269.43 103.698 1250.72 31.1876 1223.65C10.8046 1215.97 -9.57844 1207.95 -29.2932 1199.59C-29.2932 1199.26 -28.9592 1198.93 -28.9592 1198.59C-9.24437 1207.28 11.1388 1215.3 31.5219 1222.99Z" fill="#DEAD62" fill-opacity="0.1"/>
<path d="M16.8181 1231.01C172.197 1289.48 321.896 1309.2 461.236 1289.15C668.409 1259.41 860.21 1124.41 1004.23 1010.47C1065.71 961.681 1123.85 912.227 1178.65 864.444C1230.45 820.336 1279.23 778.233 1324.01 743.816C1446.31 647.581 1552.23 534.305 1664.51 414.345C1778.12 292.047 1895.07 167.075 2031.07 61.1499C2031.07 61.484 2031.07 62.1524 2031.07 62.4865C1895.4 168.078 1779.12 293.049 1665.51 414.679C1553.9 535.307 1447.64 648.584 1325.01 744.484C1280.57 779.57 1231.78 821.339 1179.99 865.78C1124.52 913.23 1067.05 962.684 1005.23 1011.47C907.993 1088.66 825.124 1144.79 744.929 1188.9C644.35 1244.37 551.456 1277.45 461.236 1290.48C387.055 1301.18 309.533 1300.84 230.673 1289.15C161.505 1278.79 89.3286 1259.74 16.15 1232.01C-0.557481 1225.66 -17.599 1218.64 -34.3064 1211.29C-34.3064 1210.96 -33.9724 1210.62 -33.9724 1210.29C-16.9308 1217.64 -0.223495 1224.66 16.8181 1231.01Z" fill="#DEAD62" fill-opacity="0.1"/>
<path d="M2.11928 1239.02C157.833 1299.5 307.865 1319.55 447.874 1299.5C656.049 1269.1 848.518 1131.09 993.205 1014.14C1055.36 964.019 1113.16 912.894 1169.3 863.775C1220.43 818.664 1269.21 775.893 1313.99 740.474C1436.95 641.9 1542.55 525.282 1654.82 402.315C1771.77 273.334 1891.73 141.345 2033.74 31.0756C2033.41 31.4097 2033.41 32.078 2033.41 32.7463C1892.4 143.015 1772.77 274.336 1655.82 402.649C1543.55 525.95 1438.29 642.234 1315.32 740.808C1270.55 776.562 1222.43 819.333 1170.3 864.109C1114.17 913.229 1056.36 964.353 994.207 1014.81C896.636 1093.67 813.767 1151.48 733.237 1196.59C632.324 1253.06 539.097 1286.81 448.208 1300.17C373.359 1311.2 295.836 1310.53 216.643 1298.84C146.806 1288.14 74.2953 1268.43 1.11667 1240.03C-12.5834 1234.68 -25.9492 1229 -39.6493 1223.32C-39.3152 1222.98 -39.3153 1222.65 -39.3153 1222.32C-25.281 1228 -11.5808 1233.68 2.11928 1239.02Z" fill="#DEAD62" fill-opacity="0.1"/>
<path d="M435.506 1309.2C706.5 1269.43 959.117 1042.88 1161.61 861.102C1212.4 815.658 1260.52 772.553 1303.96 736.465C1427.26 635.552 1532.85 516.261 1645.46 389.952C1766.09 253.954 1889.39 114.948 2036.41 0.000614948C2036.75 0.334764 2036.41 1.00306 2036.41 1.67136C1889.72 116.619 1766.76 254.956 1646.8 390.287C1534.52 516.929 1428.26 635.886 1305.3 737.133C1261.52 773.221 1214.07 815.992 1163.28 861.437C960.454 1043.55 707.837 1270.43 436.174 1310.2C362.661 1321.23 286.141 1320.89 208.619 1309.2C140.118 1298.84 68.9444 1279.79 -2.89759 1251.72C-16.9318 1246.38 -30.9662 1240.7 -45.0005 1234.35C-45.0005 1234.01 -44.6662 1234.01 -44.6662 1233.68C98.0154 1295.83 262.082 1334.93 435.506 1309.2Z" fill="#DEAD62" fill-opacity="0.1"/>
</svg>
