<svg width="346" height="204" viewBox="0 0 346 204" fill="none" xmlns="http://www.w3.org/2000/svg">
<g filter="url(#filter0_b_180_6146)">
<rect x="1" y="0.999878" width="343" height="202" rx="16" fill="white" fill-opacity="0.04"/>
<rect x="1.5" y="1.49988" width="342" height="201" rx="15.5" stroke="url(#paint0_linear_180_6146)"/>
<rect x="1.5" y="1.49988" width="342" height="201" rx="15.5" stroke="url(#paint1_linear_180_6146)"/>
</g>
<path fill-rule="evenodd" clip-rule="evenodd" d="M2.67581 18.8793C2.35518 18.3792 2.14926 17.8247 2.1164 17.1552C2.04502 15.6991 2.45686 14.2048 3.60741 13.2423C4.23508 12.7172 5.06952 12.3901 5.88952 12.4432C6.0708 11.8829 6.22262 11.3128 6.34356 10.7383C4.97294 10.5406 3.55812 11.0112 2.49113 11.9039C0.915718 13.2219 0.278981 15.2314 0.377267 17.2409C0.436466 18.4521 0.880879 19.4767 1.638 20.4109C1.7207 20.5127 1.80596 20.6125 1.89348 20.7101C2.10903 20.0807 2.37812 19.4736 2.67581 18.8793ZM25.8646 6.59054C23.5287 7.51927 21.2732 8.12348 18.7937 7.20156C19.1865 6.70826 19.593 6.22546 20.0195 5.76081C21.2214 6.06632 22.4056 5.95966 23.6516 5.56451C23.4057 4.78074 22.9639 4.01739 22.4274 3.39729C21.8077 2.68074 21.0177 2.12986 20.0586 1.88193C18.4699 1.47118 17.0183 2.03114 15.8235 2.98994C15.3565 2.61692 14.8849 2.24872 14.3957 1.90519C14.9729 1.39658 15.6102 0.960011 16.309 0.631523C17.6241 0.012559 19.0797 -0.172393 20.4937 0.192972C21.9479 0.569116 23.1236 1.43884 24 2.56898C24.9392 3.78024 25.4502 5.18043 25.8646 6.59054ZM28.8418 0.49593C26.7914 0.423924 25.1236 0.165173 23.3358 0.8942C23.1656 0.963699 22.9976 1.03859 22.8316 1.11773C23.3284 1.49813 23.7711 1.94633 24.1578 2.44445C25.5607 1.91115 26.7914 2.11928 28.4552 2.19624C30.119 2.52451 68.1774 2.15261 68.1558 1.66244C68.1387 1.2716 30.4278 0.817585 28.8418 0.49593ZM20.8106 2.37523C18.7846 3.93399 17.1256 6.11795 15.6833 8.09852C14.4339 9.81415 13.2126 11.6203 11.8029 13.2065C11.3216 13.7481 10.7854 14.2987 10.1971 14.7829C10.2994 15.5011 10.292 16.2219 10.179 16.9419C11.2831 16.2557 12.2492 15.3275 13.1035 14.3662C14.554 12.7339 15.8048 10.8912 17.0899 9.12654C18.4795 7.2183 20.1847 4.94101 22.2391 3.48806C21.8357 3.03107 21.3596 2.6467 20.8106 2.37523ZM8.11499 16.0251C8.0133 16.0619 7.91077 16.096 7.8071 16.1266C6.83075 16.414 5.87508 16.3978 4.95594 15.9419C4.14472 15.5394 3.5196 14.9057 3.05706 14.1509C2.66533 14.7307 2.44241 15.4087 2.35433 16.111C2.86389 16.6749 3.47145 17.1518 4.18353 17.5047C5.41593 18.1157 6.36991 18.2008 7.67964 17.9495C7.92748 17.3245 8.08326 16.6812 8.11499 16.0251ZM8.61661 0.240912C7.50657 0.235239 6.47131 0.496781 5.5332 0.956607C6.07561 1.2936 6.57413 1.71485 7.01288 2.23283C8.91431 1.61954 11.1545 2.12872 12.7798 3.16213C14.2113 4.07242 15.4366 5.26723 16.8554 6.19766C17.2143 5.73727 17.5833 5.28255 17.9663 4.84059C17.0197 4.24432 16.1464 3.4926 15.2732 2.81066C14.7684 2.41636 14.2541 2.03369 13.7131 1.68989C12.1283 0.682016 10.5087 0.148436 8.61661 0.240912ZM3.53065 2.35821C1.54962 4.22333 0.325716 7.04469 0.245841 9.67373C0.205903 10.9857 0.406441 12.3723 0.881445 13.6363C1.20774 12.9805 1.64423 12.3952 2.18494 11.9039C2.02689 11.1721 1.96515 10.4255 1.98639 9.72678C2.0555 7.45204 3.21653 4.84343 5.08199 3.30907C4.62964 2.87818 4.10167 2.57096 3.53065 2.35821ZM12.9276 3.49941C12.767 3.71103 12.6132 3.92718 12.4665 4.14646C11.5876 5.45984 10.3461 6.50175 8.84038 7.00924C7.57512 7.43587 6.17645 7.45459 4.93243 6.94257C4.30334 6.68358 3.75356 6.30545 3.29612 5.82804C2.99786 6.37382 2.75455 6.94995 2.57242 7.53289C3.07717 7.95385 3.64649 8.29879 4.27049 8.55551C5.90283 9.22752 7.73289 9.2227 9.39611 8.66217C11.2672 8.03158 12.82 6.7511 13.9133 5.11717C14.0433 4.92286 14.1816 4.72996 14.3274 4.54019C13.8714 4.17965 13.4106 3.82364 12.9276 3.49941ZM2.07589 3.73542C1.87196 3.10426 1.76602 2.44048 1.73317 1.77499C3.32614 1.90718 4.83924 2.45608 5.80171 3.84378C6.44978 4.77818 6.74889 5.93754 6.83386 7.12582C7.4165 7.13603 8.00112 7.05207 8.56081 6.88669C8.35263 4.38218 7.34399 2.28588 5.35843 1.08624C3.71334 0.0919861 1.88329 -0.00531213 0.0226428 7.75632e-05C-0.0546834 1.96136 0.0192439 3.85087 1.00211 5.62267C1.29838 4.96058 1.65867 4.32517 2.07589 3.73485V3.73542ZM6.7826 9.27177C6.74181 9.64622 6.68714 10.0113 6.62313 10.3602C6.3903 11.6259 6.00282 12.8931 5.48703 14.072C5.26072 14.5897 5.00324 15.0935 4.73303 15.5899C4.83386 15.6515 4.93781 15.7091 5.04516 15.7624C5.49751 15.9868 5.95948 16.0977 6.42826 16.1147C6.66137 15.6747 6.8823 15.2285 7.08199 14.7721C7.65131 13.4703 8.07845 12.0741 8.33564 10.6765C8.43364 10.1443 8.50502 9.61842 8.5492 9.10271C7.96826 9.22554 7.37486 9.28369 6.78231 9.27234L6.7826 9.27177ZM3.67425 17.4567C2.9667 18.6998 2.29314 19.9652 1.90566 21.3464C1.38251 23.2124 1.50629 24.5442 2.26963 26.2388C3.33096 25.7381 4.05522 25.2707 4.94546 24.4914C4.8367 23.8966 4.42882 23.4084 4.01386 22.9922C3.78047 23.2002 3.54679 23.4013 3.31538 23.5947C3.32331 23.0027 3.4148 22.4147 3.5822 21.8179C3.93909 20.5453 4.60755 19.3213 5.28621 18.1401C4.90184 18.0425 4.51209 17.893 4.09431 17.6859C3.9507 17.6147 3.81078 17.5381 3.67425 17.4567ZM7.77481 13.5608C8.47131 14.6731 8.42372 16.2568 8.07137 17.4383C7.63432 18.904 6.67326 20.2778 5.54906 21.4945C5.96402 21.914 6.34045 22.3665 6.62313 22.8904C8.25236 21.1762 9.60401 19.1783 9.97025 16.9745C10.2895 15.0543 9.92748 12.8905 8.34668 11.6052C8.19146 12.2659 7.99999 12.92 7.77481 13.5608ZM3.65074 28.2015C3.54566 28.3266 3.40659 28.4526 3.29414 28.5765C3.05026 28.8452 2.83273 29.1311 2.64465 29.4417C2.05125 30.4207 1.3866 31.5307 1.3815 32.6684C1.37838 33.4168 1.43236 64.0461 1.89348 63.9998C2.30023 63.959 3.12007 33.3305 3.1229 32.6758C3.12658 31.8427 3.71277 31.0195 4.15775 30.3066C4.29173 30.0919 4.44582 29.897 4.61746 29.7115C4.75625 29.5617 4.92082 29.4131 5.04177 29.2505C6.31609 27.5392 7.56351 25.3064 6.53929 23.1684C6.03284 22.1106 5.11767 21.3436 4.24669 20.5677C3.99404 21.149 3.78217 21.7518 3.65329 22.3733C3.74506 22.457 3.83655 22.5412 3.92663 22.6266C4.31864 22.9976 4.73359 23.4311 4.96925 23.9227C5.20945 24.4239 5.22559 24.928 5.10068 25.4647C4.87833 26.4212 4.22913 27.4237 3.65074 28.2015Z" fill="url(#paint2_linear_180_6146)"/>
<path fill-rule="evenodd" clip-rule="evenodd" d="M342.48 185.12C342.801 185.621 343.007 186.175 343.039 186.845C343.111 188.301 342.699 189.795 341.548 190.757C340.921 191.283 340.086 191.61 339.266 191.557C339.085 192.117 338.933 192.687 338.812 193.261C340.183 193.459 341.598 192.989 342.665 192.096C344.24 190.778 344.877 188.768 344.778 186.759C344.719 185.548 344.275 184.523 343.518 183.589C343.435 183.487 343.35 183.387 343.262 183.29C343.047 183.919 342.778 184.526 342.48 185.12ZM319.291 197.409C321.627 196.48 323.883 195.876 326.362 196.798C325.969 197.291 325.563 197.774 325.136 198.239C323.934 197.933 322.75 198.04 321.504 198.435C321.75 199.219 322.192 199.982 322.728 200.602C323.348 201.319 324.138 201.87 325.097 202.118C326.686 202.529 328.137 201.969 329.332 201.01C329.799 201.383 330.271 201.751 330.76 202.095C330.183 202.603 329.546 203.04 328.847 203.368C327.532 203.987 326.076 204.172 324.662 203.807C323.208 203.431 322.032 202.561 321.156 201.431C320.217 200.22 319.706 198.819 319.291 197.409ZM316.314 203.504C318.364 203.576 320.032 203.835 321.82 203.106C321.99 203.036 322.158 202.961 322.324 202.882C321.827 202.502 321.385 202.053 320.998 201.555C319.595 202.089 318.364 201.88 316.701 201.804C315.037 201.475 276.978 201.847 277 202.337C277.017 202.728 314.728 203.182 316.314 203.504ZM324.345 201.625C326.371 200.066 328.03 197.882 329.472 195.901C330.722 194.186 331.943 192.379 333.353 190.793C333.834 190.252 334.37 189.701 334.959 189.217C334.856 188.499 334.864 187.778 334.977 187.058C333.873 187.744 332.907 188.672 332.052 189.634C330.602 191.266 329.351 193.109 328.066 194.873C326.676 196.781 324.971 199.059 322.917 200.512C323.32 200.969 323.796 201.353 324.345 201.625ZM337.041 187.975C337.142 187.938 337.245 187.904 337.349 187.873C338.325 187.586 339.281 187.602 340.2 188.058C341.011 188.46 341.636 189.094 342.099 189.849C342.49 189.269 342.713 188.591 342.801 187.889C342.292 187.325 341.684 186.848 340.972 186.495C339.74 185.884 338.786 185.799 337.476 186.05C337.228 186.675 337.073 187.319 337.041 187.975ZM336.539 203.759C337.649 203.765 338.684 203.503 339.623 203.043C339.08 202.706 338.582 202.285 338.143 201.767C336.241 202.38 334.001 201.871 332.376 200.838C330.944 199.927 329.719 198.733 328.3 197.802C327.941 198.262 327.572 198.717 327.189 199.159C328.136 199.755 329.009 200.507 329.883 201.189C330.387 201.583 330.902 201.966 331.443 202.31C333.027 203.318 334.647 203.851 336.539 203.759ZM341.625 201.642C343.606 199.776 344.83 196.955 344.91 194.326C344.95 193.014 344.749 191.627 344.274 190.363C343.948 191.019 343.512 191.605 342.971 192.096C343.129 192.828 343.191 193.574 343.169 194.273C343.1 196.548 341.939 199.156 340.074 200.691C340.526 201.122 341.054 201.429 341.625 201.642ZM332.228 200.5C332.389 200.289 332.543 200.073 332.689 199.853C333.568 198.54 334.81 197.498 336.315 196.991C337.581 196.564 338.979 196.545 340.223 197.057C340.852 197.316 341.402 197.694 341.86 198.172C342.158 197.626 342.401 197.05 342.583 196.467C342.079 196.046 341.509 195.701 340.885 195.444C339.253 194.772 337.423 194.777 335.76 195.338C333.889 195.968 332.336 197.249 331.242 198.883C331.112 199.077 330.974 199.27 330.828 199.46C331.284 199.82 331.745 200.176 332.228 200.5ZM343.08 200.264C343.284 200.895 343.39 201.559 343.423 202.225C341.83 202.093 340.317 201.544 339.354 200.156C338.706 199.222 338.407 198.062 338.322 196.874C337.739 196.864 337.155 196.948 336.595 197.113C336.803 199.618 337.812 201.714 339.797 202.914C341.442 203.908 343.272 204.005 345.133 204C345.21 202.038 345.137 200.149 344.154 198.377C343.857 199.039 343.497 199.675 343.08 200.265L343.08 200.264ZM338.373 194.728C338.414 194.354 338.469 193.988 338.533 193.64C338.765 192.374 339.153 191.107 339.669 189.928C339.895 189.41 340.153 188.906 340.423 188.41C340.322 188.348 340.218 188.291 340.111 188.237C339.658 188.013 339.196 187.902 338.728 187.885C338.494 188.325 338.273 188.771 338.074 189.228C337.504 190.529 337.077 191.926 336.82 193.323C336.722 193.855 336.651 194.381 336.607 194.897C337.187 194.774 337.781 194.716 338.373 194.727L338.373 194.728ZM341.482 186.543C342.189 185.3 342.863 184.035 343.25 182.653C343.773 180.787 343.649 179.456 342.886 177.761C341.825 178.262 341.101 178.729 340.21 179.508C340.319 180.103 340.727 180.591 341.142 181.008C341.375 180.8 341.609 180.598 341.84 180.405C341.832 180.997 341.741 181.585 341.574 182.182C341.217 183.454 340.548 184.678 339.87 185.86C340.254 185.957 340.644 186.107 341.061 186.314C341.205 186.385 341.345 186.462 341.482 186.543ZM337.381 190.439C336.684 189.327 336.732 187.743 337.084 186.561C337.521 185.096 338.482 183.722 339.607 182.505C339.192 182.086 338.815 181.633 338.533 181.109C336.903 182.824 335.552 184.821 335.186 187.025C334.866 188.945 335.228 191.109 336.809 192.395C336.964 191.734 337.156 191.08 337.381 190.439ZM341.505 175.798C341.61 175.673 341.749 175.547 341.862 175.423C342.106 175.155 342.323 174.869 342.511 174.558C343.105 173.579 343.769 172.469 343.774 171.331C343.777 170.583 343.723 139.954 343.262 140C342.856 140.041 342.036 170.669 342.033 171.324C342.029 172.157 341.443 172.98 340.998 173.693C340.864 173.908 340.71 174.103 340.538 174.288C340.4 174.438 340.235 174.587 340.114 174.749C338.84 176.461 337.592 178.693 338.616 180.831C339.123 181.889 340.038 182.656 340.909 183.432C341.162 182.851 341.374 182.248 341.502 181.626C341.411 181.543 341.319 181.459 341.229 181.373C340.837 181.002 340.422 180.569 340.187 180.077C339.946 179.576 339.93 179.072 340.055 178.535C340.277 177.579 340.927 176.576 341.505 175.798Z" fill="url(#paint3_linear_180_6146)"/>
<defs>
<filter id="filter0_b_180_6146" x="-39" y="-39.0001" width="423" height="282" filterUnits="userSpaceOnUse" color-interpolation-filters="sRGB">
<feFlood flood-opacity="0" result="BackgroundImageFix"/>
<feGaussianBlur in="BackgroundImage" stdDeviation="20"/>
<feComposite in2="SourceAlpha" operator="in" result="effect1_backgroundBlur_180_6146"/>
<feBlend mode="normal" in="SourceGraphic" in2="effect1_backgroundBlur_180_6146" result="shape"/>
</filter>
<linearGradient id="paint0_linear_180_6146" x1="1" y1="0.999878" x2="36.5553" y2="94.1886" gradientUnits="userSpaceOnUse">
<stop stop-color="#D39E5E"/>
<stop offset="1" stop-color="#D29C5E" stop-opacity="0"/>
</linearGradient>
<linearGradient id="paint1_linear_180_6146" x1="223.797" y1="137.218" x2="278.161" y2="240.038" gradientUnits="userSpaceOnUse">
<stop stop-color="#E0B263" stop-opacity="0"/>
<stop offset="1" stop-color="#E0B263"/>
</linearGradient>
<linearGradient id="paint2_linear_180_6146" x1="10.5642" y1="4.53321" x2="-0.984893" y2="43.1393" gradientUnits="userSpaceOnUse">
<stop stop-color="#FFEDCE"/>
<stop offset="0.41" stop-color="#F0C868"/>
<stop offset="0.75" stop-color="#D09A5D"/>
<stop offset="0.96" stop-color="#E5B864"/>
</linearGradient>
<linearGradient id="paint3_linear_180_6146" x1="334.592" y1="199.467" x2="346.141" y2="160.86" gradientUnits="userSpaceOnUse">
<stop stop-color="#FFEDCE"/>
<stop offset="0.41" stop-color="#F0C868"/>
<stop offset="0.75" stop-color="#D09A5D"/>
<stop offset="0.96" stop-color="#E5B864"/>
</linearGradient>
</defs>
</svg>
