<svg width="1444" height="164" viewBox="0 0 1444 164" fill="none" xmlns="http://www.w3.org/2000/svg">
<g filter="url(#filter0_b_162_3023)">
<rect x="2" y="2" width="1440" height="160" rx="16" fill="white" fill-opacity="0.04"/>
<rect x="2.5" y="2.5" width="1439" height="159" rx="15.5" stroke="url(#paint0_linear_162_3023)"/>
<rect x="2.5" y="2.5" width="1439" height="159" rx="15.5" stroke="url(#paint1_linear_162_3023)"/>
</g>
<path fill-rule="evenodd" clip-rule="evenodd" d="M3.14081 22.1426C2.76446 21.556 2.52275 20.9056 2.48419 20.1204C2.40041 18.4127 2.88381 16.6601 4.2343 15.5312C4.97105 14.9154 5.95051 14.5318 6.913 14.594C7.12578 13.9369 7.30399 13.2682 7.44595 12.5945C5.83714 12.3626 4.17645 12.9145 2.92404 13.9615C1.07485 15.5073 0.327462 17.8641 0.442829 20.2209C0.512315 21.6415 1.03396 22.8432 1.92265 23.9388C2.01973 24.0582 2.1198 24.1753 2.22253 24.2898C2.47554 23.5515 2.79139 22.8396 3.14081 22.1426ZM30.3594 7.72979C27.6175 8.81904 24.9701 9.52769 22.0596 8.44642C22.5208 7.86786 22.9978 7.30161 23.4985 6.75665C24.9092 7.11497 26.2993 6.98987 27.7618 6.52642C27.4732 5.60718 26.9546 4.71189 26.3249 3.98462C25.5974 3.14422 24.6702 2.49813 23.5444 2.20735C21.6796 1.7256 19.9757 2.38235 18.5734 3.50686C18.0251 3.06937 17.4715 2.63753 16.8974 2.23463C17.5749 1.6381 18.323 1.12608 19.1432 0.740818C20.6869 0.0148729 22.3954 -0.202046 24.0551 0.226468C25.762 0.667625 27.1421 1.68767 28.1707 3.01314C29.2732 4.43376 29.873 6.07595 30.3594 7.72979ZM33.854 0.581789C31.4472 0.497338 29.4896 0.193864 27.3911 1.0489C27.1913 1.13041 26.9941 1.21824 26.7993 1.31106C27.3824 1.75721 27.9021 2.28287 28.3559 2.86709C30.0026 2.24162 31.4472 2.48572 33.4001 2.57598C35.3531 2.96099 80.0253 2.52481 80 1.94992C79.9799 1.49153 35.7156 0.959039 33.854 0.581789ZM24.4271 2.78591C22.049 4.61408 20.1017 7.17552 18.4088 9.49841C16.9423 11.5106 15.5087 13.6288 13.854 15.4893C13.2891 16.1244 12.6597 16.7702 11.9692 17.3381C12.0892 18.1805 12.0806 19.0259 11.9479 19.8702C13.2439 19.0655 14.3779 17.9769 15.3807 16.8494C17.0832 14.935 18.5514 12.7738 20.0598 10.7041C21.6909 8.46605 23.6924 5.79516 26.1038 4.09108C25.6303 3.5551 25.0715 3.1043 24.4271 2.78591ZM9.52521 18.795C9.40586 18.8382 9.2855 18.8781 9.16382 18.9141C8.0178 19.2511 6.89605 19.2321 5.81719 18.6975C4.865 18.2254 4.13124 17.4821 3.58832 16.5968C3.12851 17.2769 2.86686 18.072 2.76346 18.8958C3.36157 19.5572 4.07472 20.1164 4.91054 20.5303C6.35712 21.2469 7.47687 21.3468 9.01421 21.052C9.30512 20.3191 9.48798 19.5645 9.52521 18.795ZM10.114 0.282694C8.81107 0.27604 7.5959 0.582787 6.49476 1.12209C7.13144 1.51733 7.71658 2.01139 8.23158 2.61889C10.4634 1.8996 13.0929 2.49679 15.0006 3.70881C16.6809 4.77644 18.1192 6.17776 19.7845 7.269C20.2058 6.72904 20.639 6.19572 21.0885 5.67738C19.9774 4.97805 18.9524 4.0964 17.9274 3.2966C17.3349 2.83415 16.7311 2.38534 16.0961 1.98211C14.236 0.800038 12.3349 0.174235 10.114 0.282694ZM4.1442 2.76595C1.81892 4.95343 0.382319 8.26244 0.288563 11.3459C0.241685 12.8846 0.477073 14.5108 1.03462 15.9933C1.41763 15.2241 1.92996 14.5378 2.56464 13.9615C2.37913 13.1032 2.30665 12.2275 2.33158 11.4081C2.41271 8.74019 3.7755 5.68071 5.96514 3.88115C5.43418 3.37578 4.81446 3.01547 4.1442 2.76595ZM15.1742 4.10439C14.9857 4.35258 14.8052 4.60609 14.6329 4.86327C13.6013 6.40366 12.1441 7.62566 10.3767 8.22085C8.89153 8.72123 7.2498 8.74319 5.78959 8.14267C5.05118 7.83891 4.40586 7.39543 3.86892 6.8355C3.51883 7.47561 3.23324 8.15132 3.01946 8.83501C3.61192 9.32873 4.28018 9.73329 5.01261 10.0344C6.92863 10.8225 9.07671 10.8169 11.029 10.1595C13.2253 9.41989 15.0479 7.9181 16.3312 6.00176C16.4838 5.77386 16.646 5.54763 16.8172 5.32505C16.282 4.9022 15.741 4.48466 15.1742 4.10439ZM2.43664 4.38119C2.19727 3.64094 2.07292 2.86243 2.03436 2.08192C3.90416 2.23696 5.68021 2.88073 6.80994 4.50828C7.57063 5.60419 7.92172 6.96392 8.02146 8.35759C8.70534 8.36957 9.39156 8.27109 10.0485 8.07713C9.80415 5.13974 8.62023 2.68111 6.28963 1.27413C4.35865 0.108028 2.21057 -0.00608711 0.0265777 0.000234138C-0.0641863 2.3005 0.0225881 4.5166 1.17625 6.59463C1.52402 5.81811 1.94692 5.07287 2.43664 4.38053V4.38119ZM7.96128 10.8744C7.9134 11.3136 7.84924 11.7418 7.7741 12.151C7.50081 13.6355 7.04599 15.1217 6.44057 16.5043C6.17492 17.1115 5.87271 17.7024 5.55553 18.2846C5.67389 18.3568 5.79591 18.4243 5.92192 18.4869C6.45287 18.7501 6.99512 18.8801 7.54536 18.9001C7.81898 18.3841 8.07831 17.8608 8.3127 17.3254C8.98096 15.7987 9.48232 14.1612 9.78421 12.522C9.89924 11.8978 9.98302 11.281 10.0349 10.6762C9.35299 10.8202 8.65647 10.8884 7.96095 10.8751L7.96128 10.8744ZM4.31277 20.4741C3.48226 21.932 2.69165 23.4161 2.23683 25.036C1.62276 27.2245 1.76805 28.7865 2.66405 30.7741C3.90981 30.1869 4.75994 29.6386 5.80489 28.7247C5.67722 28.027 5.19846 27.4544 4.7114 26.9663C4.43744 27.2102 4.16316 27.4461 3.89153 27.673C3.90084 26.9787 4.00822 26.289 4.20471 25.589C4.62362 24.0965 5.40825 22.6609 6.20485 21.2756C5.75369 21.1611 5.29621 20.9858 4.80582 20.7429C4.63726 20.6594 4.47302 20.5696 4.31277 20.4741ZM9.12592 15.9048C9.94346 17.2093 9.8876 19.0668 9.47401 20.4525C8.96101 22.1715 7.83295 23.7828 6.51338 25.2097C7.00044 25.7018 7.4423 26.2324 7.7741 26.8469C9.68646 24.8364 11.273 22.4932 11.7029 19.9085C12.0776 17.6565 11.6527 15.1187 9.79717 13.6112C9.61498 14.3861 9.39023 15.1533 9.12592 15.9048ZM4.28517 33.076C4.16183 33.2227 3.99858 33.3704 3.86659 33.5158C3.58034 33.8309 3.325 34.1662 3.10424 34.5306C2.40772 35.6787 1.62756 36.9805 1.62158 38.315C1.61792 39.1926 1.68128 75.1159 2.22253 75.0617C2.69996 75.0138 3.66227 39.0915 3.6656 38.3236C3.66992 37.3465 4.35798 36.381 4.88029 35.5449C5.03755 35.2931 5.21841 35.0645 5.41989 34.847C5.5828 34.6713 5.77596 34.497 5.91793 34.3063C7.4137 32.2992 8.8779 29.6805 7.67569 27.173C7.08123 25.9323 6.00703 25.0327 4.98468 24.1228C4.68812 24.8045 4.43944 25.5115 4.28816 26.2404C4.39588 26.3385 4.50327 26.4374 4.609 26.5375C5.06913 26.9727 5.5562 27.481 5.83281 28.0576C6.11475 28.6455 6.1337 29.2367 5.98708 29.8661C5.72609 30.988 4.96407 32.1637 4.28517 33.076Z" fill="url(#paint2_linear_162_3023)"/>
<path fill-rule="evenodd" clip-rule="evenodd" d="M1440.86 140.919C1441.24 141.506 1441.48 142.156 1441.52 142.941C1441.6 144.649 1441.12 146.401 1439.77 147.53C1439.03 148.146 1438.05 148.53 1437.09 148.468C1436.87 149.125 1436.7 149.793 1436.55 150.467C1438.16 150.699 1439.82 150.147 1441.08 149.1C1442.93 147.554 1443.67 145.197 1443.56 142.841C1443.49 141.42 1442.97 140.218 1442.08 139.123C1441.98 139.003 1441.88 138.886 1441.78 138.772C1441.52 139.51 1441.21 140.222 1440.86 140.919ZM1413.64 155.332C1416.38 154.242 1419.03 153.534 1421.94 154.615C1421.48 155.194 1421 155.76 1420.5 156.305C1419.09 155.947 1417.7 156.072 1416.24 156.535C1416.53 157.454 1417.05 158.35 1417.68 159.077C1418.4 159.917 1419.33 160.563 1420.46 160.854C1422.32 161.336 1424.02 160.679 1425.43 159.555C1425.97 159.992 1426.53 160.424 1427.1 160.827C1426.43 161.423 1425.68 161.935 1424.86 162.321C1423.31 163.047 1421.6 163.264 1419.94 162.835C1418.24 162.394 1416.86 161.374 1415.83 160.048C1414.73 158.628 1414.13 156.986 1413.64 155.332ZM1410.15 162.48C1412.55 162.564 1414.51 162.868 1416.61 162.013C1416.81 161.931 1417.01 161.843 1417.2 161.75C1416.62 161.304 1416.1 160.779 1415.64 160.194C1414 160.82 1412.55 160.576 1410.6 160.486C1408.65 160.101 1363.97 160.537 1364 161.112C1364.02 161.57 1408.28 162.102 1410.15 162.48ZM1419.57 160.276C1421.95 158.447 1423.9 155.886 1425.59 153.563C1427.06 151.551 1428.49 149.433 1430.15 147.572C1430.71 146.937 1431.34 146.291 1432.03 145.723C1431.91 144.881 1431.92 144.036 1432.05 143.191C1430.76 143.996 1429.62 145.085 1428.62 146.212C1426.92 148.127 1425.45 150.288 1423.94 152.357C1422.31 154.595 1420.31 157.266 1417.9 158.97C1418.37 159.506 1418.93 159.957 1419.57 160.276ZM1434.47 144.267C1434.59 144.223 1434.71 144.183 1434.84 144.147C1435.98 143.81 1437.1 143.829 1438.18 144.364C1439.14 144.836 1439.87 145.579 1440.41 146.465C1440.87 145.785 1441.13 144.99 1441.24 144.166C1440.64 143.504 1439.93 142.945 1439.09 142.531C1437.64 141.815 1436.52 141.715 1434.99 142.01C1434.69 142.742 1434.51 143.497 1434.47 144.267ZM1433.89 162.779C1435.19 162.785 1436.4 162.479 1437.51 161.939C1436.87 161.544 1436.28 161.05 1435.77 160.443C1433.54 161.162 1430.91 160.565 1429 159.353C1427.32 158.285 1425.88 156.884 1424.22 155.793C1423.79 156.332 1423.36 156.866 1422.91 157.384C1424.02 158.083 1425.05 158.965 1426.07 159.765C1426.67 160.227 1427.27 160.676 1427.9 161.079C1429.76 162.261 1431.67 162.887 1433.89 162.779ZM1439.86 160.296C1442.18 158.108 1443.62 154.799 1443.71 151.716C1443.76 150.177 1443.52 148.551 1442.97 147.068C1442.58 147.837 1442.07 148.524 1441.44 149.1C1441.62 149.958 1441.69 150.834 1441.67 151.653C1441.59 154.321 1440.22 157.381 1438.03 159.18C1438.57 159.686 1439.19 160.046 1439.86 160.296ZM1428.83 158.957C1429.01 158.709 1429.19 158.455 1429.37 158.198C1430.4 156.658 1431.86 155.436 1433.62 154.841C1435.11 154.34 1436.75 154.318 1438.21 154.919C1438.95 155.223 1439.59 155.666 1440.13 156.226C1440.48 155.586 1440.77 154.91 1440.98 154.227C1440.39 153.733 1439.72 153.328 1438.99 153.027C1437.07 152.239 1434.92 152.245 1432.97 152.902C1430.77 153.642 1428.95 155.143 1427.67 157.06C1427.52 157.288 1427.35 157.514 1427.18 157.736C1427.72 158.159 1428.26 158.577 1428.83 158.957ZM1441.56 158.68C1441.8 159.421 1441.93 160.199 1441.97 160.98C1440.1 160.825 1438.32 160.181 1437.19 158.553C1436.43 157.457 1436.08 156.098 1435.98 154.704C1435.29 154.692 1434.61 154.79 1433.95 154.984C1434.2 157.922 1435.38 160.38 1437.71 161.787C1439.64 162.953 1441.79 163.068 1443.97 163.061C1444.06 160.761 1443.98 158.545 1442.82 156.467C1442.48 157.243 1442.05 157.989 1441.56 158.681L1441.56 158.68ZM1436.04 152.187C1436.09 151.748 1436.15 151.32 1436.23 150.911C1436.5 149.426 1436.95 147.94 1437.56 146.557C1437.83 145.95 1438.13 145.359 1438.44 144.777C1438.33 144.705 1438.2 144.637 1438.08 144.575C1437.55 144.311 1437 144.181 1436.45 144.161C1436.18 144.677 1435.92 145.201 1435.69 145.736C1435.02 147.263 1434.52 148.9 1434.22 150.54C1434.1 151.164 1434.02 151.781 1433.97 152.385C1434.65 152.241 1435.34 152.173 1436.04 152.186L1436.04 152.187ZM1439.69 142.587C1440.52 141.13 1441.31 139.645 1441.76 138.025C1442.38 135.837 1442.23 134.275 1441.34 132.287C1440.09 132.875 1439.24 133.423 1438.2 134.337C1438.32 135.035 1438.8 135.607 1439.29 136.095C1439.56 135.851 1439.84 135.615 1440.11 135.389C1440.1 136.083 1439.99 136.773 1439.8 137.473C1439.38 138.965 1438.59 140.401 1437.8 141.786C1438.25 141.9 1438.7 142.076 1439.19 142.319C1439.36 142.402 1439.53 142.492 1439.69 142.587ZM1434.87 147.157C1434.06 145.852 1434.11 143.995 1434.53 142.609C1435.04 140.89 1436.17 139.279 1437.49 137.852C1437 137.36 1436.56 136.829 1436.23 136.215C1434.31 138.225 1432.73 140.568 1432.3 143.153C1431.92 145.405 1432.35 147.943 1434.2 149.45C1434.39 148.675 1434.61 147.908 1434.87 147.157ZM1439.71 129.986C1439.84 129.839 1440 129.691 1440.13 129.546C1440.42 129.231 1440.68 128.895 1440.9 128.531C1441.59 127.383 1442.37 126.081 1442.38 124.747C1442.38 123.869 1442.32 87.9456 1441.78 87.9999C1441.3 88.0478 1440.34 123.97 1440.33 124.738C1440.33 125.715 1439.64 126.681 1439.12 127.517C1438.96 127.768 1438.78 127.997 1438.58 128.215C1438.42 128.39 1438.22 128.565 1438.08 128.755C1436.59 130.762 1435.12 133.381 1436.32 135.889C1436.92 137.129 1437.99 138.029 1439.02 138.939C1439.31 138.257 1439.56 137.55 1439.71 136.821C1439.6 136.723 1439.5 136.624 1439.39 136.524C1438.93 136.089 1438.44 135.58 1438.17 135.004C1437.89 134.416 1437.87 133.825 1438.01 133.195C1438.27 132.074 1439.04 130.898 1439.71 129.986Z" fill="url(#paint3_linear_162_3023)"/>
<defs>
<filter id="filter0_b_162_3023" x="-38" y="-38" width="1520" height="240" filterUnits="userSpaceOnUse" color-interpolation-filters="sRGB">
<feFlood flood-opacity="0" result="BackgroundImageFix"/>
<feGaussianBlur in="BackgroundImage" stdDeviation="20"/>
<feComposite in2="SourceAlpha" operator="in" result="effect1_backgroundBlur_162_3023"/>
<feBlend mode="normal" in="SourceGraphic" in2="effect1_backgroundBlur_162_3023" result="shape"/>
</filter>
<linearGradient id="paint0_linear_162_3023" x1="2" y1="2" x2="8.05553" y2="86.1221" gradientUnits="userSpaceOnUse">
<stop stop-color="#D39E5E"/>
<stop offset="1" stop-color="#D29C5E" stop-opacity="0"/>
</linearGradient>
<linearGradient id="paint1_linear_162_3023" x1="937.357" y1="109.896" x2="947.65" y2="213.077" gradientUnits="userSpaceOnUse">
<stop stop-color="#E0B263" stop-opacity="0"/>
<stop offset="1" stop-color="#E0B263"/>
</linearGradient>
<linearGradient id="paint2_linear_162_3023" x1="12.4" y1="5.31687" x2="-1.13611" y2="50.6015" gradientUnits="userSpaceOnUse">
<stop stop-color="#FFEDCE"/>
<stop offset="0.41" stop-color="#F0C868"/>
<stop offset="0.75" stop-color="#D09A5D"/>
<stop offset="0.96" stop-color="#E5B864"/>
</linearGradient>
<linearGradient id="paint3_linear_162_3023" x1="1431.6" y1="157.745" x2="1445.14" y2="112.46" gradientUnits="userSpaceOnUse">
<stop stop-color="#FFEDCE"/>
<stop offset="0.41" stop-color="#F0C868"/>
<stop offset="0.75" stop-color="#D09A5D"/>
<stop offset="0.96" stop-color="#E5B864"/>
</linearGradient>
</defs>
</svg>
