<svg width="1920" height="2215" viewBox="0 0 1920 2215" fill="none" xmlns="http://www.w3.org/2000/svg">
<path d="M1919.83 98.8158C1919.83 98.8158 1914.41 103.049 1900.87 106.706C1887.32 110.364 1861.35 104.268 1822.98 90.9593C1784.61 77.6168 1773.3 76.4316 1743.97 71.5551C1714.61 66.7125 1698.83 82.4594 1664.97 101.864C1621.49 126.754 1547.8 153.811 1512.58 162.447C1496.36 166.409 1476.95 174.265 1458.57 182.901C1428.16 157.401 1403.74 137.15 1396.32 132.443C1373.74 118.051 1361.34 124.756 1345.53 124.756C1329.71 124.756 1303.77 153.54 1285.69 161.228C1267.64 168.915 1261.98 165.054 1248.44 176.568C1234.89 188.082 1109.6 245.651 1090.39 256.217C1071.19 266.782 1062.19 266.782 1045.25 274.436C1042.48 275.689 1037.9 277.687 1032.28 280.125C1009.9 277.246 972.953 271.557 961.575 268.713C947.893 265.292 930.386 267.189 916.84 259.908C903.294 252.627 858.695 257.504 847.689 255.675C836.683 253.846 814.807 247.48 795.775 251.306C785.108 253.474 741.83 239.522 734.278 243.755C709.151 242.908 679.35 233.697 660.319 230.886C640 227.839 594.283 209.078 582.431 204.235C570.578 199.393 550.836 190.893 534.445 188.082C518.089 185.271 472.914 166.646 462.755 161.194C452.595 155.742 437.932 142.399 432.853 143.009C427.773 143.618 423.269 143.009 414.803 141.18C406.337 139.351 408.03 134.509 403.526 136.947C399.022 139.385 397.329 142.399 386.594 138.776C375.859 135.152 339.76 104.234 331.836 101.83C323.945 99.3915 303.627 107.891 294.585 114.089C285.543 120.286 235.526 149.68 235.526 149.68C228.956 145.921 223.504 143.11 220.084 141.79C204.269 135.728 186.219 111.481 161.397 96.9533C136.574 82.4255 128.65 92.1107 117.373 80.3937C106.097 68.6766 80.1228 42.398 58.6867 39.418C37.2506 36.4379 0 0 0 0V2214.5H1919.83V98.8158Z" fill="#292D39"/>
</svg>
