<svg width="40" height="40" viewBox="0 0 40 40" fill="none" xmlns="http://www.w3.org/2000/svg">
<g clip-path="url(#clip0_162_3235)">
<path d="M39.9186 4.2112C39.8864 4.06358 39.8157 3.92714 39.7136 3.8158C39.6115 3.70446 39.4816 3.62221 39.3373 3.57745C38.8121 3.47386 38.2687 3.51271 37.7636 3.68995C37.7636 3.68995 2.71733 16.2862 0.71608 17.6812C0.28358 17.9812 0.13983 18.155 0.0685799 18.3612C-0.27767 19.3537 0.79983 19.7912 0.79983 19.7912L9.83233 22.735C9.9849 22.7613 10.1415 22.7519 10.2898 22.7075C12.3448 21.41 30.9636 9.65245 32.0398 9.25745C32.2086 9.2062 32.3336 9.25745 32.3061 9.38245C31.8661 10.89 15.7873 25.1787 15.6986 25.2662C15.6554 25.3016 15.6215 25.3469 15.5998 25.3983C15.578 25.4497 15.569 25.5056 15.5736 25.5612L14.7336 34.375C14.7336 34.375 14.3811 37.125 17.1261 34.375C19.0723 32.4262 20.9398 30.8137 21.8761 30.03C24.9823 32.1737 28.3248 34.545 29.7661 35.78C30.0079 36.0148 30.2946 36.1986 30.609 36.3201C30.9234 36.4417 31.2592 36.4986 31.5961 36.4874C32.9711 36.435 33.3461 34.9312 33.3461 34.9312C33.3461 34.9312 39.7311 9.23745 39.9461 5.7937C39.9661 5.4562 39.9948 5.23995 39.9973 5.0087C40.0087 4.74049 39.9822 4.47201 39.9186 4.2112Z" fill="url(#paint0_linear_162_3235)"/>
</g>
<defs>
<linearGradient id="paint0_linear_162_3235" x1="6.19998" y1="5.85599" x2="0.877843" y2="26.1252" gradientUnits="userSpaceOnUse">
<stop stop-color="#FFEDCE"/>
<stop offset="0.41" stop-color="#F0C868"/>
<stop offset="0.75" stop-color="#D09A5D"/>
<stop offset="0.96" stop-color="#E5B864"/>
</linearGradient>
<clipPath id="clip0_162_3235">
<rect width="40" height="40" fill="white"/>
</clipPath>
</defs>
</svg>
