<svg width="1920" height="1285" viewBox="0 0 1920 1285" fill="none" xmlns="http://www.w3.org/2000/svg">
<path d="M0 0L10.3493 11.3326C10.3493 11.3326 19.202 21.9985 31.0146 19.9986C42.8271 17.9988 37.0142 26.3316 47.0135 21.3319C57.0128 16.3322 53.813 17.9988 67.6787 13.9991C81.5445 9.99932 92.0104 18.9987 105.01 17.9988C118.009 16.9988 113.676 29.998 129.675 25.9982C145.673 21.9985 154.34 37.3308 170.338 37.3308C186.337 37.3308 202.823 45.3303 213.669 45.3303C224.515 45.3303 243.663 57.6628 261.666 56.6628C279.668 55.6629 284.484 72.3284 298.33 69.3286C312.176 66.3288 307.326 72.995 324.328 69.9953C341.33 66.9955 345.657 77.3281 367.658 75.3282C389.66 73.3284 393.153 81.9944 412.322 83.9943C431.491 85.9942 434.987 93.327 450.986 97.3267C466.985 101.326 464.982 100.327 490.983 107.326C516.985 114.326 511.312 125.658 536.314 124.658C561.315 123.658 554.976 128.658 574.978 130.658C594.98 132.658 576.614 144.64 615.748 138.641C654.882 132.641 651.269 132.641 677.077 132.641C702.886 132.641 682.884 134.641 719.885 134.641C756.885 134.641 761.885 136.641 784.887 133.641C807.889 130.641 798.163 131.641 823.524 125.641C848.889 119.642 860.555 114.642 884.723 111.642C908.892 108.643 925.294 106.643 949.092 105.643C972.894 104.643 969.891 109.643 998.892 103.643C1027.89 97.6434 1017.3 97.6434 1052.1 95.6435C1086.89 93.6436 1097.19 94.6436 1118.54 95.6435C1139.9 96.6434 1142.19 96.6434 1162.54 98.6433C1182.9 100.643 1191.65 99.6432 1216.77 95.6435C1241.9 91.6438 1238.9 90.6438 1261.9 87.644C1284.9 84.6442 1300.78 80.6445 1319.34 76.6448C1337.9 72.6451 1336.31 67.9154 1359.11 69.2786C1381.9 70.6452 1430.9 92.6437 1439.91 94.6436C1448.91 96.6434 1457.93 97.6434 1477.42 104.643C1496.91 111.642 1491.81 110.339 1512.91 115.842C1534.01 121.345 1543.83 122.055 1573.86 121.862C1603.9 121.668 1611.46 121.042 1633.19 115.842C1654.91 110.646 1648.91 111.646 1672.92 106.643C1696.92 101.64 1703.58 97.6434 1730.75 93.6436C1757.92 89.6439 1756.92 87.644 1787.92 86.6441C1818.92 85.6442 1828.73 86.6441 1844.33 82.6444C1859.92 78.6447 1879.15 73.645 1888.54 74.6449C1897.92 75.6449 1919.89 77.6447 1919.89 77.6447V1285H0.0266649L0 0.00667273V0Z" fill="#1F2128"/>
</svg>
