<svg width="1920" height="1319" viewBox="0 0 1920 1319" fill="none" xmlns="http://www.w3.org/2000/svg">
<path d="M115.728 1025.84C291.825 1003.78 455.892 931.94 614.612 862.103C702.828 823.341 794.719 783.244 884.939 753.17C1043.33 700.709 1172.31 678.989 1292.27 684.001C1418.24 689.014 1537.87 725.102 1657.49 794.605C1732.01 837.71 1805.19 881.483 1876.02 923.92C1931.16 956.667 1985.96 989.413 2040.76 1021.49C2040.76 1021.49 2040.76 1021.49 2040.76 1021.83C2040.76 1022.16 2040.76 1022.16 2040.76 1022.83C1985.63 990.75 1930.49 958.003 1874.69 924.589C1804.18 882.152 1731 838.712 1656.49 795.607C1425.26 661.613 1202.05 649.918 885.607 754.507C794.719 784.58 703.496 824.678 614.947 863.439C456.226 932.942 291.824 1005.12 115.394 1027.17C73.9594 1032.52 33.5275 1033.85 -6.23621 1032.85C-6.23621 1032.52 -6.23621 1032.18 -6.23621 1031.85C34.1958 1032.18 74.6278 1030.85 115.728 1025.84Z" fill="#DEAD62" fill-opacity="0.1"/>
<path d="M99.019 1022.16C266.762 1001.11 419.802 940.963 574.513 875.804L593.894 867.45C684.114 829.691 777.341 790.262 870.569 760.857C996.209 721.093 1106.14 699.373 1207.06 694.027C1364.78 685.673 1504.45 719.088 1647.13 797.279C1739.02 848.069 1827.57 898.86 1911.11 946.309C1954.88 971.036 1998.32 995.429 2041.76 1019.49C2041.43 1019.82 2041.43 1020.16 2041.43 1020.82C1997.99 996.432 1954.55 972.039 1910.44 946.643C1827.24 898.86 1738.69 848.404 1646.13 797.947C1504.45 719.088 1364.78 686.675 1207.39 694.361C1106.81 699.707 997.211 721.093 871.906 761.191C778.678 790.262 685.45 829.357 595.23 867.784L575.515 875.804C420.47 940.963 267.43 1001.11 99.3531 1022.16C63.9333 1026.5 28.8477 1028.18 -5.5697 1028.18C-5.5697 1027.84 -5.5697 1027.51 -5.5697 1027.17C28.5135 1028.51 63.2651 1026.5 99.019 1022.16Z" fill="#DEAD62" fill-opacity="0.1"/>
<path d="M82.3141 1018.49C256.406 996.432 413.456 937.287 558.81 878.811L567.498 875.47C661.394 837.711 758.631 798.615 856.203 769.21C982.511 731.452 1093.11 710.4 1194.03 704.72C1352.75 696.366 1493.09 727.442 1635.77 801.957C1719.98 846.065 1806.86 892.177 1900.42 943.302C1946.53 968.363 1993.31 993.424 2040.76 1018.82C2040.76 1019.15 2040.76 1019.49 2041.43 1020.16C1992.98 994.427 1946.2 969.366 1899.75 944.304C1805.85 892.845 1718.98 847.067 1635.1 802.625C1492.09 728.444 1352.08 697.703 1194.36 705.722C1093.45 711.068 982.511 732.454 856.537 770.213C759.3 799.952 662.063 838.713 568.501 876.472L559.813 879.814C414.124 938.624 257.074 997.768 82.3141 1019.82C52.2406 1023.5 22.8356 1025.5 -6.23535 1026.17C-6.23535 1025.84 -6.23547 1025.5 -6.5697 1025.17C22.8354 1024.17 52.2406 1022.16 82.3141 1018.49Z" fill="#DEAD62" fill-opacity="0.1"/>
<path d="M65.6066 1014.81C238.362 993.09 397.417 937.955 543.44 881.818C640.343 844.728 739.919 806.635 841.166 777.23C967.809 741.142 1079.41 720.425 1181.33 714.744C1341.05 706.056 1482.06 734.793 1624.75 805.298C1723.32 854.084 1810.53 898.192 1890.39 939.626C1941.52 966.358 1991.98 991.754 2041.43 1016.48C2041.43 1016.48 2041.43 1017.15 2041.1 1017.48C1991.31 992.756 1941.18 967.026 1889.39 940.629C1809.53 899.194 1721.98 855.087 1623.74 806.301C1481.06 736.129 1341.05 707.393 1181.33 716.081C1079.41 721.761 968.477 742.144 842.169 778.566C740.922 807.637 640.677 846.064 544.108 883.155C397.75 939.626 238.696 994.426 65.6066 1016.15C40.8796 1019.15 16.8207 1021.16 -7.23804 1022.16C-7.23804 1021.83 -7.23804 1021.49 -7.57202 1021.16C16.8208 1019.82 40.8796 1017.82 65.6066 1014.81Z" fill="#DEAD62" fill-opacity="0.1"/>
<path d="M48.897 1010.8C229.337 988.078 392.402 934.28 527.732 884.492C613.943 853.082 721.204 813.986 826.461 784.915C953.104 750.498 1065.04 730.783 1168.3 724.768C1330.02 715.412 1471.7 742.144 1613.38 808.64C1698.92 848.738 1790.15 891.843 1880.37 935.95C1934.5 962.682 1988.3 988.746 2041.76 1013.14C2041.76 1013.14 2041.76 1014.14 2041.43 1014.48C1988.3 989.414 1934.5 963.351 1879.36 936.619C1789.48 892.177 1697.92 849.072 1612.71 809.308C1470.7 743.147 1329.36 716.415 1168.3 725.437C1065.38 731.785 953.438 751.5 826.461 785.918C721.539 814.654 614.277 853.75 528.066 884.826C392.736 934.614 230.006 988.746 48.5627 1011.47C29.5162 1013.81 10.4697 1015.48 -8.24268 1016.48C-8.24268 1016.15 -8.24243 1015.81 -8.57666 1015.48C10.804 1014.81 29.8506 1013.47 48.897 1010.8Z" fill="#DEAD62" fill-opacity="0.1"/>
<path d="M32.1891 1007.46C222.988 983.4 389.394 930.939 512.695 887.834C612.606 853.082 710.846 819.667 812.093 793.604C939.069 760.857 1051.34 741.811 1155.6 735.128C1319 725.771 1461.01 750.164 1602.69 812.65C1690.9 851.411 1782.46 891.509 1870.68 932.61C1925.81 958.005 1982.62 984.069 2042.09 1010.13C2042.43 1010.47 2042.09 1010.8 2042.09 1011.47C1982.62 985.071 1925.14 959.342 1870.34 933.612C1782.13 892.512 1690.9 852.414 1602.02 813.319C1460.34 751.167 1318.66 726.44 1155.93 736.13C1051.68 742.479 939.404 761.525 812.427 794.606C711.514 820.67 613.274 854.085 513.029 888.502C389.394 931.607 222.988 984.403 32.1891 1008.46C18.489 1010.13 4.7887 1011.13 -8.91138 1012.14C-8.91138 1011.8 -8.91138 1011.47 -8.91138 1011.13C4.7887 1010.13 18.1549 1009.13 32.1891 1007.46Z" fill="#DEAD62" fill-opacity="0.1"/>
<path d="M15.4822 1003.78C168.522 984.736 321.563 948.648 496.991 890.84C591.889 859.43 693.804 827.017 797.057 801.956C924.367 770.546 1037.31 752.502 1142.9 745.819C1307.64 735.461 1449.98 758.183 1591.33 816.325L1620.07 828.02C1703.27 862.437 1782.13 894.516 1860.65 929.267C1923.14 956.333 1983.62 982.063 2042.43 1006.12C2042.43 1006.12 2042.1 1006.79 2042.43 1007.46C1982.95 983.399 1922.47 957.67 1859.98 929.935C1781.79 895.518 1702.93 863.106 1619.73 828.688L1590.99 816.993C1449.32 758.851 1307.64 736.463 1143.23 746.488C1037.98 752.837 925.036 771.215 798.059 802.625C694.807 827.686 592.557 860.098 497.993 891.508C322.565 949.316 169.191 985.404 16.1504 1004.78C7.79663 1005.79 -0.557129 1006.46 -8.91089 1007.12C-8.91089 1006.79 -8.91064 1006.46 -9.24487 1006.12C-1.55945 1005.12 6.79431 1004.78 15.4822 1003.78Z" fill="#DEAD62" fill-opacity="0.1"/>
<path d="M-1.55896 1000.11C160.169 979.724 313.878 945.975 481.286 893.847C569.167 866.113 673.756 835.037 782.355 809.976C909.665 780.571 1023.28 762.861 1129.87 756.178C1296.28 745.485 1439.63 766.202 1580.3 820.335C1596.68 826.349 1612.38 832.364 1627.75 838.379C1704.94 868.118 1777.78 895.852 1850.29 925.926C1915.79 953.326 1979.94 978.721 2042.76 1002.11C2042.76 1002.78 2042.76 1003.11 2042.43 1003.45C1979.28 980.058 1915.45 954.328 1849.29 926.928C1776.78 896.855 1703.94 869.12 1626.41 839.715C1610.71 833.032 1595.34 827.352 1579.3 821.337C1438.96 767.205 1295.61 747.156 1129.54 757.515C1022.94 764.532 909.665 782.242 782.355 811.312C674.09 836.374 569.502 867.784 481.62 895.184C313.878 947.645 160.503 981.394 -1.55896 1001.78C-4.90051 1002.11 -7.90747 1002.45 -10.9148 1002.78C-10.9148 1002.45 -10.9148 1002.11 -11.249 1001.78C-7.57324 1000.44 -4.56628 1000.44 -1.55896 1000.11Z" fill="#DEAD62" fill-opacity="0.1"/>
<path d="M466.25 896.855C585.876 861.436 678.769 837.377 767.987 817.996C894.963 790.596 1009.24 773.554 1117.17 766.203C1285.58 755.51 1429.27 773.888 1569.61 824.011C1589.66 831.028 1609.37 838.045 1629.42 845.062C1702.6 871.126 1771.77 895.519 1840.27 922.251C1908.77 949.317 1975.94 973.71 2043.1 997.1C2042.76 997.434 2043.1 997.768 2043.43 998.103C1975.6 975.046 1908.44 950.319 1839.6 923.253C1770.77 896.187 1701.93 871.794 1628.42 846.065C1608.71 838.713 1589.32 832.03 1568.61 824.679C1428.93 774.557 1285.25 756.513 1116.84 767.205C1008.91 774.557 894.963 791.264 767.987 818.998C678.769 838.379 585.541 862.772 466.25 897.523C311.873 942.968 155.492 975.38 -11.917 996.432C-11.917 996.097 -11.917 995.763 -12.2512 995.429C155.492 974.378 311.873 941.965 466.25 896.855Z" fill="#DEAD62" fill-opacity="0.1"/>
<path d="M450.545 899.528C564.824 868.118 660.725 844.728 752.95 826.016C879.927 800.286 994.874 783.913 1104.14 776.227C1274.89 764.866 1418.91 781.24 1558.58 827.018C1581.31 834.704 1604.7 842.723 1627.08 849.74C1697.59 872.797 1764.08 894.516 1830.25 918.575C1901.42 944.305 1972.26 968.697 2043.77 991.42C2043.77 991.42 2043.77 991.754 2043.77 992.088C1972.26 969.366 1901.09 945.307 1829.58 919.243C1763.75 895.185 1696.92 873.799 1626.75 850.409C1604.36 843.057 1581.31 835.372 1557.91 828.021C1418.91 781.908 1275.22 766.203 1104.47 777.23C995.542 784.915 880.929 800.955 753.953 827.018C661.728 845.73 565.827 869.121 451.548 900.531C310.871 939.292 162.843 967.695 -11.9165 990.751C-11.9165 990.417 -11.9167 990.083 -12.251 989.749C161.841 967.027 309.869 938.29 450.545 899.528Z" fill="#DEAD62" fill-opacity="0.1"/>
<path d="M434.838 902.536C543.77 874.468 642.678 852.08 738.245 834.036C866.224 809.643 981.839 794.272 1091.11 786.587C1263.53 774.558 1408.21 788.258 1547.22 831.029C1572.61 838.714 1598.01 846.065 1623.07 853.417C1691.57 874.134 1756.06 893.18 1820.22 914.9C1894.73 940.629 1968.25 963.017 2044.43 985.071C2044.43 985.405 2044.43 985.74 2044.1 986.074C1967.91 964.354 1894.4 940.964 1819.88 915.902C1755.39 894.517 1690.9 874.802 1622.74 854.753C1597.68 847.068 1572.28 839.717 1547.22 831.697C1408.55 789.928 1263.86 775.894 1091.77 787.589C982.174 795.275 866.892 810.646 738.913 835.038C643.681 853.082 544.773 875.47 435.84 903.539C308.864 935.951 172.531 961.012 -13.5901 985.071C-13.5901 984.737 -13.9243 984.403 -13.9243 984.069C171.528 960.01 308.195 935.283 434.838 902.536Z" fill="#DEAD62" fill-opacity="0.1"/>
<path d="M419.467 905.543C522.719 881.15 624.635 859.764 723.543 842.389C851.522 819.667 967.471 805.298 1078.74 796.945C1255.84 783.913 1396.85 795.608 1536.19 834.703C1563.59 842.055 1590.99 849.74 1617.73 856.757C1684.22 875.136 1747.71 891.843 1810.19 911.558C1889.72 936.619 1967.24 958.673 2045.1 978.387C2045.1 978.722 2045.1 979.056 2045.1 979.056C1967.58 959.341 1890.06 937.621 1809.86 912.56C1747.71 892.845 1683.89 875.47 1617.06 857.425C1590.99 850.408 1563.26 843.057 1536.19 835.372C1396.85 796.61 1255.84 785.249 1079.08 797.947C968.14 805.967 852.19 820.669 724.545 843.057C625.971 860.433 523.722 881.818 420.469 906.545C283.469 939.292 141.121 959.675 -14.9265 979.724C-14.9265 979.39 -15.2605 979.056 -15.2605 978.722C140.119 958.673 282.466 938.289 419.467 905.543Z" fill="#DEAD62" fill-opacity="0.1"/>
<path d="M-16.26 973.041C138.785 953.995 272.779 937.622 404.099 908.551C502.005 886.831 604.923 867.116 708.843 850.075C836.154 829.357 953.106 815.323 1065.38 807.303C1245.15 793.938 1386.83 803.628 1525.17 838.38C1553.91 845.397 1582.98 852.414 1610.71 859.431C1676.54 875.47 1738.36 890.507 1799.51 908.217C1882.37 931.941 1963.57 952.658 2045.1 970.702C2045.1 971.037 2045.1 971.705 2045.44 972.039C1963.57 953.661 1882.04 933.278 1799.51 909.553C1738.02 891.843 1676.2 876.807 1610.38 860.433C1582.31 853.75 1553.91 846.733 1524.83 839.382C1386.5 804.965 1245.15 795.274 1066.05 808.306C953.44 816.66 836.488 831.028 709.511 851.411C605.591 868.453 503.007 888.168 404.768 909.553C273.447 938.624 139.453 954.997 -15.926 974.044C-16.2603 974.044 -16.594 974.044 -16.9282 974.044C-16.9282 973.71 -17.2627 973.376 -17.2627 973.041C-17.2627 973.041 -16.5942 973.041 -16.26 973.041Z" fill="#DEAD62" fill-opacity="0.1"/>
<path d="M40.8774 961.012C162.842 946.978 278.457 933.612 388.392 911.559C482.288 892.512 582.199 875.136 694.139 858.429C820.781 839.382 938.067 826.351 1052.68 817.329C1235.46 803.628 1377.47 810.98 1514.14 841.722C1544.21 848.405 1574.29 855.087 1603.69 861.436C1668.52 875.136 1729.33 888.502 1789.81 904.542C1876.02 927.264 1960.56 945.976 2045.77 962.683C2045.77 963.018 2045.77 963.352 2045.44 963.686C1960.23 947.313 1875.69 928.266 1788.81 905.544C1728.66 889.505 1667.51 876.473 1603.36 862.439C1573.95 856.09 1543.88 849.407 1513.47 842.724C1377.81 811.982 1235.46 804.631 1053.01 817.997C938.402 827.019 821.449 840.051 694.807 859.097C583.201 876.139 483.291 893.18 389.395 912.227C279.126 934.615 163.844 947.981 41.5458 962.015C21.8311 964.02 1.78198 966.359 -18.2668 968.698C-18.2668 968.364 -18.6011 968.03 -18.6011 967.695C1.11377 965.691 21.1627 963.352 40.8774 961.012Z" fill="#DEAD62" fill-opacity="0.1"/>
<path d="M72.2882 952.992C177.879 942.299 277.122 931.94 373.022 914.231C461.572 897.857 559.143 882.486 679.437 866.113C804.408 849.072 922.363 836.708 1039.98 827.018C1226.44 812.984 1368.45 817.996 1503.11 845.062C1534.52 851.077 1565.93 857.091 1596.34 862.772C1660.16 875.135 1720.64 886.162 1779.79 900.531C1870.01 921.916 1957.22 938.958 2046.77 953.66C2046.77 953.995 2046.77 954.329 2046.77 954.663C1957.22 939.96 1870.01 922.919 1779.46 901.533C1720.31 887.499 1659.83 876.138 1596.01 863.774C1565.6 858.094 1534.19 852.079 1502.78 845.73C1369.12 818.998 1226.44 813.652 1040.32 828.02C923.031 837.042 804.743 850.074 680.105 866.782C559.477 883.155 462.24 898.526 373.69 914.899C277.79 932.609 178.213 942.967 72.9564 953.66C42.5488 956.668 11.473 960.009 -19.937 963.35C-19.937 963.016 -20.271 962.682 -20.271 962.348C10.8048 959.341 41.8807 956.333 72.2882 952.992Z" fill="#DEAD62" fill-opacity="0.1"/>
<path d="M89.6652 947.647C183.561 939.293 271.776 931.607 357.319 917.573C461.239 900.198 570.84 886.163 664.736 874.802C786.7 859.766 905.323 848.07 1026.95 838.046C1219.42 822.675 1358.43 826.017 1491.75 849.407C1524.5 855.088 1556.58 860.1 1587.99 865.446C1651.48 875.471 1710.96 885.161 1769.77 897.859C1862.66 917.908 1954.22 932.61 2046.78 945.308C2047.11 945.642 2046.78 945.976 2047.11 946.31C1954.22 934.281 1862.66 919.244 1769.43 899.195C1710.62 886.497 1651.14 877.141 1588.32 866.783C1556.58 861.771 1524.5 856.424 1492.09 850.744C1358.43 827.687 1220.09 824.012 1027.29 839.717C905.657 849.073 787.368 861.102 665.07 876.139C571.842 887.5 462.241 901.534 358.321 918.91C272.779 933.278 184.229 940.964 90.3336 949.317C53.9114 952.659 16.4867 956 -21.2722 959.676C-21.2722 959.342 -21.6062 959.008 -21.6062 958.674C15.8185 954.33 53.2429 950.988 89.6652 947.647Z" fill="#DEAD62" fill-opacity="0.1"/>
<path d="M98.6837 943.971C183.557 937.622 264.087 931.942 341.944 920.247C437.177 906.212 537.755 894.851 650.029 882.822C765.645 870.124 884.602 858.429 1014.25 848.07C1160.61 836.041 1317.99 828.69 1480.72 853.083C1514.14 857.761 1547.55 862.439 1579.97 866.783C1642.45 874.802 1701.6 883.156 1759.4 893.849C1856.98 912.227 1951.21 924.925 2047.77 934.949C2047.44 935.283 2047.77 935.617 2047.77 935.952C1950.87 925.927 1856.31 913.564 1758.74 895.185C1700.93 884.159 1641.78 876.473 1579.3 868.119C1546.89 863.775 1514.14 858.763 1480.39 854.085C1317.32 829.692 1159.94 837.712 1014.25 849.407C884.936 860.1 765.645 871.127 650.029 883.824C538.09 896.188 437.177 907.549 342.278 921.583C264.088 933.278 183.557 938.959 98.6837 945.308C59.2542 947.981 18.4879 951.322 -23.2808 954.998C-23.2808 954.664 -23.6147 954.33 -23.6147 953.995C17.8197 949.986 58.9199 946.978 98.6837 943.971Z" fill="#DEAD62" fill-opacity="0.1"/>
<path d="M101.693 941.297C179.884 936.953 254.065 932.609 326.242 923.253C412.786 912.226 502.672 903.538 597.905 894.182C610.602 892.845 622.966 891.843 634.995 890.506C764.311 877.809 891.621 867.45 1001.22 858.094C1174.31 843.725 1320.67 838.045 1469.03 856.089C1503.45 860.433 1538.2 864.109 1570.95 867.784C1633.1 874.801 1691.91 880.816 1749.05 890.506C1850.29 907.214 1947.87 917.238 2048.11 924.255C2048.11 924.59 2047.78 924.924 2048.11 924.924C1947.87 918.241 1849.96 907.882 1748.38 891.175C1690.91 881.819 1632.76 875.47 1570.61 868.453C1537.53 865.111 1502.78 861.101 1468.7 857.091C1320.33 838.713 1174.65 844.394 1000.55 858.762C891.287 867.784 763.642 878.811 634.661 891.175C621.963 892.511 609.6 893.514 597.57 894.85C502.338 904.206 412.452 912.56 326.242 923.921C253.731 933.277 179.884 937.287 101.359 941.965C60.2589 944.304 18.1561 946.977 -24.949 949.985C-24.949 949.651 -25.2832 949.316 -25.2832 948.982C18.1563 946.309 60.5931 943.636 101.693 941.297Z" fill="#DEAD62" fill-opacity="0.1"/>
<path d="M101.024 939.294C174.536 936.286 243.371 933.947 310.869 926.262C386.052 917.908 463.575 911.559 545.776 904.876C570.169 902.872 595.23 900.867 620.625 898.862C678.767 893.85 736.575 889.506 793.046 884.828C860.21 879.481 924.366 874.135 988.523 868.788C1139.89 855.757 1300.95 844.73 1459 860.101C1494.09 863.776 1529.51 866.45 1562.93 869.457C1624.41 874.135 1682.88 879.147 1739.36 887.167C1844.95 901.869 1945.53 909.221 2049.45 913.565C2049.45 913.899 2049.45 914.567 2049.11 914.901C1945.19 910.223 1844.61 903.206 1739.02 888.169C1682.22 880.484 1624.41 875.472 1562.93 870.459C1529.18 867.786 1494.42 865.113 1458.67 861.771C1300.62 846.066 1140.23 857.428 988.857 870.125C924.367 875.472 860.878 880.818 793.046 886.498C737.243 890.842 679.435 895.52 620.959 900.199C595.898 902.538 570.503 904.542 546.444 906.547C464.243 913.23 387.055 919.579 311.537 927.933C244.039 935.618 174.87 938.291 101.692 940.964C60.2573 942.635 17.8206 944.64 -25.6189 946.979C-25.6189 946.645 -25.9529 946.311 -25.9529 945.977C16.8182 942.969 59.5892 940.964 101.024 939.294Z" fill="#DEAD62" fill-opacity="0.1"/>
<path d="M97.6827 937.956C166.852 936.619 232.011 935.283 295.499 929.268C361.995 922.919 430.495 918.575 503.005 913.897C536.42 911.558 570.838 909.553 605.923 906.88L628.979 904.875C748.939 896.521 862.215 888.502 975.492 878.812C1151.92 863.107 1298.61 852.414 1447.64 863.775C1483.73 866.448 1519.49 868.119 1554.57 870.124C1615.39 873.465 1672.53 876.807 1729 883.49C1838.6 896.187 1942.18 900.531 2049.78 901.868C2050.11 902.536 2050.11 902.536 2050.11 902.87C1941.85 901.868 1838.26 897.524 1728.66 884.492C1672.19 877.809 1615.39 874.802 1553.9 871.46C1519.15 869.455 1483.73 867.116 1447.64 864.443C1298.61 853.75 1151.92 864.443 975.826 879.48C862.215 889.17 748.939 897.524 628.645 905.877L605.589 907.548C570.838 909.887 536.42 912.226 503.34 914.565C430.495 919.244 361.995 923.922 295.499 930.27C231.677 936.285 166.517 937.622 97.6827 938.958C56.9165 939.961 14.8138 941.297 -27.9573 942.968C-27.9573 942.634 -28.2915 942.3 -28.2915 941.966C14.8137 940.295 56.9165 938.958 97.6827 937.956Z" fill="#DEAD62" fill-opacity="0.1"/>
<path d="M92.6708 937.288C157.83 936.954 219.313 936.954 279.794 932.276C340.275 927.598 401.759 924.925 467.252 921.583C507.35 919.912 548.784 917.573 590.887 915.234C730.561 907.215 847.179 899.529 962.46 889.505L979.502 887.834C1138.89 873.8 1289.26 860.1 1436.28 867.785C1473.37 869.79 1510.13 870.458 1545.22 871.461C1606.37 873.132 1663.17 874.802 1718.64 879.815C1831.25 890.173 1939.85 891.176 2050.78 889.505C2050.78 889.839 2050.45 890.507 2050.78 890.841C1939.85 892.512 1831.25 891.51 1718.64 881.151C1663.17 875.805 1606.03 874.134 1545.22 872.463C1510.46 871.127 1473.37 870.459 1436.62 868.454C1289.59 861.102 1138.89 874.802 979.836 888.837L963.129 890.173C847.513 900.532 730.895 908.217 591.555 916.237C549.118 918.576 507.684 920.581 467.586 922.586C402.093 925.927 340.275 928.934 280.463 933.278C219.982 937.622 158.164 937.956 93.0049 938.291C53.2412 938.291 12.8092 938.959 -28.6252 939.961C-28.6252 939.627 -28.9595 939.293 -28.9595 938.959C12.1409 937.956 52.9071 937.288 92.6708 937.288Z" fill="#DEAD62" fill-opacity="0.1"/>
<path d="M85.6533 936.62C147.805 937.623 206.615 938.625 264.423 935.284C319.223 932.276 375.36 930.272 434.839 928.601C480.617 927.264 528.066 925.593 576.518 923.254C687.455 918.242 818.108 911.559 949.762 899.53C970.814 897.525 991.865 895.854 1012.58 893.515C1156.27 880.483 1291.93 867.786 1425.59 871.127C1463.35 872.13 1500.77 872.464 1536.86 872.464C1597.01 872.464 1653.48 872.798 1708.61 876.474C1825.23 884.827 1937.17 882.488 2051.12 876.808C2051.79 877.142 2051.12 877.476 2051.45 877.81C1936.84 883.157 1825.23 885.161 1708.61 877.476C1653.48 873.8 1597.01 873.466 1536.86 873.132C1500.44 873.132 1463.02 872.798 1425.26 872.13C1291.93 868.788 1156.6 881.152 1012.58 894.852C992.199 896.857 971.148 898.193 949.762 900.198C818.442 911.893 687.455 918.91 576.518 923.923C528.066 925.928 480.952 927.598 434.839 929.269C375.36 931.274 319.557 932.945 264.757 936.286C206.949 939.628 148.139 938.625 85.9873 937.957C48.2285 937.289 9.46716 936.954 -29.9624 937.289C-29.9624 936.954 -30.2964 936.62 -30.2964 936.286C8.79895 935.952 47.8944 935.952 85.6533 936.62Z" fill="#DEAD62" fill-opacity="0.1"/>
<path d="M77.6365 936.619C137.115 938.624 193.586 940.629 248.721 938.625C298.843 936.62 350.636 935.617 405.103 934.949C455.559 933.946 507.686 933.278 561.15 931.607C713.856 926.595 829.472 919.912 936.4 909.888C972.488 906.546 1007.57 903.205 1041.99 899.529C1170.97 886.831 1293.6 874.802 1413.56 874.802C1452.33 874.802 1490.08 873.8 1527.17 873.131C1586.99 871.461 1643.46 870.458 1697.93 872.797C1818.55 878.478 1933.5 872.129 2051.79 863.441C2051.79 863.775 2051.45 864.109 2052.12 864.444C1933.83 873.466 1818.89 879.814 1697.93 874.134C1643.46 871.461 1587.32 873.131 1527.51 874.134C1490.75 875.136 1452.66 875.804 1413.9 875.804C1293.94 875.804 1171.64 887.834 1042.66 900.532C1008.24 903.873 972.488 907.549 937.068 910.556C829.806 920.58 714.19 927.264 561.484 931.942C508.021 933.946 455.559 934.615 405.437 935.617C350.636 936.62 299.177 937.288 248.721 939.293C193.252 941.632 136.781 939.627 77.3025 937.622C41.5485 936.285 5.46045 935.617 -31.6301 935.283C-31.6301 934.949 -31.9644 934.615 -32.2986 934.28C5.46021 934.28 41.8826 935.283 77.6365 936.619Z" fill="#DEAD62" fill-opacity="0.1"/>
<path d="M68.61 936.619C126.083 939.626 180.216 942.299 233.345 941.297C279.792 940.628 327.575 940.294 378.032 940.628C432.832 940.628 488.969 940.628 547.111 939.292C696.142 936.284 815.767 930.27 924.365 919.911C973.819 915.233 1022.94 910.221 1070.05 905.209C1185.67 892.845 1295.27 881.15 1403.53 878.811C1442.96 877.809 1481.39 875.804 1519.15 874.133C1578.63 871.125 1634.77 868.452 1688.9 869.789C1813.2 872.128 1931.49 862.438 2053.45 849.406C2053.12 850.074 2053.12 850.408 2053.12 850.408C1931.16 863.106 1812.87 873.465 1688.56 870.791C1634.1 869.789 1577.96 872.128 1519.15 875.135C1481.73 876.806 1442.63 878.811 1403.2 879.479C1295.27 881.818 1185.67 893.513 1070.39 905.877C1022.94 910.889 974.154 916.236 924.7 920.914C816.435 930.938 696.142 937.287 547.445 940.294C489.303 941.631 432.832 941.631 378.7 941.297C328.244 941.297 280.795 941.297 234.014 941.965C180.55 942.968 126.418 940.294 69.2783 937.287C36.1975 935.616 2.78272 933.945 -31.3005 932.943C-31.6345 932.609 -31.6348 932.275 -31.6348 931.941C1.78003 933.277 35.5292 934.614 68.61 936.619Z" fill="#DEAD62" fill-opacity="0.1"/>
<path d="M58.923 936.618C114.392 940.628 166.519 944.304 217.644 944.304C261.083 943.97 305.191 944.972 351.971 945.975C410.113 946.977 469.926 947.98 532.078 947.645C680.106 946.309 800.4 941.297 911.003 930.27C973.489 923.921 1034.64 917.238 1094.12 910.221C1197.37 898.192 1294.94 886.83 1391.84 882.152C1431.94 880.147 1471.04 877.14 1509.13 874.467C1568.27 870.123 1624.08 866.447 1677.87 866.113C1806.52 865.445 1927.15 851.076 2053.12 834.703C2053.12 835.037 2053.12 835.371 2053.12 835.706C1927.82 852.413 1806.86 866.782 1677.87 867.116C1624.08 867.116 1568.27 871.46 1509.13 875.469C1471.37 878.143 1431.94 881.15 1391.51 883.155C1295.27 887.833 1197.37 898.86 1093.78 911.223C1034.97 917.906 973.154 925.592 910.668 931.272C800.399 941.631 679.772 947.311 531.744 948.314C469.592 948.648 409.445 947.645 351.303 946.643C304.522 945.641 260.749 944.972 217.309 944.972C165.851 944.972 113.723 941.297 58.2546 937.621C28.1813 935.616 -2.22632 933.611 -32.968 931.94C-32.968 931.606 -33.3022 931.272 -33.3022 930.938C-1.89233 932.609 28.8496 934.614 58.923 936.618Z" fill="#DEAD62" fill-opacity="0.1"/>
<path d="M48.5645 936.953C102.028 941.631 152.819 946.31 202.273 946.978C242.705 947.98 283.471 948.983 327.245 950.653C388.394 952.992 451.882 954.997 517.375 955.332C665.069 955.666 786.031 950.988 898.305 940.295C973.154 932.61 1045.66 923.587 1116.17 914.565C1208.06 902.536 1294.94 891.509 1380.82 885.495C1421.92 882.821 1461.68 878.811 1500.44 874.802C1558.58 868.787 1614.39 863.775 1667.52 862.438C1800.51 858.763 1924.14 840.05 2054.13 819.667C2053.46 819.667 2053.79 820.335 2054.13 820.67C1924.48 841.721 1800.51 859.765 1667.52 863.441C1614.72 864.777 1558.92 870.458 1500.11 876.138C1461.35 879.814 1421.58 883.49 1380.48 886.831C1294.27 892.846 1207.39 903.873 1115.5 915.902C1045.33 924.924 972.486 933.946 897.971 940.963C785.697 951.99 664.401 957.002 516.707 956.334C450.88 956 387.392 953.661 326.242 951.656C282.803 949.985 241.703 948.648 201.605 947.646C151.816 946.978 101.36 942.634 47.562 937.622C21.4984 935.282 -5.90185 932.943 -33.6362 930.939C-33.6362 930.604 -33.9705 930.27 -33.9705 929.936C-5.23364 932.275 22.5009 934.614 48.5645 936.953Z" fill="#DEAD62" fill-opacity="0.1"/>
<path d="M37.8717 937.622C89.6648 942.969 138.785 948.315 186.902 950.32C224.327 951.657 262.754 953.661 303.186 956C367.343 959.342 433.504 962.683 502.673 964.02C650.367 966.359 771.997 962.349 885.608 950.988C971.15 942.969 1055.02 931.274 1135.55 919.578C1216.75 908.217 1293.6 897.524 1370.12 889.839C1411.89 886.163 1452.32 881.151 1491.42 875.805C1549.9 868.788 1604.7 862.105 1657.83 859.432C1794.16 852.08 1921.14 828.69 2054.79 804.297C2054.79 804.631 2054.79 805.299 2054.46 805.634C1920.8 830.361 1794.49 853.751 1657.49 860.434C1604.7 863.107 1549.56 869.79 1491.09 877.476C1452.32 881.819 1411.22 887.5 1369.46 891.176C1293.27 898.527 1216.42 909.22 1135.22 920.581C1054.69 931.942 971.15 943.637 884.939 952.325C771.663 963.686 650.033 967.696 502.339 965.357C432.836 964.354 366.674 960.679 302.852 957.337C262.42 954.998 224.327 952.993 186.568 951.991C138.116 950.32 88.9967 944.973 37.2036 939.293C14.4814 936.62 -9.24316 934.281 -33.302 931.942C-33.302 931.608 -33.636 931.273 -33.636 930.939C-8.90893 932.61 14.8154 934.949 37.8717 937.622Z" fill="#DEAD62" fill-opacity="0.1"/>
<path d="M26.5095 937.955C76.9659 944.303 124.749 950.318 171.53 952.991C206.616 954.662 242.37 957.335 280.128 960.008C346.958 964.686 415.793 969.699 488.303 971.704C635.663 976.048 757.962 972.372 872.575 960.677C969.144 951.321 1062.04 936.618 1152.59 922.584C1224.43 911.557 1291.93 900.864 1359.1 893.179C1401.2 888.166 1442.63 882.152 1482.4 876.137C1540.87 867.449 1595.34 859.43 1648.13 855.42C1787.47 845.061 1915.45 817.661 2051.12 788.59C2052.79 788.256 2054.13 787.922 2055.8 787.588C2055.46 787.922 2055.8 788.256 2055.13 788.924C2054.13 789.258 2052.79 789.258 2051.45 789.593C1915.45 818.664 1786.81 846.398 1648.13 856.422C1595.67 860.766 1540.54 868.452 1482.73 877.14C1442.97 883.154 1401.53 889.169 1359.43 894.181C1292.27 901.867 1224.43 912.225 1152.93 923.92C1062.71 937.955 969.144 952.323 872.909 962.348C757.961 973.709 635.663 977.05 487.969 973.04C415.459 971.035 346.624 966.023 279.794 961.679C242.036 958.672 206.282 956.333 171.196 954.328C124.415 951.655 76.6317 945.64 26.1752 939.291C7.12867 936.952 -12.5859 934.613 -32.635 932.274C-32.635 931.94 -32.969 931.606 -32.969 931.272C-12.5859 933.277 7.12891 935.616 26.5095 937.955Z" fill="#DEAD62" fill-opacity="0.1"/>
<path d="M14.8137 938.625C63.9336 945.976 110.38 952.659 155.825 956C188.905 958.339 221.986 961.347 257.406 964.354C326.24 970.369 398.083 976.717 473.266 979.725C620.96 985.74 743.593 983.066 859.876 971.037C966.136 960.01 1068.39 942.634 1167.63 925.593C1229.45 915.234 1289.26 904.875 1347.4 896.522C1390.5 890.507 1432.61 883.156 1473.04 876.473C1530.85 866.448 1585.31 857.092 1638.11 852.08C1775.44 838.714 1901.42 808.641 2035.08 775.894C2042.1 773.889 2048.78 772.553 2056.46 770.882C2056.13 771.216 2056.13 771.55 2056.13 772.218C2049.11 773.889 2042.1 775.56 2035.08 777.231C1901.42 809.643 1775.44 840.051 1638.11 853.417C1585.65 858.429 1531.18 867.785 1473.37 877.81C1432.94 885.161 1391.17 892.178 1347.73 898.193C1289.26 906.546 1229.78 916.571 1167.63 927.263C1069.05 944.305 966.804 961.681 860.211 972.708C743.927 984.403 621.294 987.41 473.6 981.396C397.748 978.388 326.24 972.039 257.406 966.025C221.986 963.017 188.905 960.01 156.159 957.671C110.38 954.329 63.9336 947.647 14.8137 940.295C-0.222896 937.956 -15.928 935.951 -31.6331 933.612C-31.9673 933.278 -31.967 932.944 -31.967 932.61C-16.5962 934.28 -0.557125 936.62 14.8137 938.625Z" fill="#DEAD62" fill-opacity="0.1"/>
<path d="M3.1189 939.627C51.2363 947.646 96.3464 954.998 140.788 959.008C171.53 962.015 202.271 965.022 235.018 968.698C306.526 976.049 380.373 984.069 458.898 988.079C604.587 995.764 731.563 993.759 847.179 981.396C962.794 969.7 1073.4 948.649 1180.33 928.6C1234.46 918.576 1285.58 908.885 1336.71 900.197C1380.81 893.18 1422.58 884.827 1464.35 876.473C1521.49 865.112 1575.62 854.753 1627.75 848.07C1763.42 832.031 1887.38 798.616 2019.04 763.531C2031.4 760.189 2044.1 756.848 2056.46 753.506C2056.46 753.506 2056.46 753.84 2056.13 754.843C2044.1 757.85 2032.07 761.191 2019.37 764.533C1887.72 799.619 1763.08 833.368 1627.42 849.407C1575.96 855.756 1521.16 866.448 1464.02 878.144C1422.92 886.163 1380.81 894.517 1336.71 901.534C1285.58 909.554 1234.79 919.244 1180.66 929.603C1073.4 949.651 962.46 970.369 846.845 982.398C731.229 994.427 603.919 996.432 458.23 988.747C379.705 984.737 305.858 976.717 234.35 969.366C201.603 966.025 170.527 962.683 140.12 960.01C95.3439 956 50.2339 948.315 2.11646 940.629C-8.9104 938.959 -20.2717 936.954 -31.6328 935.283C-31.6328 934.949 -31.967 934.28 -32.301 933.946C-19.9375 935.617 -8.24218 937.622 3.1189 939.627Z" fill="#DEAD62" fill-opacity="0.1"/>
<path d="M-9.57885 940.629C37.536 949.317 81.3095 957.337 124.749 962.015C153.151 965.022 182.223 968.698 212.63 972.373C286.143 981.395 362.329 990.751 443.527 996.098C589.216 1005.45 716.861 1004.12 833.813 991.754C957.782 978.722 1076.74 954.329 1191.35 930.939C1237.46 921.917 1281.24 912.561 1325.01 904.207C1369.45 895.853 1412.56 886.497 1453.99 877.475C1511.47 864.777 1565.6 852.748 1617.06 845.397C1751.39 826.016 1873.68 789.928 2003.67 751.501C2021.04 746.489 2038.42 741.142 2056.13 736.13C2056.13 736.464 2056.13 736.798 2056.46 737.467C2038.75 742.145 2021.38 747.491 2004.34 752.503C1874.35 790.93 1752.05 827.353 1617.39 846.733C1565.93 854.085 1511.8 866.114 1454.66 878.812C1412.89 887.834 1370.12 897.19 1325.68 905.878C1281.91 914.231 1238.13 922.919 1192.02 932.275C1077.07 956.334 958.451 980.393 834.147 993.425C717.195 1005.79 589.55 1007.12 443.527 997.768C361.995 992.756 285.809 983.066 212.63 974.378C181.888 970.702 153.151 967.027 124.749 963.685C81.3095 959.007 36.8678 950.988 -9.57885 941.966C-16.262 940.629 -23.279 939.626 -29.9622 938.29C-29.9622 937.956 -30.2961 937.622 -30.2961 937.287C-23.6133 937.956 -16.262 939.292 -9.57885 940.629Z" fill="#DEAD62" fill-opacity="0.1"/>
<path d="M-21.9412 941.297C23.8372 950.653 66.9424 959.341 109.379 965.022C135.777 968.363 162.509 972.373 190.912 976.048C266.763 986.741 344.954 997.768 429.16 1004.12C575.183 1015.48 703.496 1014.48 821.116 1001.78C954.108 987.41 1079.41 959.675 1201.38 932.275C1240.47 923.587 1277.56 915.568 1314.65 907.882C1359.76 898.192 1403.2 887.499 1444.97 877.141C1502.45 863.44 1556.24 850.074 1607.37 841.387C1740.69 819.333 1861.66 780.237 1989.97 738.803C2012.36 731.786 2034.75 724.435 2056.8 717.417C2057.13 717.752 2056.8 717.751 2056.8 718.754C2034.75 725.437 2012.36 732.788 1990.3 739.805C1861.99 780.906 1740.69 820.335 1607.37 842.389C1556.58 850.743 1502.78 864.109 1445.64 878.477C1403.54 888.836 1359.76 899.529 1314.65 908.885C1277.56 916.57 1240.47 924.924 1201.38 933.612C1079.75 960.678 953.773 989.08 821.45 1003.11C703.496 1015.81 575.183 1016.48 429.16 1005.45C344.954 999.105 266.763 988.078 191.246 977.719C162.843 973.709 136.111 970.034 109.379 966.358C66.9424 961.012 23.8372 951.99 -21.9412 942.968C-23.946 942.634 -25.9509 942.299 -27.9558 941.631C-28.29 941.297 -28.29 940.629 -28.6243 940.295C-26.6194 940.629 -24.2803 940.963 -21.9412 941.297Z" fill="#DEAD62" fill-opacity="0.1"/>
<path d="M94.0076 968.029C118.401 971.705 143.462 975.714 170.193 979.724C247.716 992.088 327.912 1004.79 414.791 1012.14C561.148 1025.17 689.795 1025.17 808.752 1012.14C949.095 996.766 1081.42 965.022 1210.07 933.612C1242.14 925.926 1273.22 918.575 1303.96 911.224C1349.74 900.531 1393.51 888.836 1436.28 877.14C1493.42 861.435 1546.89 847.401 1597.68 837.711C1729.33 812.65 1849.96 770.881 1976.27 726.773C2003.33 717.083 2029.73 707.727 2057.47 698.371C2057.47 698.705 2057.13 699.039 2057.13 699.707C2030.07 708.73 2003 718.086 1976.94 727.108C1849.96 771.549 1730.33 813.652 1598.01 838.713C1547.22 848.404 1493.42 862.772 1436.28 877.809C1393.85 889.504 1349.74 901.199 1303.96 911.892C1272.89 918.909 1242.48 926.595 1209.73 934.614C1081.42 965.69 948.427 997.768 808.418 1012.8C689.795 1025.5 560.814 1025.5 414.122 1012.8C327.578 1005.12 247.048 992.422 169.525 980.058C143.127 976.048 118.4 972.039 93.6733 968.363C54.9121 962.682 15.1483 953.995 -26.6204 944.638C-26.6204 944.304 -26.9546 943.636 -27.2886 943.302C14.8142 953.326 54.9122 962.014 94.0076 968.029Z" fill="#DEAD62" fill-opacity="0.1"/>
<path d="M78.6377 971.036C101.36 974.712 124.082 979.056 148.475 983.066C228.002 997.1 310.537 1011.47 399.755 1020.49C546.446 1034.86 675.762 1035.53 795.387 1022.5C943.081 1006.12 1082.09 970.034 1216.41 934.949C1242.48 927.931 1267.21 921.917 1292.27 915.234C1339.05 903.539 1383.49 890.173 1426.59 877.475C1483.4 861.102 1536.86 845.397 1587.65 834.704C1718.64 806.635 1837.26 762.194 1962.24 715.079C1993.98 703.049 2025.39 691.354 2057.13 679.659C2057.13 679.993 2057.13 680.327 2057.13 680.661C2025.72 692.357 1993.98 704.052 1963.24 716.081C1837.93 763.196 1718.97 807.638 1587.65 836.041C1537.2 846.733 1483.73 862.438 1427.26 878.812C1384.49 891.509 1339.72 904.541 1292.93 916.57C1267.87 922.585 1243.15 929.268 1217.08 936.285C1082.42 971.371 943.415 1007.79 796.055 1023.83C676.096 1036.86 546.446 1036.2 399.755 1021.49C310.203 1012.47 228.002 998.437 148.14 984.068C124.082 979.724 101.026 976.049 78.3036 972.039C44.8887 966.359 10.4712 958.339 -24.6145 949.985C-24.9485 949.651 -24.9485 949.317 -24.9485 948.983C10.4713 957.336 44.8887 965.356 78.6377 971.036Z" fill="#DEAD62" fill-opacity="0.1"/>
<path d="M62.9313 974.043C83.6484 978.053 104.7 982.063 127.088 986.073C208.62 1001.78 293.16 1018.15 384.717 1028.51C531.742 1044.88 661.726 1046.55 782.354 1032.85C936.731 1015.81 1081.42 975.046 1221.76 935.616C1240.81 930.27 1261.19 924.59 1280.9 918.909C1328.02 905.877 1373.13 891.843 1416.9 877.809C1473.04 859.765 1526.17 843.057 1576.63 831.028C1707.28 800.286 1824.23 753.171 1949.2 703.049C1984.62 688.681 2020.04 673.978 2056.46 660.278C2056.13 660.278 2056.13 660.612 2056.13 660.946C2020.04 675.314 1984.62 689.349 1949.2 703.717C1824.9 753.839 1707.28 801.623 1576.63 832.364C1527.17 844.06 1473.37 860.767 1417.24 878.477C1373.46 892.511 1328.69 906.88 1281.57 919.577C1261.52 925.258 1241.81 930.938 1222.09 936.285C1081.75 975.38 936.731 1016.48 782.354 1033.52C661.726 1046.89 531.408 1045.55 384.383 1029.51C292.157 1019.15 207.952 1002.78 126.085 987.075C104.032 982.731 82.9802 978.722 61.9288 975.046C33.8604 969.699 5.45777 962.682 -23.6133 955.331C-23.6133 954.997 -23.9475 954.329 -23.9475 953.995C5.79176 961.346 34.8627 968.697 62.9313 974.043Z" fill="#DEAD62" fill-opacity="0.1"/>
<path d="M47.5621 977.052C66.6086 980.727 85.6552 985.071 106.038 989.081C185.566 1005.79 275.786 1024.83 370.35 1036.53C517.71 1054.57 648.362 1056.58 769.992 1042.88C931.052 1024.83 1081.08 979.391 1226.77 935.283C1241.48 930.939 1256.18 926.595 1270.88 922.251C1318 907.883 1364.11 892.512 1408.55 877.475C1464.35 858.429 1517.48 840.385 1567.27 827.353C1696.92 793.604 1813.54 743.481 1936.84 690.352C1976.27 673.644 2016.03 656.603 2056.8 639.561C2057.13 639.895 2057.13 639.895 2056.8 640.898C2016.7 657.605 1976.94 674.313 1937.51 691.688C1814.21 744.484 1697.59 794.941 1567.94 828.355C1518.15 841.387 1465.36 859.431 1409.22 878.143C1365.11 893.18 1319.33 908.885 1271.55 923.254C1256.85 927.932 1242.48 931.941 1228.11 936.285C1082.42 980.393 931.72 1025.84 770.661 1044.22C649.03 1057.92 518.044 1055.58 370.684 1037.87C276.12 1026.17 185.9 1007.12 106.038 990.417C85.9893 986.408 66.6085 982.064 47.8962 978.054C25.5083 973.376 2.78614 967.695 -20.27 961.681C-20.27 961.346 -20.6042 961.012 -20.6042 960.344C1.7837 966.359 24.8401 972.373 47.5621 977.052Z" fill="#DEAD62" fill-opacity="0.1"/>
<path d="M31.858 980.058C49.2339 983.734 66.2755 987.743 84.9878 991.753C166.186 1010.47 258.411 1031.52 355.648 1044.55C503.342 1064.26 634.329 1067.27 756.961 1053.24C924.036 1034.19 1086.77 981.395 1230.45 935.282C1240.14 932.275 1249.83 929.267 1258.85 926.26C1307.64 910.555 1354.09 893.848 1398.53 877.474C1454.33 857.425 1507.46 838.379 1556.91 824.345C1685.9 787.922 1801.18 735.127 1924.14 679.324C1967.25 659.275 2011.02 639.226 2055.8 619.512C2056.13 620.18 2055.8 620.514 2055.8 620.848C2011.02 640.229 1967.58 659.943 1924.48 679.658C1801.84 735.795 1686.56 788.925 1557.25 825.013C1507.46 838.713 1454.33 857.76 1398.86 878.143C1354.09 894.516 1308.64 911.223 1259.52 926.928C1249.83 929.936 1239.81 932.943 1230.45 935.95C1087.1 982.397 924.036 1034.86 756.627 1053.91C634.329 1067.94 502.674 1065.27 354.98 1045.22C257.743 1032.19 165.184 1011.13 83.9855 992.421C65.6073 988.412 48.2313 984.402 31.1897 980.392C14.4823 976.717 -2.55907 972.038 -19.6008 967.36C-19.6008 967.026 -19.9351 966.358 -19.9351 966.024C-2.22509 971.37 14.8165 976.048 31.858 980.058Z" fill="#DEAD62" fill-opacity="0.1"/>
<path d="M16.1497 983.066C31.8546 986.742 47.2253 990.417 63.5986 994.761C146.802 1015.14 240.698 1038.53 340.608 1052.9C488.636 1074.62 620.625 1077.96 743.926 1063.6C917.015 1043.55 1084.76 986.074 1233.12 934.949L1248.16 929.937C1296.94 913.229 1343.72 895.185 1388.83 877.475C1444.3 856.09 1497.1 835.707 1546.55 821.004C1675.2 781.575 1789.48 726.106 1911.11 666.961C1957.89 644.573 2005.34 621.517 2054.46 599.129C2054.46 599.463 2054.46 599.798 2054.46 600.466C2005.34 622.52 1958.56 645.242 1911.78 668.298C1789.81 727.108 1675.2 782.911 1546.55 822.006C1497.1 837.043 1444.97 857.092 1389.17 878.478C1344.06 896.522 1297.28 914.232 1247.82 931.273L1233.12 936.619C1085.09 987.744 917.015 1045.22 743.592 1065.27C620.291 1079.64 487.968 1076.29 339.94 1054.57C239.695 1040.21 145.465 1016.82 62.2623 996.098C45.889 992.088 30.8521 988.413 15.1471 984.737C4.12013 982.064 -6.90649 978.722 -17.9333 975.715C-17.9333 975.381 -18.2678 975.046 -18.2678 974.378C-6.23852 977.051 5.12281 980.393 16.1497 983.066Z" fill="#DEAD62" fill-opacity="0.1"/>
<path d="M0.781014 985.738C14.4812 989.414 28.1813 992.756 42.5497 996.765C127.423 1019.15 223.324 1044.88 325.908 1060.59C474.27 1083.64 606.927 1087.99 730.896 1073.29C909.666 1052.57 1082.42 989.414 1234.79 933.946L1236.8 932.943C1286.59 914.899 1334.04 895.518 1379.81 876.806C1434.95 854.084 1487.41 832.698 1536.53 816.993C1664.84 775.225 1778.45 716.414 1899.08 655.265C1949.87 629.536 2000.33 603.138 2054.13 578.077C2053.79 578.411 2054.13 578.745 2054.13 579.079C2001.33 604.475 1950.21 630.538 1900.08 656.268C1779.12 718.085 1665.18 776.227 1536.86 817.996C1488.41 834.035 1436.28 855.086 1380.15 878.143C1335.04 896.855 1287.25 916.236 1237.47 934.28L1235.46 935.282C1083.09 991.085 910.334 1053.9 730.896 1074.96C606.593 1089.66 474.27 1085.31 325.574 1062.26C222.99 1045.89 126.755 1020.49 42.2156 998.102C27.8472 994.426 14.1471 990.751 0.44703 987.075C-4.56518 985.739 -9.57763 984.068 -14.9241 982.731C-14.9241 982.397 -15.258 981.729 -15.258 981.395C-9.91161 982.731 -4.23119 984.402 0.781014 985.738Z" fill="#DEAD62" fill-opacity="0.1"/>
<path d="M21.4952 999.106C108.04 1023.83 205.946 1051.23 311.203 1068.94C460.233 1094 592.89 1099.02 717.862 1083.98C902.312 1061.93 1081.42 992.757 1225.43 937.288C1276.22 917.574 1324.01 896.856 1369.79 877.142C1424.92 853.083 1477.72 830.361 1526.17 813.653C1653.81 768.877 1766.42 708.062 1886.71 643.237C1940.85 614.167 1995.31 584.761 2052.45 556.359C2052.45 557.027 2052.45 557.361 2052.79 557.695C1996.32 585.764 1941.85 615.169 1888.05 643.906C1768.09 708.731 1654.82 769.546 1527.17 814.322C1478.38 831.029 1426.26 853.751 1370.79 877.476C1324.68 897.525 1276.89 918.242 1226.77 937.623C1082.42 993.425 903.314 1062.59 718.53 1084.65C593.558 1099.35 459.899 1094.67 311.203 1069.61C205.946 1051.9 107.706 1024.17 21.1611 999.774C9.80006 996.433 -1.56103 993.425 -12.5879 990.418C-12.5879 990.084 -12.5876 989.416 -12.9219 989.081C-1.56078 992.423 9.79994 995.764 21.4952 999.106Z" fill="#DEAD62" fill-opacity="0.1"/>
<path d="M0.445077 1001.11C88.9944 1027.51 188.571 1057.58 296.501 1076.96C445.531 1103.69 579.191 1109.37 705.165 1094C879.591 1072.95 1045.66 1009.46 1214.07 940.629C1265.53 919.911 1313.98 897.858 1360.43 876.806C1415.23 851.745 1467.69 827.686 1515.81 809.977C1642.79 762.527 1755.73 699.039 1875.02 631.541C1932.49 599.129 1990.64 566.382 2050.78 534.972C2051.12 535.306 2051.12 535.974 2051.12 536.309C1990.97 567.719 1932.83 600.465 1875.69 632.209C1756.4 699.707 1643.79 763.864 1516.81 810.979C1468.03 828.689 1416.23 852.747 1361.43 877.474C1314.32 898.526 1266.2 920.58 1215.41 941.631C1046.33 1010.47 880.259 1074.29 705.499 1095.01C579.525 1110.04 445.531 1104.7 296.167 1077.96C188.237 1058.58 88.3258 1028.51 0.110605 1001.78C-3.89941 1000.78 -7.5747 999.439 -11.2502 998.436C-11.2502 998.102 -11.2505 997.768 -11.5847 997.1C-7.57494 998.436 -3.56493 999.773 0.445077 1001.11Z" fill="#DEAD62" fill-opacity="0.1"/>
<path d="M281.799 1085.32C431.164 1113.72 565.492 1120.07 692.468 1104.7C870.236 1082.98 1042.32 1013.81 1203.05 944.304C1255.18 922.585 1303.63 898.86 1350.41 876.472C1405.54 850.074 1457 825.347 1505.79 806.635C1632.1 756.847 1744.37 690.351 1862.99 619.846C1923.47 583.758 1984.96 547.67 2049.11 512.918C2049.45 513.586 2049.11 514.255 2049.11 514.589C1984.96 548.672 1923.81 585.094 1863.33 620.848C1745.04 691.019 1632.76 757.515 1506.12 807.303C1458 826.684 1405.88 851.077 1351.08 877.14C1303.96 899.528 1255.18 922.919 1203.38 945.307C1042.32 1014.14 870.236 1083.64 691.8 1105.36C564.823 1120.73 430.161 1114.39 280.797 1085.65C174.538 1065.6 76.632 1035.19 -10.581 1007.12C-10.581 1006.79 -10.5808 1006.46 -10.915 1006.12C77.6344 1034.19 175.874 1064.93 281.799 1085.32Z" fill="#DEAD62" fill-opacity="0.1"/>
<path d="M267.097 1093.34C417.13 1123.41 551.792 1130.43 679.437 1114.72C860.88 1092.33 1032.63 1020.16 1192.69 947.981C1244.82 924.591 1293.94 900.198 1341.72 875.805C1396.19 848.739 1447.98 823.01 1495.76 802.961C1621.74 750.499 1733.01 681.665 1851.3 608.486C1914.79 569.057 1979.61 528.625 2048.11 491.2C2047.78 491.534 2048.11 491.868 2048.11 492.202C1980.28 529.961 1915.79 569.725 1852.3 609.154C1734.34 682.333 1622.41 751.502 1496.43 803.963C1448.65 824.012 1396.85 849.742 1342.05 876.808C1294.27 900.867 1244.82 925.594 1193.02 948.65C1032.97 1021.16 861.214 1093.34 679.437 1115.39C551.792 1131.09 416.796 1124.08 266.429 1094C166.852 1073.96 74.9612 1044.55 -8.24193 1016.48C-8.24193 1016.15 -8.24193 1015.81 -8.57592 1015.48C75.2954 1043.55 167.186 1072.95 267.097 1093.34Z" fill="#DEAD62" fill-opacity="0.1"/>
<path d="M252.396 1101.36C402.763 1133.43 538.428 1141.12 667.075 1125.08C851.525 1102.36 1029.29 1023.5 1181.66 951.657C1234.46 926.93 1283.91 900.866 1332.37 875.805C1386.83 847.403 1438.29 820.671 1485.74 799.954C1611.38 744.819 1722.65 672.977 1839.94 597.125C1906.77 554.02 1974.6 510.246 2046.44 468.812C2046.44 469.48 2046.44 469.815 2046.44 470.149C1975.27 511.249 1907.44 555.357 1840.94 597.794C1723.32 673.645 1612.38 745.487 1486.41 800.622C1438.29 821.673 1386.83 848.405 1332.37 876.808C1284.58 901.869 1234.46 927.933 1181.66 952.994C1029.29 1024.84 851.191 1103.36 666.407 1126.08C537.76 1142.12 402.095 1134.44 251.394 1102.36C158.5 1082.64 72.2899 1054.24 -6.56933 1026.84C-6.56933 1026.51 -6.90331 1025.84 -6.90331 1025.5C72.6242 1053.24 158.834 1081.31 252.396 1101.36Z" fill="#DEAD62" fill-opacity="0.1"/>
<path d="M238.027 1109.37C388.729 1143.12 524.727 1151.48 654.043 1135.44C841.5 1111.71 1018.93 1030.18 1170.64 955.666C1224.44 929.269 1274.22 901.868 1323.01 875.136C1377.48 846.066 1428.6 817.663 1476.05 796.277C1601.69 738.469 1711.62 664.288 1829.24 585.763C1898.75 538.648 1969.59 490.865 2044.77 446.089C2045.1 446.423 2045.1 447.092 2045.44 447.426C1970.26 491.868 1899.42 539.651 1829.91 586.098C1713.29 664.957 1602.69 739.472 1477.05 796.946C1429.6 818.999 1378.14 846.734 1323.68 876.139C1275.23 902.871 1224.44 930.271 1171.64 956.335C1019.94 1031.18 842.169 1112.72 654.377 1136.44C525.061 1152.48 388.729 1144.46 237.693 1110.38C150.48 1091 69.6166 1063.93 -4.89867 1037.2C-4.89867 1036.86 -4.89867 1036.53 -4.89867 1036.2C69.2824 1062.93 150.48 1089.99 238.027 1109.37Z" fill="#DEAD62" fill-opacity="0.1"/>
<path d="M222.99 1117.39C374.693 1152.81 511.36 1161.84 641.01 1145.46C821.45 1122.74 996.879 1042.21 1159.28 959.007C1213.41 931.273 1264.2 902.536 1313.32 874.801C1367.45 844.394 1418.91 815.323 1465.69 792.601C1591.33 732.454 1701.26 655.266 1817.88 573.733C1890.06 523.277 1964.24 471.15 2042.76 423.032C2043.43 423.7 2043.43 424.035 2043.43 424.369C1964.57 472.152 1891.06 524.279 1818.89 574.067C1702.27 655.6 1592 732.788 1466.69 793.269C1419.24 816.326 1368.12 845.062 1314.65 875.47C1265.53 903.538 1214.74 931.941 1160.95 960.009C1088.44 996.766 1002.22 1039.54 911.671 1074.96C814.433 1112.38 726.218 1135.77 642.012 1146.46C512.363 1163.51 375.361 1154.15 223.324 1118.73C141.791 1099.68 66.2737 1073.95 -3.89757 1047.89C-3.89757 1047.56 -3.89757 1047.22 -3.89757 1046.55C65.6054 1072.95 141.457 1098.35 222.99 1117.39Z" fill="#DEAD62" fill-opacity="0.1"/>
<path d="M208.288 1125.75C360.66 1162.84 497.661 1172.86 628.313 1155.82C811.093 1132.43 986.187 1049.23 1148.58 962.684C1202.72 933.947 1254.17 903.874 1303.63 874.468C1357.76 842.724 1408.55 812.985 1455.67 789.26C1580.97 726.44 1690.24 646.913 1806.52 562.373C1881.71 507.239 1958.56 451.77 2041.1 399.977C2041.43 400.311 2041.43 400.311 2041.43 400.979C1958.89 452.773 1882.37 508.241 1807.19 563.042C1690.57 647.581 1580.64 727.109 1456 790.263C1409.22 813.987 1358.09 844.061 1304.3 875.471C1254.51 904.542 1203.38 934.615 1148.92 963.686C986.521 1050.56 811.093 1133.77 628.313 1156.82C497.327 1173.53 359.657 1163.84 207.62 1126.75C132.436 1108.37 60.9281 1083.65 -4.23083 1058.92C-4.23083 1058.58 -4.23083 1058.25 -4.23083 1057.58C60.9281 1082.31 132.77 1107.04 208.288 1125.75Z" fill="#DEAD62" fill-opacity="0.1"/>
<path d="M-3.56579 1068.94C56.9152 1092.67 123.411 1115.72 193.248 1133.77C345.954 1172.86 483.958 1183.22 615.278 1166.18C800.397 1142.12 975.491 1056.25 1136.88 966.359C1192.35 935.952 1244.15 904.542 1293.93 873.8C1347.73 841.387 1398.19 810.312 1444.64 785.585C1569.61 720.091 1678.87 637.891 1794.82 550.678C1873.35 491.533 1952.88 431.721 2039.09 375.918C2039.09 376.586 2039.42 377.255 2039.42 377.255C1953.21 432.389 1873.35 492.536 1795.83 551.346C1679.88 638.559 1570.61 720.76 1445.97 786.587C1398.86 810.98 1347.73 842.056 1294.27 874.802C1244.15 905.21 1192.69 936.954 1137.55 967.028C975.825 1056.91 800.397 1143.12 614.944 1167.18C483.289 1184.22 345.286 1173.87 192.58 1134.77C122.743 1117.06 56.247 1093.67 -3.89977 1070.28C-3.89977 1069.95 -3.89977 1069.95 -3.89977 1069.61C-3.23156 1069.28 -3.56579 1068.94 -3.56579 1068.94Z" fill="#DEAD62" fill-opacity="0.1"/>
<path d="M178.881 1141.79C331.587 1182.55 470.259 1193.58 602.582 1176.2C790.374 1151.81 972.819 1058.25 1126.19 970.035C1182 937.956 1234.12 904.875 1284.58 873.131C1338.38 839.048 1388.5 807.304 1435.62 781.909C1559.92 713.742 1668.85 628.869 1784.13 538.648C1865.33 475.494 1948.2 411.003 2038.09 351.859C2038.09 352.527 2038.09 352.861 2038.42 353.53C1949.2 412.34 1866.67 476.831 1785.47 539.651C1669.85 629.871 1560.92 714.745 1435.95 783.579C1389.5 808.975 1339.05 840.719 1285.58 874.468C1234.79 906.546 1182.66 939.293 1126.86 971.037C1060.03 1009.46 970.814 1059.25 875.582 1099.35C777.676 1140.78 688.458 1166.51 602.916 1177.54C470.259 1195.25 331.587 1183.56 178.547 1143.12C114.725 1126.08 54.2435 1104.7 -3.89843 1081.31C-3.89843 1080.97 -3.89843 1080.64 -3.89843 1080.3C54.2435 1103.36 115.059 1124.75 178.881 1141.79Z" fill="#DEAD62" fill-opacity="0.1"/>
<path d="M164.18 1149.81C317.221 1192.24 456.561 1204.27 589.886 1186.56C779.683 1161.84 961.794 1065.27 1114.83 973.71C1171.31 940.295 1224.1 906.212 1275.23 872.797C1328.69 838.045 1378.81 805.299 1425.59 778.901C1549.23 708.061 1658.49 620.18 1773.44 527.955C1857.65 460.123 1943.19 390.954 2036.42 328.134C2036.08 328.468 2036.08 328.802 2036.08 329.137C1943.19 391.957 1857.98 460.791 1774.11 528.624C1659.16 621.517 1550.56 709.064 1426.26 779.904C1379.48 805.967 1329.02 838.714 1275.89 873.799C1225.1 906.88 1172.31 941.297 1116.5 974.712C962.796 1066.27 780.017 1162.84 589.886 1187.9C456.561 1205.61 317.221 1193.91 163.512 1151.14C104.368 1134.77 48.5648 1114.72 -4.89904 1093C-4.89904 1092.67 -4.89904 1092.33 -4.89904 1092C48.8989 1113.05 104.702 1133.43 164.18 1149.81Z" fill="#DEAD62" fill-opacity="0.1"/>
<path d="M149.476 1157.82C303.185 1201.93 443.193 1214.63 576.853 1196.59C768.654 1171.19 951.1 1071.61 1104.14 977.384C1160.95 942.299 1214.07 906.545 1265.87 871.793C1319 836.04 1369.45 802.625 1415.57 774.89C1539.54 701.378 1648.13 611.491 1762.08 515.925C1849.29 443.415 1937.51 369.902 2034.41 303.072C2034.41 303.406 2034.74 304.074 2034.74 304.409C1938.18 371.238 1849.63 444.751 1763.42 516.593C1648.47 612.16 1540.54 702.38 1415.9 775.893C1369.79 802.959 1319.67 836.708 1266.54 872.796C1215.08 906.879 1161.95 942.633 1105.14 977.719C951.434 1072.28 768.989 1171.86 576.853 1197.59C442.859 1215.63 302.517 1202.93 148.808 1158.83C94.676 1143.46 43.5512 1124.41 -5.56872 1104.7C-5.56872 1104.36 -5.56872 1103.69 -5.56872 1103.36C43.5512 1123.41 95.3444 1142.45 149.476 1157.82Z" fill="#DEAD62" fill-opacity="0.1"/>
<path d="M134.773 1166.18C289.15 1211.96 429.493 1225.32 564.155 1207.28C757.627 1181.22 940.407 1078.3 1093.11 981.061C1150.25 944.639 1204.38 907.549 1255.84 871.461C1309.31 834.37 1358.76 799.953 1405.21 771.884C1529.51 695.698 1637.44 602.805 1751.39 504.231C1841.27 427.043 1932.5 348.518 2033.07 278.012C2033.07 278.012 2033.07 278.68 2033.41 279.015C1933.16 349.52 1841.61 428.045 1752.72 504.565C1638.44 603.139 1530.18 696.032 1405.88 772.218C1360.1 800.621 1309.98 835.038 1257.18 871.795C1205.05 907.549 1150.92 945.308 1094.12 981.396C940.741 1078.63 758.295 1181.55 564.155 1207.61C493.315 1217.3 418.8 1217.97 343.282 1209.95C276.119 1202.94 205.947 1188.23 134.105 1167.18C85.6537 1152.48 38.5386 1135.1 -6.57152 1116.39C-6.57152 1116.06 -6.5714 1115.72 -6.2373 1115.39C38.8728 1134.1 85.6536 1151.48 134.773 1166.18Z" fill="#DEAD62" fill-opacity="0.1"/>
<path d="M120.07 1174.2C274.447 1221.65 415.457 1236.02 551.122 1217.31C746.265 1190.91 929.044 1084.65 1081.42 985.072C1139.56 946.979 1194.36 908.218 1246.49 870.459C1298.95 832.366 1349.07 797.28 1394.51 768.544C1518.82 690.019 1626.41 594.118 1740.69 492.871C1832.92 411.004 1927.15 327.467 2031.74 252.952C2031.4 253.286 2031.74 253.62 2031.74 253.954C1927.48 328.804 1833.59 412.007 1741.69 493.539C1627.08 595.12 1519.15 690.687 1395.18 769.212C1349.4 797.949 1299.95 834.037 1247.15 871.127C1194.69 908.886 1139.89 947.982 1082.08 985.74C984.513 1049.56 903.649 1096.01 827.463 1131.76C728.555 1178.21 638 1206.61 550.788 1218.64C479.28 1228.33 404.43 1229 328.245 1220.31C261.081 1212.96 190.241 1197.59 118.399 1175.54C73.9572 1161.84 31.5201 1145.8 -9.9143 1128.76C-9.9143 1128.42 -9.91418 1128.09 -9.57995 1127.42C32.5227 1144.46 75.2938 1160.5 120.07 1174.2Z" fill="#DEAD62" fill-opacity="0.1"/>
<path d="M105.035 1182.55C259.746 1231.67 401.425 1246.37 538.092 1227.66C736.242 1200.6 926.707 1085.65 1070.39 988.412C1129.2 948.982 1183.67 908.55 1236.8 869.789C1289.26 831.362 1339.05 794.606 1384.16 764.866C1507.46 683.668 1615.39 585.428 1729.33 481.842C1824.23 394.964 1921.47 306.08 2029.73 227.221C2030.07 227.889 2030.07 227.889 2030.07 228.891C1921.8 307.751 1825.23 395.966 1730.34 482.511C1616.72 586.765 1508.79 684.671 1385.16 765.869C1339.72 795.608 1290.26 832.03 1237.8 870.457C1184.67 909.553 1130.2 949.651 1071.39 989.414C974.156 1055.24 892.958 1103.03 816.104 1140.12C716.862 1187.9 625.973 1216.97 538.092 1228.67C466.584 1238.69 391.401 1239.02 314.88 1230C247.382 1221.98 176.208 1206.28 104.366 1183.22C64.6028 1170.52 25.8414 1155.82 -11.5832 1140.12C-11.5832 1139.78 -11.2489 1139.45 -11.2489 1138.78C26.5099 1154.82 65.2711 1169.52 105.035 1182.55Z" fill="#DEAD62" fill-opacity="0.1"/>
<path d="M90.3322 1190.24C243.707 1240.7 390.064 1256.73 525.06 1237.69C724.881 1209.95 915.68 1091.67 1059.7 991.755C1118.84 950.988 1174.31 909.22 1227.44 868.788C1279.57 829.024 1328.69 791.934 1374.47 761.526C1498.1 677.655 1605.03 577.076 1718.97 470.148C1816.88 377.923 1917.12 284.027 2029.73 200.49C2029.73 200.824 2029.73 201.158 2030.07 201.827C1917.79 284.696 1817.88 378.591 1719.98 470.482C1606.7 577.076 1499.1 677.989 1375.47 761.86C1330.36 792.602 1280.57 830.026 1228.44 869.122C1174.65 909.554 1119.85 951.323 1060.37 992.423C916.348 1092.33 725.549 1210.96 525.394 1238.69C453.552 1248.38 377.7 1249.05 300.512 1239.69C232.68 1231.01 161.506 1214.97 89.3298 1191.24C53.91 1179.55 19.1585 1166.51 -13.9224 1152.15C-13.9224 1151.81 -13.588 1151.48 -13.588 1151.14C20.161 1165.18 54.9125 1178.54 90.3322 1190.24Z" fill="#DEAD62" fill-opacity="0.1"/>
<path d="M75.6294 1198.59C229.004 1250.72 376.029 1267.43 512.362 1248.05C713.52 1220.31 904.653 1098.68 1048.34 995.763C1108.15 953.326 1163.62 909.887 1217.75 867.784C1269.88 827.352 1319.33 789.259 1364.11 757.849C1487.41 671.639 1595 568.053 1707.95 458.452C1808.86 360.88 1911.78 261.304 2029.06 174.091C2029.06 174.425 2029.06 174.76 2029.4 175.428C1912.78 262.641 1809.86 362.217 1708.95 459.454C1595.67 568.721 1488.75 672.641 1365.11 758.518C1320.33 790.262 1270.88 828.021 1219.09 868.453C1164.95 910.555 1109.15 953.995 1049.34 996.432C905.321 1099.35 714.522 1220.98 512.362 1249.05C439.852 1259.41 364 1259.41 287.146 1249.72C218.645 1241.03 147.471 1223.99 74.9608 1199.59C43.2167 1188.9 12.4751 1176.87 -17.2642 1164.17C-17.2642 1163.84 -16.93 1163.51 -16.93 1163.17C13.1433 1175.54 43.8853 1187.56 75.6294 1198.59Z" fill="#DEAD62" fill-opacity="0.1"/>
<path d="M60.929 1206.61C214.972 1260.41 362.331 1277.45 499.666 1258.07C702.495 1229.67 893.628 1105.03 1037.31 999.44C1097.79 954.998 1153.93 910.222 1208.73 866.783C1260.19 825.348 1309.64 786.587 1354.09 754.174C1478.05 665.625 1584.65 559.366 1697.59 447.091C1801.84 343.839 1908.1 238.248 2029.07 146.357C2029.07 146.692 2029.4 147.026 2029.07 148.028C1908.1 239.585 1802.51 344.508 1698.93 447.426C1585.65 559.7 1479.06 665.959 1355.42 754.508C1310.65 786.587 1261.19 826.016 1209.4 867.117C1154.93 910.556 1098.8 955.332 1038.31 999.774C894.296 1105.36 702.829 1230 499.666 1258.74C426.488 1269.1 349.968 1269.1 272.779 1258.74C204.279 1249.72 132.771 1232.01 60.2606 1206.95C32.5263 1197.26 5.46021 1186.56 -20.9375 1175.2C-20.9375 1174.87 -20.6035 1174.53 -20.6035 1174.2C5.79432 1186.23 33.1946 1196.92 60.929 1206.61Z" fill="#DEAD62" fill-opacity="0.1"/>
<path d="M46.2241 1214.63C200.601 1269.77 348.629 1288.14 486.633 1268.43C691.132 1239.36 882.599 1111.38 1026.28 1003.11C1087.1 957.336 1143.9 910.555 1199.04 865.779C1250.5 823.677 1299.28 783.579 1344.06 750.832C1467.36 659.276 1573.62 551.011 1686.23 435.73C1793.49 326.463 1902.42 214.523 2029.06 118.289C2029.06 118.623 2029.06 119.291 2029.06 119.625C1903.42 215.86 1794.49 327.466 1687.56 436.064C1574.29 551.345 1467.69 660.278 1344.73 751.166C1300.29 784.247 1251.17 824.011 1199.37 866.448C1144.57 911.558 1087.77 958.005 1026.95 1003.45C929.38 1076.96 847.179 1130.43 768.32 1172.19C667.741 1224.99 575.85 1256.73 486.298 1269.43C412.786 1279.79 336.266 1279.79 258.075 1269.1C189.24 1259.41 117.398 1241.36 44.5534 1215.3C20.8289 1206.61 -2.56152 1197.59 -25.2837 1187.56C-25.2837 1187.23 -24.9495 1186.9 -24.9495 1186.56C-1.22497 1196.59 22.1654 1205.94 46.2241 1214.63Z" fill="#DEAD62" fill-opacity="0.1"/>
<path d="M31.522 1222.98C186.233 1279.79 335.263 1298.84 473.935 1278.79C679.771 1249.38 871.572 1118.06 1015.26 1006.79C1076.74 959.341 1133.88 911.558 1189.68 864.777C1240.81 821.672 1289.59 780.906 1334.03 747.157C1457 653.595 1563.26 542.324 1675.87 424.369C1785.8 309.422 1898.75 191.133 2029.73 89.886C2029.4 90.2202 2029.73 90.8883 2029.73 91.2225C1899.41 192.135 1787.14 309.756 1676.87 424.703C1564.6 542.658 1458 654.263 1335.04 747.825C1290.93 781.908 1242.14 822.006 1191.02 865.446C1135.22 912.226 1077.74 960.01 1016.59 1007.46C919.356 1082.64 836.821 1137.78 756.959 1180.55C656.38 1234.35 563.821 1267.09 474.269 1279.79C400.422 1290.48 323.234 1290.15 245.043 1279.12C175.874 1269.43 103.698 1250.72 31.1876 1223.65C10.8046 1215.97 -9.57848 1207.95 -29.2932 1199.59C-29.2932 1199.26 -28.9592 1198.93 -28.9592 1198.59C-9.24438 1207.28 11.1388 1215.3 31.522 1222.98Z" fill="#DEAD62" fill-opacity="0.1"/>
<path d="M16.8181 1231C172.197 1289.48 321.896 1309.2 461.236 1289.15C668.409 1259.41 860.21 1124.41 1004.23 1010.47C1065.71 961.681 1123.85 912.227 1178.65 864.443C1230.45 820.336 1279.23 778.233 1324.01 743.815C1446.31 647.581 1552.23 534.304 1664.51 414.345C1778.12 292.046 1895.07 167.074 2031.07 61.1493C2031.07 61.4834 2031.07 62.1517 2031.07 62.486C1895.4 168.077 1779.12 293.049 1665.51 414.679C1553.9 535.307 1447.64 648.583 1325.01 744.484C1280.57 779.569 1231.78 821.338 1179.99 865.78C1124.52 913.229 1067.05 962.683 1005.23 1011.47C907.993 1088.66 825.125 1144.79 744.929 1188.9C644.35 1244.37 551.456 1277.45 461.236 1290.48C387.055 1301.18 309.533 1300.84 230.673 1289.15C161.505 1278.79 89.3286 1259.74 16.1499 1232.01C-0.557489 1225.66 -17.5991 1218.64 -34.3064 1211.29C-34.3064 1210.96 -33.9724 1210.62 -33.9724 1210.29C-16.9308 1217.64 -0.223504 1224.66 16.8181 1231Z" fill="#DEAD62" fill-opacity="0.1"/>
<path d="M2.11927 1239.02C157.833 1299.5 307.865 1319.55 447.874 1299.5C656.049 1269.1 848.518 1131.09 993.205 1014.14C1055.36 964.019 1113.16 912.894 1169.3 863.774C1220.43 818.664 1269.21 775.893 1313.99 740.473C1436.95 641.899 1542.55 525.282 1654.82 402.315C1771.77 273.333 1891.73 141.344 2033.74 31.0753C2033.41 31.4095 2033.41 32.0778 2033.41 32.7461C1892.4 143.015 1772.77 274.336 1655.82 402.649C1543.55 525.95 1438.29 642.234 1315.32 740.808C1270.55 776.562 1222.43 819.332 1170.3 864.108C1114.17 913.228 1056.36 964.353 994.207 1014.81C896.636 1093.67 813.767 1151.48 733.237 1196.59C632.324 1253.06 539.097 1286.81 448.208 1300.17C373.359 1311.2 295.836 1310.53 216.643 1298.84C146.806 1288.14 74.2953 1268.43 1.11671 1240.03C-12.5835 1234.68 -25.9492 1229 -39.6494 1223.32C-39.3152 1222.98 -39.3152 1222.65 -39.3152 1222.32C-25.281 1228 -11.5808 1233.68 2.11927 1239.02Z" fill="#DEAD62" fill-opacity="0.1"/>
<path d="M435.506 1309.2C706.5 1269.43 959.117 1042.88 1161.61 861.102C1212.4 815.658 1260.52 772.553 1303.96 736.464C1427.26 635.551 1532.85 516.26 1645.46 389.952C1766.09 253.953 1889.39 114.947 2036.41 0.000122057C2036.75 0.334229 2036.41 1.00256 2036.41 1.6709C1889.72 116.618 1766.76 254.956 1646.8 390.286C1534.52 516.928 1428.26 635.885 1305.3 737.133C1261.52 773.221 1214.07 815.992 1163.28 861.436C960.454 1043.55 707.837 1270.43 436.174 1310.2C362.661 1321.22 286.141 1320.89 208.619 1309.2C140.118 1298.84 68.9445 1279.79 -2.89758 1251.72C-16.9319 1246.38 -30.9663 1240.69 -45.0005 1234.35C-45.0005 1234.01 -44.6663 1234.01 -44.6663 1233.68C98.0154 1295.83 262.082 1334.92 435.506 1309.2Z" fill="#DEAD62" fill-opacity="0.1"/>
</svg>
