<svg width="375" height="1477" viewBox="0 0 375 1477" fill="none" xmlns="http://www.w3.org/2000/svg">
<path d="M-79.438 388.166C-15.6591 472.38 70.2053 535.574 153.445 596.609C199.681 630.548 247.7 665.983 290.054 703.541C364.238 769.575 413.822 829.6 446.941 892.931C481.85 959.362 498.849 1031.77 498.624 1114.12C498.581 1165.36 497.795 1216.11 497.003 1265.26C496.531 1303.43 495.96 1341.42 495.734 1379.22C495.734 1379.22 495.734 1379.22 495.562 1379.32C495.389 1379.42 495.389 1379.42 495.045 1379.62C495.172 1341.65 495.643 1303.48 496.26 1264.77C497.152 1215.8 497.766 1165.14 497.809 1113.9C498.063 954.824 437.659 836.278 289.564 704.283C247.011 666.381 199.191 631.29 152.855 597.179C69.7879 536.045 -16.3482 472.778 -80.2265 388.392C-95.3144 368.624 -108.037 348.179 -119.355 327.383C-119.182 327.283 -119.01 327.184 -118.838 327.084C-106.977 348.026 -94.2542 368.471 -79.438 388.166Z" fill="#DEAD62" fill-opacity="0.1"/>
<path d="M-82.5167 378.459C-21.7407 458.665 54.813 519.656 134.448 580.016L144.522 587.52C190.838 622.791 238.911 659.114 281.815 698.421C339.707 751.353 383.622 801.56 416.412 851.99C467.659 930.807 492.004 1012.75 494.162 1109.58C495.329 1172.06 495.5 1232.83 495.903 1290.01C496.184 1319.94 496.538 1349.59 497.065 1379.14C496.793 1379.07 496.621 1379.17 496.276 1379.37C495.922 1349.71 495.568 1320.06 495.532 1289.77C495.401 1232.65 495.057 1171.99 493.519 1109.26C492.004 1012.75 467.142 931.105 416.34 852.261C383.649 802.004 340.005 751.87 282.041 699.209C239.308 659.803 191.408 623.38 144.748 588.309L134.746 580.533C55.0119 520 -21.5419 459.009 -82.4172 378.632C-95.1982 361.666 -106.502 344.076 -116.745 326.334C-116.573 326.235 -116.401 326.136 -116.228 326.036C-106.773 344.004 -95.3971 361.321 -82.5167 378.459Z" fill="#DEAD62" fill-opacity="0.1"/>
<path d="M-85.5936 368.753C-22.4113 451.933 54.8189 515.289 128.224 572.816L132.532 576.3C179.942 613.465 229.036 651.955 273.233 693.501C330.29 747.375 374.06 798.125 407.022 848.454C458.568 927.788 484.317 1009.38 488.37 1105.11C490.694 1161.65 492.78 1220.16 494.272 1283.6C495.077 1314.83 496.081 1346.41 497.112 1378.43C496.939 1378.53 496.767 1378.62 496.622 1379.17C495.465 1346.53 494.461 1314.96 493.556 1283.56C492.137 1219.84 489.879 1161.43 487.827 1104.97C483.502 1009.16 457.68 927.842 406.605 848.925C373.815 798.496 329.773 747.673 272.816 693.971C228.546 652.697 179.624 614.108 132.314 577.115L128.006 573.631C54.3288 516.032 -22.9015 452.676 -86.2826 369.151C-97.1279 354.742 -106.913 340.181 -115.91 325.394C-115.737 325.294 -115.565 325.195 -115.492 324.923C-106.224 339.783 -96.4389 354.345 -85.5936 368.753Z" fill="#DEAD62" fill-opacity="0.1"/>
<path d="M-88.6712 359.047C-26.059 441.638 49.7009 507.221 122.099 565.787C170.06 604.702 219.333 644.696 264.624 688.137C320.919 742.68 364.815 794.046 398.076 844.893C450.092 924.644 477.246 1005.89 483.366 1100.42C487.555 1165.76 490.774 1223.84 493.183 1277.34C494.619 1311.65 496.545 1345.22 498.516 1378.07C498.516 1378.07 498.172 1378.27 497.9 1378.2C495.829 1345.18 494.175 1311.68 492.368 1277.12C489.959 1223.62 486.64 1165.37 482.551 1100.2C476.259 1005.77 449.403 925.042 397.387 845.291C364.126 794.444 320.601 743.323 264.234 689.051C219.114 645.511 169.47 605.272 121.609 566.53C48.9391 507.89 -26.6486 442.208 -89.3602 359.445C-98.2698 347.593 -106.464 335.788 -114.141 323.684C-113.969 323.584 -113.796 323.485 -113.724 323.213C-105.775 335.39 -97.5808 347.196 -88.6712 359.047Z" fill="#DEAD62" fill-opacity="0.1"/>
<path d="M-91.5775 349.24C-26.1612 435.494 50.1031 503.542 116.046 558.486C157.896 593.579 209.973 637.236 256.286 682.844C311.719 737.884 355.198 789.721 389.029 841.157C441.986 921.743 470.373 1002.73 478.261 1095.56C483.05 1151.59 487.979 1211.44 492.094 1271.08C494.424 1306.94 497 1342.43 500.338 1377.25C500.338 1377.25 499.821 1377.55 499.549 1377.48C496.656 1342.63 494.08 1307.14 491.451 1270.76C487.608 1211.2 482.579 1151.17 477.718 1095.41C469.557 1002.52 441.27 921.697 388.684 841.356C354.781 790.192 311.302 738.355 255.769 683.142C209.728 637.608 157.651 593.95 115.973 558.758C50.0303 503.814 -26.3069 436.037 -92.0215 349.267C-98.896 340.144 -105.426 330.823 -111.512 321.476C-111.34 321.376 -111.167 321.277 -111.095 321.005C-104.982 330.797 -98.6242 340.217 -91.5775 349.24Z" fill="#DEAD62" fill-opacity="0.1"/>
<path d="M-94.8279 339.633C-25.6396 430.829 50.9303 500.997 109.848 551.729C157.498 592.89 203.961 633.587 247.531 678.023C302.202 733.733 345.436 785.941 379.91 837.695C433.364 919.142 463.056 999.609 473.011 1091.24C479.285 1148.25 485.864 1207.38 490.932 1265.09C494.25 1301.07 497.721 1338.11 501.987 1376.53C501.914 1376.8 501.642 1376.73 501.298 1376.93C497.204 1338.41 493.362 1301.12 490.315 1265.22C485.248 1207.51 478.768 1148.55 472.468 1091.1C462.34 999.563 432.92 919.169 379.492 838.165C345.191 786.312 301.957 734.104 247.113 678.494C203.644 634.23 157.18 593.533 109.603 552.101C50.5857 501.196 -26.1563 431.127 -95.3446 339.931C-100.283 333.366 -104.878 326.602 -109.472 319.838C-109.3 319.739 -109.127 319.639 -108.955 319.54C-104.361 326.304 -99.866 332.896 -94.8279 339.633Z" fill="#DEAD62" fill-opacity="0.1"/>
<path d="M-97.905 329.927C-42.5384 403.15 21.6132 471.301 103.624 544.529C148.06 584.1 195.101 626.991 238.75 672.758C292.832 729.038 335.748 781.889 370.619 834.332C424.988 916.17 455.64 996.312 467.736 1086.48L470.26 1104.77C477.281 1157.91 484.215 1208.11 489.671 1258.93C494.316 1299.2 499.053 1338.03 504.154 1375.51C504.154 1375.51 503.71 1375.53 503.465 1375.91C498.165 1338.08 493.428 1299.25 489.128 1258.78C483.599 1208.23 476.837 1157.93 469.816 1104.8L467.292 1086.51C455.097 996.166 424.471 916.468 370.374 834.703C335.774 782.333 292.686 729.581 238.703 673.474C195.054 627.706 147.914 584.643 103.578 545.244C21.5669 472.016 -42.684 403.693 -98.2229 330.569C-101.226 326.561 -104.057 322.454 -106.887 318.347C-106.715 318.247 -106.543 318.148 -106.47 317.876C-103.666 321.539 -101.007 325.746 -97.905 329.927Z" fill="#DEAD62" fill-opacity="0.1"/>
<path d="M-101.082 320.048C-42.4405 397.352 20.7041 466.544 97.4 537.328C137.852 574.376 185 619.043 230.24 667.566C283.289 724.443 326.231 777.738 361.401 830.697C416.439 913.297 448.424 993.359 462.387 1081.99C464.16 1092.22 465.733 1102.1 467.208 1111.82C474.85 1160.46 482.233 1206.27 488.311 1252.59C493.679 1294.51 499.682 1335.14 506.321 1374.49C505.976 1374.69 505.804 1374.79 505.532 1374.71C498.794 1335.2 493.062 1294.64 487.496 1252.38C481.418 1206.05 474.035 1160.24 466.121 1111.53C464.892 1101.44 463.245 1091.83 461.572 1081.77C447.708 993.313 415.379 913.449 360.612 830.923C325.271 778.063 282.428 724.94 229.551 667.964C184.41 619.613 137.091 575.046 96.8105 537.898C19.8428 467.041 -43.2024 398.021 -101.943 320.545C-103.11 318.922 -104.177 317.471 -105.244 316.021C-105.072 315.921 -104.9 315.822 -104.827 315.55C-103.044 317.047 -102.149 318.597 -101.082 320.048Z" fill="#DEAD62" fill-opacity="0.1"/>
<path d="M91.3743 530.471C145.236 581.596 185.286 622.322 221.83 662.545C273.745 719.846 316.542 773.685 352.454 827.135C408.089 910.768 441.379 990.306 457.31 1077.57C459.66 1089.99 461.91 1102.24 464.26 1114.67C472.604 1160.15 480.615 1203.07 487.222 1246.33C493.657 1289.7 501.072 1331.58 509.004 1373.17C508.732 1373.09 508.659 1373.37 508.587 1373.64C500.284 1331.81 493.041 1289.83 486.507 1246.29C479.972 1202.75 472.06 1160 463.445 1114.45C461.367 1102.1 459.044 1090.12 456.667 1077.25C440.935 990.333 407.473 910.894 351.838 827.261C315.926 773.811 273.401 720.045 221.313 662.844C184.769 622.62 144.448 581.822 91.0299 530.67C21.6575 464.615 -41.5937 393.647 -102.27 313.614C-102.098 313.514 -101.926 313.415 -101.853 313.143C-41.077 393.349 22.1742 464.316 91.3743 530.471Z" fill="#DEAD62" fill-opacity="0.1"/>
<path d="M85.3222 523.172C135.526 572.734 176.126 615.209 213.22 657.181C264.275 714.98 306.926 769.362 343.408 823.401C400.084 908.041 434.506 987.155 452.478 1072.78C455.279 1086.78 458.106 1101.23 461.152 1114.86C470.251 1158.06 478.845 1198.81 486.134 1240.07C494.053 1284.42 502.562 1328.2 512.131 1371.82C512.131 1371.82 511.959 1371.92 511.787 1372.02C502.217 1328.4 493.437 1284.55 485.59 1239.93C478.401 1198.83 469.535 1158.02 460.708 1114.88C457.834 1101.15 454.934 1086.98 451.762 1072.73C434.162 987.354 399.494 908.611 342.991 823.872C306.608 770.005 264.229 715.696 213.002 657.997C175.907 616.024 135.308 573.549 85.1039 523.987C23.2541 463.005 -35.4438 395.15 -99.3417 311.924C-99.1695 311.825 -98.9974 311.725 -98.9245 311.453C-35.3978 394.434 23.4724 462.19 85.3222 523.172Z" fill="#DEAD62" fill-opacity="0.1"/>
<path d="M79.0969 515.97C125.987 563.771 166.965 608.095 204.709 651.988C255.373 710.701 297.707 765.726 334.189 819.765C391.706 905.068 427.706 983.731 447.029 1068.12C450.625 1083.5 454.394 1098.77 458.063 1113.88C467.77 1155.36 477.146 1194.27 485.044 1233.81C493.958 1279.88 504.296 1324.44 515.602 1370.28C515.43 1370.38 515.257 1370.47 514.986 1370.4C503.508 1324.66 493.686 1279.81 484.428 1233.94C476.258 1194.33 467.227 1155.21 457.274 1114.11C453.777 1098.9 450.009 1083.62 446.684 1068.32C426.944 984.4 391.117 905.638 333.871 820.408C297.289 766.197 255.055 711.344 204.392 652.631C166.747 608.91 125.768 564.586 78.8784 516.785C24.3788 460.976 -29.1157 398.156 -96.9117 309.371C-96.7394 309.272 -96.6666 309 -96.4944 308.901C-28.8973 397.341 24.5246 460.433 79.0969 515.97Z" fill="#DEAD62" fill-opacity="0.1"/>
<path d="M72.9719 508.941C116.276 554.907 157.633 601.079 196.027 646.895C245.83 706.105 287.746 761.6 325.169 816.474C384.596 903.89 420.535 980.061 441.852 1063.53C446.217 1079.84 450.41 1096.25 454.749 1112.12C465.066 1151.87 475.349 1189.57 483.783 1227.65C494.533 1276.1 506.237 1322.63 519.246 1368.63C519.074 1368.73 518.901 1368.83 518.901 1368.83C505.992 1323 494.116 1276.57 483.167 1227.77C474.832 1189.87 464.794 1151.79 454.206 1111.97C450.066 1096.45 445.601 1079.96 441.507 1063.72C420.018 980.359 383.907 904.287 324.752 816.945C287.6 762.144 245.512 706.748 195.981 647.61C157.686 601.967 116.23 555.623 72.7535 509.756C15.0982 448.878 -37.775 381.565 -94.5534 307.09C-94.3812 306.991 -94.3084 306.719 -94.1361 306.62C-37.5566 380.75 15.3166 448.063 72.9719 508.941Z" fill="#DEAD62" fill-opacity="0.1"/>
<path d="M-91.5052 304.413C-35.5419 378.67 12.7779 442.87 66.8479 501.914C107.183 545.919 147.977 593.106 187.691 641.604C236.261 701.067 278.303 757.178 315.852 812.668C376.247 901.362 413.418 977.282 436.676 1058.94C441.612 1075.84 446.647 1092.91 451.284 1109.3C462.607 1148.01 473.254 1184.35 482.324 1221.14C494.758 1270.92 508.245 1318.94 523.209 1366.34C523.037 1366.44 522.692 1366.64 522.619 1366.91C507.728 1319.24 493.969 1271.15 481.635 1221.54C472.466 1184.57 461.819 1148.23 450.667 1109.43C445.759 1092.97 440.923 1076.24 436.06 1059.06C412.63 977.507 375.558 901.76 315.535 813.311C277.713 757.748 235.499 701.736 187.201 642.346C147.487 593.848 106.793 546.834 66.5301 502.556C12.4601 443.513 -35.8598 379.313 -91.9226 304.884C-92.022 304.712 -92.1214 304.54 -92.2208 304.367C-92.0486 304.268 -91.9759 303.996 -91.8036 303.897C-91.8036 303.897 -91.6047 304.241 -91.5052 304.413Z" fill="#DEAD62" fill-opacity="0.1"/>
<path d="M-68.2992 330.288C-24.7653 388.983 16.5346 444.605 60.6224 494.712C98.3863 537.447 137.079 583.779 179.007 636.511C226.517 696.126 268.142 752.708 306.905 809.106C368.366 899.25 406.843 974.646 431.671 1054.25C437.176 1071.74 442.682 1089.23 448.161 1106.28C460.392 1143.77 471.601 1179.1 481.334 1215.05C495.279 1266.26 510.793 1315.4 527.541 1364.3C527.368 1364.4 527.196 1364.5 526.924 1364.43C510.005 1315.63 494.662 1266.38 480.519 1214.83C470.886 1179.05 459.404 1143.65 447.544 1106.4C442.066 1089.36 436.56 1071.86 430.955 1054.2C406.426 975.116 367.849 899.549 306.66 809.477C267.897 753.079 226.372 696.669 178.862 637.054C136.861 584.594 98.3401 538.162 60.5762 495.428C16.2167 445.248 -24.9837 389.799 -68.6171 330.931C-75.5182 321.365 -82.691 311.726 -89.8638 302.087C-89.6915 301.987 -89.6186 301.716 -89.4464 301.616C-82.5453 311.182 -75.3725 320.821 -68.2992 330.288Z" fill="#DEAD62" fill-opacity="0.1"/>
<path d="M-54.8159 344.093C-17.8776 395.343 16.999 443.419 54.6706 487.584C89.4653 528.358 126.428 574.081 170.671 631.219C216.65 690.57 258.129 747.696 298.131 805.444C360.859 897.385 400.541 972.084 426.667 1049.56C432.915 1067.54 439.163 1085.52 445.285 1102.89C457.906 1139.47 470.222 1173.93 480.418 1208.69C496.246 1261.56 513.417 1311.59 532.491 1362.13C532.318 1362.23 532.146 1362.33 531.974 1362.43C512.9 1311.89 495.729 1261.86 479.802 1208.82C469.434 1174.15 457.29 1139.59 444.668 1103.01C438.547 1085.65 432.299 1067.66 426.223 1049.58C400.224 972.727 360.514 897.583 297.714 805.915C258.156 748.139 216.233 691.041 170.525 631.763C126.183 574.453 89.3196 528.902 54.5249 488.128C16.8534 443.962 -18.1227 395.714 -54.9616 344.637C-65.5619 329.857 -76.5332 314.832 -87.604 299.634C-87.4318 299.535 -87.359 299.263 -87.1867 299.164C-76.3876 314.288 -65.5884 329.413 -54.8159 344.093Z" fill="#DEAD62" fill-opacity="0.1"/>
<path d="M-46.8886 351.46C-14.6368 397.377 15.58 440.564 48.2739 480.484C88.16 528.883 128.014 581.205 161.816 626.227C205.867 684.624 247.201 742.293 288.568 802.009C353.775 896.652 393.424 969.304 421.047 1044.99C427.865 1063.57 434.828 1081.59 441.42 1099.38C455.148 1135.09 467.855 1168.63 478.813 1202.73C496.125 1256.58 515.795 1308.15 536.797 1359.65C536.724 1359.92 536.452 1359.85 536.38 1360.12C514.934 1308.65 495.436 1256.98 478.024 1202.95C467.067 1168.86 454.187 1135.41 440.831 1099.95C433.967 1082.09 427.176 1063.96 420.457 1045.56C392.563 969.801 353.285 897.394 287.806 802.679C246.783 742.763 205.377 685.366 161.227 626.797C127.624 582.12 87.7693 529.798 47.8831 481.398C15.017 441.578 -15.299 398.218 -47.5509 352.302C-60.1134 334.521 -72.9745 316.223 -86.1071 297.852C-85.9349 297.753 -85.8621 297.481 -85.6898 297.382C-72.3121 315.381 -59.4511 333.679 -46.8886 351.46Z" fill="#DEAD62" fill-opacity="0.1"/>
<path d="M-42.3095 355.016C-13.7763 396.878 13.1194 436.701 42.3202 473.355C77.8981 518.27 113.689 566.737 153.306 621.033C194.261 676.854 235.694 734.695 279.621 798.446C329.381 870.313 380.011 949.256 415.869 1040.4C423.403 1059.02 430.936 1077.64 438.344 1095.64C452.807 1130.24 466.103 1163.21 477.796 1196.19C497.361 1251.96 518.861 1304.32 542.434 1357.08C542.163 1357.01 542.09 1357.28 541.918 1357.38C518.245 1304.44 496.473 1252.02 476.908 1196.25C465.387 1163.17 451.747 1130.39 437.456 1095.69C430.048 1077.69 422.886 1059.32 415.253 1040.53C379.296 949.21 328.321 870.465 278.932 798.844C234.932 735.365 193.744 677.152 152.789 621.332C113.1 567.307 77.2092 518.668 41.7307 473.925C12.4306 437.099 -14.4653 397.276 -42.9985 355.414C-56.1116 335.883 -69.967 315.863 -84.2931 295.425C-84.1209 295.326 -84.048 295.054 -83.8758 294.955C-69.4769 315.121 -55.6943 335.413 -42.3095 355.016Z" fill="#DEAD62" fill-opacity="0.1"/>
<path d="M-40.0356 355.771C-14.5249 394.785 9.79234 431.732 36.0966 466.154C67.5386 507.486 98.7693 551.236 131.936 597.543C136.404 603.691 140.6 609.766 144.869 615.569C189.902 678.452 233.133 740.998 270.575 794.712C329.497 879.662 375.985 953.418 410.839 1035.27C418.843 1054.3 427.291 1073.31 435.142 1091.29C450.023 1125.41 464.426 1157.52 476.436 1189.86C497.957 1247.03 521.829 1300.31 548.047 1354.07C547.874 1354.17 547.603 1354.1 547.702 1354.27C521.312 1300.6 497.513 1247.05 475.893 1189.71C463.61 1157.3 449.579 1125.44 434.698 1091.31C426.575 1073.27 418.3 1054.16 410.223 1035.4C375.541 953.445 329.252 880.034 270.032 794.566C232.861 740.925 189.186 678.406 144.425 615.596C139.957 609.448 135.761 603.373 131.492 597.57C98.3253 551.263 67.2669 507.413 35.7521 466.353C9.34833 431.759 -14.6973 394.884 -40.4796 355.797C-53.9177 335.306 -67.8264 314.398 -82.2058 293.072C-82.0335 292.973 -81.9607 292.701 -81.7885 292.602C-67.4819 314.199 -53.4737 335.28 -40.0356 355.771Z" fill="#DEAD62" fill-opacity="0.1"/>
<path d="M-39.2024 354.829C-15.7731 391.829 5.91935 426.617 29.9701 459.125C56.6527 495.396 82.998 533.469 110.908 573.854C119.201 585.832 127.693 598.154 136.285 610.648C156.173 639.129 175.617 667.635 194.836 695.354C217.582 728.385 239.432 759.867 261.283 791.348C313.051 865.5 366.671 945.244 405.787 1031.29C414.334 1050.47 423.498 1069.53 431.893 1087.65C447.78 1120.74 462.6 1152.37 475.273 1183.87C499.12 1242.68 525.265 1296.71 553.955 1351.58C553.783 1351.68 553.438 1351.88 553.167 1351.8C524.649 1296.84 498.332 1242.9 474.657 1184C461.712 1152.43 447.091 1121.13 431.376 1087.95C422.71 1069.75 413.745 1051.04 404.826 1031.62C365.882 945.47 312.29 866.17 260.693 791.918C238.743 760.265 217.092 729.128 193.975 695.851C175.127 668.378 155.511 639.97 135.696 611.218C127.031 598.996 118.439 586.501 110.245 574.696C82.3356 534.31 56.0898 496.41 29.3078 459.967C5.25706 427.459 -16.7071 392.598 -39.8648 355.671C-53.0579 334.808 -66.7216 313.529 -80.8559 291.832C-80.6837 291.733 -80.6107 291.461 -80.4385 291.362C-66.1586 312.515 -52.3955 333.967 -39.2024 354.829Z" fill="#DEAD62" fill-opacity="0.1"/>
<path d="M-39.5073 352.709C-18.2321 387.967 1.84981 421.159 23.8459 452.097C46.9093 484.485 69.5358 518.504 93.528 554.491C104.679 571.02 115.956 588.165 127.776 605.456L135.672 616.745C175.681 676.098 213.528 732.104 252.237 787.614C312.843 873.889 362.013 946.326 400.512 1026.53C409.874 1045.93 419.654 1064.86 429.063 1083.54C445.44 1115.89 460.724 1146.34 474.086 1177.44C500.16 1237.71 528.75 1292.41 560.084 1348.27C559.839 1348.64 559.839 1348.64 559.667 1348.74C527.962 1292.63 499.371 1237.94 473.47 1177.56C460.107 1146.46 444.751 1116.28 428.175 1083.6C418.866 1065.08 409.53 1046.13 400.167 1026.73C361.324 946.724 312.154 874.287 251.992 787.985C213.184 732.303 175.164 676.396 135.055 616.871L127.332 605.483C115.783 588.265 104.334 571.219 93.283 554.862C69.1913 518.703 46.3924 484.784 23.329 452.395C1.23348 421.285 -18.8482 388.093 -40.024 353.007C-52.6737 332.291 -65.8934 310.985 -79.4843 289.434C-79.3121 289.334 -79.2393 289.062 -79.0671 288.963C-65.3767 310.686 -52.157 331.992 -39.5073 352.709Z" fill="#DEAD62" fill-opacity="0.1"/>
<path d="M-40.6543 349.927C-21.0893 383.417 -2.79039 415.111 17.6216 444.896C38.0336 474.682 57.7105 505.581 78.9253 538.348C91.7205 558.521 105.258 579.184 118.995 600.192C164.699 669.807 203.369 727.636 242.847 784.079L248.78 792.367C303.452 870.355 355.267 943.791 395.063 1021.87C405.069 1041.59 415.664 1060.73 425.59 1079.12C442.928 1111.14 458.973 1140.92 472.898 1171C501.073 1232.14 532.877 1288.42 566.756 1345.11C566.584 1345.21 566.14 1345.23 566.067 1345.5C532.188 1288.81 500.384 1232.53 472.209 1171.4C458.456 1141.22 442.311 1111.26 425.073 1079.42C415.419 1061.1 404.724 1041.79 394.818 1022.24C354.85 944.262 302.936 870.653 248.363 792.838L242.701 784.623C202.951 728.106 164.282 670.277 118.677 600.835C104.841 579.655 91.4755 558.892 78.508 538.819C57.2932 506.051 37.3446 475.08 17.3038 445.539C-2.93596 415.655 -21.5066 383.887 -41.0716 350.397C-52.9062 329.899 -65.2841 309.256 -78.1327 288.195C-77.9605 288.095 -77.8877 287.823 -77.7155 287.724C-64.9663 308.613 -52.4889 329.429 -40.6543 349.927Z" fill="#DEAD62" fill-opacity="0.1"/>
<path d="M-42.3986 346.11C-24.4176 378.447 -7.43122 409.062 11.4961 437.867C29.3563 465.222 47.0974 493.563 65.6608 523.727C79.9745 546.928 94.9577 570.891 110.584 595.171C146.185 650.867 188.515 716.229 233.9 780.517C241.198 790.772 248.325 801.126 255.697 811.11C305.178 881.3 352.101 947.456 390.158 1017.35C400.879 1037.11 411.845 1056.51 422.586 1075.11C440.487 1106.11 457.122 1135.32 471.636 1164.84C502.038 1227.44 536.56 1284.45 573.401 1341.5C573.427 1341.94 573.056 1341.7 572.983 1341.97C536.116 1284.48 501.866 1227.54 471.12 1165.14C456.605 1135.62 439.97 1106.41 422.242 1075.31C411.401 1056.53 400.435 1037.14 389.542 1017.48C351.584 947.754 304.933 881.671 255.008 811.508C247.908 801.597 240.953 791.143 233.555 780.715C188.442 716.501 145.84 651.066 110.239 595.37C94.7855 570.99 79.9018 547.2 65.3164 523.926C46.5807 493.862 29.1112 465.593 11.0788 438.338C-7.84853 409.533 -24.835 378.918 -42.9882 346.68C-53.8816 327.016 -65.2456 306.936 -77.1529 286.709C-76.9807 286.61 -76.9079 286.338 -76.7356 286.239C-64.9277 306.293 -53.292 326.446 -42.3986 346.11Z" fill="#DEAD62" fill-opacity="0.1"/>
<path d="M-44.7843 341.978C-28.1156 373.236 -12.342 402.943 5.10075 430.768C21.0518 456.009 36.9834 482.41 53.5383 510.288C69.072 536 84.9307 562.673 101.704 589.736C149.737 666.964 187.591 724.574 224.583 776.712C237.046 794.32 249.211 811.412 261.349 828.06C306.282 890.771 348.982 950.407 384.684 1012.25C396.221 1032.23 407.975 1051.39 419.359 1070.31C438.022 1100.65 455.345 1129.46 470.35 1158.24C503.323 1222.11 540.807 1279.48 580.491 1337.87C580.319 1337.97 580.047 1337.89 580.074 1338.34C540.217 1280.05 502.734 1222.68 469.661 1158.63C454.829 1129.76 437.26 1101.32 418.942 1070.79C407.485 1052.14 395.803 1032.7 384.267 1012.72C348.565 950.878 305.965 891.414 261.031 828.703C249.065 811.956 236.529 794.619 224.437 777.255C187.346 724.945 149.491 667.335 101.631 590.008C84.6856 563.044 68.7275 536.199 53.2932 510.66C36.4666 482.708 20.8068 456.38 4.75632 430.967C-12.9582 403.069 -28.7318 373.362 -45.4004 342.104C-55.3526 323.275 -65.7488 304.473 -76.6155 285.254C-76.4432 285.154 -76.3704 284.882 -76.2976 284.61C-65.0597 304.075 -54.7364 323.149 -44.7843 341.978Z" fill="#DEAD62" fill-opacity="0.1"/>
<path d="M-47.4705 337.324C-31.9153 367.847 -17.1825 396.547 -0.853173 423.637C13.3149 447.381 27.7086 471.914 42.5533 498.024C58.8632 526.273 75.5708 555.212 93.5642 584.786C139.469 660.715 178.173 720.592 215.834 773.491C232.964 797.592 250.167 821.422 266.773 844.217C307.557 900.137 346.205 953.155 379.633 1008.27C391.885 1028.3 404.355 1047.51 416.454 1066.48C435.706 1096.24 453.792 1124.39 469.214 1152.69C505.004 1217.46 545.204 1275.56 588.222 1334.55C587.778 1334.58 587.605 1334.68 587.605 1334.68C544.76 1275.58 504.215 1217.69 468.598 1152.81C452.904 1124.44 434.991 1096.2 415.937 1066.77C403.938 1047.98 391.268 1028.42 379.189 1008.3C345.861 953.354 307.212 900.336 266.528 844.589C249.823 821.62 232.547 798.063 215.417 773.962C178.027 721.135 138.952 661.014 93.1468 585.256C75.1534 555.682 58.3463 526.571 42.4077 498.567C27.3907 472.557 13.2688 448.097 -0.998786 424.181C-17.4275 396.919 -32.1604 368.218 -47.6161 337.868C-56.6004 320.317 -65.6842 302.595 -75.3113 284.727C-75.2386 284.455 -75.0663 284.356 -74.8941 284.256C-65.6381 301.879 -56.2825 319.675 -47.4705 337.324Z" fill="#DEAD62" fill-opacity="0.1"/>
<path d="M-50.353 332.331C-35.9113 362.118 -22.2919 390.084 -7.07598 416.438C6.0248 438.732 18.6354 461.767 32.0417 486.181C48.8292 516.451 66.1141 547.583 84.7841 579.522C129.53 655.433 167.915 715.952 206.518 769.686C228.388 800.007 250.032 829.541 271.352 858.113C308.283 907.759 343.179 954.676 374.431 1003.24C387.398 1023.31 400.584 1042.57 413.3 1061.41C433.142 1090.61 451.645 1118.28 467.828 1145.91C506.461 1212.03 549.77 1269.94 595.703 1330C595.531 1330.1 595.358 1330.2 595.186 1330.3C549.28 1270.68 505.872 1212.6 467.312 1146.21C451.3 1118.48 432.453 1091 412.783 1061.71C400.167 1043.04 386.882 1023.61 373.815 1003.36C342.762 955.146 307.938 907.958 270.735 858.239C249.787 829.912 227.427 800.332 205.901 769.812C167.743 716.051 128.913 655.559 84.3401 579.549C65.6701 547.61 48.2859 516.306 31.4983 486.035C18.092 461.622 5.40853 438.858 -7.51999 416.465C-22.8354 389.938 -36.4547 361.973 -51.0687 332.285C-58.9857 316.185 -67.0022 299.914 -75.2904 283.569C-75.1181 283.47 -75.0453 283.198 -74.873 283.098C-66.3859 299.787 -58.2701 316.231 -50.353 332.331Z" fill="#DEAD62" fill-opacity="0.1"/>
<path d="M-53.609 327.09C-40.1084 356.043 -27.4036 383.618 -13.0295 409.31C-1.51277 430.451 10.1035 451.764 22.2702 474.827C39.2638 507.045 57.1258 540.37 76.4457 574.231C120.23 650.466 158.643 711.429 197.57 766.123C223.809 802.421 250.04 837.114 275.675 870.775C309.225 914.564 340.767 956.068 369.426 998.547C383.036 1018.94 396.938 1038.24 410.541 1057.03C430.946 1085.21 450.138 1112.49 466.64 1139.48C508.116 1206.94 554.558 1265.1 603.752 1326.04C603.553 1325.7 603.308 1326.07 603.235 1326.34C553.796 1265.77 507.599 1207.24 466.123 1139.78C449.721 1112.96 430.184 1085.88 409.753 1057.26C396.322 1038.37 382.592 1018.96 368.637 998.772C339.879 956.121 308.337 914.617 274.787 870.828C249.252 837.34 222.921 802.474 197.126 766.15C158.027 711.555 119.343 650.519 75.7301 574.184C56.3107 540.151 38.621 506.727 21.4551 474.608C9.38786 451.718 -2.15553 430.133 -13.5728 409.164C-28.0463 383.3 -40.824 355.997 -54.2517 326.772C-60.8031 312.64 -67.7522 297.82 -74.973 282.926C-74.8008 282.827 -74.728 282.555 -74.5558 282.455C-67.2088 297.965 -60.1603 312.958 -53.609 327.09Z" fill="#DEAD62" fill-opacity="0.1"/>
<path d="M-57.136 321.778C-44.4773 350.068 -32.6142 376.981 -19.3269 402.382C-8.87747 422.072 1.52587 442.478 12.3535 464.016C29.7254 498.083 47.694 533.184 67.5912 569.238C110.342 646.07 148.609 707.576 188.279 762.761C217.872 804.471 248.863 844.226 278.859 882.258C308.882 920.734 337.268 957.17 364.004 994.328C378.33 1014.77 392.947 1034.12 407.339 1052.68C428.36 1080.73 448.115 1107 465.306 1133.59C509.671 1201.68 559.52 1260.17 611.874 1321.81C611.702 1321.91 611.357 1322.11 611.086 1322.04C558.559 1260.5 508.909 1202.35 464.689 1133.71C447.598 1107.29 427.744 1080.86 406.378 1053C392.603 1034.32 377.442 1014.82 363.116 994.381C336.652 957.296 308.266 920.86 278.243 882.384C248.419 844.252 217.528 804.67 187.391 762.814C147.821 707.802 109.554 646.295 66.8027 569.463C46.6338 533.337 28.8375 498.137 11.5651 464.242C0.737387 442.703 -9.56654 422.47 -20.2876 402.707C-33.8467 377.233 -45.7097 350.32 -58.1961 321.931C-63.5807 309.422 -69.4361 296.496 -75.3907 283.397C-75.2185 283.298 -75.1456 283.026 -74.9733 282.927C-68.4752 296.171 -62.6201 309.097 -57.136 321.778Z" fill="#DEAD62" fill-opacity="0.1"/>
<path d="M-60.6889 316.019C-48.9448 343.919 -37.824 370.341 -25.279 395.252C-15.698 413.836 -6.43479 433.063 3.42504 453.323C20.9036 489.166 38.8066 526.141 59.3537 564.117C100.972 641.373 139.265 703.324 179.406 758.926C212.97 805.922 248.196 849.433 282.382 891.936C309.448 925.689 335.049 957.301 359 989.637C374.115 1009.85 389.547 1029.42 404.482 1048.13C426.365 1075.68 446.709 1101.38 464.489 1127.4C511.3 1196.14 563.514 1253.96 618.877 1315.24C619.546 1316.01 620.116 1316.6 620.786 1317.36C620.514 1317.28 620.441 1317.56 619.898 1317.41C619.427 1316.99 619.029 1316.3 618.459 1315.71C562.997 1254.26 510.412 1196.2 463.972 1127.7C446.119 1101.95 425.748 1075.81 404.065 1048.6C389.13 1029.89 373.697 1010.32 358.583 990.107C334.632 957.772 309.103 925.888 281.792 892.506C247.706 850.175 212.453 806.221 178.644 759.595C138.576 703.722 100.455 641.672 58.5652 564.343C38.018 526.367 20.1151 489.391 2.46435 453.648C-7.22323 433.288 -16.6586 414.161 -26.0674 395.478C-38.6124 370.567 -49.7332 344.144 -61.4774 316.245C-65.9403 305.73 -70.6021 294.871 -75.3633 283.84C-75.1911 283.74 -75.1183 283.469 -74.946 283.369C-69.9131 294.473 -65.2513 305.332 -60.6889 316.019Z" fill="#DEAD62" fill-opacity="0.1"/>
<path d="M-64.5154 310.189C-53.6858 337.698 -43.3072 363.63 -31.5044 388.051C-22.8647 405.8 -14.5694 423.748 -5.57797 442.902C11.8082 480.176 29.9172 519.1 50.7432 558.752C91.5996 636.678 129.476 699.099 170.286 755.463C207.595 806.957 246.984 854.495 285.306 900.582C309.044 929.366 332.185 957.116 353.796 984.602C369.725 1005.03 386.046 1024.55 401.524 1043.4C423.897 1070.22 444.93 1095.51 463.227 1121.24C510.991 1188.05 563.987 1244.04 620.648 1303.2C623.77 1306.22 626.448 1309.26 629.596 1312.73C629.324 1312.66 629.152 1312.76 628.808 1312.95C625.858 1309.83 622.908 1306.71 619.959 1303.59C563.47 1244.34 510.302 1188.45 462.538 1121.63C444.341 1096.08 423.307 1070.79 400.935 1043.97C385.112 1025.32 369.063 1005.87 353.034 985.272C331.324 957.614 308.454 929.936 284.444 901.08C246.322 855.337 206.933 807.799 169.524 756.132C128.886 699.669 90.8378 637.347 49.9814 559.422C28.9565 519.425 10.947 480.673 -6.43923 443.399C-15.4306 424.245 -23.726 406.297 -32.2663 388.721C-44.1685 364.127 -54.547 338.195 -65.3767 310.686C-68.6462 302.239 -72.2868 293.546 -75.7552 284.754C-75.6824 284.482 -75.5101 284.383 -75.3378 284.283C-71.6244 292.704 -68.0566 301.669 -64.5154 310.189Z" fill="#DEAD62" fill-opacity="0.1"/>
<path d="M-68.5125 304.459C-58.3258 331.65 -48.6895 357.092 -37.5297 381.195C-29.9306 397.937 -22.3315 414.679 -14.4801 432.654C3.01265 471.704 20.8571 512.159 42.1608 553.832C81.5593 631.221 120.384 696.08 161.167 752C201.606 808.119 245.376 858.869 287.535 908.023C308.813 932.945 329.024 956.415 348.719 980.184C365.464 1000.83 382.201 1019.88 398.939 1038.92C421.801 1065 443.252 1089.82 462.211 1114.7C510.856 1179.86 564.978 1233.82 622.248 1291.25C627.65 1296.63 633.151 1302.18 638.554 1307.56C638.554 1307.56 638.381 1307.66 637.765 1307.78C632.635 1302.48 627.332 1297.27 621.83 1291.72C564.56 1234.29 510.068 1180.09 461.423 1114.93C442.835 1090.29 421.013 1065.22 397.978 1039.25C381.612 1020.45 364.775 1001.23 348.03 980.582C328.68 956.614 308.568 933.316 287.117 908.494C244.859 859.168 201.162 808.146 160.551 752.126C119.94 696.107 81.0159 631.076 41.6174 553.686C20.3137 512.013 2.46937 471.559 -15.0234 432.509C-23.047 414.633 -30.5734 397.619 -38.2453 381.149C-49.5046 356.873 -58.9686 331.332 -69.3276 304.24C-71.7482 298.059 -74.0961 291.605 -76.6161 285.252C-76.4438 285.152 -76.1988 284.781 -76.1259 284.509C-73.3076 291.38 -70.8603 298.005 -68.5125 304.459Z" fill="#DEAD62" fill-opacity="0.1"/>
<path d="M-72.8083 298.211C-63.2644 325.084 -54.3706 350.036 -43.8536 373.821C-36.9506 389.358 -30.1931 405.438 -23.0379 422.207C-5.80972 462.788 12.0419 504.846 33.4522 548.294C71.9894 626.181 110.668 691.584 151.849 748.193C195.463 808.22 243.442 862.282 289.611 914.403C307.986 935.489 325.837 955.269 343.171 975.348C360.704 995.772 378.357 1015.21 395.339 1033.88C418.99 1059.73 441.302 1084.05 460.407 1108.39C510.377 1171.87 565.379 1224.18 623.874 1279.74C631.629 1287.21 639.557 1294.58 647.411 1302.21C647.239 1302.31 647.067 1302.41 646.822 1302.78C639.139 1295.05 631.212 1287.68 623.556 1280.39C565.061 1224.82 509.887 1172.61 459.818 1108.96C440.713 1084.62 418.401 1060.3 394.849 1034.62C377.767 1015.78 360.214 996.514 342.509 976.19C325.175 956.111 307.668 936.132 289.121 915.145C242.508 863.051 194.801 809.062 151.087 748.862C109.907 692.253 71.2276 626.851 32.5909 548.792C10.9089 505.27 -6.77037 463.113 -24.0714 422.803C-31.326 405.862 -37.9841 389.954 -44.7149 374.319C-55.2319 350.533 -64.3246 325.237 -73.4973 298.609C-74.7973 294.766 -76.369 290.85 -77.669 287.007C-77.4968 286.908 -77.4239 286.636 -77.2517 286.537C-75.6072 290.181 -74.1083 294.368 -72.8083 298.211Z" fill="#DEAD62" fill-opacity="0.1"/>
<path d="M-76.8318 292.038C-68.0302 318.421 -59.6796 343.227 -49.9777 366.794C-43.8438 381.397 -37.9547 396.37 -31.3963 412.106C-14.3331 454.389 3.25381 497.978 25.0425 543.276C62.6456 621.931 101.351 687.778 142.903 744.632C189.891 808.912 241.482 865.253 291.906 919.97C308.02 937.538 323.193 954.271 338.194 971.104C356.615 991.474 375.056 1010.68 392.827 1029.13C416.995 1054.68 439.896 1078.44 459.591 1102.21C510.64 1164.37 566.795 1215.09 626.343 1268.9C636.623 1278.36 647.076 1287.71 657.257 1296.99C657.184 1297.26 657.085 1297.09 656.568 1297.39C646.559 1288.01 636.107 1278.66 625.926 1269.38C566.55 1215.46 510.123 1164.67 459.074 1102.5C439.651 1078.81 416.75 1055.05 392.337 1029.88C374.466 1011.25 355.926 991.872 337.677 971.402C322.677 954.569 307.331 937.936 291.217 920.368C241.065 865.723 188.931 809.237 142.314 745.202C100.662 688.176 62.1288 622.23 24.3534 543.674C2.56476 498.376 -15.0222 454.787 -32.1581 412.775C-38.5443 396.94 -44.6056 382.066 -50.6668 367.192C-60.5409 343.725 -68.7192 318.819 -77.693 292.535C-78.1175 291.402 -78.5419 290.269 -78.7941 289.037C-78.7213 288.765 -78.3769 288.566 -78.304 288.294C-77.8796 289.427 -77.3557 290.733 -76.8318 292.038Z" fill="#DEAD62" fill-opacity="0.1"/>
<path d="M-56.1032 359.765C-50.7381 373.433 -45.3464 387.545 -39.4574 402.519C-22.7583 446.161 -5.43588 491.281 16.6316 538.255C53.473 617.58 91.7612 683.897 133.883 741.341C183.576 809.112 239.322 867.877 293.802 924.846C307.312 939.094 320.35 952.926 333.289 966.585C352.426 987.002 371.483 1006.09 390.241 1024.65C415.343 1049.43 438.489 1072.82 458.601 1096.12C510.704 1156.53 568.137 1206.28 628.466 1258.26C641.517 1269.33 654.197 1280.15 667.274 1291.67C667.102 1291.77 666.83 1291.69 666.486 1291.89C653.779 1280.62 640.901 1269.46 628.493 1258.71C567.792 1206.48 510.485 1157.34 458.184 1096.59C438.072 1073.29 414.654 1049.83 389.896 1024.85C371.237 1006.46 352.081 987.201 332.944 966.784C320.078 952.853 307.066 939.466 293.186 924.972C238.978 868.075 182.861 809.066 133.44 741.367C91.5891 683.997 53.2013 617.507 16.0883 538.109C-5.70748 491.208 -23.1294 445.916 -39.8285 402.274C-45.6181 387.473 -50.9103 373.532 -56.3749 359.692C-64.9828 338.02 -72.3388 314.936 -79.947 290.62C-79.7748 290.52 -79.5297 290.149 -79.4569 289.877C-72.0937 314.565 -64.6383 337.821 -56.1032 359.765Z" fill="#DEAD62" fill-opacity="0.1"/>
<path d="M-62.2278 352.738C-57.36 365.545 -52.8368 378.551 -47.6439 392.319C-31.2094 437.492 -14.0521 484.315 7.85028 532.991C44.102 612.886 82.2448 679.747 124.566 737.535C176.963 808.798 236.938 869.714 295.003 928.518C306.378 939.865 316.838 950.821 327.741 961.751C347.693 982.386 367.81 1001.32 387.185 1019.76C412.532 1044.17 436.54 1067.06 457.168 1090.06C510.622 1149.22 568.836 1197.15 630.318 1247.55C645.967 1260.33 661.344 1273.04 676.821 1285.93C676.649 1286.03 676.477 1286.12 676.304 1286.22C660.927 1273.51 645.451 1260.63 630.1 1248.36C568.519 1197.79 510.205 1149.7 456.479 1090.45C435.95 1067.63 411.942 1044.74 386.695 1020.5C367.42 1002.23 347.375 983.029 327.251 962.494C316.692 951.365 305.888 940.607 294.513 929.26C236.348 870.284 176.201 809.467 124.076 738.277C81.6552 680.317 43.4131 613.284 7.33354 533.289C-14.6683 484.441 -31.8984 437.889 -48.2602 392.445C-53.1813 378.75 -58.1486 365.77 -62.8441 352.864C-69.8609 333.948 -75.9702 313.819 -82.1061 293.246C-82.0333 292.974 -81.861 292.875 -81.6888 292.775C-75.4534 313.521 -69.344 333.649 -62.2278 352.738Z" fill="#DEAD62" fill-opacity="0.1"/>
<path d="M-68.4529 345.535C-64.3541 357.408 -60.1557 369.454 -55.5596 382.188C-39.3896 428.892 -22.6691 477.345 -0.75958 527.625C34.5581 608.289 72.383 675.793 115.347 733.899C170.078 808.407 234.154 870.86 296.249 931.471C304.674 939.698 313.669 948.515 322.465 956.987C343.205 977.396 363.865 996.473 384.128 1014.86C410.137 1038.43 434.562 1060.85 455.781 1083.28C510.513 1141.48 569.608 1187.74 632.64 1237.25C650.589 1251.23 668.71 1265.11 686.612 1279.81C686.513 1279.64 686.34 1279.74 686.168 1279.84C668.021 1265.51 650.244 1251.43 632.296 1237.45C569.462 1188.29 509.824 1141.87 455.092 1083.67C434.344 1061.66 409.72 1038.9 383.883 1015.23C363.62 996.845 342.887 978.039 322.319 957.53C313.424 948.886 304.628 940.414 296.004 931.842C234.082 871.132 169.733 808.606 115.002 734.097C72.2107 675.892 34.1142 608.316 -1.37581 527.751C-23.4842 477.126 -40.1053 428.846 -56.3748 381.969C-60.6992 369.308 -64.8975 357.263 -69.268 345.317C-74.8658 329.256 -79.7018 312.526 -84.5644 295.353C-84.3922 295.253 -84.1471 294.882 -83.9748 294.782C-78.9133 312.301 -74.0507 329.475 -68.4529 345.535Z" fill="#DEAD62" fill-opacity="0.1"/>
<path d="M-74.5776 338.508C-70.8037 349.42 -67.3743 360.531 -63.3749 372.232C-48.3184 418.201 -31.2853 470.377 -9.16974 522.606C25.3862 603.94 63.2378 671.887 106.5 730.51C163.737 808.165 231.816 871.981 297.914 933.956C304.529 940.243 311.144 946.529 317.759 952.815C339.188 972.826 360.836 992.022 381.814 1010.46C408.241 1033.55 433.355 1055.57 454.891 1077.36C510.875 1134.15 571.421 1179.35 635.507 1227.1C655.854 1242.45 676.474 1257.88 697.392 1273.82C697.319 1274.09 697.319 1274.09 696.703 1274.22C676.156 1258.52 655.709 1242.99 635.017 1227.84C571.103 1179.99 510.385 1134.89 454.573 1078C433.037 1056.22 408.023 1034.37 381.669 1011C360.79 992.738 339.069 973.814 317.441 953.458C310.654 947.271 304.31 941.058 297.795 934.944C231.697 872.969 163.419 808.808 106.01 731.252C62.7476 672.629 24.969 604.41 -9.7592 523.176C-31.8748 470.948 -48.908 418.771 -64.0639 372.63C-67.9639 361.101 -71.4928 349.818 -74.9949 338.978C-79.2465 326.045 -83.0808 312.641 -86.8423 298.966C-86.67 298.866 -86.5973 298.594 -86.2528 298.395C-82.6902 311.726 -78.9287 325.402 -74.5776 338.508Z" fill="#DEAD62" fill-opacity="0.1"/>
<path d="M-80.8012 331.307C-77.5246 341.358 -74.5197 351.337 -71.0175 362.176C-56.4972 409.603 -39.9009 463.41 -17.6787 517.414C16.1153 599.417 53.5495 667.835 97.2823 726.875C156.826 807.333 232.474 875.507 299.008 935.851C303.443 939.952 307.877 944.052 312.112 947.808C334.728 968.283 357.164 987.253 378.832 1005.29C405.775 1028.09 431.406 1049.81 453.359 1071.12C510.522 1126.77 572.049 1170.49 637.413 1217.27C660.577 1233.52 683.94 1250.12 707.429 1267.34C707.184 1267.71 706.912 1267.63 706.74 1267.73C683.423 1250.42 660.332 1233.89 637.34 1217.54C571.903 1171.03 510.205 1127.42 453.114 1071.5C431.234 1049.91 405.603 1028.19 378.587 1005.66C356.82 987.452 334.682 968.998 311.967 948.351C307.533 944.251 302.999 939.978 298.664 936.05C232.057 875.977 156.481 807.532 96.8383 726.902C53.205 668.034 15.3997 599.371 -18.2222 517.268C-40.4443 463.264 -57.1401 409.285 -71.6603 361.858C-75.063 351.191 -78.1676 341.04 -81.1725 331.062C-84.2502 321.356 -86.9105 311.178 -89.5709 301.001C-89.3987 300.902 -89.1536 300.531 -88.9813 300.431C-86.4665 311.152 -83.8062 321.329 -80.8012 331.307Z" fill="#DEAD62" fill-opacity="0.1"/>
<path d="M-87.0272 324.105C-84.2478 333.295 -81.5679 342.313 -78.9341 352.046C-64.6785 401.003 -48.7906 456.368 -26.4618 512.148C6.39815 594.92 43.9585 663.955 88.0625 723.239C149.913 806.499 229.464 875.865 299.975 937.129L307.034 943.389C330.166 963.565 353.391 982.31 375.946 1000.29C403.479 1022.52 429.699 1043.67 451.997 1064.79C510.611 1119.37 573.217 1161.77 639.906 1206.87C665.37 1224.32 691.377 1241.92 717.537 1260.58C717.365 1260.68 717.193 1260.78 716.848 1260.98C690.86 1242.22 665.224 1224.87 639.416 1207.61C572.8 1162.24 509.922 1119.77 451.48 1065.09C429.01 1044.07 403.161 1023.17 375.529 1000.76C352.801 982.88 329.749 964.036 306.245 943.614L299.114 937.626C228.702 876.534 149.052 806.997 87.1017 723.564C42.9977 664.279 5.33804 595.073 -27.522 512.301C-49.9502 456.349 -65.9374 400.812 -80.0208 351.755C-82.8269 342.121 -85.4075 333.276 -88.1868 324.086C-90.0907 317.606 -91.6499 310.927 -93.3814 304.348C-93.2092 304.248 -93.1364 303.977 -92.7919 303.778C-90.5898 310.774 -88.931 317.626 -87.0272 324.105Z" fill="#DEAD62" fill-opacity="0.1"/>
<path d="M-92.9788 316.978C-90.7961 325.134 -88.4412 333.191 -86.2318 341.791C-72.5125 392.206 -57.2338 449.301 -34.7985 506.856C-2.52801 590.199 34.7144 659.876 79.1896 719.406C143.075 805.395 227.047 875.654 300.99 937.692L302.103 938.427C326.223 958.723 350.336 977.414 373.606 995.444C401.729 1017.1 428.367 1037.78 451.082 1058.43C510.802 1112.14 574.932 1153.21 642.356 1197.19C670.736 1215.71 699.36 1233.87 728.291 1254.14C728.019 1254.07 727.946 1254.34 727.774 1254.44C698.97 1234.78 670.318 1216.18 642.137 1198C574.269 1154.05 510.385 1112.61 450.665 1058.9C427.976 1038.7 401.61 1018.09 373.017 996.014C349.945 978.329 325.733 959.465 301.613 939.17L300.5 938.434C226.384 876.495 142.585 806.137 78.3283 719.903C33.7537 660.201 -3.38927 590.696 -35.7592 507.181C-57.85 449.427 -73.4004 392.26 -87.0203 342.017C-89.4019 333.516 -91.5846 325.359 -93.7673 317.203C-94.57 314.222 -95.2005 311.14 -96.1027 307.987C-95.9304 307.887 -95.6854 307.516 -95.5131 307.417C-94.611 310.57 -93.7815 313.996 -92.9788 316.978Z" fill="#DEAD62" fill-opacity="0.1"/>
<path d="M-93.7046 331.634C-80.6938 383.606 -65.6796 442.231 -43.4821 501.762C-12.0463 586.045 24.8516 655.921 69.7973 715.869C136.062 804.388 225.024 876.13 296.481 933.862C321.76 954.177 346.662 972.643 370.449 990.374C399.261 1011.64 426.687 1032.09 449.72 1052.09C510.792 1104.57 575.656 1144.52 644.875 1187.23C675.972 1206.49 707.341 1225.81 738.988 1246.81C738.644 1247.01 738.472 1247.11 738.399 1247.38C707.123 1226.63 675.754 1207.3 644.929 1188.12C575.809 1145.58 510.745 1105.28 449.674 1052.81C426.541 1032.63 399.314 1012.52 370.575 990.99C346.516 973.186 321.615 954.72 296.707 934.65C224.978 876.845 136.016 805.104 69.6518 716.412C24.8783 656.365 -12.4902 586.072 -43.8265 501.961C-66.024 442.43 -80.9655 383.534 -94.1486 331.66C-95.8074 324.809 -97.6384 318.058 -99.37 311.478C-99.1977 311.379 -98.8532 311.18 -98.7803 310.908C-97.1216 317.759 -95.4629 324.61 -93.7046 331.634Z" fill="#DEAD62" fill-opacity="0.1"/>
<path d="M-101.002 321.379C-88.256 374.883 -74.1227 435.165 -51.9909 496.571C-21.4164 581.351 15.4353 651.943 60.8517 712.308C123.617 795.958 205.771 862.672 291.378 929.001C317.373 949.362 343.162 967.775 367.838 985.453C397.067 1006.24 425.082 1026.13 448.533 1045.66C510.784 1096.99 577.126 1136.32 647.425 1177.73C681.239 1197.71 715.424 1217.93 749.516 1239.59C749.444 1239.86 749.099 1240.06 748.927 1240.16C714.834 1218.5 680.649 1198.28 647.279 1178.27C576.98 1136.86 510.393 1097.91 448.314 1046.48C424.665 1026.6 396.848 1007.06 367.792 986.168C342.917 968.146 317.228 949.905 291.259 929.988C205.454 863.315 123.127 796.701 60.4344 712.778C15.1903 652.314 -21.9331 581.65 -52.6071 496.697C-74.7389 435.291 -88.9718 374.837 -101.446 321.406C-102.123 319.041 -102.528 316.748 -103.105 314.555C-102.933 314.456 -102.761 314.356 -102.516 313.985C-102.011 316.45 -101.507 318.915 -101.002 321.379Z" fill="#DEAD62" fill-opacity="0.1"/>
<path d="M-60.6732 491.477C-30.8604 576.927 5.84581 648.063 51.5605 708.944C115.664 794.118 202.538 862.242 286.202 924.41C312.912 944.817 339.563 962.733 365.027 980.185C395.044 1000.75 423.106 1019.92 447.272 1039.5C510.529 1089.79 578.223 1127.88 649.873 1168.04C686.477 1188.48 723.379 1209.43 760.388 1232.16C760.143 1232.53 759.699 1232.56 759.527 1232.66C722.862 1209.73 685.887 1189.05 649.456 1168.51C578.077 1128.42 510.384 1090.33 447.027 1039.87C422.715 1020.83 394.626 1001.22 364.881 980.728C339.317 963.104 312.74 944.917 285.784 924.881C202.365 862.342 115.32 794.317 51.017 708.798C5.30237 647.917 -31.5033 576.61 -61.1438 491.06C-82.4338 430.316 -95.8977 370.796 -107.385 317.485C-107.213 317.385 -107.04 317.286 -106.968 317.014C-95.0825 371.015 -81.6915 430.807 -60.6732 491.477Z" fill="#DEAD62" fill-opacity="0.1"/>
<path d="M-69.1832 486.287C-40.0329 572.579 -3.57172 644.085 42.5142 705.211C108.057 792.081 196.38 859.138 281.224 920.166C308.796 940.076 335.989 958.137 362.785 975.509C392.948 995.531 421.626 1014.57 446.183 1033.24C510.719 1082.56 579.32 1119.44 652.249 1158.63C691.47 1179.63 731.606 1201.01 771.286 1225.18C771.014 1225.11 770.941 1225.38 770.769 1225.48C731.116 1201.75 691.424 1180.34 652.203 1159.35C579.373 1120.32 510.401 1083.21 445.865 1033.88C421.308 1015.22 392.63 996.174 362.368 975.98C335.744 958.508 308.279 940.374 280.979 920.537C195.963 859.609 107.639 792.552 42.1696 705.41C-3.91625 644.284 -40.4768 572.605 -69.7267 486.141C-89.0276 428.843 -101.218 372.722 -111.512 321.477C-111.34 321.377 -111.168 321.278 -111.095 321.006C-100.602 372.596 -88.4114 428.717 -69.1832 486.287Z" fill="#DEAD62" fill-opacity="0.1"/>
<path d="M-77.6928 481.095C-49.4765 568.156 -13.0616 640.378 33.4949 701.921C100.105 790.242 193.664 858.411 276.047 915.576C304.507 935.433 332.662 953.169 360.001 970.687C390.853 990.311 419.948 1008.88 444.75 1027.18C510.565 1075.53 580.716 1111.51 654.724 1149.4C696.835 1171.02 739.588 1192.96 782.33 1217.66C781.985 1217.86 781.813 1217.96 781.641 1218.06C739.271 1193.6 696.345 1171.76 654.678 1150.11C580.57 1112.06 510.519 1076.25 444.604 1027.72C419.431 1009.18 390.336 990.609 359.484 970.985C332.344 953.812 303.99 935.731 275.358 915.974C192.975 858.808 99.4883 790.368 32.7792 701.875C-13.7772 640.332 -50.1923 568.11 -78.508 480.876C-95.9922 427.123 -107.009 374.228 -116.354 325.422C-116.182 325.322 -115.937 324.951 -115.765 324.852C-106.393 374.102 -95.2037 426.897 -77.6928 481.095Z" fill="#DEAD62" fill-opacity="0.1"/>
<path d="M-86.1031 476.074C-58.6486 563.805 -22.4786 636.398 24.2767 698.286C92.2982 787.859 187.136 855.059 270.699 911.085C300.318 930.961 329.261 948.472 357.561 965.664C388.757 985.089 418.615 1002.99 443.761 1021.09C510.954 1068.65 581.913 1103.24 657.399 1140.5C702.372 1162.31 748.088 1184.61 793.546 1210.04C793.473 1210.31 793.128 1210.51 793.056 1210.78C747.77 1185.25 702.054 1162.95 657.425 1140.95C582.066 1104.3 510.735 1069.46 443.715 1021.8C418.224 1003.91 388.612 985.633 357.243 966.307C329.042 949.287 299.801 931.259 270.652 911.8C186.917 855.874 91.9803 788.502 23.8594 698.757C-22.896 636.868 -59.3376 564.203 -86.7193 476.2C-102.685 425.474 -112.8 375.734 -121.197 329.365C-121.025 329.266 -120.852 329.166 -120.68 329.067C-112.382 375.263 -102.168 425.176 -86.1031 476.074Z" fill="#DEAD62" fill-opacity="0.1"/>
<path d="M-94.7125 470.71C-67.8209 559.454 -31.7965 632.591 15.2305 694.552C80.6468 780.806 174.371 847.271 265.595 906.223C296.003 925.873 325.933 943.503 354.849 960.57C386.635 979.425 416.936 997.299 442.572 1014.65C510.971 1061.52 583.481 1095.22 660.218 1131.07C707.71 1153.26 756.659 1175.98 804.835 1202.14C804.689 1202.68 804.517 1202.78 804.344 1202.88C756.242 1176.45 707.492 1154.07 660.345 1131.68C583.607 1095.83 510.998 1061.96 442.526 1015.37C416.519 997.77 386.489 979.968 354.902 961.457C325.814 944.49 296.056 926.761 265.575 907.382C225.047 880.943 177.34 849.231 132.13 813.092C83.8981 774.105 45.5856 735.592 15.0121 695.367C-32.3594 633.605 -68.311 560.196 -95.302 471.28C-109.749 423.581 -118.962 376.995 -126.411 333.064C-126.238 332.965 -126.066 332.865 -125.722 332.667C-118.644 376.352 -109.16 423.011 -94.7125 470.71Z" fill="#DEAD62" fill-opacity="0.1"/>
<path d="M-103.395 465.617C-77.1659 555.203 -41.5588 628.811 6.11112 691.089C72.5681 778.35 167.571 843.848 260.517 901.805C291.442 921.157 322.26 938.734 352.137 955.475C384.612 973.933 415.059 991.264 441.311 1008.49C510.988 1054.39 584.505 1087.05 662.693 1121.83C713.491 1144.18 764.959 1167.29 816.222 1194.42C816.149 1194.69 816.149 1194.69 815.805 1194.89C764.542 1167.76 713.174 1144.82 662.548 1122.37C584.26 1087.42 510.544 1054.42 440.894 1008.96C414.741 991.907 384.022 974.502 351.819 956.118C322.015 939.105 291.296 921.7 260.1 902.275C166.981 844.418 71.879 778.748 5.59434 691.388C-42.0028 628.837 -77.9809 554.985 -104.111 465.571C-117.013 421.345 -125.549 377.123 -132.195 336.175C-132.023 336.075 -131.85 335.976 -131.506 335.777C-124.86 376.725 -116.225 421.119 -103.395 465.617Z" fill="#DEAD62" fill-opacity="0.1"/>
<path d="M-137.164 339.5C-131.393 377.739 -123.488 418.88 -112.005 460.251C-86.7097 550.606 -50.9766 624.829 -3.10779 687.453C64.3898 775.72 160.771 840.422 255.141 896.868C287.325 916.412 318.931 933.763 349.597 950.279C382.317 968.365 413.353 985.126 439.923 1001.71C510.879 1046.64 585.774 1078.5 665.241 1112.32C719.1 1135.19 773.603 1158.39 828.027 1186.22C827.683 1186.42 827.438 1186.79 827.438 1186.79C773.358 1158.76 718.584 1135.49 665.195 1113.03C585.728 1079.22 510.833 1047.36 439.804 1002.7C413.208 985.67 381.972 968.564 349.179 950.749C318.587 933.962 286.907 916.882 254.995 897.411C160.526 840.793 63.873 776.018 -3.72401 687.579C-51.6923 624.783 -87.4253 550.56 -112.72 460.205C-124.376 418.933 -132.109 377.693 -137.952 339.726C-137.78 339.627 -137.78 339.627 -137.608 339.527C-137.237 339.772 -137.164 339.5 -137.164 339.5Z" fill="#DEAD62" fill-opacity="0.1"/>
<path d="M-120.415 455.231C-95.9812 546.084 -60.3937 620.85 -12.0543 683.891C56.4112 773.437 158.942 839.641 250.064 892.45C283.209 911.669 315.776 928.695 347.157 945.258C380.738 962.846 412.02 979.236 439.133 995.966C511.268 1039.76 587.441 1070.65 668.26 1103.23C724.982 1126.29 782.891 1149.81 840.131 1178.55C839.787 1178.74 839.615 1178.84 839.37 1179.21C782.5 1150.73 724.691 1127.37 668.141 1104.21C587.223 1071.47 511.05 1040.57 438.372 996.635C411.457 980.25 380.076 963.688 346.766 946.172C315.113 929.537 282.719 912.412 249.746 893.093C210.047 870.079 157.828 838.906 108.815 801.748C58.3164 763.61 18.4998 725.276 -12.6438 684.461C-61.2549 621.348 -96.4979 546.382 -121.203 455.457C-131.414 417.484 -138.39 379.942 -143.637 343.008C-143.464 342.909 -143.292 342.809 -143.12 342.71C-137.701 379.544 -130.625 417.259 -120.415 455.231Z" fill="#DEAD62" fill-opacity="0.1"/>
<path d="M-128.924 450.04C-105.252 541.562 -69.9825 616.971 -21.1725 680.429C48.062 770.91 152.043 836.046 244.789 887.689C278.821 906.855 312.104 923.927 344.545 940.336C378.372 957.554 410.17 973.646 437.701 989.904C511.015 1032.55 588.838 1062.73 670.59 1094.53C730.619 1117.75 791.735 1141.26 851.865 1170.62C851.593 1170.55 851.421 1170.65 851.249 1170.75C791.218 1141.56 730.374 1118.12 670.445 1095.08C588.348 1063.47 510.896 1033.54 437.383 990.547C410.024 974.189 378.126 957.925 344.227 940.979C312.058 924.642 278.603 907.67 244.769 888.848C151.825 836.862 47.6447 771.38 -21.8615 680.827C-70.6715 617.369 -106.113 542.059 -129.812 450.093C-138.974 414.731 -145.247 379.998 -149.963 345.974C-149.791 345.874 -149.618 345.775 -149.446 345.675C-144.287 379.673 -138.186 414.506 -128.924 450.04Z" fill="#DEAD62" fill-opacity="0.1"/>
<path d="M-137.434 444.847C-114.424 537.211 -79.2999 613.164 -30.2182 676.695C39.9574 768.009 145.589 832.423 239.712 883.27C274.705 902.111 308.949 918.858 342.278 935.214C376.521 951.961 408.764 968.026 436.785 983.543C511.576 1025.57 590.234 1054.8 673.41 1085.09C736.746 1108.47 800.896 1132.07 864.187 1162.13C864.015 1162.23 863.77 1162.6 863.598 1162.7C800.406 1132.81 736.156 1109.04 673.464 1085.98C589.989 1055.17 511.358 1026.38 436.367 984.013C408.691 968.298 376.376 952.504 341.96 935.857C309.075 919.474 274.831 902.727 239.838 883.886C145.343 832.794 39.7123 768.381 -30.735 676.993C-79.9161 613.29 -115.14 537.164 -138.149 444.801C-146.337 412.321 -151.734 380.298 -156.19 349.109C-156.018 349.01 -155.674 348.811 -155.501 348.711C-151.217 379.999 -145.621 412.367 -137.434 444.847Z" fill="#DEAD62" fill-opacity="0.1"/>
<path d="M-146.116 439.754C-123.769 532.96 -88.8902 609.284 -39.5101 673.331C31.5073 765.308 138.96 828.9 234.535 878.68C270.316 897.295 305.547 914.161 339.466 929.947C374.498 946.469 406.959 961.719 435.251 977.308C511.52 1018.71 591.529 1046.7 676.256 1076.1C742.799 1099.47 810.428 1123.12 876.708 1153.98C876.708 1153.98 876.363 1154.18 876.291 1154.45C810.11 1123.76 742.381 1099.94 676.482 1076.89C591.655 1047.32 511.547 1019.16 435.278 977.752C407.012 962.607 374.352 947.012 339.691 930.736C305.746 914.505 270.171 897.838 234.661 879.296C138.888 829.172 31.5339 765.752 -39.6823 673.431C-65.7611 639.797 -88.283 601.584 -106.625 560.268C-122.997 523.557 -136.302 483.008 -146.832 439.708C-153.673 410.356 -158.739 380.896 -162.518 352.073C-162.346 351.974 -162.174 351.874 -161.902 351.947C-158.122 380.77 -153.157 410.057 -146.116 439.754Z" fill="#DEAD62" fill-opacity="0.1"/>
<path d="M-154.627 434.561C-133.141 528.264 -98.5803 605.231 -48.5573 669.596C23.1295 762.335 132.305 824.932 228.986 873.844C265.927 892.478 302.218 909.191 337.197 924.825C372.447 940.531 405.451 955.927 433.79 970.801C511.265 1011.51 592.725 1038.43 678.929 1067.21C748.579 1090.38 819.688 1114.1 889.228 1145.84C888.956 1145.76 888.883 1146.03 888.711 1146.13C819.098 1114.67 748.262 1091.03 678.883 1067.92C592.407 1039.07 511.02 1011.88 433.645 971.344C405.206 956.298 371.884 941.545 337.051 925.368C301.973 909.563 265.51 892.949 228.84 874.387C166.9 843.084 118.89 815.223 77.7847 786.59C24.4043 749.427 -17.1883 711.2 -49.3459 669.822C-75.6235 635.844 -98.2449 597.458 -116.441 555.599C-132.641 518.788 -145.801 477.696 -155.814 434.098C-161.978 407.111 -166.34 380.461 -169.887 354.03C-169.715 353.93 -169.543 353.831 -169.099 353.804C-165.353 380.58 -160.891 407.402 -154.627 434.561Z" fill="#DEAD62" fill-opacity="0.1"/>
<path d="M-163.408 429.297C-142.683 523.669 -108.096 601.08 -57.7744 665.962C15.1521 760.052 131.094 824.026 223.983 869.154C261.812 887.736 298.865 903.78 334.659 919.631C370.081 935.238 403.847 949.965 432.604 964.368C511.158 1003.76 593.923 1030.16 681.234 1058.07C754.263 1081.13 829.023 1104.8 901.896 1137.14C901.651 1137.52 901.651 1137.52 901.134 1137.81C828.261 1105.47 754.045 1081.95 681.188 1058.79C593.632 1031.25 511.039 1004.75 432.385 965.183C403.529 950.607 370.035 935.954 334.613 920.347C298.646 904.595 261.766 888.451 223.764 869.97C160.891 839.436 112.092 811.8 70.0984 783.22C15.9295 746.283 -26.1069 708.082 -58.2912 666.26C-84.7411 632.382 -107.29 593.724 -125.413 551.593C-141.368 514.412 -154.455 473.048 -163.951 429.151C-169.24 404.874 -173.197 380.517 -176.24 356.55C-176.068 356.451 -175.796 356.524 -175.451 356.325C-172.482 380.563 -168.524 404.92 -163.408 429.297Z" fill="#DEAD62" fill-opacity="0.1"/>
<path d="M-171.746 424.005C-152.109 518.086 -116.817 598.306 -66.8211 662.228C6.94711 756.98 124.711 820.131 219.077 864.637C257.695 882.992 295.735 899.155 332.39 914.51C368.403 929.547 402.142 943.829 431.441 958.378C511.473 997.149 595.146 1022.34 684.179 1049.25C760.86 1072.27 839.098 1096 915.676 1129.19C915.503 1129.29 915.331 1129.39 915.086 1129.76C838.952 1096.55 760.814 1072.99 684.305 1049.87C595.643 1023.2 511.6 997.765 431.568 958.994C402.295 944.889 368.184 930.362 332.516 915.126C295.662 899.427 257.821 883.609 218.932 865.18C124.565 820.675 6.6292 757.623 -67.2384 662.698C-93.6156 628.548 -116.535 589.645 -134.685 547.07C-150.395 509.517 -163.31 468.054 -172.561 423.786C-177.074 402.047 -180.699 380.254 -183.138 358.925C-182.965 358.825 -182.694 358.898 -182.521 358.798C-179.711 380.373 -176.259 402.265 -171.746 424.005Z" fill="#DEAD62" fill-opacity="0.1"/>
<path d="M-180.428 418.912C-161.651 513.49 -126.506 594.254 -75.9396 658.765C-1.77363 754.206 117.812 816.535 213.629 859.973C253.307 878.176 292.209 893.842 330.023 909.216C366.38 924.054 400.736 938.21 430.254 951.943C511.392 989.847 596.813 1014.48 686.926 1040.08C767.258 1063.07 849.22 1086.48 929.085 1120.99C928.913 1121.09 928.741 1121.19 928.496 1121.56C848.829 1087.4 766.868 1063.98 686.708 1040.9C596.668 1015.03 511.273 990.834 430.208 952.659C400.517 939.025 366.334 924.769 330.077 910.104C292.262 894.73 253.261 878.892 213.583 860.689C117.666 817.079 -1.81974 754.922 -76.4564 659.063C-103.377 624.767 -125.952 585.666 -143.83 543.163C-159.739 505.266 -172.137 463.504 -181.143 418.865C-185.079 399.319 -188.027 379.892 -190.333 360.782C-190.16 360.683 -189.889 360.755 -189.717 360.656C-187.139 379.838 -184.191 399.266 -180.428 418.912Z" fill="#DEAD62" fill-opacity="0.1"/>
<path d="M-188.937 413.721C-170.823 509.141 -135.751 590.176 -84.8861 655.204C-9.87833 751.308 111.258 812.742 208.453 855.384C249.363 873.335 289.152 888.947 327.855 904.268C364.53 918.463 399.23 932.42 429.165 945.683C511.708 983.235 598.209 1006.56 689.7 1031.36C773.955 1054.38 860.012 1077.73 943.382 1112.73C943.21 1112.83 943.137 1113.11 942.521 1113.23C859.323 1078.13 773.809 1054.92 689.926 1032.15C598.335 1007.17 511.834 983.851 429.391 946.472C399.528 932.937 364.484 919.179 327.882 904.712C289.279 889.563 249.489 873.951 208.579 856C111.284 813.186 -9.95115 751.58 -85.2306 655.403C-112.35 620.762 -135.124 581.317 -152.757 538.443C-168.494 500.446 -180.647 458.313 -189.308 413.476C-192.567 396.295 -195.111 379.16 -197.111 362.171C-196.939 362.071 -196.667 362.144 -196.495 362.044C-194.839 379.233 -192.196 396.54 -188.937 413.721Z" fill="#DEAD62" fill-opacity="0.1"/>
<path d="M-197.448 408.527C-179.923 504.517 -145.341 586.294 -94.1049 651.567C-18.2554 748.334 104.702 808.945 203.276 850.792C244.974 868.517 285.996 883.877 325.487 898.973C362.507 912.969 397.697 926.184 427.904 939.519C511.798 975.831 599.233 998.386 692.175 1022.12C780.425 1044.9 870.551 1067.74 957.851 1104.38C957.679 1104.48 957.334 1104.68 957.162 1104.78C870.16 1068.65 780.207 1045.71 692.401 1022.91C599.26 998.83 511.381 976.302 427.93 939.963C397.651 926.899 362.533 913.413 325.242 899.344C285.678 884.52 244.829 869.061 203.302 851.236C136.367 822.817 84.3422 796.355 39.3404 768.135C-17.81 732 -61.5229 694.078 -94.7211 651.693C-121.94 616.881 -144.714 577.435 -162.473 533.945C-177.965 495.577 -190.045 453.172 -198.289 407.864C-200.872 393.048 -203.182 378.306 -204.777 363.609C-204.605 363.51 -204.334 363.582 -204.161 363.483C-202.268 378.696 -200.129 393.539 -197.448 408.527Z" fill="#DEAD62" fill-opacity="0.1"/>
<path d="M-206.13 403.435C-189.367 500.094 -154.831 582.588 -103.224 648.105C-26.8042 745.462 97.9755 805.251 198.099 846.203C240.858 863.775 282.496 879.009 323.22 893.852C360.656 907.378 396.191 920.394 426.815 933.259C511.644 968.802 600.629 990.461 694.949 1013.4C786.923 1035.86 881.515 1058.88 972.692 1096.27C972.42 1096.2 972.175 1096.57 972.003 1096.67C881.197 1059.52 787.149 1036.65 695.075 1014.02C600.855 991.25 511.597 969.518 426.769 933.975C396.072 921.381 360.882 908.166 323.273 894.74C282.549 879.897 240.812 864.491 198.153 847.09C130.456 819.341 77.4698 793.204 31.6529 764.765C-26.0143 728.929 -70.4428 690.961 -103.641 648.576C-131.132 613.691 -153.932 573.801 -171.519 530.212C-187.11 491.671 -198.945 448.896 -206.574 403.461C-208.678 390.667 -210.611 377.772 -212.172 365.123C-212 365.024 -211.728 365.096 -211.556 364.997C-210.167 377.746 -208.234 390.64 -206.13 403.435Z" fill="#DEAD62" fill-opacity="0.1"/>
<path d="M-214.64 398.241C-198.54 495.742 -164.149 578.779 -112.343 644.642C-35.3536 742.587 91.3208 801.282 192.922 841.611C236.37 858.786 279.168 874.039 320.11 888.067C358.262 901.639 394.485 914.257 425.554 927.095C511.561 961.498 601.481 982.389 696.735 1004.56C793.592 1026.73 892.822 1049.82 987.903 1088.41C987.73 1088.5 987.386 1088.7 987.214 1088.8C892.405 1050.29 793.374 1027.55 696.861 1005.18C601.461 983.548 511.442 962.486 425.507 927.811C394.194 915.344 358.143 902.626 319.818 889.154C278.85 874.682 236.251 859.773 192.704 842.426C123.973 815.273 70.3712 789.262 23.7658 761.049C-34.7626 725.71 -79.4629 687.669 -113.032 645.039C-140.622 609.982 -163.522 569.92 -180.964 525.787C-196.21 487.048 -207.873 444.173 -215.356 398.195C-217.055 387.693 -218.51 376.819 -219.693 366.019C-219.521 365.919 -219.249 365.992 -219.077 365.893C-217.794 376.866 -216.439 387.567 -214.64 398.241Z" fill="#DEAD62" fill-opacity="0.1"/>
<path d="M-223.148 393.051C-207.982 491.321 -173.664 574.63 -121.66 640.836C-44.0272 739.1 84.3965 797.245 187.747 837.022C232.083 854.144 275.642 868.728 317.671 883.047C356.141 895.976 392.709 908.395 424.294 920.935C511.706 954.987 603.249 974.71 700.053 995.99C801.35 1017.89 905.093 1040.45 1004.2 1080.84C1003.93 1080.76 1003.59 1080.96 1003.24 1081.16C904.43 1041.29 801.132 1018.71 700.179 996.606C603.203 975.426 511.932 955.775 424.52 921.724C392.762 909.283 356.393 897.208 317.797 883.663C275.768 869.344 232.209 854.76 187.701 837.738C118.01 810.911 63.5463 785.397 16.3247 757.31C-42.82 722.096 -87.9641 684.082 -121.905 641.208C-149.866 605.905 -172.594 565.743 -190.135 521.439C-205.408 482.255 -216.825 439.009 -223.964 392.832C-225.285 384.179 -226.335 375.598 -227.484 366.845C-227.212 366.918 -227.04 366.818 -226.868 366.719C-225.619 375.644 -224.47 384.397 -223.148 393.051Z" fill="#DEAD62" fill-opacity="0.1"/>
<path d="M-130.336 637.345C-29.1839 765.207 162.788 828.003 316.76 878.287C355.303 890.945 391.844 902.92 423.376 914.572C512.094 948.099 605.014 967.027 703.64 987.485C809.649 1009.19 918.003 1031.38 1021.02 1072.96C1020.94 1073.23 1020.5 1073.26 1020.15 1073.46C917.241 1032.05 809.331 1009.83 703.866 988.273C605.167 968.088 512.22 948.716 423.429 915.46C391.798 903.635 355.628 891.905 317.085 879.248C162.841 828.891 -29.3029 766.195 -130.654 637.988C-158.217 603.374 -180.819 563.829 -197.863 520.385C-212.91 481.99 -224.275 439.632 -231.187 394.244C-232.608 385.418 -233.857 376.493 -234.761 367.369C-234.589 367.269 -234.489 367.441 -234.317 367.342C-223.891 459.392 -195.214 555.603 -130.336 637.345Z" fill="#DEAD62" fill-opacity="0.1"/>
</svg>
