<svg width="138" height="137" viewBox="0 0 138 137" fill="none" xmlns="http://www.w3.org/2000/svg">
<path fill-rule="evenodd" clip-rule="evenodd" d="M69 0.150391C106.752 0.150391 137.35 30.7475 137.35 68.4999C137.35 106.252 106.752 136.849 69 136.849C31.2476 136.849 0.650513 106.252 0.650513 68.4999C0.650513 30.7475 31.2476 0.150391 69 0.150391Z" fill="url(#paint0_radial_804_751)"/>
<path d="M44.0898 52.9345C57.8398 39.5049 80.1602 39.5049 93.9102 52.9345L95.5655 54.5632C96.2597 55.2306 96.2597 56.3253 95.5655 56.9928L89.9053 62.5195C89.5582 62.8666 88.9976 62.8666 88.6505 62.5195L86.3811 60.3034C76.7694 50.9321 61.2306 50.9321 51.6189 60.3034L49.1893 62.6797C48.8422 63.0267 48.2816 63.0267 47.9345 62.6797L42.2743 57.153C41.5801 56.4855 41.5801 55.3908 42.2743 54.7233L44.0898 52.9345ZM105.631 64.3617L110.677 69.2743C111.371 69.9418 111.371 71.0365 110.677 71.7039L87.9563 93.8908C87.2621 94.5583 86.1408 94.5583 85.4733 93.8908L69.3471 78.1384C69.1869 77.9782 68.8932 77.9782 68.733 78.1384L52.6068 93.8908C51.9126 94.5583 50.7913 94.5583 50.1238 93.8908L27.3228 71.7039C26.6286 71.0365 26.6286 69.9418 27.3228 69.2743L32.3689 64.3617C33.0631 63.6942 34.1845 63.6942 34.8519 64.3617L50.9782 80.1141C51.1383 80.2743 51.432 80.2743 51.5922 80.1141L67.7184 64.3617C68.4126 63.6942 69.534 63.6942 70.2015 64.3617L86.3277 80.1141C86.4879 80.2743 86.7816 80.2743 86.9417 80.1141L103.068 64.3617C103.816 63.6942 104.937 63.6942 105.631 64.3617Z" fill="white"/>
<defs>
<radialGradient id="paint0_radial_804_751" cx="0" cy="0" r="1" gradientUnits="userSpaceOnUse" gradientTransform="translate(0.650936 68.502) scale(136.699)">
<stop stop-color="#5D9DF6"/>
<stop offset="1" stop-color="#006FFF"/>
</radialGradient>
</defs>
</svg>
