<svg width="1920" height="1399" viewBox="0 0 1920 1399" fill="none" xmlns="http://www.w3.org/2000/svg">
<path d="M1837.52 1088.06C1650.74 1064.67 1476.72 988.471 1308.38 914.398C1214.81 873.285 1117.34 830.755 1021.65 798.858C853.658 743.214 716.852 720.177 589.616 725.493C456.001 730.809 329.119 769.087 202.238 842.806C123.202 888.525 45.5848 934.954 -29.5518 979.965C-88.0308 1014.7 -146.155 1049.43 -204.28 1083.46C-204.28 1083.46 -204.28 1083.46 -204.28 1083.81C-204.28 1084.16 -204.28 1084.16 -204.28 1084.52C-145.801 1050.49 -87.3218 1015.76 -28.134 980.32C46.6481 935.663 124.266 889.234 203.301 843.514C448.558 701.393 685.309 688.988 1020.94 799.921C1117.34 831.819 1214.1 874.349 1308.02 915.461C1476.37 989.18 1650.74 1065.73 1837.88 1089.13C1881.82 1094.8 1924.71 1096.21 1966.88 1095.15C1966.88 1094.8 1966.88 1094.44 1966.88 1094.09C1924 1094.8 1881.12 1093.38 1837.52 1088.06Z" fill="#DEAD62" fill-opacity="0.1"/>
<path d="M1855.24 1084.16C1677.33 1061.84 1515 998.041 1350.91 928.929L1330.35 920.069C1234.66 880.019 1135.78 838.198 1036.89 807.009C903.633 764.834 787.029 741.796 679.995 736.126C512.709 727.265 364.563 762.707 213.226 845.641C115.761 899.512 21.8405 953.384 -66.764 1003.71C-113.193 1029.94 -159.267 1055.81 -205.341 1081.33C-204.987 1081.68 -204.987 1082.04 -204.987 1082.75C-158.913 1056.87 -112.838 1031 -66.0551 1004.07C22.195 953.384 116.116 899.867 214.29 846.35C364.563 762.707 512.71 728.329 679.64 736.48C786.32 742.151 902.569 764.834 1035.48 807.364C1134.36 838.198 1233.24 879.665 1328.93 920.423L1349.84 928.929C1514.29 998.041 1676.62 1061.84 1854.89 1084.16C1892.46 1088.77 1929.67 1090.54 1966.18 1090.54C1966.18 1090.19 1966.18 1089.83 1966.18 1089.48C1930.03 1090.9 1893.17 1088.77 1855.24 1084.16Z" fill="#DEAD62" fill-opacity="0.1"/>
<path d="M1872.96 1080.27C1688.31 1057.23 1521.74 994.496 1367.56 932.119L1358.35 928.575C1258.76 888.525 1155.62 847.059 1052.13 815.87C918.161 775.821 800.849 753.492 693.815 747.467C525.466 738.607 376.611 771.568 225.274 850.603C135.961 897.386 43.8122 946.296 -55.4248 1000.52C-104.335 1027.1 -153.953 1053.68 -204.28 1080.62C-204.28 1080.97 -204.28 1081.33 -204.989 1082.04C-153.599 1054.75 -103.98 1028.17 -54.716 1001.58C44.8755 947.359 137.024 898.449 225.983 851.312C377.674 772.631 526.175 740.024 693.46 748.53C800.495 754.201 918.161 776.884 1051.78 816.933C1154.91 848.476 1258.05 889.589 1357.29 929.638L1366.5 933.182C1521.03 995.56 1687.6 1058.29 1872.96 1081.68C1904.86 1085.58 1936.05 1087.71 1966.88 1088.42C1966.88 1088.06 1966.88 1087.71 1967.24 1087.35C1936.05 1086.29 1904.86 1084.16 1872.96 1080.27Z" fill="#DEAD62" fill-opacity="0.1"/>
<path d="M1890.68 1076.37C1707.45 1053.33 1538.75 994.85 1383.87 935.308C1281.09 895.968 1175.47 855.564 1068.08 824.375C933.756 786.098 815.38 764.124 707.283 758.099C537.871 748.53 388.306 779.364 236.97 854.147C132.417 905.892 39.9136 952.675 -44.7923 996.623C-99.0182 1024.98 -152.535 1051.91 -204.989 1078.14C-204.989 1078.14 -204.989 1078.85 -204.635 1079.2C-151.827 1052.98 -98.6639 1025.68 -43.7291 997.686C40.9768 953.738 133.834 906.955 238.033 855.21C389.37 780.782 537.871 750.302 707.283 759.517C815.38 765.542 933.047 787.162 1067.02 825.793C1174.41 856.627 1280.73 897.386 1383.16 936.726C1538.39 996.623 1707.1 1054.75 1890.68 1077.78C1916.91 1080.97 1942.43 1083.1 1967.95 1084.16C1967.95 1083.81 1967.95 1083.46 1968.3 1083.1C1942.43 1081.68 1916.91 1079.56 1890.68 1076.37Z" fill="#DEAD62" fill-opacity="0.1"/>
<path d="M1908.41 1072.11C1717.02 1048.01 1544.07 990.953 1400.53 938.499C1309.09 905.184 1195.32 863.717 1083.68 832.882C949.352 796.377 830.622 775.466 721.107 769.087C549.569 759.163 399.296 787.517 249.022 858.046C158.291 900.576 61.5354 946.296 -34.1575 993.079C-91.5732 1021.43 -148.634 1049.08 -205.341 1075.3C-205.341 1075.3 -205.341 1076.37 -204.987 1076.72C-148.635 1050.14 -91.5732 1022.5 -33.0943 994.142C62.2442 947.005 159.355 901.285 249.731 859.109C400.359 788.934 550.278 760.581 721.107 770.15C830.268 776.884 948.998 797.795 1083.68 834.3C1194.96 864.78 1308.73 906.247 1400.17 939.208C1543.71 992.37 1716.31 1049.43 1908.76 1073.53C1928.96 1076.01 1949.17 1077.78 1969.01 1078.85C1969.01 1078.49 1969.01 1078.14 1969.37 1077.79C1948.81 1076.37 1928.61 1074.95 1908.41 1072.11Z" fill="#DEAD62" fill-opacity="0.1"/>
<path d="M1926.13 1068.57C1723.76 1043.05 1547.26 987.409 1416.47 941.689C1310.5 904.475 1206.31 869.388 1098.92 841.743C964.238 807.01 845.153 786.808 734.575 779.72C561.264 769.796 410.637 795.669 260.364 861.945C166.797 903.057 69.6867 945.588 -23.8796 989.181C-82.3586 1016.12 -142.61 1043.76 -205.696 1071.41C-206.05 1071.76 -205.696 1072.11 -205.696 1072.82C-142.61 1044.82 -81.6497 1017.53 -23.5252 990.244C70.0411 946.651 166.797 904.121 261.072 862.654C411.346 796.732 561.619 770.86 734.22 780.783C844.799 787.517 963.883 808.073 1098.56 842.806C1205.6 870.451 1309.8 905.893 1416.12 942.752C1547.26 988.472 1723.76 1044.47 1926.13 1069.99C1940.66 1071.76 1955.19 1072.82 1969.72 1073.89C1969.72 1073.53 1969.72 1073.18 1969.72 1072.82C1955.19 1071.41 1941.01 1070.34 1926.13 1068.57Z" fill="#DEAD62" fill-opacity="0.1"/>
<path d="M1943.85 1064.67C1781.53 1044.47 1619.2 1006.19 1433.13 944.878C1332.48 911.563 1224.38 877.184 1114.87 850.603C979.832 817.287 860.039 798.149 748.042 791.061C573.314 780.074 422.332 804.174 272.414 865.843L241.934 878.247C153.683 914.752 70.0408 948.777 -13.2474 985.636C-79.5236 1014.34 -143.673 1041.63 -206.051 1067.15C-206.051 1067.15 -205.696 1067.86 -206.051 1068.57C-142.964 1043.05 -78.8147 1015.76 -12.5385 986.345C70.3953 949.84 154.038 915.461 242.288 878.956L272.768 866.552C423.041 804.883 573.314 781.137 747.688 791.769C859.33 798.503 979.123 817.996 1113.8 851.312C1223.32 877.893 1331.77 912.272 1432.07 945.587C1618.14 1006.9 1780.82 1045.18 1943.14 1065.73C1952 1066.8 1960.86 1067.51 1969.72 1068.22C1969.72 1067.86 1969.72 1067.51 1970.08 1067.15C1961.92 1066.09 1953.06 1065.73 1943.85 1064.67Z" fill="#DEAD62" fill-opacity="0.1"/>
<path d="M1961.92 1060.77C1790.39 1039.15 1627.35 1003.36 1449.79 948.069C1356.58 918.653 1245.64 885.692 1130.46 859.11C995.426 827.922 874.924 809.137 761.864 802.049C585.364 790.708 433.319 812.682 284.109 870.097C266.743 876.477 250.085 882.856 233.782 889.236C151.911 920.779 74.6481 950.196 -2.26054 982.093C-71.7265 1011.16 -139.775 1038.09 -206.405 1062.9C-206.405 1063.61 -206.405 1063.96 -206.051 1064.32C-139.066 1039.51 -71.3721 1012.22 -1.19733 983.157C75.7114 950.905 152.974 921.488 235.199 890.654C251.857 883.565 268.16 877.54 285.172 871.161C434.028 813.745 586.073 792.48 762.219 803.467C875.278 810.91 995.426 829.694 1130.46 860.528C1245.29 887.109 1356.22 920.425 1449.44 949.487C1627.35 1005.13 1790.03 1040.93 1961.92 1062.55C1965.47 1062.9 1968.66 1063.26 1971.85 1063.61C1971.85 1063.26 1971.85 1062.9 1972.2 1062.55C1968.3 1061.48 1965.11 1061.13 1961.92 1060.77Z" fill="#DEAD62" fill-opacity="0.1"/>
<path d="M1465.74 951.257C1338.86 913.689 1240.33 888.171 1145.7 867.614C1011.02 838.552 889.809 820.477 775.332 812.68C596.705 801.338 444.305 820.831 295.45 873.994C274.185 881.437 253.274 888.879 232.009 896.322C154.392 923.967 81.027 949.839 8.37131 978.193C-64.2844 1006.9 -135.522 1032.77 -206.76 1057.58C-206.406 1057.94 -206.76 1058.29 -207.115 1058.65C-135.168 1034.19 -63.9299 1007.96 9.08018 979.256C82.0903 950.548 155.1 924.676 233.072 897.385C253.983 889.588 274.539 882.5 296.513 874.703C444.66 821.54 597.059 802.401 775.686 813.743C890.163 821.186 1011.02 839.261 1145.7 868.678C1240.33 889.234 1339.21 915.106 1465.74 951.966C1629.48 1000.17 1795.35 1034.55 1972.91 1056.87C1972.91 1056.52 1972.91 1056.16 1973.26 1055.81C1795.35 1033.48 1629.48 999.103 1465.74 951.257Z" fill="#DEAD62" fill-opacity="0.1"/>
<path d="M1482.4 954.093C1361.18 920.777 1259.47 895.968 1161.65 876.121C1026.97 848.83 905.048 831.464 789.154 823.312C608.046 811.262 455.292 828.629 307.145 877.184C283.045 885.335 258.235 893.842 234.489 901.284C159.707 925.739 89.1781 948.776 19.0033 974.294C-56.4877 1001.58 -131.624 1027.46 -207.47 1051.56C-207.47 1051.56 -207.47 1051.91 -207.47 1052.27C-131.624 1028.17 -56.1332 1002.65 19.7122 975.003C89.5326 949.485 160.416 926.802 234.844 901.993C258.59 894.196 283.045 886.044 307.854 878.247C455.292 829.337 607.692 812.68 788.799 824.376C904.339 832.527 1025.9 849.539 1160.58 877.184C1258.4 897.031 1360.12 921.84 1481.33 955.156C1630.54 996.268 1787.55 1026.75 1972.91 1050.85C1972.91 1050.49 1972.91 1050.14 1973.26 1049.79C1788.61 1025.68 1631.61 995.559 1482.4 954.093Z" fill="#DEAD62" fill-opacity="0.1"/>
<path d="M1499.06 957.284C1383.52 927.513 1278.61 903.767 1177.24 884.629C1041.5 858.756 918.874 842.453 802.979 834.301C620.099 821.542 466.637 836.428 319.199 881.439C292.263 889.59 265.327 897.742 238.746 905.185C166.09 927.159 97.6874 947.361 29.6392 970.398C-49.396 997.688 -127.368 1021.43 -208.175 1044.83C-208.175 1045.18 -208.175 1045.53 -207.821 1045.89C-127.014 1022.85 -49.0416 998.042 29.9936 971.461C98.3963 948.778 166.799 927.868 239.1 906.602C265.682 898.451 292.617 890.654 319.199 882.148C466.282 837.845 619.745 822.96 802.27 835.364C918.519 843.516 1040.79 859.819 1176.54 885.692C1277.54 904.83 1382.45 928.576 1497.99 958.347C1632.67 992.726 1777.27 1019.31 1974.68 1044.83C1974.68 1044.47 1975.04 1044.12 1975.04 1043.76C1778.34 1018.24 1633.38 992.017 1499.06 957.284Z" fill="#DEAD62" fill-opacity="0.1"/>
<path d="M1515.36 960.472C1405.84 934.245 1297.75 911.917 1192.84 893.487C1057.1 869.387 934.113 853.793 816.092 845.287C628.25 831.464 478.686 843.869 330.894 885.336C301.831 893.133 272.769 900.93 244.416 908.727C173.887 928.22 106.547 945.941 40.271 966.852C-44.0804 993.433 -126.305 1016.82 -208.885 1037.74C-208.885 1038.09 -208.885 1038.44 -208.885 1038.44C-126.66 1017.53 -44.4348 994.496 40.6255 967.915C106.547 947.004 174.241 928.575 245.125 909.436C272.769 901.993 302.186 894.196 330.894 886.045C478.686 844.932 628.25 832.882 815.738 846.35C933.404 854.856 1056.39 870.45 1191.78 894.196C1296.33 912.626 1404.78 935.309 1514.3 961.536C1659.61 996.269 1810.59 1017.89 1976.1 1039.15C1976.1 1038.8 1976.46 1038.44 1976.46 1038.09C1811.65 1016.82 1660.67 995.205 1515.36 960.472Z" fill="#DEAD62" fill-opacity="0.1"/>
<path d="M1977.52 1032.06C1813.07 1011.86 1670.94 994.496 1531.66 963.662C1427.81 940.625 1318.65 919.714 1208.43 901.639C1073.4 880.019 949.349 864.779 830.265 856.273C639.588 842.096 489.315 852.374 342.586 889.234C312.106 896.677 281.271 904.12 251.855 911.562C182.034 928.574 116.467 944.523 51.6085 963.307C-36.2872 988.471 -122.411 1010.44 -208.889 1029.58C-208.889 1029.94 -208.889 1030.65 -209.243 1031C-122.411 1011.51 -35.9327 989.889 51.6085 964.725C116.821 945.941 182.389 929.992 252.209 912.626C281.98 905.537 312.106 898.094 342.94 890.297C489.669 853.792 639.588 843.514 829.556 857.336C948.995 866.197 1073.04 881.437 1207.72 903.056C1317.94 921.132 1426.75 941.688 1530.95 964.725C1670.24 995.559 1812.36 1012.93 1977.16 1033.13C1977.52 1033.13 1977.87 1033.13 1978.22 1033.13C1978.22 1032.77 1978.58 1032.42 1978.58 1032.06C1978.58 1032.06 1977.87 1032.06 1977.52 1032.06Z" fill="#DEAD62" fill-opacity="0.1"/>
<path d="M1916.91 1019.31C1787.55 1004.42 1664.92 990.244 1548.32 966.852C1448.73 946.65 1342.76 928.221 1224.03 910.5C1089.7 890.298 965.301 876.476 843.736 866.906C649.869 852.375 499.242 860.172 354.285 892.779C322.387 899.867 290.489 906.956 259.301 913.69C190.544 928.221 126.04 942.397 61.8899 959.409C-29.5499 983.51 -119.218 1003.36 -209.594 1021.08C-209.594 1021.43 -209.594 1021.79 -209.24 1022.14C-118.863 1004.77 -29.1955 984.573 62.9531 960.473C126.748 943.461 191.607 929.638 259.655 914.753C290.844 908.019 322.741 900.93 354.994 893.842C498.887 861.236 649.869 853.438 843.381 867.615C964.947 877.184 1088.99 891.007 1223.32 911.209C1341.69 929.284 1447.66 947.359 1547.26 967.561C1664.21 991.307 1786.49 1005.48 1916.2 1020.37C1937.12 1022.5 1958.38 1024.98 1979.65 1027.46C1979.65 1027.1 1980 1026.75 1980 1026.39C1959.09 1024.27 1937.82 1021.79 1916.91 1019.31Z" fill="#DEAD62" fill-opacity="0.1"/>
<path d="M1883.6 1010.8C1771.6 999.459 1666.34 988.472 1564.62 969.688C1470.7 952.322 1367.21 936.019 1239.62 918.652C1107.07 900.577 981.958 887.463 857.203 877.185C659.438 862.3 508.81 867.616 365.98 896.324C332.664 902.703 299.349 909.083 267.097 915.108C199.403 928.221 135.254 939.917 72.5217 955.157C-23.1711 977.84 -115.674 995.915 -210.658 1011.51C-210.658 1011.86 -210.658 1012.22 -210.658 1012.57C-115.674 997.333 -23.1711 978.903 72.8762 956.22C135.608 941.335 199.758 929.285 267.452 916.526C299.704 910.5 333.019 904.121 366.334 897.387C508.101 869.034 659.438 863.363 856.849 878.603C981.25 888.172 1106.71 901.994 1238.91 919.715C1366.86 937.082 1469.99 953.385 1563.91 970.751C1665.63 989.536 1771.25 1000.17 1882.89 1011.86C1915.14 1015.05 1948.1 1018.6 1981.42 1022.14C1981.42 1021.79 1981.77 1021.43 1981.77 1021.08C1948.81 1017.53 1915.85 1014.34 1883.6 1010.8Z" fill="#DEAD62" fill-opacity="0.1"/>
<path d="M1865.17 1005.13C1765.57 996.269 1672.01 988.118 1581.28 973.232C1471.05 954.802 1354.8 939.917 1255.21 927.867C1125.85 911.918 1000.03 899.513 871.023 888.881C666.878 872.577 519.44 876.122 378.028 900.931C343.295 906.956 309.27 912.272 275.955 917.943C208.616 928.575 145.529 938.854 83.1518 952.322C-15.3764 973.587 -112.487 989.181 -210.661 1002.65C-211.015 1003 -210.661 1003.36 -211.015 1003.71C-112.487 990.599 -15.3764 975.004 83.5062 953.739C145.884 940.271 208.97 930.348 275.601 919.361C309.27 914.044 343.295 908.374 377.673 902.349C519.44 877.894 666.169 873.995 870.668 890.653C999.677 900.576 1125.14 913.336 1254.86 929.284C1353.74 941.335 1469.99 956.22 1580.21 974.65C1670.94 989.89 1764.87 998.041 1864.46 1006.9C1903.09 1010.45 1942.78 1013.99 1982.83 1017.89C1982.83 1017.53 1983.19 1017.18 1983.19 1016.83C1943.49 1012.22 1903.8 1008.67 1865.17 1005.13Z" fill="#DEAD62" fill-opacity="0.1"/>
<path d="M1855.6 1001.23C1765.58 994.497 1680.16 988.472 1597.58 976.067C1496.57 961.182 1389.9 949.132 1270.81 936.373C1148.18 922.905 1022.01 910.855 884.495 899.513C729.26 886.754 562.329 878.957 389.728 904.829C354.286 909.791 318.844 914.753 284.465 919.361C218.189 927.867 155.457 936.727 94.143 948.068C-9.347 967.916 -109.293 981.029 -211.72 991.662C-211.365 992.016 -211.72 992.371 -211.72 992.725C-108.939 982.093 -8.63823 968.979 94.8518 949.486C156.166 937.79 218.898 929.639 285.174 920.778C319.553 916.171 354.286 910.855 390.082 905.893C563.038 880.02 729.969 888.526 884.495 900.931C1021.65 912.272 1148.18 923.968 1270.81 937.436C1389.54 950.549 1496.57 962.6 1597.23 977.485C1680.16 989.89 1765.58 995.915 1855.6 1002.65C1897.42 1005.48 1940.66 1009.03 1984.96 1012.93C1984.96 1012.57 1985.32 1012.22 1985.32 1011.86C1941.37 1007.61 1897.78 1004.42 1855.6 1001.23Z" fill="#DEAD62" fill-opacity="0.1"/>
<path d="M1852.41 998.394C1769.47 993.787 1690.79 989.179 1614.24 979.255C1522.45 967.56 1427.11 958.345 1326.1 948.421C1312.63 947.003 1299.52 945.94 1286.76 944.522C1149.6 931.055 1014.56 920.068 898.315 910.144C714.727 894.904 559.492 888.879 402.13 908.017C365.625 912.625 328.766 916.523 294.033 920.422C228.111 927.865 165.733 934.244 105.128 944.522C-2.26074 962.243 -105.751 972.876 -212.076 980.319C-212.076 980.673 -211.722 981.027 -212.076 981.382C-105.751 974.294 -1.90628 963.307 105.837 945.586C166.797 935.662 228.465 928.928 294.387 921.84C329.475 918.296 366.334 914.043 402.485 909.79C559.846 890.297 714.372 896.322 899.024 911.562C1014.92 921.131 1150.31 932.827 1287.11 945.94C1300.58 947.358 1313.69 948.421 1326.45 949.839C1427.46 959.408 1522.8 968.623 1614.24 980.673C1691.15 990.597 1769.47 994.85 1852.76 999.812C1896.36 1002.29 1941.01 1005.13 1986.73 1008.32C1986.73 1007.96 1987.09 1007.61 1987.09 1007.25C1941.01 1003.71 1896 1000.87 1852.41 998.394Z" fill="#DEAD62" fill-opacity="0.1"/>
<path d="M1853.12 996.269C1775.15 993.079 1702.14 990.598 1630.54 982.446C1550.8 973.586 1468.58 966.852 1381.39 959.764C1355.52 957.637 1328.93 955.511 1302 953.384C1240.33 948.068 1179.02 943.461 1119.12 938.499C1047.88 932.828 979.833 927.157 911.785 921.487C751.234 907.664 580.404 895.968 412.764 912.272C375.55 916.17 337.982 919.006 302.54 922.195C237.327 927.157 175.304 932.474 115.408 940.98C3.41164 956.574 -103.268 964.371 -213.492 968.979C-213.492 969.333 -213.492 970.042 -213.138 970.396C-102.914 965.789 3.76598 957.992 115.762 942.043C176.013 933.891 237.327 928.575 302.54 923.259C338.337 920.423 375.196 917.588 413.119 914.044C580.758 897.386 750.879 909.436 911.43 922.904C979.833 928.575 1047.17 934.246 1119.12 939.916C1178.31 944.524 1239.62 949.486 1301.64 954.447C1328.23 956.928 1355.16 959.055 1380.68 961.181C1467.87 968.27 1549.74 975.004 1629.84 983.864C1701.43 992.016 1774.79 994.851 1852.41 997.686C1896.36 999.459 1941.37 1001.59 1987.44 1004.07C1987.44 1003.71 1987.8 1003.36 1987.8 1003C1942.43 1000.17 1897.07 998.041 1853.12 996.269Z" fill="#DEAD62" fill-opacity="0.1"/>
<path d="M1856.66 994.851C1783.3 993.434 1714.19 992.016 1646.85 985.636C1576.32 978.903 1503.66 974.295 1426.75 969.333C1391.31 966.852 1354.81 964.726 1317.59 961.89L1293.14 959.764C1165.9 950.904 1045.75 942.397 925.606 932.119C738.474 915.462 582.884 904.12 424.814 916.171C386.537 919.006 348.614 920.778 311.4 922.904C246.896 926.449 186.291 929.993 126.394 936.727C10.1448 950.195 -99.7247 954.802 -213.847 956.22C-214.202 956.929 -214.202 956.929 -214.202 957.283C-99.3702 956.22 10.4993 951.612 126.748 938.144C186.645 931.056 246.896 927.866 312.109 924.322C348.969 922.196 386.537 919.715 424.814 916.879C582.884 905.538 738.474 916.879 925.252 932.828C1045.75 943.106 1165.9 951.967 1293.49 960.827L1317.95 962.599C1354.81 965.08 1391.31 967.561 1426.4 970.042C1503.66 975.004 1576.32 979.966 1646.85 986.7C1714.54 993.079 1783.65 994.497 1856.66 995.915C1899.9 996.978 1944.56 998.396 1989.92 1000.17C1989.92 999.813 1990.28 999.459 1990.28 999.104C1944.56 997.332 1899.9 995.915 1856.66 994.851Z" fill="#DEAD62" fill-opacity="0.1"/>
<path d="M1861.98 994.143C1792.87 993.789 1727.65 993.789 1663.5 988.827C1599.35 983.865 1534.14 981.03 1464.68 977.485C1422.15 975.713 1378.2 973.232 1333.54 970.751C1185.39 962.245 1061.7 954.094 939.428 943.461L921.353 941.689C752.295 926.804 592.807 912.273 436.863 920.424C397.523 922.551 358.537 923.259 321.323 924.323C256.465 926.095 196.214 927.867 137.38 933.183C17.9415 944.17 -97.2444 945.233 -214.911 943.461C-214.911 943.816 -214.557 944.525 -214.911 944.879C-97.2444 946.651 17.9415 945.588 137.38 934.601C196.214 928.93 256.819 927.158 321.323 925.386C358.183 923.968 397.523 923.259 436.509 921.133C592.453 913.336 752.296 927.867 920.998 942.752L938.719 944.17C1061.35 955.157 1185.04 963.309 1332.83 971.815C1377.84 974.296 1421.79 976.422 1464.32 978.549C1533.79 982.093 1599.35 985.283 1662.8 989.89C1726.94 994.497 1792.51 994.852 1861.62 995.206C1903.8 995.206 1946.68 995.915 1990.63 996.978C1990.63 996.624 1990.99 996.27 1990.99 995.915C1947.39 994.852 1904.15 994.143 1861.98 994.143Z" fill="#DEAD62" fill-opacity="0.1"/>
<path d="M1869.42 993.433C1803.5 994.496 1741.12 995.56 1679.81 992.015C1621.68 988.826 1562.14 986.699 1499.05 984.927C1450.5 983.509 1400.17 981.737 1348.78 979.257C1231.11 973.94 1092.54 966.852 952.896 954.093C930.568 951.966 908.24 950.194 886.266 947.713C733.866 933.891 589.972 920.423 448.205 923.967C408.156 925.031 368.461 925.385 330.184 925.385C266.389 925.385 206.492 925.739 148.013 929.638C24.3214 938.144 -94.4087 936.017 -215.265 929.992C-215.974 930.347 -215.265 930.701 -215.62 931.056C-94.0543 936.726 24.3214 938.853 148.013 930.701C206.492 926.803 266.389 926.448 330.184 926.094C368.816 925.739 408.51 925.739 448.56 925.03C589.973 921.486 733.512 934.6 886.266 949.131C907.885 951.257 930.214 952.675 952.896 954.802C1092.18 967.206 1231.11 974.649 1348.78 979.965C1400.17 982.446 1450.14 983.864 1499.05 985.636C1562.14 987.762 1621.33 989.535 1679.45 993.079C1740.77 996.623 1803.15 995.56 1869.07 994.851C1909.12 994.142 1950.23 993.788 1992.05 994.142C1992.05 993.788 1992.4 993.433 1992.4 993.079C1950.94 992.724 1909.47 992.724 1869.42 993.433Z" fill="#DEAD62" fill-opacity="0.1"/>
<path d="M1877.92 993.435C1814.84 995.561 1754.94 997.688 1696.46 995.561C1643.3 993.435 1588.36 992.372 1530.59 991.663C1477.08 990.599 1421.79 989.891 1365.08 988.118C1203.11 982.802 1080.48 975.714 967.07 965.081C928.793 961.537 891.579 957.993 855.074 954.094C718.268 940.626 588.197 927.867 460.961 927.867C419.848 927.867 379.799 926.804 340.459 926.095C277.018 924.323 217.121 923.26 159.351 925.741C31.4062 931.766 -90.5136 925.032 -215.978 915.817C-215.978 916.172 -215.623 916.526 -216.332 916.88C-90.868 926.45 31.0518 933.184 159.351 927.159C217.121 924.323 276.663 926.095 340.104 927.159C379.09 928.222 419.494 928.931 460.606 928.931C587.843 928.576 717.56 941.69 854.365 955.158C890.87 958.702 928.793 962.6 966.361 965.79C1080.13 976.423 1202.76 983.511 1364.73 988.473C1421.43 990.599 1477.08 991.308 1530.24 992.371C1588.36 993.435 1642.94 994.144 1696.46 996.27C1755.3 998.751 1815.19 996.624 1878.28 994.498C1916.2 993.08 1954.48 992.371 1993.82 992.017C1993.82 991.663 1994.17 991.308 1994.53 990.954C1954.48 990.954 1915.85 992.017 1877.92 993.435Z" fill="#DEAD62" fill-opacity="0.1"/>
<path d="M1887.5 993.433C1826.54 996.623 1769.12 999.458 1712.77 998.395C1663.51 997.332 1612.82 997.332 1559.31 997.686C1501.18 997.686 1441.64 997.686 1379.97 996.268C1221.9 993.079 1095.02 986.699 979.833 975.712C927.38 970.75 875.28 965.434 825.307 960.118C702.679 947.004 586.43 934.6 471.598 932.119C429.777 931.055 389.019 928.929 348.97 927.157C285.883 923.967 226.341 921.132 168.925 922.549C37.0818 925.03 -88.3821 914.752 -217.745 900.93C-217.39 901.639 -217.39 901.993 -217.39 901.993C-88.0277 915.461 37.4362 926.448 169.28 923.613C227.05 922.549 286.592 925.03 348.97 928.22C388.664 929.992 430.131 932.119 471.953 932.828C586.43 935.308 702.679 947.713 824.953 960.827C875.28 966.143 927.025 971.813 979.479 976.775C1094.31 987.408 1221.9 994.142 1379.62 997.332C1441.29 998.749 1501.18 998.749 1558.6 998.395C1612.12 998.395 1662.44 998.395 1712.06 999.104C1768.77 1000.17 1826.18 997.332 1886.79 994.142C1921.88 992.37 1957.32 990.598 1993.47 989.534C1993.82 989.18 1993.82 988.826 1993.82 988.471C1958.38 989.889 1922.59 991.307 1887.5 993.433Z" fill="#DEAD62" fill-opacity="0.1"/>
<path d="M1897.77 993.434C1838.94 997.687 1783.65 1001.59 1729.42 1001.59C1683.35 1001.23 1636.57 1002.29 1586.95 1003.36C1525.28 1004.42 1461.84 1005.48 1395.92 1005.13C1238.91 1003.71 1111.32 998.396 994.007 986.7C927.731 979.966 862.872 972.878 799.786 965.435C690.271 952.676 586.781 940.626 484 935.664C441.47 933.538 400.003 930.348 359.599 927.513C296.867 922.905 237.679 919.007 180.618 918.652C44.167 917.943 -83.778 902.703 -217.394 885.337C-217.394 885.691 -217.394 886.046 -217.394 886.4C-84.4868 904.121 43.8126 919.361 180.618 919.715C237.679 919.715 296.867 924.323 359.599 928.576C399.648 931.411 441.469 934.601 484.354 936.728C586.426 941.689 690.271 953.385 800.141 966.499C862.518 973.941 928.085 981.739 994.362 987.764C1111.32 998.751 1239.26 1004.42 1396.27 1005.84C1462.19 1006.19 1525.99 1005.13 1587.66 1004.07C1637.28 1003 1683.7 1002.29 1729.78 1002.29C1784.36 1002.29 1839.65 998.396 1898.48 994.498C1930.38 992.371 1962.63 990.245 1995.24 988.472C1995.24 988.118 1995.59 987.764 1995.59 987.409C1962.28 989.181 1929.67 991.308 1897.77 993.434Z" fill="#DEAD62" fill-opacity="0.1"/>
<path d="M1908.76 993.789C1852.05 998.75 1798.18 1003.71 1745.73 1004.42C1702.84 1005.48 1659.6 1006.55 1613.18 1008.32C1548.32 1010.8 1480.98 1012.93 1411.51 1013.28C1254.86 1013.64 1126.56 1008.67 1007.48 997.333C928.086 989.181 851.177 979.612 776.395 970.043C678.93 957.284 586.781 945.588 495.696 939.208C452.102 936.373 409.927 932.12 368.814 927.867C307.145 921.487 247.958 916.171 191.605 914.753C50.5467 910.855 -80.588 891.007 -218.457 869.388C-217.748 869.388 -218.102 870.097 -218.457 870.451C-80.9424 892.779 50.5467 911.918 191.605 915.817C247.603 917.234 306.791 923.259 369.168 929.285C410.281 933.183 452.457 937.082 496.05 940.626C587.49 947.005 679.639 958.701 777.104 971.46C851.531 980.675 928.794 990.599 1007.83 998.042C1126.91 1009.74 1255.57 1015.05 1412.22 1014.34C1482.04 1013.99 1549.38 1011.51 1614.24 1009.38C1660.31 1007.61 1703.91 1006.19 1746.44 1005.13C1799.24 1004.42 1852.76 999.459 1909.82 994.497C1937.47 992.016 1966.53 989.536 1995.95 987.764C1995.95 987.409 1996.3 987.055 1996.3 986.7C1965.82 988.827 1936.4 991.308 1908.76 993.789Z" fill="#DEAD62" fill-opacity="0.1"/>
<path d="M1920.1 994.496C1865.17 1000.17 1813.07 1005.84 1762.03 1007.96C1722.34 1009.38 1681.58 1011.51 1638.69 1013.99C1570.64 1017.53 1500.47 1021.08 1427.11 1022.49C1270.45 1024.98 1141.44 1020.72 1020.94 1008.67C930.212 1000.17 841.253 987.762 755.838 975.357C669.714 963.307 588.198 951.966 507.036 943.814C462.734 939.916 419.85 934.245 378.383 928.929C316.36 921.486 258.235 914.398 201.883 911.562C57.2801 903.765 -77.3988 878.956 -219.166 853.083C-219.166 853.438 -219.166 854.146 -218.812 854.501C-77.0444 880.728 56.9257 905.537 202.237 912.625C258.235 915.461 316.714 922.549 378.737 930.701C419.85 935.308 463.443 941.333 507.745 945.232C588.553 953.029 670.069 964.37 756.192 976.421C841.607 988.471 930.212 1000.88 1021.65 1010.09C1141.8 1022.14 1270.81 1026.39 1427.46 1023.91C1501.18 1022.85 1571.35 1018.95 1639.05 1015.41C1681.93 1012.93 1722.34 1011.15 1762.39 1009.74C1813.78 1007.61 1865.87 1002.29 1920.81 996.268C1944.91 993.433 1970.07 990.952 1995.59 988.471C1995.59 988.116 1995.95 987.762 1995.95 987.408C1969.72 989.18 1944.56 991.661 1920.1 994.496Z" fill="#DEAD62" fill-opacity="0.1"/>
<path d="M1932.15 994.85C1878.64 1001.58 1827.95 1007.96 1778.34 1010.8C1741.12 1012.57 1703.2 1015.41 1663.15 1018.24C1592.27 1023.2 1519.26 1028.52 1442.35 1030.65C1286.05 1035.25 1156.33 1031.36 1034.77 1018.95C932.339 1009.03 833.811 993.787 737.764 978.547C661.564 966.851 589.972 955.51 518.734 947.358C474.077 942.042 430.129 935.663 387.954 929.283C325.931 920.068 268.16 911.562 212.162 907.309C64.3701 896.322 -71.372 867.26 -215.266 836.426C-217.038 836.071 -218.455 835.717 -220.228 835.362C-219.873 835.717 -220.227 836.071 -219.519 836.78C-218.455 837.134 -217.038 837.134 -215.62 837.489C-71.372 868.323 65.0789 897.74 212.162 908.372C267.806 912.625 326.285 921.131 387.599 930.346C429.775 936.726 473.723 943.105 518.38 948.422C589.618 956.573 661.564 967.56 737.41 979.965C833.103 994.85 932.34 1010.44 1034.41 1020.72C1156.33 1032.77 1286.05 1036.32 1442.7 1032.06C1519.61 1029.94 1592.62 1024.62 1663.5 1020.01C1703.55 1016.82 1741.48 1014.34 1778.69 1012.22C1828.31 1009.38 1878.99 1003 1932.51 996.268C1952.71 993.787 1973.62 991.306 1994.88 988.825C1994.88 988.471 1995.24 988.116 1995.24 987.762C1973.62 989.889 1952.71 992.369 1932.15 994.85Z" fill="#DEAD62" fill-opacity="0.1"/>
<path d="M1944.56 995.56C1892.46 1003.36 1843.19 1010.45 1794.99 1013.99C1759.91 1016.47 1724.82 1019.66 1687.25 1022.85C1614.24 1029.23 1538.04 1035.96 1458.3 1039.15C1301.64 1045.53 1171.57 1042.7 1048.23 1029.94C935.529 1018.24 827.077 999.813 721.815 981.738C656.248 970.751 592.807 959.764 531.138 950.903C485.419 944.524 440.762 936.727 397.877 929.638C336.563 919.006 278.793 909.082 222.795 903.766C77.129 889.589 -56.4865 857.691 -198.254 822.958C-205.696 820.832 -212.785 819.414 -220.937 817.642C-220.582 817.997 -220.582 818.351 -220.582 819.06C-213.139 820.832 -205.696 822.604 -198.254 824.376C-56.4865 858.755 77.129 891.007 222.795 905.183C278.438 910.5 336.208 920.423 397.523 931.056C440.407 938.853 484.71 946.296 530.784 952.675C592.807 961.536 655.894 972.168 721.815 983.51C826.369 1001.58 934.82 1020.01 1047.88 1031.71C1171.22 1044.12 1301.29 1047.3 1457.94 1040.93C1538.39 1037.74 1614.24 1031 1687.25 1024.62C1724.82 1021.43 1759.91 1018.24 1794.64 1015.76C1843.19 1012.22 1892.46 1005.13 1944.56 997.332C1960.51 994.851 1977.16 992.724 1993.82 990.244C1994.18 989.889 1994.18 989.535 1994.18 989.18C1977.87 990.952 1960.86 993.433 1944.56 995.56Z" fill="#DEAD62" fill-opacity="0.1"/>
<path d="M1956.96 996.624C1905.93 1005.13 1858.08 1012.93 1810.94 1017.18C1778.34 1020.02 1745.73 1023.56 1711 1027.46C1635.15 1035.26 1556.82 1043.76 1473.54 1048.01C1319.01 1056.17 1184.33 1054.04 1061.7 1040.93C939.074 1028.52 821.761 1006.19 708.348 984.928C650.932 973.941 596.706 964.017 542.48 954.803C495.697 947.36 451.395 938.499 407.092 929.639C346.487 917.589 289.071 906.602 233.782 899.513C89.8884 882.147 -41.9551 846.705 -181.596 809.491C-194.709 805.947 -208.177 802.403 -221.291 798.859C-221.291 799.213 -221.291 799.213 -220.936 800.276C-208.177 803.466 -195.418 807.01 -181.95 810.554C-42.3095 847.768 89.8884 883.565 233.782 900.577C288.362 907.311 346.487 919.006 407.092 931.057C450.686 939.563 495.342 948.069 542.126 955.866C596.352 964.372 650.223 974.65 707.639 985.637C821.407 1006.9 939.074 1028.88 1061.7 1041.63C1184.33 1054.39 1319.36 1056.52 1473.89 1048.37C1557.18 1043.76 1635.51 1035.61 1711.35 1027.81C1746.08 1024.27 1779.04 1020.72 1811.3 1017.89C1858.79 1013.64 1906.63 1005.48 1957.67 997.333C1969.37 995.561 1981.42 993.434 1993.47 991.662C1993.47 991.308 1993.82 990.599 1994.18 990.244C1981.42 992.371 1969.01 994.497 1956.96 996.624Z" fill="#DEAD62" fill-opacity="0.1"/>
<path d="M1970.43 997.687C1920.46 1006.9 1874.03 1015.41 1827.95 1020.37C1797.83 1023.56 1766.99 1027.46 1734.74 1031.36C1656.77 1040.93 1575.96 1050.85 1489.84 1056.52C1335.31 1066.44 1199.93 1065.03 1075.88 1051.91C944.39 1038.09 818.217 1012.22 696.652 987.409C647.742 977.486 601.313 967.916 554.884 959.056C507.747 950.195 462.027 940.272 418.079 930.702C357.119 917.235 299.703 904.475 245.123 896.678C102.647 876.122 -27.0698 837.845 -164.938 797.087C-183.368 791.771 -201.798 786.1 -220.582 780.784C-220.582 781.138 -220.582 781.493 -220.937 782.201C-202.152 787.163 -183.723 792.834 -165.647 798.15C-27.7787 838.908 101.938 877.54 244.769 898.096C299.349 905.893 356.765 918.652 417.37 932.12C461.672 941.689 507.038 951.613 554.176 960.828C600.604 969.688 647.033 978.903 695.943 988.827C817.863 1014.35 943.681 1039.86 1075.52 1053.69C1199.57 1066.8 1334.96 1068.22 1489.84 1058.29C1576.32 1052.98 1657.12 1042.7 1734.74 1033.48C1767.35 1029.59 1797.83 1025.69 1827.95 1022.14C1874.03 1017.18 1921.17 1008.67 1970.43 999.105C1977.52 997.687 1984.96 996.624 1992.05 995.207C1992.05 994.852 1992.4 994.498 1992.4 994.143C1985.32 994.852 1977.52 996.27 1970.43 997.687Z" fill="#DEAD62" fill-opacity="0.1"/>
<path d="M1983.54 998.395C1934.99 1008.32 1889.27 1017.53 1844.26 1023.2C1816.26 1026.75 1787.9 1031 1757.78 1034.9C1677.32 1046.24 1594.39 1057.94 1505.08 1064.67C1350.2 1076.72 1214.1 1075.66 1089.35 1062.19C948.287 1046.95 815.381 1017.53 686.018 988.472C644.551 979.257 605.211 970.751 565.87 962.599C518.024 952.321 471.95 940.98 427.647 929.993C366.688 915.461 309.626 901.285 255.4 892.07C113.988 868.678 -14.3116 827.211 -150.408 783.264C-174.154 775.821 -197.9 768.024 -221.292 760.581C-221.646 760.935 -221.292 760.935 -221.292 761.998C-197.9 769.087 -174.154 776.884 -150.763 784.327C-14.6661 827.92 113.988 869.742 255.4 893.133C309.272 901.994 366.333 916.525 426.939 931.41C471.595 942.397 518.024 953.384 565.87 963.662C605.211 971.814 644.551 980.674 686.018 989.889C815.026 1018.6 948.642 1048.72 1088.99 1063.61C1214.1 1077.08 1350.2 1077.78 1505.08 1066.09C1594.39 1059.36 1677.33 1047.66 1757.42 1036.67C1787.55 1032.42 1815.9 1028.17 1844.26 1024.62C1889.27 1018.95 1934.99 1009.38 1983.54 999.813C1985.67 999.459 1987.79 999.104 1989.92 998.395C1990.28 998.041 1990.28 997.332 1990.63 996.978C1988.5 997.686 1986.02 998.041 1983.54 998.395Z" fill="#DEAD62" fill-opacity="0.1"/>
<path d="M1860.56 1026.75C1834.69 1030.65 1808.11 1034.9 1779.75 1039.15C1697.53 1052.27 1612.47 1065.74 1520.32 1073.53C1365.08 1087.35 1228.63 1087.35 1102.46 1073.53C953.604 1057.23 813.255 1023.56 676.804 990.244C642.78 982.093 609.819 974.296 577.212 966.498C528.657 955.157 482.228 942.752 436.863 930.348C376.257 913.69 319.551 898.805 265.679 888.527C126.038 861.945 -1.90651 817.643 -135.876 770.86C-164.584 760.582 -192.583 750.658 -222 741.089C-222 741.443 -221.646 741.797 -221.646 742.506C-192.938 752.076 -164.23 761.999 -136.585 771.569C-1.90643 818.706 124.975 863.008 265.325 889.944C319.196 900.222 376.257 915.462 436.863 931.411C481.874 943.816 528.657 956.22 577.212 967.562C610.173 975.359 642.425 983.156 677.158 991.662C813.255 1024.27 954.313 1058.65 1102.81 1074.6C1228.63 1088.06 1365.44 1088.42 1521.03 1074.6C1612.82 1066.44 1698.24 1052.98 1780.46 1039.86C1808.46 1035.61 1834.69 1031.36 1860.91 1027.46C1902.03 1021.43 1944.2 1012.22 1988.5 1002.29C1988.5 1001.94 1988.86 1001.23 1989.21 1000.88C1944.56 1011.16 1902.03 1020.72 1860.56 1026.75Z" fill="#DEAD62" fill-opacity="0.1"/>
<path d="M1876.86 1029.94C1852.76 1033.84 1828.66 1038.45 1802.79 1042.7C1718.44 1057.58 1630.9 1072.82 1536.27 1082.39C1380.68 1097.63 1243.52 1098.34 1116.64 1084.52C959.983 1067.15 812.546 1028.88 670.07 991.662C642.425 984.219 616.198 977.84 589.617 970.751C539.998 958.347 492.861 944.17 447.141 930.702C386.89 913.336 330.183 896.678 276.311 885.337C137.379 855.566 11.561 808.782 -120.991 758.455C-154.661 745.696 -187.976 733.291 -221.646 720.887C-221.646 721.241 -221.646 721.95 -221.646 721.95C-188.331 734.355 -154.661 746.759 -122.055 759.518C10.8522 809.491 137.025 856.629 276.311 886.754C329.828 898.096 386.535 914.753 446.432 932.12C491.797 945.588 539.289 959.41 588.908 972.169C615.489 978.549 641.716 985.637 669.361 993.08C812.191 1030.29 959.629 1068.93 1115.93 1085.94C1243.16 1099.76 1380.68 1099.05 1536.27 1083.46C1631.25 1073.89 1718.44 1059 1803.14 1043.76C1828.66 1039.15 1853.12 1035.26 1877.22 1031C1912.66 1024.98 1949.16 1016.47 1986.38 1007.61C1986.73 1007.26 1986.73 1006.9 1986.73 1006.55C1949.16 1015.41 1912.66 1023.91 1876.86 1029.94Z" fill="#DEAD62" fill-opacity="0.1"/>
<path d="M1893.52 1033.13C1871.55 1037.38 1849.22 1041.63 1825.47 1045.89C1738.99 1062.54 1649.33 1079.91 1552.22 1090.9C1396.27 1108.26 1258.4 1110.04 1130.46 1095.51C966.718 1077.43 813.255 1034.19 664.399 992.016C644.198 986.345 622.578 980.674 601.668 974.295C551.695 960.472 503.848 945.587 457.419 930.701C397.877 911.563 341.525 893.842 288.008 881.083C149.43 848.476 25.384 798.503 -107.168 745.341C-144.737 730.101 -182.305 714.506 -220.937 699.975C-220.582 699.975 -220.582 700.33 -220.582 700.684C-182.305 715.924 -144.737 730.809 -107.168 746.049C24.6751 799.212 149.43 849.894 288.008 882.5C340.462 894.905 397.523 912.626 457.065 931.41C503.494 946.296 550.986 961.536 600.959 975.004C622.224 981.029 643.134 987.054 664.045 992.724C812.901 1034.19 966.718 1077.78 1130.46 1095.86C1258.4 1110.04 1396.63 1108.62 1552.57 1091.61C1650.39 1080.62 1739.7 1063.25 1826.54 1046.6C1849.93 1041.99 1872.26 1037.74 1894.58 1033.84C1924.36 1028.17 1954.48 1020.72 1985.32 1012.93C1985.32 1012.57 1985.67 1011.86 1985.67 1011.51C1954.13 1020.01 1923.29 1027.46 1893.52 1033.13Z" fill="#DEAD62" fill-opacity="0.1"/>
<path d="M1909.82 1036.32C1889.62 1040.22 1869.42 1044.82 1847.8 1049.08C1763.45 1066.8 1667.76 1087 1567.46 1099.41C1411.16 1118.54 1272.58 1120.67 1143.57 1106.14C972.742 1087 813.608 1038.8 659.082 992.017C643.487 987.409 627.893 982.802 612.299 978.194C562.326 962.954 513.416 946.651 466.279 930.702C407.091 910.501 350.738 891.362 297.93 877.54C160.416 841.743 36.724 788.581 -94.0563 732.228C-135.878 714.507 -178.053 696.432 -221.292 678.357C-221.647 678.711 -221.647 678.711 -221.292 679.774C-178.762 697.495 -136.586 715.216 -94.7651 733.646C36.0151 789.644 159.707 843.161 297.221 878.603C350.029 892.425 406.027 911.564 465.57 931.411C512.353 947.36 560.908 964.018 611.59 979.258C627.184 984.219 642.424 988.472 657.664 993.08C812.19 1039.86 972.033 1088.06 1142.86 1107.56C1271.87 1122.09 1410.8 1119.61 1567.1 1100.82C1667.4 1088.42 1763.09 1068.22 1847.8 1050.5C1869.06 1046.24 1889.62 1041.64 1909.47 1037.74C1933.21 1032.77 1957.31 1026.75 1981.77 1020.37C1981.77 1020.02 1982.12 1019.66 1982.12 1018.95C1958.38 1024.98 1933.92 1031.36 1909.82 1036.32Z" fill="#DEAD62" fill-opacity="0.1"/>
<path d="M1926.48 1039.51C1908.05 1043.41 1889.97 1047.66 1870.13 1051.91C1784 1071.76 1686.18 1094.09 1583.05 1107.91C1426.4 1128.82 1287.46 1132.01 1157.39 1117.13C980.183 1096.92 807.582 1040.93 655.182 992.016C644.904 988.827 634.626 985.637 625.057 982.447C573.312 965.789 524.048 948.068 476.91 930.702C417.722 909.437 361.37 889.235 308.916 874.35C172.11 835.718 49.8363 779.72 -80.5895 720.532C-126.309 699.267 -172.738 678.356 -220.23 657.091C-220.585 657.8 -220.23 658.155 -220.23 658.863C-172.738 679.42 -126.664 700.33 -80.944 721.241C49.1274 780.783 171.402 837.136 308.561 875.413C361.37 889.944 417.722 910.146 476.556 931.765C524.048 949.132 572.248 966.853 624.348 983.51C634.626 986.7 645.258 989.89 655.182 993.08C807.227 1042.34 980.183 1097.99 1157.75 1118.19C1287.46 1133.07 1427.1 1130.24 1583.76 1108.97C1686.89 1095.15 1785.07 1072.82 1871.19 1052.98C1890.68 1048.72 1909.11 1044.47 1927.19 1040.22C1944.91 1036.32 1962.98 1031.36 1981.06 1026.39C1981.06 1026.04 1981.41 1025.33 1981.41 1024.98C1962.63 1030.29 1944.55 1035.26 1926.48 1039.51Z" fill="#DEAD62" fill-opacity="0.1"/>
<path d="M1943.14 1042.7C1926.48 1046.6 1910.18 1050.5 1892.81 1055.1C1804.56 1076.72 1704.97 1101.53 1599 1116.77C1441.99 1139.81 1302 1143.35 1171.22 1128.11C987.63 1106.85 809.712 1045.89 652.351 991.662L636.402 986.346C584.657 968.625 535.038 949.486 487.192 930.702C428.359 908.019 372.36 886.4 319.907 870.805C183.456 828.984 62.2448 770.151 -66.7633 707.419C-116.382 683.673 -166.709 659.218 -218.809 635.472C-218.809 635.826 -218.809 636.181 -218.809 636.89C-166.709 660.281 -117.091 684.382 -67.4721 708.836C61.8904 771.214 183.456 830.402 319.907 871.869C372.36 887.817 427.65 909.082 486.838 931.765C534.684 950.904 584.302 969.688 636.756 987.763L652.351 993.434C809.358 1047.66 987.63 1108.62 1171.57 1129.88C1302.35 1145.12 1442.7 1141.58 1599.71 1118.54C1706.04 1102.95 1805.98 1078.49 1894.23 1056.52C1911.6 1052.27 1927.55 1048.37 1944.2 1044.47C1955.9 1041.63 1967.6 1038.09 1979.29 1034.9C1979.29 1034.55 1979.65 1034.19 1979.65 1033.48C1966.89 1036.32 1954.84 1039.86 1943.14 1042.7Z" fill="#DEAD62" fill-opacity="0.1"/>
<path d="M1959.44 1045.53C1944.91 1049.43 1930.38 1052.98 1915.14 1057.23C1825.12 1080.98 1723.4 1108.27 1614.59 1125.28C1457.23 1149.73 1316.53 1154.34 1185.04 1138.75C995.425 1116.77 812.191 1049.79 650.576 990.953L648.45 989.89C595.641 970.751 545.314 950.195 496.759 930.347C438.28 906.247 382.636 883.564 330.537 866.907C194.44 822.604 73.9382 760.227 -54.0067 695.368C-107.878 668.078 -161.395 640.079 -218.457 613.498C-218.102 613.852 -218.457 614.207 -218.457 614.561C-162.459 641.497 -108.233 668.787 -55.0699 696.432C73.2294 761.999 194.086 823.668 330.182 867.97C381.573 884.982 436.862 907.31 496.404 931.765C544.251 951.612 594.933 972.169 647.741 991.307L649.867 992.371C811.482 1051.56 994.716 1118.19 1185.04 1140.52C1316.88 1156.11 1457.23 1151.5 1614.95 1127.05C1723.75 1109.68 1825.83 1082.75 1915.49 1059C1930.73 1055.1 1945.26 1051.2 1959.8 1047.31C1965.11 1045.89 1970.43 1044.12 1976.1 1042.7C1976.1 1042.34 1976.45 1041.63 1976.45 1041.28C1970.78 1042.34 1964.76 1044.12 1959.44 1045.53Z" fill="#DEAD62" fill-opacity="0.1"/>
<path d="M1937.47 1059.71C1845.68 1085.94 1741.83 1115 1630.19 1133.78C1472.12 1160.36 1331.42 1165.68 1198.86 1149.73C1003.22 1126.34 813.257 1052.98 660.503 994.143C606.631 973.232 555.949 951.258 507.394 930.347C448.915 904.829 392.917 880.729 341.527 863.008C206.139 815.516 86.7001 751.012 -40.8904 682.255C-98.3061 651.421 -156.076 620.232 -216.682 590.106C-216.682 590.815 -216.682 591.169 -217.036 591.524C-157.14 621.295 -99.3693 652.484 -42.308 682.964C84.928 751.721 205.076 816.225 340.463 863.717C392.208 881.438 447.497 905.538 506.331 930.702C555.241 951.967 605.922 973.941 659.085 994.497C812.193 1053.68 1002.16 1127.05 1198.15 1150.44C1330.71 1166.04 1472.47 1161.07 1630.19 1134.49C1741.83 1115.71 1846.03 1086.29 1937.82 1060.42C1949.88 1056.87 1961.93 1053.68 1973.62 1050.5C1973.62 1050.14 1973.62 1049.43 1973.98 1049.08C1961.93 1052.62 1949.88 1056.17 1937.47 1059.71Z" fill="#DEAD62" fill-opacity="0.1"/>
<path d="M1959.8 1061.84C1865.88 1089.83 1760.26 1122.09 1645.78 1142.29C1487.71 1170.64 1345.95 1176.67 1212.33 1160.36C1027.32 1138.04 851.179 1070.7 672.552 997.686C617.972 975.712 566.581 952.32 517.317 929.992C459.192 903.411 403.549 877.892 352.513 859.108C217.834 808.781 98.0404 741.442 -28.4868 669.849C-89.4467 635.471 -151.115 600.738 -214.911 567.422C-215.265 568.131 -215.265 568.486 -215.265 568.84C-151.47 601.801 -89.8012 636.888 -29.1957 670.558C97.3315 742.15 216.77 810.199 351.449 860.172C403.194 878.956 458.129 904.474 516.254 930.701C566.227 953.029 617.263 976.421 671.134 998.749C850.47 1071.76 1026.62 1139.45 1211.98 1161.43C1345.59 1177.38 1487.71 1171.7 1646.14 1143.35C1760.62 1122.8 1866.59 1090.9 1960.15 1062.54C1964.41 1061.48 1968.3 1060.06 1972.2 1059C1972.2 1058.65 1972.2 1058.29 1972.56 1057.58C1968.3 1059 1964.05 1060.42 1959.8 1061.84Z" fill="#DEAD62" fill-opacity="0.1"/>
<path d="M1661.38 1151.15C1502.95 1181.27 1360.48 1187.65 1225.8 1171.71C1037.25 1148.67 854.722 1075.3 684.247 1001.58C628.958 978.548 577.567 953.384 527.949 929.638C469.47 901.639 414.889 875.412 363.144 855.565C229.174 802.756 110.09 732.227 -15.7285 657.799C-79.8782 619.522 -145.091 581.245 -213.139 544.386C-213.494 545.095 -213.139 545.803 -213.139 546.158C-145.091 582.308 -80.2326 620.94 -16.0829 658.863C109.381 733.29 228.465 803.82 362.79 856.628C413.826 877.184 469.115 903.057 527.24 930.701C577.213 954.447 628.958 979.257 683.892 1003C854.722 1076.01 1037.25 1149.73 1226.51 1172.77C1361.19 1189.07 1504.02 1182.34 1662.44 1151.86C1775.15 1130.59 1878.99 1098.34 1971.49 1068.57C1971.49 1068.22 1971.49 1067.86 1971.85 1067.51C1877.93 1096.92 1773.73 1129.53 1661.38 1151.15Z" fill="#DEAD62" fill-opacity="0.1"/>
<path d="M1676.97 1159.66C1517.84 1191.56 1375.01 1199 1239.62 1182.34C1047.17 1158.59 865 1082.04 695.234 1005.49C639.945 980.676 587.845 954.804 537.164 928.931C479.393 900.224 424.459 872.933 373.777 851.668C240.161 796.025 122.14 723.015 -3.3239 645.397C-70.6633 603.576 -139.42 560.691 -212.076 520.996C-211.722 521.351 -212.076 521.705 -212.076 522.06C-140.129 562.109 -71.7266 604.285 -4.38722 646.106C120.722 723.723 239.452 797.088 373.068 852.732C423.75 873.997 478.684 901.287 536.809 929.995C587.491 955.513 639.945 981.74 694.88 1006.19C864.646 1083.1 1046.82 1159.66 1239.62 1183.05C1375.01 1199.71 1518.19 1192.26 1677.68 1160.37C1783.3 1139.1 1880.76 1107.91 1969.01 1078.14C1969.01 1077.79 1969.01 1077.43 1969.37 1077.08C1880.41 1106.85 1782.94 1138.04 1676.97 1159.66Z" fill="#DEAD62" fill-opacity="0.1"/>
<path d="M1692.56 1168.16C1533.08 1202.19 1389.18 1210.34 1252.73 1193.33C1057.09 1169.23 868.542 1085.58 706.927 1009.38C650.929 983.156 598.475 955.511 547.085 928.93C489.314 898.45 434.734 870.097 384.407 848.477C251.146 789.998 133.124 713.798 8.72372 633.345C-62.1599 587.626 -134.107 541.197 -210.307 497.249C-210.307 497.958 -210.307 498.312 -210.307 498.667C-134.816 542.26 -62.8688 589.043 7.66042 634.409C132.416 714.862 250.082 791.061 383.698 849.54C434.734 871.869 489.314 900.222 547.085 930.348C597.766 956.929 650.929 984.219 706.927 1011.16C868.542 1087.35 1057.45 1170.64 1253.44 1194.74C1389.89 1211.76 1533.78 1203.6 1693.63 1169.58C1792.15 1148.67 1883.59 1118.9 1967.24 1089.48C1967.24 1089.13 1967.59 1088.42 1967.59 1088.06C1883.24 1117.13 1791.8 1146.9 1692.56 1168.16Z" fill="#DEAD62" fill-opacity="0.1"/>
<path d="M1707.8 1176.67C1547.96 1212.46 1403.71 1221.32 1266.55 1204.31C1067.73 1179.5 879.53 1093.02 718.624 1013.64C661.563 985.636 608.754 956.574 557.009 928.22C499.239 897.386 445.013 867.261 394.686 844.578C261.425 783.263 144.821 704.228 20.0662 621.294C-53.6528 571.322 -128.789 520.64 -208.533 473.148C-208.888 473.502 -208.888 474.211 -209.242 474.565C-129.498 521.703 -54.3615 572.385 19.3574 621.649C143.049 705.291 260.362 784.327 393.623 845.287C443.95 868.678 498.53 898.095 556.301 929.284C607.691 957.637 661.563 986.699 717.561 1014.34C878.466 1093.73 1067.02 1180.21 1266.2 1205.38C1403.36 1222.39 1547.96 1213.88 1708.16 1177.73C1800.66 1157.17 1886.43 1128.47 1965.47 1100.11C1965.47 1099.76 1965.47 1099.4 1965.47 1099.05C1886.79 1127.4 1800.66 1156.11 1707.8 1176.67Z" fill="#DEAD62" fill-opacity="0.1"/>
<path d="M1723.75 1185.17C1562.85 1222.74 1417.89 1232.31 1280.38 1214.94C1088.99 1190.84 902.922 1105.43 730.675 1017.18C673.259 987.763 619.388 957.283 567.289 927.866C509.873 895.614 455.292 864.78 405.674 840.325C272.413 776.53 155.809 694.659 32.1174 608.181C-44.4369 554.664 -123.118 499.375 -206.406 448.339C-207.115 449.048 -207.115 449.402 -207.115 449.757C-123.472 500.438 -45.5002 555.728 31.0541 608.536C154.746 695.014 271.704 776.884 404.611 841.034C454.938 865.489 509.164 895.969 565.871 928.221C617.97 957.992 671.842 988.117 728.903 1017.89C805.812 1056.87 897.252 1102.24 993.299 1139.81C1096.43 1179.5 1190 1204.31 1279.31 1215.65C1416.83 1233.73 1562.14 1223.81 1723.4 1186.24C1809.88 1166.04 1889.98 1139.1 1964.4 1111.1C1964.4 1110.75 1964.4 1110.39 1964.4 1109.68C1890.69 1138.04 1810.23 1164.97 1723.75 1185.17Z" fill="#DEAD62" fill-opacity="0.1"/>
<path d="M1739.35 1194.03C1577.73 1233.37 1432.42 1244.01 1293.84 1225.93C1099.98 1201.12 914.263 1112.87 742.016 1021.08C684.6 990.598 630.02 958.346 577.566 927.512C520.15 893.842 466.279 862.299 416.306 837.135C283.399 770.505 167.504 686.153 44.1667 596.485C-35.5774 538.006 -117.094 479.173 -204.635 424.238C-204.989 424.593 -204.989 424.593 -204.989 425.301C-117.448 480.236 -36.2863 539.07 43.4578 597.194C167.15 686.862 283.753 771.213 415.951 838.198C465.57 863.362 519.796 895.26 576.857 928.575C629.665 959.409 683.891 991.307 741.661 1022.14C913.909 1114.29 1099.98 1202.54 1293.84 1226.99C1432.78 1244.72 1578.8 1234.44 1740.06 1195.1C1819.8 1175.6 1895.65 1149.38 1964.76 1123.15C1964.76 1122.8 1964.76 1122.44 1964.76 1121.73C1895.65 1148.31 1819.45 1174.19 1739.35 1194.03Z" fill="#DEAD62" fill-opacity="0.1"/>
<path d="M1964.05 1133.78C1899.9 1158.95 1829.37 1183.4 1755.3 1202.54C1593.33 1244.01 1446.96 1254.99 1307.67 1236.92C1111.32 1211.4 925.608 1120.32 754.424 1024.98C695.591 992.725 640.656 959.41 587.848 926.803C530.786 892.425 477.269 859.464 428.005 833.237C295.453 763.771 179.558 676.584 56.5751 584.081C-26.7131 521.349 -111.065 457.909 -202.504 398.721C-202.504 399.43 -202.859 399.784 -202.859 400.138C-111.419 458.617 -26.7132 522.413 55.5118 584.79C178.495 677.648 294.39 764.48 426.587 834.3C476.56 860.173 530.786 893.134 587.493 927.867C640.656 960.119 695.236 993.788 753.715 1025.69C925.254 1121.02 1111.32 1212.46 1308.03 1237.98C1447.67 1256.06 1594.04 1245.07 1756.01 1203.6C1830.08 1184.82 1900.61 1160.01 1964.41 1135.2C1964.41 1134.85 1964.41 1134.85 1964.41 1134.49C1963.7 1134.14 1964.05 1134.14 1964.05 1133.78Z" fill="#DEAD62" fill-opacity="0.1"/>
<path d="M1770.54 1211.05C1608.57 1254.29 1461.49 1265.98 1321.14 1247.55C1121.95 1221.68 928.441 1122.44 765.763 1028.88C706.575 994.851 651.286 959.764 597.769 926.094C540.708 889.944 487.545 856.274 437.572 829.338C305.729 757.037 190.188 667.015 67.9141 571.322C-18.2094 504.337 -106.105 435.934 -201.444 373.202C-201.444 373.911 -201.443 374.265 -201.798 374.974C-107.168 437.352 -19.6271 505.754 66.4965 572.385C189.125 667.723 304.665 758.1 437.218 831.11C486.482 858.046 539.999 891.716 596.706 927.512C650.577 961.536 705.867 996.269 765.054 1029.94C835.938 1071.05 930.568 1123.51 1031.58 1166.04C1135.42 1209.98 1230.05 1237.27 1320.78 1248.97C1461.49 1267.75 1608.57 1255.35 1770.89 1212.46C1838.59 1194.39 1902.74 1171.71 1964.4 1146.9C1964.4 1146.54 1964.4 1146.19 1964.4 1145.83C1902.74 1170.29 1838.23 1192.97 1770.54 1211.05Z" fill="#DEAD62" fill-opacity="0.1"/>
<path d="M1786.13 1219.55C1623.81 1264.56 1476.01 1277.32 1334.6 1258.54C1133.29 1232.31 940.135 1129.89 777.811 1032.77C717.915 997.333 661.917 961.182 607.691 925.741C550.984 888.881 497.821 854.148 448.203 826.149C317.068 751.012 201.173 657.801 79.2536 559.981C-10.0597 488.034 -100.791 414.67 -199.673 348.039C-199.319 348.394 -199.319 348.748 -199.319 349.103C-100.791 415.733 -10.4141 488.743 78.5448 560.69C200.465 659.218 315.65 752.076 447.494 827.212C497.112 854.857 550.63 889.59 606.982 926.804C660.854 961.891 716.852 998.396 776.039 1033.84C939.072 1130.59 1132.94 1233.38 1334.6 1259.96C1476.01 1278.74 1623.81 1266.34 1786.84 1220.97C1849.57 1203.6 1908.76 1182.34 1965.47 1159.3C1965.47 1158.95 1965.47 1158.59 1965.47 1158.24C1908.4 1180.92 1849.22 1202.19 1786.13 1219.55Z" fill="#DEAD62" fill-opacity="0.1"/>
<path d="M1801.73 1228.41C1638.69 1275.2 1490.19 1288.66 1348.43 1269.53C1144.99 1242.59 951.478 1136.97 789.155 1037.03C728.904 999.814 672.551 961.891 617.616 925.032C561.264 887.109 507.747 851.667 458.837 822.251C327.348 744.279 212.162 648.94 91.3057 547.577C-1.19742 470.668 -94.7638 392.696 -197.545 321.812C-197.545 322.167 -197.899 322.876 -197.899 323.23C-95.4726 394.114 -1.55182 472.086 89.888 548.286C211.808 649.649 326.285 745.342 458.483 823.314C507.392 852.022 560.555 887.818 616.908 926.449C671.488 962.6 727.84 1000.52 788.091 1037.74C951.124 1138.04 1144.64 1243.65 1348.43 1270.94C1490.55 1290.08 1639.4 1276.61 1802.44 1229.83C1859.85 1213.53 1914.08 1193.33 1966.18 1172.06C1966.18 1171.71 1966.18 1171 1966.18 1170.64C1914.08 1191.55 1859.14 1211.76 1801.73 1228.41Z" fill="#DEAD62" fill-opacity="0.1"/>
<path d="M1817.32 1236.92C1653.58 1285.47 1504.72 1299.65 1361.89 1280.51C1156.69 1252.87 962.819 1143.71 800.85 1040.57C740.245 1001.94 682.829 962.599 628.249 924.322C571.542 884.982 519.088 848.477 469.824 818.706C337.98 737.898 223.503 639.37 102.647 534.817C7.30838 452.946 -89.4478 369.658 -196.128 294.876C-196.128 295.23 -196.128 295.585 -196.482 295.939C-90.1565 370.721 6.95398 454.01 101.229 535.171C222.44 639.725 337.271 738.253 469.115 819.06C517.67 849.186 570.833 885.691 626.831 924.677C682.12 962.599 739.536 1002.65 799.787 1040.93C962.465 1144.42 1155.98 1253.22 1361.89 1280.87C1437.03 1291.5 1516.07 1291.85 1596.16 1283.35C1667.4 1275.9 1741.83 1260.31 1818.03 1237.98C1869.42 1222.74 1919.39 1203.96 1967.24 1184.11C1967.24 1183.76 1967.24 1183.4 1966.89 1183.05C1919.04 1202.89 1869.42 1221.32 1817.32 1236.92Z" fill="#DEAD62" fill-opacity="0.1"/>
<path d="M1832.92 1245.42C1669.18 1295.75 1519.61 1310.99 1375.72 1291.14C1168.74 1263.14 974.871 1150.44 813.257 1044.82C751.588 1004.42 693.464 963.307 638.174 923.258C582.531 882.854 529.368 845.64 481.167 815.16C349.324 731.518 235.201 630.154 113.99 522.766C16.1706 435.933 -83.7752 347.329 -194.708 268.293C-194.354 268.648 -194.708 269.002 -194.708 269.357C-84.1296 348.746 15.4618 436.996 112.927 523.474C234.492 631.217 348.969 732.581 480.458 815.869C529.014 846.349 581.467 884.626 637.465 923.967C693.109 964.016 751.234 1005.48 812.548 1045.53C916.038 1113.23 1001.81 1162.49 1082.61 1200.41C1187.52 1249.68 1283.57 1280.16 1376.07 1292.56C1451.92 1302.84 1531.31 1303.55 1612.11 1294.33C1683.35 1286.54 1758.49 1270.23 1834.69 1246.84C1881.83 1232.31 1926.84 1215.3 1970.79 1197.22C1970.79 1196.87 1970.79 1196.51 1970.43 1195.81C1925.77 1213.88 1880.41 1230.89 1832.92 1245.42Z" fill="#DEAD62" fill-opacity="0.1"/>
<path d="M1848.86 1254.29C1684.77 1306.39 1534.5 1321.98 1389.54 1302.13C1179.37 1273.42 977.35 1151.5 824.951 1048.37C762.573 1006.55 704.803 963.663 648.45 922.551C592.807 881.793 539.998 842.807 492.152 811.263C361.372 725.14 246.895 620.941 126.038 511.071C25.3835 418.923 -77.7522 324.648 -192.584 241.005C-192.938 241.714 -192.938 241.714 -192.938 242.777C-78.1066 326.42 24.3202 419.986 124.975 511.78C245.477 622.359 359.954 726.203 491.089 812.327C539.29 843.87 591.743 882.501 647.387 923.259C703.739 964.726 761.51 1007.26 823.887 1049.43C927.023 1119.25 1013.15 1169.93 1094.66 1209.27C1199.92 1259.96 1296.33 1290.79 1389.54 1303.2C1465.38 1313.83 1545.13 1314.18 1626.29 1304.61C1697.88 1296.11 1773.37 1279.45 1849.57 1254.99C1891.75 1241.53 1932.86 1225.93 1972.56 1209.27C1972.56 1208.92 1972.2 1208.57 1972.2 1207.86C1932.15 1224.87 1891.04 1240.46 1848.86 1254.29Z" fill="#DEAD62" fill-opacity="0.1"/>
<path d="M1864.46 1262.44C1701.78 1315.95 1546.55 1332.97 1403.36 1312.76C1191.42 1283.35 989.046 1157.88 836.292 1051.91C773.56 1008.67 714.727 964.37 658.374 921.486C603.085 879.31 550.985 839.97 502.43 807.718C371.295 718.759 257.882 612.079 137.025 498.665C33.1806 400.846 -73.1448 301.254 -192.584 213.004C-192.584 213.359 -192.584 213.713 -192.938 214.422C-73.8535 302.318 32.1174 401.909 135.962 499.374C256.11 612.433 370.232 719.468 501.367 808.427C549.213 841.033 602.021 880.728 657.311 922.195C714.372 965.079 772.497 1009.38 835.583 1052.97C988.337 1158.95 1190.71 1284.76 1403.01 1314.18C1479.21 1324.46 1559.66 1325.17 1641.53 1315.24C1713.48 1306.03 1788.97 1289.02 1865.52 1263.85C1903.09 1251.45 1939.95 1237.63 1975.04 1222.74C1975.04 1222.39 1974.68 1222.03 1974.68 1221.68C1938.89 1235.85 1902.03 1250.03 1864.46 1262.44Z" fill="#DEAD62" fill-opacity="0.1"/>
<path d="M1880.05 1271.3C1717.38 1326.59 1561.43 1344.31 1416.83 1323.75C1203.47 1294.33 1000.74 1165.33 848.342 1056.52C784.901 1011.51 726.068 965.434 668.652 920.778C613.363 877.893 560.909 837.489 513.417 804.174C382.637 712.734 268.514 602.865 148.721 486.616C41.6869 383.126 -67.4738 277.509 -191.875 185.006C-191.875 185.36 -191.875 185.715 -192.229 186.424C-68.5371 278.927 40.6236 384.543 147.658 487.679C267.806 603.573 381.219 713.797 512.354 804.883C559.846 838.553 612.3 878.602 667.235 921.486C724.651 966.143 783.838 1012.22 847.279 1057.23C1000.03 1166.39 1202.41 1295.4 1416.83 1325.17C1493.74 1336.16 1574.19 1336.16 1655.71 1325.88C1728.36 1316.66 1803.85 1298.59 1880.76 1272.71C1914.43 1261.37 1947.04 1248.61 1978.58 1235.15C1978.58 1234.79 1978.23 1234.44 1978.23 1234.08C1946.33 1246.84 1913.72 1259.6 1880.05 1271.3Z" fill="#DEAD62" fill-opacity="0.1"/>
<path d="M1895.64 1279.8C1732.26 1336.86 1575.96 1354.94 1430.29 1334.38C1215.16 1304.26 1012.44 1172.06 860.036 1060.06C795.886 1012.93 736.344 965.435 678.219 919.36C623.639 875.412 571.185 834.3 524.048 799.922C392.559 706.001 279.499 593.296 159.706 474.211C49.1275 364.696 -63.5774 252.7 -191.877 155.235C-191.877 155.59 -192.231 155.944 -191.877 157.007C-63.5774 254.118 48.4186 365.405 158.288 474.566C278.436 593.65 391.495 706.355 522.63 800.276C570.122 834.3 622.576 876.121 677.51 919.715C735.281 965.789 794.823 1013.28 858.972 1060.42C1011.73 1172.41 1214.81 1304.61 1430.29 1335.09C1507.91 1346.08 1589.07 1346.08 1670.94 1335.09C1743.6 1325.52 1819.45 1306.74 1896.35 1280.16C1925.77 1269.88 1954.48 1258.54 1982.48 1246.49C1982.48 1246.13 1982.12 1245.78 1982.12 1245.42C1954.12 1258.18 1925.06 1269.53 1895.64 1279.8Z" fill="#DEAD62" fill-opacity="0.1"/>
<path d="M1911.24 1288.31C1747.5 1346.79 1590.49 1366.28 1444.12 1345.37C1227.22 1314.54 1024.13 1178.8 871.734 1063.96C807.23 1015.41 746.979 965.79 688.5 918.298C633.92 873.642 582.175 831.111 534.683 796.379C403.903 699.268 291.198 584.437 171.759 462.162C57.9907 346.268 -57.5496 227.538 -191.874 125.465C-191.874 125.82 -191.874 126.529 -191.874 126.883C-58.6129 228.955 56.9274 347.331 170.341 462.517C290.489 584.791 403.548 700.331 533.974 796.733C581.112 831.82 633.211 873.996 688.146 919.007C746.27 966.854 806.521 1015.76 871.026 1064.32C974.516 1142.29 1061.7 1199 1145.34 1243.3C1252.02 1299.3 1349.49 1332.97 1444.47 1346.44C1522.45 1357.42 1603.61 1357.42 1686.54 1346.08C1759.55 1335.8 1835.75 1316.66 1913.01 1289.02C1938.18 1279.8 1962.99 1270.24 1987.09 1259.6C1987.09 1259.25 1986.73 1258.89 1986.73 1258.19C1961.57 1269.17 1936.76 1279.1 1911.24 1288.31Z" fill="#DEAD62" fill-opacity="0.1"/>
<path d="M1926.84 1297.17C1762.74 1357.42 1604.67 1377.62 1457.59 1356.36C1239.27 1325.17 1035.83 1185.88 883.43 1067.86C818.217 1017.53 757.611 966.852 698.423 917.233C644.197 871.513 592.452 827.92 545.315 792.478C414.889 693.596 302.184 575.22 182.745 450.11C66.1417 328.191 -53.6517 202.727 -192.583 95.6924C-192.229 96.0468 -192.583 96.4013 -192.583 97.1101C-54.3605 204.144 64.724 328.899 181.682 450.819C300.766 575.929 413.826 694.304 544.252 793.541C591.389 829.338 643.134 872.222 697.36 917.942C756.548 967.561 817.508 1018.24 882.366 1068.57C985.502 1148.31 1073.04 1206.79 1157.75 1252.16C1264.43 1309.22 1362.6 1343.95 1457.59 1357.42C1535.91 1368.76 1617.78 1368.41 1700.72 1356.71C1774.08 1346.43 1850.64 1326.59 1927.54 1297.88C1949.16 1289.73 1970.78 1281.22 1991.69 1272.36C1991.69 1272.01 1991.34 1271.65 1991.34 1271.3C1970.07 1280.51 1948.46 1289.02 1926.84 1297.17Z" fill="#DEAD62" fill-opacity="0.1"/>
<path d="M1942.43 1305.68C1777.63 1367.7 1618.85 1388.61 1471.06 1367.35C1251.32 1335.8 1047.88 1192.62 895.127 1071.76C829.914 1020.02 768.245 967.562 710.121 916.881C655.186 870.097 603.441 825.441 555.949 788.936C426.232 686.863 313.881 566.716 194.797 439.125C74.2949 309.408 -49.7514 176.856 -194 64.5054C-194 64.8598 -194 65.5686 -194 65.923C-50.1058 177.919 73.2316 310.471 193.734 439.48C312.109 567.424 424.814 687.927 554.886 789.29C602.023 826.504 653.768 870.806 708.703 917.944C767.536 968.271 828.496 1020.72 894.064 1072.47C997.199 1154.34 1085.09 1213.88 1170.16 1260.67C1276.83 1319.5 1375.36 1354.59 1471.06 1368.41C1549.74 1379.75 1631.96 1379.4 1715.6 1366.99C1788.97 1356 1865.52 1335.8 1943.14 1306.39C1960.86 1299.65 1978.94 1292.21 1996.66 1284.41C1996.66 1284.06 1996.3 1283.7 1996.3 1283.35C1978.23 1291.5 1960.51 1298.94 1942.43 1305.68Z" fill="#DEAD62" fill-opacity="0.1"/>
<path d="M1958.02 1314.18C1792.86 1378.33 1633.73 1399.6 1485.23 1378.33C1264.43 1346.08 1060.28 1199.7 906.819 1075.66C840.897 1022.5 779.583 968.27 720.04 916.17C665.814 868.324 614.069 822.958 566.577 785.39C436.152 680.837 324.155 557.145 205.071 426.719C81.0248 289.913 -46.2112 149.918 -196.839 32.9604C-196.484 33.6693 -196.484 34.0237 -196.484 34.7325C-46.9201 151.69 79.9616 290.977 204.008 427.073C323.092 557.854 434.734 681.191 565.16 785.744C612.652 823.313 663.688 869.033 718.977 916.525C778.519 968.624 839.834 1022.85 905.755 1076.37C1009.25 1160.01 1097.14 1221.32 1182.56 1269.17C1289.59 1329.07 1388.47 1364.86 1484.87 1379.04C1564.26 1390.74 1646.49 1390.03 1730.49 1377.27C1804.56 1365.93 1881.47 1345.02 1959.09 1314.89C1973.62 1309.22 1987.79 1303.19 2002.32 1297.17C2001.97 1296.82 2001.97 1296.46 2001.97 1296.11C1987.08 1302.49 1972.55 1308.51 1958.02 1314.18Z" fill="#DEAD62" fill-opacity="0.1"/>
<path d="M1498.35 1388.61C1210.91 1346.43 942.974 1106.14 728.197 913.335C674.325 865.134 623.289 819.414 577.215 781.137C446.434 674.103 334.438 547.576 214.999 413.606C87.0545 269.358 -43.7257 121.92 -199.67 0C-200.024 0.354418 -199.67 1.06325 -199.67 1.77209C-44.0801 123.692 86.3457 270.421 213.582 413.96C332.666 548.285 445.371 674.457 575.797 781.846C622.226 820.123 672.553 865.489 726.424 913.69C941.556 1106.85 1209.5 1347.5 1497.64 1389.67C1575.61 1401.37 1656.77 1401.01 1739 1388.61C1811.65 1377.62 1887.14 1357.07 1963.34 1327.65C1978.23 1321.98 1993.11 1315.95 2008 1309.22C2008 1308.87 2007.65 1308.87 2007.65 1308.51C1856.31 1374.43 1682.29 1415.9 1498.35 1388.61Z" fill="#DEAD62" fill-opacity="0.1"/>
</svg>
